<?xml version="1.0" standalone="no"?>
<!DOCTYPE svg PUBLIC "-//W3C//DTD SVG 20010904//EN"
 "http://www.w3.org/TR/2001/REC-SVG-20010904/DTD/svg10.dtd">
<svg version="1.0" xmlns="http://www.w3.org/2000/svg"
 width="512.000000pt" height="512.000000pt" viewBox="0 0 512.000000 512.000000"
 preserveAspectRatio="xMidYMid meet">

<g transform="translate(0.000000,512.000000) scale(0.100000,-0.100000)"
fill="#000000" stroke="none">
<path d="M2758 4334 c-36 -19 -48 -43 -48 -94 0 -41 4 -45 365 -412 201 -204
365 -375 365 -380 0 -4 -33 -8 -72 -9 -40 0 -439 -15 -887 -32 l-814 -32 380
375 c209 206 392 393 407 414 70 104 -17 206 -127 150 -122 -62 -873 -727
-979 -866 -24 -32 -50 -60 -58 -64 -8 -3 -170 -11 -360 -16 -385 -10 -420 -15
-491 -76 -108 -93 -88 -220 47 -297 l31 -18 62 -311 c33 -171 84 -408 112
-526 28 -118 77 -332 109 -475 94 -418 165 -617 258 -717 86 -93 154 -121 341
-143 290 -33 449 -38 951 -32 722 10 1196 36 1355 77 106 27 208 84 281 155
170 168 246 407 504 1597 67 308 94 416 107 423 39 24 96 81 114 116 25 50 35
137 20 182 -16 47 -63 92 -120 114 -40 15 -94 17 -406 21 l-359 3 -76 67 c-41
37 -127 117 -190 178 -63 61 -185 171 -270 246 -164 143 -237 213 -335 317
-32 35 -70 67 -83 72 -35 13 -103 10 -134 -7z m1547 -1356 c-78 -357 -372
-1518 -404 -1595 -59 -145 -121 -231 -185 -262 -58 -29 -341 -68 -593 -82
-312 -19 -1066 -16 -1418 4 -427 25 -456 31 -490 96 -8 16 -39 134 -69 263
-30 128 -125 527 -210 887 -86 359 -156 660 -156 669 0 13 47 14 432 8 663
-12 1532 -7 2283 13 374 10 710 19 748 20 65 1 67 0 62 -21z"/>
<path d="M2380 2592 c-13 -10 -25 -36 -31 -62 -12 -63 -11 -710 1 -795 16
-109 27 -135 67 -152 46 -19 86 -9 119 30 l27 32 -7 235 c-6 242 -20 496 -32
616 -5 52 -13 74 -30 91 -28 28 -82 31 -114 5z"/>
<path d="M1377 2500 c-46 -37 -39 -74 92 -505 140 -459 134 -441 174 -482 43
-45 96 -46 139 -2 30 29 30 32 25 102 -4 61 -28 134 -150 466 -80 216 -153
402 -164 412 -30 31 -83 35 -116 9z"/>
<path d="M3425 2480 c-12 -4 -26 -14 -32 -21 -13 -16 -279 -673 -299 -739 -19
-61 -17 -89 5 -126 42 -68 135 -63 180 9 20 33 216 569 262 716 22 72 18 117
-12 150 -21 22 -66 27 -104 11z"/>
</g>
</svg>
