<?xml version="1.0" standalone="no"?>
<!DOCTYPE svg PUBLIC "-//W3C//DTD SVG 20010904//EN"
 "http://www.w3.org/TR/2001/REC-SVG-20010904/DTD/svg10.dtd">
<svg version="1.0" xmlns="http://www.w3.org/2000/svg"
 width="512.000000pt" height="512.000000pt" viewBox="0 0 512.000000 512.000000"
 preserveAspectRatio="xMidYMid meet">

<g transform="translate(0.000000,512.000000) scale(0.100000,-0.100000)"
fill="#000000" stroke="none">
<path d="M2240 4814 c-19 -2 -84 -9 -145 -15 -131 -13 -282 -56 -348 -100 -60
-39 -101 -96 -129 -178 -22 -63 -23 -76 -18 -301 2 -129 4 -392 5 -585 l0
-350 -285 0 c-338 0 -328 3 -391 -111 -99 -180 -68 -293 158 -559 449 -532
907 -1019 1047 -1115 154 -105 285 -93 419 38 122 119 414 446 808 907 212
248 415 484 452 526 94 107 109 163 64 230 -45 68 -50 69 -454 69 l-363 0 0
75 c0 42 7 268 16 503 8 235 14 499 12 587 -3 143 -6 165 -26 202 -50 95 -129
148 -245 163 -75 11 -516 21 -577 14z m609 -125 c26 -7 59 -27 81 -49 62 -62
64 -83 51 -467 -6 -186 -13 -432 -16 -548 -3 -115 -7 -256 -10 -313 -5 -99 -4
-104 20 -128 l24 -24 390 0 c371 0 391 -1 400 -19 13 -24 42 12 -490 -607
-625 -728 -854 -978 -890 -972 -10 2 -87 80 -170 173 -476 532 -840 952 -1073
1235 -99 120 -126 160 -124 180 l3 25 393 5 c334 4 394 7 403 20 7 10 9 222 5
665 -4 451 -3 662 5 688 5 21 28 56 49 77 42 42 82 54 225 70 117 13 670 4
724 -11z"/>
<path d="M3912 3811 c-8 -5 -36 -82 -63 -172 -52 -173 -53 -200 -10 -214 39
-12 59 11 87 103 14 48 34 116 45 151 22 73 24 112 7 129 -14 14 -47 15 -66 3z"/>
<path d="M4181 3518 c-78 -72 -143 -140 -146 -149 -13 -38 35 -81 69 -62 37
21 296 277 296 292 0 24 -31 51 -58 51 -13 0 -73 -49 -161 -132z"/>
<path d="M4075 3140 c-26 -29 -13 -66 27 -78 18 -6 113 -21 210 -33 146 -19
179 -21 192 -10 20 16 21 64 2 80 -12 10 -338 61 -391 61 -12 0 -30 -9 -40
-20z"/>
<path d="M1300 1290 l-395 -5 -58 -27 c-69 -33 -165 -130 -202 -203 -36 -73
-48 -166 -43 -323 6 -169 23 -227 88 -293 56 -58 114 -77 255 -85 216 -11
2774 -55 2839 -49 162 15 268 78 317 187 23 51 23 62 24 324 0 270 0 270 -26
319 -30 60 -92 109 -162 130 -85 26 -1566 40 -2637 25z m2200 -109 c382 -6
396 -7 437 -29 74 -39 78 -51 81 -265 4 -214 2 -220 -71 -259 -42 -23 -46 -23
-487 -26 -245 -1 -917 1 -1495 5 l-1050 8 -48 24 c-74 36 -78 50 -70 256 7
197 15 226 72 259 21 12 64 23 105 27 95 8 2029 9 2526 0z"/>
</g>
</svg>
