<?xml version="1.0" standalone="no"?>
<!DOCTYPE svg PUBLIC "-//W3C//DTD SVG 20010904//EN"
 "http://www.w3.org/TR/2001/REC-SVG-20010904/DTD/svg10.dtd">
<svg version="1.0" xmlns="http://www.w3.org/2000/svg"
 width="1280.000000pt" height="640.000000pt" viewBox="0 0 1280.000000 640.000000"
 preserveAspectRatio="xMidYMid meet">
<g transform="translate(0.000000,640.000000) scale(0.100000,-0.100000)"
fill="#000000" stroke="none">
<path d="M11224 3991 l-1191 -86 -139 -131 c-76 -73 -150 -144 -164 -159 -14
-15 -81 -80 -151 -145 l-125 -117 -765 -7 c-805 -7 -1677 -20 -2494 -36 -1117
-22 -1727 -31 -2585 -39 -996 -10 -940 -13 -940 50 0 32 28 76 299 457 106
150 191 275 189 278 -3 2 -202 -81 -444 -184 -697 -300 -1054 -430 -1461 -532
-356 -89 -631 -127 -995 -137 -207 -6 -229 -8 -245 -25 -16 -18 -16 -22 7 -65
13 -25 35 -52 48 -61 17 -11 138 -27 430 -58 479 -51 695 -76 927 -110 679
-100 1182 -262 1523 -492 53 -36 106 -65 116 -64 38 2 116 104 103 135 -3 7
-77 107 -166 222 -88 116 -161 218 -161 227 0 38 -104 34 1495 58 363 5 964
14 1335 20 371 5 986 14 1365 20 380 6 978 15 1330 20 352 5 746 11 876 12
l236 2 386 -253 386 -253 573 -8 c315 -5 855 -12 1199 -16 685 -8 704 -6 755
47 25 26 26 31 15 56 -21 47 -70 101 -121 134 -26 17 -189 95 -362 173 -344
157 -324 141 -293 225 25 69 21 160 -9 227 -14 31 -26 61 -26 68 0 6 145 108
322 226 177 118 330 223 340 233 36 35 11 121 -47 157 -25 16 -48 20 -106 19
-41 -1 -610 -40 -1265 -88z m809 -68 c9 -16 -24 -73 -53 -94 -34 -26 -39 -49
-10 -49 15 0 20 -7 20 -28 0 -38 -17 -58 -70 -81 -25 -10 -61 -31 -80 -45 -19
-15 -57 -33 -84 -41 -27 -8 -59 -24 -70 -34 -34 -32 -211 -72 -287 -65 -58 6
-68 4 -103 -21 -70 -48 -79 -48 -131 -7 l-46 37 7 53 c6 52 6 52 -17 43 -13
-5 -37 -16 -54 -24 -16 -9 -75 -37 -130 -63 -99 -47 -101 -47 -227 -53 -112
-5 -129 -8 -150 -28 -30 -29 -88 -49 -166 -58 -54 -6 -63 -5 -69 11 -5 13 15
38 83 103 153 147 295 235 429 267 109 26 213 59 297 95 l78 33 50 -18 c34
-12 70 -17 112 -15 80 5 85 -10 16 -55 -58 -37 -85 -63 -75 -73 21 -20 110
-13 242 21 188 47 248 69 303 110 40 29 152 84 174 86 4 0 9 -3 11 -7z m-1303
-73 c11 -7 12 -15 5 -37 -8 -22 -27 -36 -86 -65 -54 -25 -83 -46 -97 -70 -31
-49 -125 -123 -219 -173 l-82 -44 -25 20 c-28 22 -38 23 -82 7 -28 -10 -38 -9
-68 7 l-35 19 -63 -28 c-269 -119 -332 -135 -378 -98 -25 20 -25 21 -7 55 10
18 52 59 92 91 41 31 93 78 115 105 24 28 67 62 101 80 32 18 73 44 91 59 27
22 41 27 88 27 93 -1 142 -51 88 -89 -35 -24 -14 -19 96 24 268 105 309 118
381 119 39 0 77 -3 85 -9z m208 -560 c37 -23 78 -44 92 -47 14 -3 33 -10 44
-15 15 -8 16 -12 5 -19 -20 -13 -1059 -12 -1059 1 0 6 10 10 21 10 46 0 101
25 131 59 l32 36 215 5 c119 3 269 7 334 8 l118 2 67 -40z m774 -15 c-2 -27
-6 -52 -9 -55 -2 -3 -59 -5 -126 -5 l-122 0 -3 31 c-2 16 2 42 7 57 l11 28
122 -3 123 -3 -3 -50z m-61 -206 c16 -11 46 -25 65 -31 54 -14 156 -96 152
-121 -2 -11 -10 -24 -19 -30 -16 -10 -34 -4 -105 38 -29 17 -32 17 -64 2 -43
-22 -57 -21 -65 3 -4 11 -26 39 -51 62 -50 47 -53 60 -22 82 31 22 74 20 109
-5z m-218 -94 c94 -85 102 -104 66 -148 -50 -65 -149 -55 -317 33 -143 76
-175 58 -85 -47 34 -40 43 -57 35 -65 -8 -8 -15 -8 -25 0 -21 18 -57 17 -110
-1 -28 -10 -59 -14 -75 -11 -70 17 -283 143 -315 186 -12 16 -39 39 -59 49
-21 11 -38 26 -38 33 0 7 21 23 48 34 45 20 63 21 418 19 l370 -2 87 -80z
m-1459 40 c14 -19 39 -41 54 -50 17 -11 41 -45 66 -97 l39 -81 -27 -24 c-15
-12 -35 -23 -44 -23 -30 0 -119 47 -211 112 -50 35 -112 77 -138 93 -30 19
-49 38 -51 52 -5 36 45 51 174 52 l112 1 26 -35z m339 15 c20 -11 52 -28 70
-38 18 -9 68 -53 111 -96 97 -98 96 -111 -7 -103 -101 9 -151 29 -273 108 -59
38 -111 69 -116 69 -4 0 -8 13 -8 30 0 24 5 31 28 36 15 3 32 7 37 9 34 12
124 3 158 -15z"/>
</g>
</svg>
