<?xml version="1.0" standalone="no"?>
<!DOCTYPE svg PUBLIC "-//W3C//DTD SVG 20010904//EN"
 "http://www.w3.org/TR/2001/REC-SVG-20010904/DTD/svg10.dtd">
<svg version="1.0" xmlns="http://www.w3.org/2000/svg"
 width="512.000000pt" height="512.000000pt" viewBox="0 0 512.000000 512.000000"
 preserveAspectRatio="xMidYMid meet">

<g transform="translate(0.000000,512.000000) scale(0.100000,-0.100000)"
fill="#000000" stroke="none">
<path d="M1556 5110 c-430 -68 -767 -371 -884 -797 l-27 -98 0 -1655 0 -1655
27 -98 c107 -387 392 -672 775 -774 85 -23 119 -26 253 -27 127 0 171 4 242
22 113 28 228 73 301 117 32 19 537 386 1121 814 925 679 1073 791 1149 870
138 146 218 294 269 499 33 131 30 350 -5 483 -53 200 -144 363 -278 497 -51
51 -401 314 -1135 853 -584 428 -1088 794 -1120 814 -74 44 -189 89 -297 116
-95 23 -301 33 -391 19z m351 -449 c34 -12 85 -37 115 -55 117 -70 2115 -1543
2173 -1602 240 -242 245 -632 13 -877 -82 -86 -2143 -1599 -2234 -1639 -193
-87 -421 -74 -601 34 -119 71 -229 210 -276 348 l-22 65 -3 1603 c-3 1772 -6
1664 62 1800 84 168 227 283 410 333 97 26 273 21 363 -10z"/>
</g>
</svg>
