<?xml version="1.0" standalone="no"?>
<!DOCTYPE svg PUBLIC "-//W3C//DTD SVG 20010904//EN"
 "http://www.w3.org/TR/2001/REC-SVG-20010904/DTD/svg10.dtd">
<svg version="1.0" xmlns="http://www.w3.org/2000/svg"
 width="1600.000000pt" height="1200.000000pt" viewBox="0 0 1600.000000 1200.000000"
 preserveAspectRatio="xMidYMid meet">

<g transform="translate(0.000000,1200.000000) scale(0.100000,-0.100000)"
fill="#000000" stroke="none">
<path d="M4265 11353 c-17 -31 -43 -68 -83 -118 -4 -5 -17 -29 -29 -51 -12
-23 -33 -53 -47 -67 -14 -14 -26 -35 -26 -46 0 -11 -4 -22 -9 -26 -6 -3 -17
-39 -26 -80 -10 -41 -21 -75 -26 -75 -4 0 -6 7 -3 15 7 18 -20 19 -80 5 -48
-11 -64 3 -115 93 -34 60 -47 72 -36 35 5 -19 2 -17 -14 7 -12 17 -21 25 -21
19 0 -17 51 -158 62 -171 16 -20 -4 -15 -32 7 -20 15 -41 20 -99 20 l-74 0 23
-25 c13 -14 29 -25 37 -25 7 0 13 -4 13 -10 0 -17 -14 -11 -55 25 -29 25 -49
35 -74 35 -30 0 -32 -2 -20 -16 16 -20 37 -54 45 -75 3 -8 17 -23 32 -32 19
-12 22 -17 10 -17 -9 0 -37 21 -61 47 -27 29 -48 43 -56 39 -9 -6 -9 -13 2
-29 7 -12 22 -34 32 -49 30 -47 1 -31 -37 21 -26 34 -46 50 -70 56 -18 4 -36
7 -40 6 -5 0 -8 4 -8 10 0 7 14 10 35 7 29 -3 35 -1 35 15 0 18 -6 19 -87 13
-49 -3 -100 -6 -115 -6 -32 -1 -47 -18 -27 -31 11 -7 9 -9 -6 -10 -11 -1 -26
-1 -32 0 -7 1 -13 -3 -13 -9 0 -5 -6 -10 -14 -10 -13 0 -44 -41 -71 -95 -16
-30 -48 -25 -59 8 -7 18 -7 31 -1 35 18 13 15 32 -5 33 -11 1 -24 3 -30 4 -5
1 -16 4 -22 5 -7 1 -2 6 12 10 17 5 19 8 8 9 -10 1 -18 6 -18 12 0 8 -5 7 -15
-1 -13 -11 -19 -9 -36 8 -25 27 -45 28 -59 2 -12 -23 -35 -27 -26 -5 3 9 0 15
-9 15 -7 0 -16 -9 -20 -19 -4 -13 -12 -18 -23 -14 -10 3 -7 -2 7 -12 19 -15
25 -15 32 -4 7 9 7 5 3 -13 -5 -22 -3 -28 11 -28 15 0 15 -3 5 -15 -8 -10 -21
-13 -33 -9 -13 4 -17 2 -13 -5 5 -7 -2 -11 -18 -11 -27 0 -35 15 -13 23 6 3
-1 6 -16 6 -16 1 -26 5 -22 10 3 5 -2 17 -11 25 -15 15 -8 21 19 17 12 -2 8
27 -5 32 -24 8 -58 -15 -58 -40 0 -12 -4 -23 -10 -23 -5 0 -10 7 -10 16 0 12
-5 14 -17 9 -32 -13 -63 -18 -63 -9 0 5 16 19 35 32 19 12 35 27 35 33 0 5 -4
7 -10 4 -5 -3 -10 0 -10 7 -1 9 -5 7 -14 -4 -9 -12 -16 -14 -23 -7 -8 8 -20 2
-42 -22 -17 -19 -31 -38 -31 -42 0 -5 -9 -6 -19 -2 -11 3 -22 1 -26 -5 -11
-18 -1 -20 35 -10 18 5 39 6 47 1 11 -6 5 -14 -24 -34 -22 -15 -49 -27 -61
-27 -12 0 -22 -4 -22 -8 0 -5 -6 -9 -12 -9 -7 0 -25 -4 -40 -8 -37 -10 -35 1
3 20 28 15 29 18 13 29 -9 7 -14 18 -10 24 12 20 -26 13 -69 -11 -32 -18 -41
-29 -43 -55 -4 -36 3 -39 36 -16 13 9 26 13 29 10 8 -8 -27 -35 -44 -36 -7 0
-13 -10 -13 -22 0 -31 -2 -33 -108 -118 -52 -41 -89 -76 -83 -78 5 -2 29 11
53 28 24 17 68 50 97 71 47 34 60 40 88 34 26 -5 33 -3 33 10 0 11 6 14 25 9
21 -5 24 -3 20 17 -3 13 1 36 7 51 10 21 18 27 37 23 32 -6 36 -12 22 -29 -17
-20 22 -58 63 -63 46 -5 51 -18 14 -39 -84 -49 -126 -67 -141 -61 -28 10 -19
24 18 30 19 3 47 15 62 26 23 19 24 21 6 21 -11 0 -26 7 -33 15 -7 8 -17 15
-22 15 -6 0 -8 -7 -4 -15 5 -13 -5 -20 -26 -16 -5 0 -8 -5 -8 -12 0 -8 -6 -14
-12 -15 -58 -6 -94 -15 -106 -24 -7 -7 -55 -31 -105 -54 -76 -35 -95 -41 -110
-31 -27 18 -21 29 28 57 24 14 60 40 79 58 19 17 39 32 45 32 15 0 14 62 -1
95 -13 29 -19 30 -59 9 -38 -19 -46 -13 -25 18 8 13 15 33 16 46 0 12 0 32 0
44 1 12 6 26 13 30 9 6 9 8 -1 8 -8 0 -16 -9 -19 -20 -3 -11 -8 -20 -12 -20
-3 0 -7 -14 -8 -32 0 -18 -6 -34 -12 -36 -6 -2 -11 -13 -11 -23 0 -11 -4 -17
-10 -14 -6 4 -10 -5 -10 -21 0 -20 3 -24 13 -17 6 6 25 13 42 17 l30 8 -25
-20 c-14 -11 -34 -21 -45 -23 -16 -3 -20 -13 -21 -47 -3 -76 -25 -95 -37 -32
-5 21 -11 28 -22 24 -10 -4 -15 0 -15 10 0 10 8 16 21 16 20 0 21 3 14 53 -4
28 -8 63 -10 77 -1 14 -3 28 -4 33 0 4 -13 7 -28 7 -26 0 -26 1 -7 14 10 8 15
18 11 22 -4 5 -16 3 -25 -4 -18 -13 -22 -15 -66 -28 -42 -13 -55 -38 -32 -63
10 -11 28 -19 39 -18 28 3 44 -59 18 -68 -25 -8 -96 -9 -108 -2 -6 4 -16 0
-23 -8 -7 -8 -9 -15 -5 -15 4 0 0 -12 -10 -26 -14 -22 -15 -28 -4 -35 10 -6 8
-9 -8 -9 -12 0 -27 9 -32 19 -15 27 -89 67 -136 74 -30 5 -47 2 -69 -12 -25
-17 -26 -20 -10 -24 17 -4 17 -5 2 -6 -10 0 -18 -3 -18 -6 0 -12 24 -55 32
-55 4 0 8 -8 8 -17 0 -14 -3 -14 -22 4 -53 47 -113 73 -171 73 l-57 0 0 -42
c0 -23 7 -70 16 -106 9 -35 13 -66 10 -69 -8 -8 -36 17 -36 33 0 19 -65 84
-84 84 -12 0 -16 10 -16 43 0 23 -7 53 -16 65 -8 12 -16 38 -17 57 -1 19 -6
35 -12 35 -5 0 -4 4 3 9 11 7 11 9 -2 14 -9 4 -16 13 -16 20 0 8 -9 22 -20 32
-20 18 -20 17 -20 -7 0 -17 7 -27 19 -31 25 -6 32 -73 14 -157 -7 -36 -13 -79
-13 -97 0 -61 -11 -54 -127 88 -21 25 -55 68 -77 94 -37 45 -83 79 -191 140
l-50 29 25 -28 c13 -14 52 -47 86 -72 52 -38 100 -88 172 -179 9 -12 24 -48
22 -55 0 -3 -12 -4 -25 -2 -27 4 -78 -25 -69 -40 3 -5 0 -8 -7 -6 -23 5 -109
-33 -119 -52 -8 -14 -6 -19 8 -22 9 -3 -21 -5 -67 -6 -47 -1 -87 -6 -90 -11
-4 -5 -29 -13 -56 -16 -58 -8 -65 -11 -65 -29 0 -30 28 -40 73 -26 80 24 163
29 229 14 34 -8 74 -12 88 -9 15 3 39 -1 56 -10 16 -8 23 -15 17 -15 -8 0 -13
-15 -13 -40 0 -22 4 -40 10 -40 8 0 26 -66 22 -80 -2 -5 -9 -6 -84 -11 -59 -3
-54 -14 10 -23 27 -3 52 -9 56 -13 3 -4 -6 -19 -21 -35 l-27 -28 -24 27 c-14
16 -38 49 -53 74 -27 44 -70 71 -77 49 -2 -5 -14 -3 -27 6 -21 14 -24 13 -46
-14 -13 -16 -39 -34 -57 -42 -38 -15 -43 -34 -6 -27 19 3 24 1 20 -10 -4 -9 1
-13 17 -12 12 1 45 1 72 0 46 -1 48 -3 31 -16 -15 -11 -16 -15 -5 -19 26 -9
44 -9 71 -2 20 6 32 3 45 -9 16 -17 16 -18 -2 -31 -10 -8 -26 -26 -36 -40 -19
-30 -88 -59 -103 -44 -16 16 -14 50 2 50 10 0 13 7 9 21 -4 15 -1 19 11 17 12
-2 16 -11 14 -30 -3 -27 12 -46 23 -28 3 5 1 10 -5 10 -6 0 -8 5 -5 11 4 5 4
21 1 33 -10 39 -64 39 -134 0 -6 -4 41 -94 49 -94 5 0 6 -7 3 -15 -4 -9 4 -23
17 -34 l24 -19 -20 -23 c-17 -19 -18 -22 -2 -16 9 4 17 2 17 -4 0 -6 7 -3 16
6 25 24 95 57 134 62 40 5 36 0 -31 -44 -25 -16 -60 -33 -78 -36 -54 -11 -101
-45 -101 -73 0 -16 -8 -28 -25 -36 -28 -12 -32 -23 -40 -90 -7 -55 9 -72 36
-40 13 17 26 21 57 19 31 -1 38 -5 30 -15 -6 -7 -13 -10 -16 -7 -3 3 -12 -1
-20 -7 -17 -14 -135 -17 -197 -5 -29 5 -20 -1 34 -22 41 -17 78 -34 82 -38 5
-5 5 -28 1 -52 -6 -39 -11 -45 -47 -60 -55 -22 -155 -81 -155 -91 0 -17 36
-48 69 -59 19 -6 53 -11 76 -11 57 0 61 -9 17 -38 -56 -37 -82 -64 -75 -76 3
-6 3 -8 -2 -4 -5 5 -22 -3 -39 -16 -17 -12 -44 -31 -61 -40 -24 -14 -26 -16
-6 -10 l24 6 -23 -32 c-20 -28 -70 -70 -145 -123 -35 -25 -30 -58 10 -69 17
-4 80 -8 141 -8 101 -1 116 2 182 30 80 34 89 35 115 16 17 -13 17 -15 -2 -47
-12 -19 -21 -41 -21 -49 0 -8 -13 -49 -29 -90 -52 -133 -81 -214 -78 -216 4
-4 120 174 142 219 11 20 23 37 27 37 10 0 1 -39 -13 -56 -9 -11 -9 -18 -1
-26 8 -8 23 -6 57 7 25 9 49 14 52 11 4 -3 4 -7 2 -9 -42 -30 -68 -57 -55 -57
9 0 16 -5 16 -10 0 -6 -10 -8 -24 -4 -13 3 -27 1 -30 -5 -4 -6 0 -11 9 -11 27
0 11 -25 -18 -28 -32 -4 -34 -13 -7 -37 11 -10 20 -24 20 -32 0 -8 4 -12 9 -9
5 4 5 -11 0 -35 -5 -22 -7 -44 -4 -49 3 -5 -10 -8 -30 -6 -22 1 -34 -2 -32 -8
7 -19 -19 -36 -32 -23 -10 9 -16 7 -27 -8 -13 -17 -12 -21 13 -41 16 -12 31
-20 35 -18 3 2 15 -12 27 -31 l20 -35 -22 -16 c-14 -10 -18 -18 -10 -21 7 -2
9 -11 6 -18 -7 -19 -43 -1 -43 21 0 9 -6 14 -12 11 -10 -3 -12 -32 -11 -108 5
-208 4 -262 -7 -273 -5 -5 -10 -20 -10 -33 0 -13 -4 -23 -8 -23 -5 0 -9 -13
-10 -29 -1 -36 26 -50 45 -25 9 13 13 14 13 4 0 -11 3 -11 12 -2 16 16 38 15
38 -1 0 -8 -9 -13 -20 -13 -10 1 -18 -3 -17 -7 3 -14 -36 -32 -41 -19 -8 25
-27 10 -29 -23 -3 -38 10 -46 27 -16 12 23 38 21 56 -3 12 -17 19 -17 83 -6
40 8 72 19 75 27 7 17 -18 17 -83 -3 -29 -8 -55 -13 -59 -10 -6 7 91 51 135
60 38 9 41 16 57 116 3 19 10 49 16 65 l10 30 -5 -34 c-4 -28 -2 -32 12 -27
16 6 16 6 0 -12 -9 -10 -17 -33 -17 -50 l0 -31 60 24 c52 20 68 22 127 16 l68
-8 -78 -2 c-61 -1 -88 -6 -127 -26 -45 -23 -72 -45 -53 -45 4 0 55 7 113 15
58 8 119 14 135 14 49 -1 -72 -35 -172 -49 -92 -12 -123 -23 -123 -44 0 -8 30
-17 94 -25 143 -19 298 -56 352 -86 l49 -26 -75 6 c-41 4 -120 13 -175 21
-402 61 -445 65 -445 39 0 -12 15 -15 73 -15 39 0 90 -5 112 -11 74 -20 169
-74 220 -124 49 -49 85 -91 85 -99 0 -6 -155 56 -213 85 -12 7 -17 5 -17 -6 0
-8 -21 -36 -47 -62 -27 -26 -48 -54 -48 -62 0 -9 -9 -17 -21 -19 -16 -2 -21
-10 -22 -32 0 -17 2 -30 5 -30 3 0 21 16 40 35 31 32 39 35 94 35 41 0 58 -3
53 -11 -7 -12 -123 -69 -140 -69 -6 0 -21 -9 -34 -20 -13 -11 -34 -20 -47 -20
-25 0 -67 -35 -59 -49 3 -5 34 -12 70 -15 55 -6 65 -11 75 -32 15 -35 14 -37
-9 -14 -18 18 -29 21 -84 24 -26 1 -33 -22 -9 -32 10 -4 19 -14 21 -22 3 -11
-1 -10 -17 4 -11 10 -24 15 -29 12 -14 -8 -7 -51 9 -51 8 0 17 -4 21 -10 4 -5
27 1 57 16 60 31 58 15 -4 -26 -24 -17 -45 -32 -46 -35 -5 -26 -4 -50 3 -50 4
0 8 7 8 15 0 8 5 15 11 15 6 0 8 -7 5 -16 -4 -11 1 -18 14 -21 24 -6 28 -58 5
-70 -11 -7 -14 -18 -9 -40 5 -27 14 -34 66 -54 52 -19 71 -21 154 -16 58 4 94
3 94 -3 0 -6 -7 -10 -16 -10 -9 0 -28 -6 -42 -13 -15 -8 -58 -29 -96 -48 -58
-29 -106 -71 -106 -93 0 -3 23 -6 50 -6 28 0 50 -4 50 -10 0 -5 -39 -28 -87
-51 -93 -44 -112 -61 -113 -96 0 -19 -25 -43 -44 -43 -8 0 6 33 22 53 20 23
-4 24 -30 0 -12 -10 -18 -12 -18 -4 0 7 -5 9 -10 6 -6 -4 -9 -30 -8 -58 1 -29
3 -46 6 -39 2 6 7 12 12 12 10 0 1 -82 -11 -94 -16 -18 -10 -74 9 -88 10 -7
22 -30 25 -52 5 -33 3 -39 -15 -44 -11 -3 -41 -16 -65 -29 -24 -12 -56 -23
-72 -23 -15 0 -32 -5 -38 -11 -7 -7 -22 -12 -34 -13 -42 -2 -35 -27 17 -63 23
-17 41 -21 77 -18 26 2 49 0 52 -6 9 -13 36 -11 69 6 31 16 86 12 86 -6 0 -5
-7 -21 -16 -34 -21 -33 -44 -146 -46 -228 -1 -37 -5 -70 -9 -73 -13 -8 -29 32
-30 73 0 21 -15 69 -34 108 l-33 70 -1 -167 c-1 -139 -3 -168 -15 -168 -8 0
-18 5 -21 10 -3 6 -11 10 -17 10 -6 0 -5 -6 3 -16 11 -13 9 -14 -14 -9 -50 13
-157 -56 -109 -71 9 -3 24 -10 32 -15 8 -5 23 -12 32 -15 45 -15 103 -54 107
-70 2 -11 -8 -28 -25 -42 l-29 -25 28 17 c26 16 27 16 27 -7 0 -13 -12 -33
-26 -46 -30 -26 -29 -64 1 -70 11 -2 23 -8 27 -14 4 -7 18 -5 43 9 31 16 37
17 45 4 8 -12 -5 -29 -55 -77 -90 -86 -185 -202 -179 -218 8 -20 66 -44 105
-45 73 0 83 -5 90 -41 5 -22 3 -37 -4 -42 -7 -4 -71 -6 -143 -4 -131 5 -131 5
-195 -27 -46 -22 -65 -37 -67 -53 -3 -18 4 -24 40 -33 24 -7 81 -28 128 -47
64 -27 99 -36 143 -35 55 0 79 -10 57 -23 -5 -3 -10 -14 -10 -24 0 -10 -9 -26
-20 -36 -11 -10 -20 -31 -20 -47 0 -38 -20 -74 -80 -147 -32 -38 -48 -66 -44
-76 4 -8 1 -22 -6 -30 -10 -12 -10 -18 1 -31 14 -17 47 -16 154 2 l40 7 -45
-37 c-25 -20 -53 -35 -62 -32 -10 2 -15 -1 -12 -8 3 -7 -7 -18 -21 -24 -14 -6
-25 -16 -25 -22 0 -20 65 -50 107 -50 41 0 63 -13 43 -25 -5 -3 -10 -21 -10
-40 0 -33 -1 -34 -37 -29 -32 4 -34 3 -16 -5 20 -9 23 -18 23 -64 0 -29 -6
-59 -13 -66 -10 -11 -9 -13 6 -8 36 13 14 -10 -49 -50 -97 -62 -239 -223 -195
-223 16 0 31 27 25 43 -4 12 8 25 43 47 26 17 59 33 73 37 14 3 46 18 71 34
25 16 51 29 57 29 21 0 14 -82 -12 -130 -13 -25 -40 -87 -61 -139 -32 -82 -38
-108 -42 -200 -3 -58 -3 -103 1 -100 3 3 13 46 21 95 8 49 22 109 29 134 21
63 67 162 73 156 3 -3 6 -23 7 -43 1 -31 4 -37 19 -35 18 3 37 -13 56 -48 5
-9 2 -25 -6 -40 -14 -24 -14 -24 -9 12 4 29 1 38 -10 38 -8 0 -17 -13 -20 -29
-4 -20 -11 -28 -20 -24 -17 6 -19 -18 -2 -35 9 -9 9 -12 0 -12 -7 0 -12 -11
-12 -25 0 -18 5 -25 20 -25 23 0 26 -10 8 -28 -15 -15 -19 -60 -5 -59 33 1 45
-5 43 -20 0 -10 5 -18 12 -19 6 -1 17 -2 22 -3 6 0 10 -5 10 -11 0 -5 -7 -7
-15 -4 -9 4 -15 1 -15 -7 0 -9 13 -15 36 -16 57 -3 62 -18 15 -42 -45 -23 -49
-32 -25 -52 14 -11 14 -13 -1 -21 -10 -6 -14 -17 -10 -31 l6 -22 -18 21 c-10
11 -31 26 -48 32 -28 11 -28 11 -11 -3 11 -8 21 -25 23 -37 3 -20 2 -21 -15
-5 -10 9 -22 17 -26 17 -8 0 -6 -168 2 -183 2 -5 13 10 24 32 12 24 27 41 37
41 9 0 39 22 65 49 29 30 77 63 120 83 39 19 87 42 106 51 19 9 58 30 85 47
28 16 64 37 80 46 37 19 -380 -396 -424 -422 -27 -16 -31 -24 -31 -59 0 -35 4
-42 29 -53 72 -32 121 -121 121 -219 0 -24 4 -43 9 -43 10 0 25 -56 22 -82 -1
-10 2 -18 6 -18 5 0 7 -16 5 -35 -4 -29 -1 -34 12 -29 22 8 20 -8 -5 -59 -11
-23 -20 -61 -20 -85 0 -47 -7 -52 -29 -21 -8 11 -20 28 -27 37 -16 24 -24 11
-17 -26 5 -25 12 -32 30 -32 28 0 41 -23 39 -69 -1 -26 -8 -37 -28 -48 -27
-14 -39 -63 -16 -63 6 0 9 9 6 19 -4 16 -1 18 15 12 27 -10 89 -1 87 13 -3 25
2 36 16 36 9 0 18 -7 21 -15 4 -8 16 -15 29 -15 12 0 28 -6 34 -14 13 -16 6
-119 -9 -124 -6 -2 -10 -22 -10 -44 0 -22 -5 -58 -12 -80 -17 -57 -1 -68 58
-40 46 23 134 85 188 134 16 15 33 25 37 22 5 -2 27 9 50 26 l43 30 27 -26
c15 -14 32 -23 37 -20 6 4 14 2 17 -4 4 -6 2 -9 -3 -8 -20 6 -16 -15 5 -30 19
-12 23 -12 23 -1 0 11 2 11 8 1 7 -10 14 -10 37 2 34 18 45 13 38 -14 -4 -16
-2 -19 11 -14 9 3 16 11 16 16 0 5 10 18 22 29 25 20 122 27 133 9 3 -5 -12
-18 -35 -30 -24 -12 -40 -27 -40 -38 0 -10 -5 -23 -11 -29 -8 -8 -8 -13 0 -17
6 -4 11 -3 11 2 0 6 14 7 35 2 32 -7 38 -5 61 24 l26 31 -4 -56 c-3 -38 -16
-79 -42 -131 -31 -63 -36 -80 -26 -97 18 -35 37 -24 55 32 9 28 22 55 28 59 6
3 17 30 24 59 8 29 19 57 26 61 6 4 8 10 5 14 -8 8 21 86 36 96 16 11 26 9 24
-4 -2 -8 12 -13 37 -15 22 -1 41 -7 43 -13 6 -18 34 -11 54 15 23 30 42 33 35
5 -4 -15 2 -24 25 -36 30 -15 30 -17 26 -80 -3 -54 -1 -64 12 -64 9 0 21 5 28
12 8 8 18 -4 38 -51 15 -34 29 -59 31 -57 3 3 -4 34 -16 70 -20 63 -20 66 -3
100 18 37 32 46 32 21 0 -23 30 -18 40 8 l9 22 0 -22 c1 -20 7 -23 37 -23 39
0 83 28 76 48 -2 6 3 12 12 12 9 0 16 6 16 13 0 7 7 4 15 -7 8 -11 18 -16 22
-13 4 4 1 13 -5 19 -8 8 -7 15 6 25 9 7 13 12 7 11 -5 -2 -12 2 -15 7 -3 6 10
11 28 13 17 2 32 0 33 -5 0 -4 2 -16 4 -25 2 -9 -3 -22 -11 -29 -8 -6 -14 -8
-14 -3 0 14 -20 -19 -20 -33 0 -7 9 -13 20 -13 11 0 20 6 20 13 0 6 7 20 14
30 12 15 18 16 35 7 12 -6 21 -7 21 -2 0 15 -28 34 -40 27 -22 -14 -8 24 20
54 17 17 35 43 40 56 10 26 30 34 30 12 0 -20 -37 -87 -44 -80 -9 9 -7 -20 3
-36 6 -8 16 -11 31 -6 12 4 28 8 34 10 6 1 19 5 29 10 35 15 31 -7 -17 -101
-27 -51 -47 -97 -44 -100 3 -3 29 31 58 74 l53 80 33 -14 c37 -15 40 -13 24
16 -6 11 -17 17 -25 14 -9 -4 -15 0 -15 10 0 9 4 15 9 14 5 -2 17 6 26 17 16
20 16 20 5 -2 -9 -20 -8 -23 10 -23 14 0 19 4 15 13 -4 6 1 3 9 -7 9 -11 16
-15 16 -8 0 24 45 8 51 -18 5 -23 7 -21 19 18 7 23 16 41 19 40 3 -2 25 -12
49 -23 23 -11 42 -25 42 -31 0 -6 7 -17 16 -25 13 -11 14 -9 9 13 -4 14 -2 28
3 32 5 3 7 17 4 31 -4 22 -1 25 22 25 31 0 36 29 6 37 -20 5 -28 23 -11 23 5
0 18 3 28 7 16 6 17 5 3 -12 -14 -17 -13 -18 14 -13 16 3 42 1 57 -4 18 -6 34
-6 46 0 14 9 24 1 60 -48 23 -32 47 -61 52 -65 15 -9 14 11 -3 43 -17 34 -31
79 -21 70 4 -4 16 -3 26 3 11 5 19 6 18 2 -6 -37 35 -62 69 -44 16 8 24 8 36
-4 8 -8 22 -15 31 -15 11 0 15 -5 11 -15 -8 -22 14 -18 41 6 18 17 25 19 37
10 7 -6 19 -10 26 -9 6 2 17 -5 23 -15 10 -15 9 -21 -5 -31 -16 -12 -16 -14 3
-29 10 -9 26 -17 34 -17 8 0 15 -4 15 -10 0 -5 7 -10 15 -10 8 0 15 -9 15 -20
0 -25 28 -27 37 -3 3 10 11 25 18 33 7 8 18 54 25 102 13 83 14 86 41 90 16 3
43 3 59 0 26 -4 29 -7 18 -21 -7 -9 0 -5 15 8 35 32 47 19 18 -20 -29 -39 -22
-55 28 -69 24 -6 41 -17 41 -25 0 -8 -4 -15 -9 -15 -14 0 -9 -39 6 -44 7 -3
25 -1 39 4 21 8 25 15 22 35 -3 15 -1 25 6 25 19 0 35 -21 28 -38 -4 -11 -1
-14 11 -9 18 7 33 -8 17 -18 -5 -3 -10 -17 -10 -31 0 -15 -6 -24 -15 -24 -20
0 -22 -30 -11 -178 6 -92 34 -153 83 -182 l36 -21 46 52 c59 67 72 105 74 204
2 78 1 82 -35 133 -40 55 -45 71 -26 90 6 6 11 27 10 47 -1 31 1 35 23 35 15
0 31 -10 41 -25 9 -14 25 -25 36 -25 26 0 20 -32 -8 -40 -18 -4 -20 -9 -13
-28 5 -12 13 -22 20 -22 6 0 9 -6 7 -12 -3 -7 -10 -13 -15 -13 -20 0 -24 -12
-8 -25 8 -7 15 -21 15 -32 0 -29 25 -80 53 -110 32 -35 51 -36 43 -4 -4 18 -1
25 14 29 28 7 68 -56 49 -79 -15 -18 4 -61 33 -70 27 -8 78 46 78 85 0 36 8
38 58 12 31 -16 40 -17 55 -6 9 7 17 22 17 34 0 27 -58 105 -102 137 -17 13
-34 27 -37 31 -3 5 -19 16 -36 25 -25 14 -30 22 -27 50 l3 33 -20 -25 c-11
-13 -17 -28 -15 -32 7 -10 7 -10 -46 6 -34 11 -39 15 -20 16 27 1 60 21 60 37
0 6 -16 14 -35 17 -19 4 -40 13 -47 20 -7 7 -62 30 -123 51 -60 20 -112 40
-115 42 -13 13 92 -8 113 -22 13 -8 57 -22 97 -31 40 -8 79 -21 87 -29 24 -24
62 -29 82 -11 10 9 22 16 27 14 15 -4 54 13 54 23 0 6 -16 17 -36 25 -29 12
-35 19 -32 41 4 35 28 43 28 9 0 -29 18 -44 31 -25 7 11 10 9 15 -9 7 -23 7
-23 35 10 28 32 29 32 44 14 10 -14 12 -24 4 -38 -13 -24 -6 -33 16 -20 23 12
65 3 65 -14 0 -9 -11 -14 -32 -14 -17 0 -40 -8 -50 -17 -16 -15 -21 -15 -28
-3 -15 25 -24 1 -10 -25 10 -19 11 -28 2 -37 -8 -8 -13 -1 -18 31 -4 23 -11
44 -15 47 -12 7 -11 -8 2 -62 13 -49 28 -55 58 -23 13 14 26 19 40 14 26 -8
63 3 55 16 -3 6 2 21 10 34 12 19 13 25 4 25 -9 1 -8 5 3 13 18 14 135 15 132
2 -2 -5 -20 -10 -40 -11 -66 -3 -70 -5 -48 -14 13 -6 15 -9 5 -9 -8 -1 -21
-10 -28 -21 -12 -20 -11 -20 30 -3 24 9 47 20 52 24 5 4 19 1 32 -8 31 -20
172 -9 154 12 -6 7 -20 10 -32 7 -14 -3 -19 -1 -14 6 4 7 15 12 24 12 15 0 15
2 2 10 -25 16 -52 11 -57 -10 -3 -11 -12 -20 -20 -20 -10 0 -14 7 -11 18 4 14
-3 22 -26 30 -52 18 -116 25 -116 13 0 -21 -31 -11 -40 13 -5 13 -17 26 -27
29 -35 9 83 6 122 -3 47 -11 71 -6 80 18 11 28 -23 42 -109 43 l-81 2 72 9
c59 7 78 6 102 -7 38 -19 39 -19 43 8 2 14 11 23 26 25 22 3 23 5 7 22 -16 17
-16 18 1 16 10 -2 20 -8 22 -14 2 -7 8 -9 14 -6 6 4 6 -1 -1 -14 -11 -21 1
-119 17 -133 4 -4 31 -14 59 -24 48 -15 54 -15 69 -1 20 20 21 20 35 -5 8 -17
8 -23 -2 -29 -9 -6 -4 -15 17 -33 34 -30 44 -26 44 14 0 23 -4 29 -22 30 l-23
0 24 10 c20 8 22 14 17 39 -7 36 7 39 22 5 12 -26 32 -31 61 -15 10 5 44 12
75 15 31 3 65 11 76 17 15 10 22 10 32 0 15 -15 0 -46 -23 -48 -8 0 -18 -2
-24 -3 -13 -2 84 -51 102 -51 7 0 13 -6 13 -14 0 -30 26 -22 61 17 31 35 39
39 52 28 9 -7 18 -25 22 -40 5 -23 10 -27 30 -23 20 3 23 10 22 36 -2 17 -6
37 -10 44 -10 14 15 16 41 3 9 -5 41 -19 69 -31 29 -13 62 -33 74 -46 17 -18
25 -21 39 -11 14 8 22 8 34 -2 12 -10 20 -7 47 19 41 39 38 41 -100 70 -58 12
-108 25 -111 27 -11 11 220 -6 289 -21 41 -9 77 -14 79 -11 3 3 11 0 18 -6 8
-6 29 -15 49 -19 28 -6 37 -4 46 9 9 14 10 14 5 -2 -4 -12 1 -20 17 -26 27
-11 117 -3 135 12 7 5 15 7 19 3 3 -3 1 -6 -6 -6 -7 0 -9 -4 -6 -10 8 -13 55
-13 55 0 0 6 -7 10 -15 10 -8 0 -15 5 -15 10 0 13 17 13 25 0 8 -13 62 -13 70
0 3 6 -2 13 -12 17 -21 8 -47 32 -41 38 6 6 68 -27 68 -36 0 -5 5 -9 10 -9 6
0 23 -11 37 -24 22 -20 30 -23 50 -13 18 8 27 7 36 -3 9 -10 9 -13 0 -17 -24
-9 -13 -19 21 -18 19 0 32 3 30 7 -5 7 87 100 93 94 3 -2 -1 -15 -8 -28 -16
-29 -70 -201 -64 -206 2 -2 10 9 18 24 13 26 20 28 75 30 101 4 157 27 234 95
38 34 70 60 72 58 1 -2 10 -33 20 -69 10 -36 23 -72 30 -80 7 -8 20 -36 30
-62 18 -48 32 -53 53 -19 10 16 5 32 -28 97 -42 84 -64 181 -38 172 8 -3 14
-15 13 -27 -1 -40 21 -21 24 21 3 49 9 58 23 38 19 -31 30 -94 24 -141 -7 -50
2 -62 25 -34 6 8 21 13 32 12 16 -2 24 8 36 43 8 25 23 55 32 67 l17 21 29
-24 c30 -26 58 -40 137 -69 36 -13 49 -23 54 -43 3 -15 12 -36 20 -48 7 -11
10 -24 6 -27 -3 -4 -2 -7 4 -7 6 0 14 -12 17 -27 14 -56 67 -152 95 -172 57
-41 83 -25 95 58 10 77 -2 119 -53 172 -28 30 -47 59 -48 75 -2 25 -13 38 -37
47 -19 6 6 26 40 33 44 8 84 -9 84 -36 0 -26 25 -26 44 2 13 19 16 19 22 5 3
-9 14 -19 25 -22 36 -12 8 -25 -52 -25 -45 0 -59 -3 -59 -14 0 -19 20 -32 21
-14 0 7 4 3 9 -9 5 -13 14 -23 20 -23 6 0 8 -5 5 -10 -11 -18 6 -50 25 -50 10
0 22 -4 25 -10 3 -5 15 -10 26 -10 11 0 17 5 14 10 -3 5 -1 10 5 10 6 0 9 4 5
10 -3 5 -12 7 -20 3 -8 -3 -15 -1 -15 5 0 19 34 24 47 6 13 -18 43 -12 43 9 0
8 -11 19 -24 25 -19 8 -26 22 -33 59 -4 26 -6 58 -5 70 2 13 -3 23 -10 23 -7
0 -2 7 10 16 26 18 21 34 -11 35 -12 0 -16 3 -9 6 6 2 12 10 12 16 0 7 10 18
21 25 31 20 47 1 32 -38 -7 -18 -7 -30 -1 -32 5 -2 11 -24 12 -48 3 -50 24
-64 54 -37 21 18 77 47 92 47 5 0 10 -11 10 -25 0 -16 6 -25 15 -25 14 0 20
12 16 33 -1 4 7 3 18 -2 14 -8 21 -7 24 2 4 8 6 7 7 -3 0 -8 12 -28 25 -45 20
-24 27 -27 37 -17 10 10 10 14 -1 21 -8 5 -11 16 -7 26 4 12 0 23 -14 32 -28
20 -25 45 12 83 29 31 32 32 44 15 10 -13 10 -23 3 -37 -6 -11 -7 -27 -3 -36
4 -9 8 -23 10 -31 1 -8 16 -27 32 -43 17 -15 32 -32 34 -38 2 -8 13 -6 33 4
21 11 33 12 42 4 7 -5 20 -8 28 -4 9 3 13 2 10 -4 -3 -6 -1 -10 6 -10 7 0 10
-13 7 -34 -2 -19 -1 -33 3 -30 4 2 10 0 14 -6 3 -5 22 -17 41 -26 30 -15 37
-15 52 -2 9 8 39 25 66 37 39 18 51 20 57 9 6 -10 13 -8 29 10 18 19 31 22
108 22 77 0 90 -3 115 -24 19 -17 24 -26 15 -29 -8 -4 -7 -6 5 -6 9 -1 17 3
17 7 0 5 11 14 25 20 14 6 25 18 25 25 0 8 18 29 40 48 22 19 35 36 28 40 -11
7 71 99 89 99 18 0 21 -23 7 -57 -13 -30 -13 -31 9 -28 12 3 59 11 105 19 47
8 91 21 102 31 14 13 27 15 47 10 54 -14 124 -17 137 -6 7 6 16 7 20 3 14 -13
191 -29 284 -24 75 4 89 7 76 17 -16 11 -16 12 0 18 10 4 15 3 11 -3 -3 -6 1
-10 9 -10 9 0 16 -4 16 -10 0 -14 27 -12 75 5 46 17 52 14 37 -20 -11 -23 -10
-25 12 -25 13 0 30 10 38 21 10 16 20 20 36 15 12 -4 20 -12 17 -17 -4 -5 1
-12 10 -15 9 -4 14 -13 11 -21 -3 -7 0 -22 6 -33 16 -25 8 -31 -46 -37 -44 -5
-88 -33 -52 -33 9 0 16 -4 16 -9 0 -15 101 -32 174 -29 60 2 67 5 64 22 -2 15
-17 24 -63 36 l-60 15 55 3 c30 2 60 8 66 13 16 13 55 3 144 -40 41 -20 79
-37 84 -40 5 -2 6 1 2 8 -8 12 16 16 28 4 7 -8 68 -6 99 3 28 9 19 31 -15 38
-26 5 -30 9 -18 16 19 12 60 4 125 -25 55 -24 132 -45 169 -45 24 0 58 -31 62
-56 1 -8 -6 -19 -16 -24 -25 -13 -34 -44 -20 -70 16 -30 27 -25 61 30 17 28
36 50 42 50 7 0 25 25 41 56 23 44 31 52 38 40 12 -21 36 -21 34 0 0 9 5 19
13 22 10 3 11 -2 6 -19 -7 -23 -7 -24 9 -4 16 20 16 20 22 -2 3 -13 11 -20 16
-17 6 4 34 -18 64 -47 38 -38 71 -60 112 -74 54 -20 57 -23 72 -70 l15 -50 3
42 3 43 45 0 c39 0 44 3 44 23 0 12 -14 42 -30 66 -19 28 -27 48 -21 54 5 5 7
15 4 22 -3 10 2 12 16 8 12 -3 42 -2 68 2 38 6 44 9 28 16 -11 4 -14 8 -6 8
28 2 -9 28 -57 41 -78 20 -103 32 -119 57 -21 32 -12 37 39 20 61 -21 132 -32
124 -19 -3 5 2 13 11 16 10 4 14 4 10 0 -8 -8 31 -54 46 -54 5 0 21 -8 35 -19
21 -14 45 -19 108 -19 80 -1 81 0 76 24 -2 13 -8 21 -13 18 -5 -3 -9 2 -9 10
0 8 8 17 19 21 10 3 26 14 36 25 25 28 55 27 48 -1 -4 -12 0 -25 8 -30 11 -7
11 -9 -2 -9 -22 0 -32 -27 -13 -34 9 -3 12 -11 8 -17 -7 -13 77 -2 86 11 3 4
39 15 80 25 55 14 69 20 55 26 -19 6 -18 8 5 17 16 6 29 6 37 0 7 -6 14 -5 18
2 11 18 25 11 22 -12 -2 -13 -16 -29 -33 -37 -26 -13 -27 -15 -9 -22 43 -17
79 -9 115 24 35 33 35 33 34 117 0 71 3 87 18 98 10 7 18 19 18 26 0 8 6 16
13 19 8 3 39 39 70 80 44 58 72 83 129 118 40 24 118 77 173 117 55 41 107 80
115 86 12 9 13 8 4 -4 -52 -72 -78 -99 -85 -88 -6 10 -11 10 -20 1 -9 -9 -9
-15 -1 -26 10 -11 6 -22 -19 -53 -17 -21 -42 -56 -56 -77 -13 -21 -28 -35 -32
-32 -9 5 -21 -16 -27 -43 -1 -8 -10 -22 -18 -31 -9 -10 -16 -22 -16 -28 0 -20
66 -51 100 -47 27 3 30 2 21 -10 -17 -20 -4 -24 66 -23 40 1 64 6 68 14 2 7
18 13 35 13 22 0 30 5 30 18 0 32 15 43 48 36 30 -6 31 -7 15 -31 -9 -13 -22
-22 -30 -19 -8 3 -16 -1 -19 -9 -4 -8 -12 -15 -20 -15 -8 0 -14 -4 -14 -10 0
-5 5 -10 11 -10 7 0 17 -7 24 -16 10 -14 13 -14 26 -2 9 10 21 12 34 7 29 -11
45 -11 45 1 0 6 -11 15 -24 20 -33 12 -40 27 -16 33 11 3 20 12 20 21 0 21 5
20 40 -5 18 -14 26 -27 22 -37 -3 -10 -1 -13 7 -8 6 4 9 15 7 24 -5 15 3 17
71 14 43 -2 79 -5 81 -7 2 -2 -14 -13 -35 -24 -42 -21 -70 -48 -60 -57 3 -4
18 -6 33 -6 l26 0 -32 -21 c-23 -15 -28 -22 -18 -28 7 -5 9 -9 3 -9 -5 0 -3
-5 5 -10 11 -7 3 -9 -27 -6 -26 2 -50 -2 -62 -11 -18 -12 -20 -12 -15 2 5 11
0 18 -15 22 -13 3 -20 11 -17 19 3 8 -1 14 -9 14 -21 0 -27 -17 -12 -32 24
-23 37 -56 31 -73 -6 -14 -9 -13 -30 6 -13 13 -23 28 -22 35 2 7 -1 14 -7 16
-5 2 -11 -9 -13 -23 -2 -19 4 -33 22 -47 15 -11 26 -24 26 -28 0 -11 62 -32
78 -26 7 2 12 8 12 13 0 6 -5 7 -10 4 -14 -9 -12 18 4 49 l14 27 6 -35 c4 -21
15 -40 27 -47 13 -7 19 -17 16 -29 -3 -11 2 -21 11 -25 21 -8 25 -1 16 27 -4
13 -7 28 -6 34 1 6 -5 24 -13 40 -20 39 -19 42 13 46 19 2 26 8 24 21 -2 11 3
17 14 17 10 0 25 7 35 16 20 18 39 11 39 -13 0 -10 6 -14 20 -10 11 3 23 1 26
-4 8 -14 34 -11 31 3 -1 7 8 14 21 16 12 2 22 8 22 13 0 19 16 8 40 -27 39
-58 133 -150 175 -173 44 -24 90 -27 102 -9 12 21 7 158 -8 184 -11 21 -11 27
1 34 11 7 16 4 18 -10 4 -21 17 -26 27 -10 3 6 1 10 -4 10 -6 0 -11 6 -11 14
0 22 -19 29 -36 15 -12 -10 -18 -8 -35 9 l-20 22 41 0 c22 0 40 -4 40 -9 0 -5
17 -3 38 5 20 7 45 13 55 14 9 0 17 5 17 10 0 17 17 11 22 -8 6 -20 52 -23
116 -8 36 10 44 36 10 37 -13 0 -17 3 -10 6 6 2 12 16 12 30 0 20 4 23 19 18
13 -4 27 1 41 15 16 16 28 20 43 15 63 -20 123 -22 162 -5 22 9 53 20 68 24
16 4 27 12 24 19 -3 11 -157 45 -224 49 -18 1 -33 6 -33 10 0 4 -8 8 -17 8
-10 0 -26 7 -36 14 -16 13 -16 14 9 20 17 5 30 3 35 -5 4 -6 13 -10 20 -7 8 3
55 -3 104 -13 115 -23 132 -24 115 -4 -7 8 -19 15 -26 15 -8 0 -14 4 -14 9 0
5 -16 18 -36 30 -26 16 -54 21 -107 22 l-72 2 69 8 c41 4 77 4 87 -2 24 -12
29 -11 29 4 0 7 9 23 20 35 12 12 17 22 13 22 -4 0 1 6 12 13 12 10 16 22 13
40 -3 15 -2 27 2 27 11 0 25 -82 31 -185 3 -40 24 -72 54 -79 18 -5 37 3 75
30 27 20 50 39 50 44 0 4 9 10 19 13 15 3 18 11 14 26 -4 17 0 24 16 28 11 3
21 10 21 15 0 5 -10 6 -22 3 -13 -4 -31 -9 -42 -12 -12 -3 -17 -1 -14 8 3 8
14 15 26 17 21 3 26 11 23 42 -1 11 1 11 9 -3 15 -24 52 -4 48 26 -2 18 -9 22
-35 19 -24 -1 -33 2 -33 13 0 17 -35 21 -45 5 -3 -5 -13 -10 -21 -10 -13 0
-13 4 0 29 15 27 18 28 72 24 47 -4 56 -2 51 10 -4 11 0 13 13 10 14 -4 19 0
17 15 -1 13 -13 24 -37 32 -106 37 -326 129 -399 167 -158 83 -158 96 -1 37
225 -86 460 -162 467 -151 7 12 5 93 -3 120 -3 9 -9 15 -14 12 -10 -6 -32 29
-24 38 3 3 13 3 21 0 13 -5 15 0 9 33 l-8 39 29 -27 c32 -30 76 -29 94 3 5 11
16 19 24 19 7 0 14 8 14 18 0 9 7 46 15 82 18 75 20 146 6 155 -5 3 -10 24
-10 46 0 21 5 39 10 39 6 0 10 -4 10 -10 0 -5 8 -9 18 -7 9 1 19 -2 20 -8 6
-16 23 -47 49 -87 16 -26 28 -36 39 -31 8 3 13 12 10 19 -3 8 0 11 9 8 8 -3
17 -14 20 -25 5 -14 16 -19 41 -19 31 0 33 -2 22 -20 -7 -10 -9 -22 -5 -26 9
-9 37 15 37 32 0 8 5 14 10 14 6 0 10 -7 10 -15 0 -22 33 -18 48 6 11 18 11
24 -3 39 -22 24 -2 35 28 16 42 -28 167 -59 167 -41 0 35 -113 155 -146 155
-9 0 -24 5 -35 11 -17 9 -18 13 -7 27 11 15 11 15 -3 5 -12 -10 -18 -10 -28 0
-9 9 -14 9 -21 -3 -8 -13 -11 -12 -24 5 -15 20 -15 20 -30 0 -8 -11 -16 -26
-16 -33 0 -16 -52 -5 -63 15 -4 7 -19 13 -32 13 -25 0 -52 33 -47 58 2 7 -8
12 -27 12 -16 0 -33 5 -36 10 -4 6 -37 26 -73 45 l-67 34 60 0 c89 1 98 2 116
18 14 12 34 13 109 6 80 -8 97 -7 133 10 l42 18 -24 18 c-23 18 -82 34 -166
45 -111 16 -141 19 -157 20 -12 0 -14 4 -8 10 6 6 10 19 10 29 0 12 5 17 14
14 23 -9 39 19 32 55 -5 24 -1 37 16 55 12 13 16 23 10 23 -7 0 -12 11 -12 24
0 14 -4 36 -10 50 -9 25 -8 26 25 26 20 0 43 8 53 18 10 10 32 24 49 31 27 11
37 10 74 -7 50 -22 77 -22 109 -1 14 9 19 20 15 31 -8 20 -64 48 -97 48 -14 0
-28 3 -32 7 -4 4 -13 8 -19 8 -7 0 -38 7 -69 14 -54 13 -58 16 -58 43 0 31 -2
32 -33 17 -18 -8 -17 -5 6 15 15 14 27 30 27 36 0 5 9 10 20 10 11 0 23 7 26
15 4 10 13 13 25 10 28 -9 61 4 55 21 -3 8 -1 14 4 14 12 0 14 40 3 40 -5 1
-19 10 -32 21 l-24 20 31 29 c33 30 35 59 3 61 -9 0 -26 2 -39 5 -13 2 -41 -5
-64 -16 -34 -16 -42 -17 -54 -6 -7 8 -10 16 -7 20 4 3 -2 6 -13 6 -10 0 -37 9
-59 19 l-40 19 38 1 c21 1 49 8 62 17 23 15 25 15 25 -1 0 -10 6 -15 18 -13
13 2 18 15 20 61 3 61 8 65 57 47 60 -23 154 16 141 57 -8 24 -66 100 -66 87
0 -5 -6 -2 -13 6 -7 9 -36 33 -64 54 -29 21 -53 42 -53 47 0 5 -7 9 -16 9 -37
0 -156 35 -161 47 -3 7 0 20 7 28 19 23 9 26 -45 10 -33 -9 -44 -10 -31 -2 11
7 35 27 53 45 31 29 32 34 19 48 -14 13 -23 12 -84 -19 -37 -19 -79 -38 -92
-42 -22 -7 -23 -6 -12 8 8 9 34 28 58 42 24 14 44 30 44 35 0 20 -27 9 -67
-25 -23 -19 -47 -35 -53 -35 -7 0 -10 -8 -7 -19 3 -14 0 -17 -14 -14 -36 10
-30 22 31 67 60 43 61 44 40 59 -32 22 -19 53 25 61 39 8 74 48 96 108 16 46
6 58 -24 30 -13 -12 -26 -22 -30 -22 -12 0 -8 18 6 32 8 7 20 24 27 37 10 20
10 25 -4 33 -20 11 -21 45 -1 64 8 9 15 22 15 29 0 17 -21 11 -70 -22 -57 -38
-64 -26 -18 28 39 47 41 52 25 64 -21 15 -22 58 -1 76 13 11 21 11 44 -3 33
-19 40 -11 40 49 0 19 6 41 14 48 8 8 17 42 21 75 6 50 9 59 21 49 8 -6 14
-29 14 -50 0 -40 17 -89 32 -89 4 0 8 -7 8 -15 0 -23 11 -18 51 24 52 56 62
105 38 184 -10 34 -15 65 -11 69 4 4 36 3 70 -2 35 -6 68 -7 74 -4 15 9 -87
42 -131 43 -33 1 -33 2 -17 20 12 13 14 21 6 26 -5 3 -8 11 -5 16 4 5 -1 12
-10 16 -10 3 -21 0 -26 -8 -5 -9 -9 -10 -9 -2 0 6 6 18 13 25 8 7 12 18 10 25
-2 6 5 18 16 25 18 13 20 25 20 107 0 80 -3 92 -17 89 -9 -2 -22 -14 -29 -28
-7 -14 -18 -24 -24 -22 -6 1 -25 -8 -43 -21 -56 -42 -63 -44 -42 -12 10 17 27
39 37 51 28 30 23 44 -13 45 -33 1 -33 1 11 16 38 13 128 89 118 99 -2 2 -18
-1 -35 -7 -20 -7 -37 -7 -48 -1 -15 8 -12 11 16 17 55 12 70 26 70 65 0 23 -3
30 -9 22 -4 -8 -11 -13 -15 -12 -17 3 -86 -36 -92 -52 -6 -19 -16 -23 -28 -11
-4 4 -21 8 -38 9 -42 2 -57 20 -33 38 15 11 19 24 16 51 -2 30 0 37 12 32 28
-11 59 49 34 65 -6 4 -17 2 -24 -4 -18 -15 -17 23 2 69 18 43 18 46 3 37 -7
-5 -8 -3 -4 5 5 7 10 10 13 7 3 -3 19 13 35 35 23 31 32 38 42 29 10 -8 15 -7
20 5 3 8 12 15 20 15 8 0 17 4 20 9 4 5 -3 7 -14 4 -11 -3 -23 -9 -26 -14 -9
-16 -24 -9 -24 11 0 10 9 24 20 30 11 6 20 18 20 27 0 15 -12 15 -54 -2 -16
-7 -17 -6 -6 14 6 13 10 23 8 24 -198 100 -428 233 -428 247 0 4 -19 20 -42
35 -27 18 -38 30 -29 33 8 3 139 -57 292 -133 234 -116 281 -136 294 -125 18
15 20 57 3 63 -10 3 -10 7 0 20 11 13 11 19 0 36 -7 12 -17 21 -21 21 -5 0 -6
7 -3 16 4 12 1 14 -14 9 -15 -5 -20 -2 -20 10 0 11 5 15 14 12 12 -5 12 0 0
30 -11 24 -13 49 -8 77 4 22 9 36 11 30 2 -6 14 -9 27 -7 21 4 22 10 24 83 l2
78 -37 15 c-21 8 -56 23 -78 33 -39 17 -39 17 -15 25 14 4 49 4 78 2 51 -6 52
-5 52 21 0 16 -5 26 -15 26 -8 0 -15 6 -15 13 0 6 -7 20 -14 30 -13 17 -17 17
-52 2 -66 -28 -103 7 -44 42 17 9 30 21 30 25 0 4 14 14 30 23 30 15 30 16 13
43 l-18 27 26 -17 c31 -19 49 -11 49 23 0 13 2 42 5 64 3 22 2 34 -1 28 -10
-22 -22 -14 -29 20 -4 17 -11 37 -15 42 -4 6 -6 40 -6 77 l2 67 -58 -1 c-32
-1 -58 -6 -58 -11 0 -5 -7 -4 -15 3 -9 7 -19 10 -23 6 -4 -4 3 -16 16 -26 26
-21 30 -60 6 -60 -10 0 -14 6 -10 15 3 9 0 15 -9 15 -20 0 -46 53 -49 102 -3
30 2 44 17 59 15 13 20 31 19 64 0 32 4 45 14 45 8 0 14 5 14 10 0 15 33 12
57 -5 15 -11 43 -15 91 -13 74 2 152 -22 222 -69 19 -13 40 -23 47 -23 13 0
43 27 43 39 0 5 -27 18 -60 30 -33 12 -58 26 -55 30 2 5 -30 18 -73 31 -57 16
-83 30 -100 51 -13 16 -32 29 -42 29 -9 0 -24 7 -31 16 -11 14 -11 18 2 28 9
6 14 16 12 21 -1 6 11 18 28 28 44 25 28 34 -20 12 -37 -16 -41 -16 -56 -1
-28 27 -11 67 50 114 49 39 186 112 210 112 5 0 21 9 35 20 25 19 24 19 -50
-1 -92 -24 -162 -57 -223 -105 -46 -36 -77 -40 -77 -9 0 8 9 23 20 32 24 21
25 31 4 54 -14 16 -14 18 5 24 18 5 19 9 8 26 -10 16 -9 22 3 29 23 12 15 130
-8 131 -10 0 -1 7 18 14 l35 13 -35 1 -35 1 38 33 c35 29 37 35 28 59 -8 22
-21 29 -73 42 -57 14 -59 15 -18 12 25 -2 52 -7 62 -11 21 -8 37 33 17 46 -9
5 -6 10 12 17 77 31 77 31 37 31 -27 1 -38 5 -38 16 0 8 -7 15 -17 15 -15 0
-15 2 1 19 20 22 7 36 -24 26 -18 -6 -19 -4 -9 18 10 22 6 32 -31 87 -23 34
-39 64 -36 67 3 3 23 -8 44 -25 42 -34 86 -54 96 -45 3 4 6 17 6 30 0 13 5 23
10 23 6 0 10 9 10 20 0 11 4 20 9 20 10 0 31 76 31 111 0 18 -4 20 -27 15 -25
-6 -26 -5 -10 7 9 8 17 21 17 29 0 8 6 20 13 28 6 7 -3 3 -20 -9 -18 -12 -33
-31 -33 -42 0 -29 -20 -23 -33 11 -7 17 -19 30 -28 30 -13 0 -6 11 22 38 53
52 50 63 -5 18 -24 -20 -49 -36 -54 -36 -5 0 -13 -9 -18 -21 -9 -19 -11 -19
-23 -6 -11 14 -2 22 59 62 62 41 111 97 97 112 -3 2 -21 -10 -41 -28 -20 -17
-39 -29 -42 -26 -3 3 6 28 20 56 15 28 23 51 20 51 -4 0 -1 6 5 14 17 20 -29
50 -61 41 -22 -7 -22 -6 -6 11 14 14 21 15 30 6 15 -15 48 -16 48 -2 0 6 -7
13 -15 16 -8 4 -15 12 -15 18 0 7 -14 22 -30 35 -17 12 -28 27 -24 33 4 6 9 7
13 0 9 -14 49 -24 55 -13 7 11 -33 43 -46 35 -4 -3 -8 0 -8 5 0 6 11 11 24 11
31 0 37 17 18 51 -10 16 -12 33 -8 45 8 18 9 18 19 -3 5 -13 18 -23 29 -23 16
0 16 -3 6 -20 -10 -15 -10 -22 0 -32 10 -10 15 -9 28 4 15 14 15 18 -1 42 -10
14 -21 24 -25 21 -5 -3 -8 20 -8 50 1 44 4 56 19 60 29 10 9 74 -23 75 -4 0
-5 -6 -2 -14 5 -12 -2 -13 -37 -5 -50 12 -88 3 -51 -12 12 -4 22 -13 22 -19 0
-13 -1 -13 -73 11 -90 30 -106 55 -20 30 39 -11 56 4 21 19 -17 7 -4 9 51 7
66 -3 76 -1 97 20 13 12 29 20 37 17 8 -3 18 -1 21 4 7 11 -88 62 -116 62 -10
0 -18 4 -18 9 0 12 -53 -3 -84 -22 -23 -15 -126 -50 -131 -45 -2 2 21 17 51
33 30 16 54 33 54 37 0 4 -16 10 -35 14 -35 6 -74 -3 -160 -40 l-40 -17 39 36
c21 20 36 39 33 41 -3 3 -14 -4 -24 -16 -10 -12 -28 -26 -40 -31 -16 -6 -22
-15 -19 -31 1 -13 8 -23 14 -23 6 0 14 -3 18 -7 11 -11 -14 -10 -35 2 -13 6
-31 4 -60 -7 -38 -15 -70 -11 -45 5 6 4 13 15 17 25 7 20 37 23 55 5 9 -9 12
-9 12 0 0 7 -6 12 -12 12 -7 0 -1 11 14 25 16 13 24 26 20 29 -15 9 -95 28
-139 33 -24 3 -43 9 -43 13 0 5 -32 16 -71 25 -39 8 -89 25 -110 36 -22 11
-44 17 -49 14 -6 -4 -13 0 -16 8 -3 8 -18 17 -33 20 -31 6 -47 42 -36 78 4 11
2 19 -6 19 -9 0 -9 3 1 15 6 8 14 42 17 75 l6 61 -29 -6 c-16 -4 -41 -11 -56
-17 -27 -10 -27 -10 -7 -31 22 -24 23 -31 9 -58 -16 -28 -43 -23 -81 16 -32
33 -58 43 -72 28 -4 -3 1 -15 10 -26 18 -20 17 -20 -22 -12 -40 8 -58 9 -220
16 -148 5 -296 -14 -273 -36 2 -2 35 2 73 10 39 7 72 11 73 10 2 -2 -24 -12
-59 -23 -34 -11 -56 -21 -48 -24 8 -3 -3 -5 -25 -4 -38 1 -46 -5 -62 -49 -7
-19 -7 -19 -11 -2 -4 14 -11 17 -29 13 -34 -9 -30 1 9 19 l32 15 -57 -5 c-78
-7 -83 11 -5 20 63 7 97 19 97 34 0 4 -44 11 -98 14 -53 3 -108 10 -120 14
-22 8 -22 10 -7 23 14 11 46 11 208 -3 127 -10 209 -13 242 -7 28 5 57 9 65
10 12 0 12 2 2 9 -7 4 -37 4 -65 -2 -61 -11 -208 -3 -257 15 -34 12 -34 12
-10 18 15 4 24 13 24 23 -1 9 -1 17 0 17 1 0 49 -16 107 -35 97 -33 105 -34
117 -18 6 9 12 12 12 5 0 -6 7 -9 15 -6 18 7 -101 68 -126 65 -16 -2 -22 28
-8 39 8 6 22 50 16 50 -2 0 -37 -11 -77 -25 -40 -14 -75 -23 -77 -21 -7 6 49
46 64 46 9 0 13 6 10 14 -4 10 8 15 46 19 64 6 75 -2 59 -46 -7 -18 -12 -38
-12 -44 0 -13 36 -29 111 -48 l61 -16 93 36 92 35 58 -35 c34 -20 67 -33 79
-30 111 22 125 27 119 43 -22 71 -25 74 -59 68 -53 -10 -85 41 -49 78 14 14
14 17 -3 34 -11 11 -21 24 -23 30 -2 6 -31 13 -64 17 -32 3 -65 11 -73 17 -18
16 -61 16 -80 1 -28 -21 -37 -15 -15 10 11 12 23 35 27 51 6 24 1 34 -28 62
-44 43 -71 44 -85 4 -5 -17 -17 -33 -26 -36 -8 -3 -15 -11 -15 -18 0 -6 -9
-12 -21 -13 -16 -2 -20 3 -16 18 3 12 0 19 -9 19 -11 0 -14 -10 -11 -38 4 -37
3 -38 -20 -28 -15 8 -23 20 -23 37 0 15 -7 30 -16 33 -23 9 -24 8 -24 -18 0
-56 -23 -73 -41 -32 -7 14 -17 22 -25 19 -8 -3 -14 0 -14 6 0 12 -29 3 -49
-16 -7 -8 -11 -22 -8 -33 4 -16 2 -17 -14 -7 -16 10 -21 9 -29 -3 -5 -8 -10
-10 -10 -5 0 6 -16 10 -35 11 -19 0 -33 -2 -30 -4 2 -2 -3 -11 -12 -20 -14
-14 -17 -14 -29 3 -8 10 -14 25 -14 32 0 25 -16 13 -18 -14 -2 -30 -13 -44
-19 -25 -3 7 -21 20 -41 28 -33 14 -35 17 -17 24 11 4 26 5 33 3 11 -5 14 2
11 23 0 4 4 10 10 14 8 4 9 14 2 31 -5 13 -10 18 -10 12 -1 -7 -6 -13 -12 -13
-5 0 -7 5 -4 10 3 6 1 10 -4 10 -6 0 -11 -4 -11 -10 0 -5 -8 -10 -17 -9 -13 0
-14 2 -4 6 8 3 -1 11 -25 19 -44 15 -58 9 -29 -13 19 -14 19 -14 -5 -11 -14 2
-29 13 -35 26 -12 26 -21 28 -29 5 -4 -9 -1 -20 6 -25 7 -4 10 -8 6 -8 -4 0
-3 -12 2 -26 7 -17 7 -23 -1 -19 -6 4 -9 -4 -7 -22 3 -25 0 -28 -27 -29 -72
-3 -69 -1 -51 -29 9 -13 16 -27 16 -30 0 -11 -56 8 -76 26 -20 19 -21 19 -32
-6 -7 -14 -12 -34 -12 -45 0 -10 -5 -22 -12 -26 -8 -5 -9 2 -4 27 4 19 9 44
12 56 3 15 -2 26 -16 33 -39 21 -72 60 -72 85 0 14 -4 25 -9 25 -5 0 -9 -5 -9
-10 0 -6 -11 -8 -27 -4 -26 7 -27 6 -13 -12 8 -10 21 -25 28 -33 20 -21 7 -24
-22 -5 -38 24 -44 9 -11 -26 16 -16 26 -32 23 -36 -8 -7 -44 12 -69 37 -21 21
-48 27 -31 7 6 -7 10 -17 10 -23 0 -5 6 -12 14 -15 7 -3 14 -14 15 -25 1 -11
0 -14 -3 -7 -8 17 -24 15 -24 -3 0 -22 -16 -18 -38 10 -11 13 -22 21 -26 18
-3 -3 -6 1 -6 10 0 9 -4 17 -10 17 -14 0 -12 -12 6 -38 8 -12 12 -27 9 -33 -9
-14 -45 19 -45 41 0 28 -25 43 -43 26 -8 -8 -17 -12 -20 -9 -6 6 -67 -16 -67
-24 0 -2 5 -13 10 -24 12 -22 0 -25 -30 -9 -11 6 -31 8 -45 4 -31 -8 -59 -66
-51 -106 6 -29 -10 -39 -20 -13 -4 8 -13 15 -21 15 -12 0 -11 5 3 30 22 35 13
47 -22 31 -25 -11 -25 -10 -20 16 20 107 17 123 -32 151 -19 10 -23 10 -28 -3
-4 -8 -11 -15 -18 -15 -6 0 -12 -10 -13 -22 -10 -96 -14 -114 -27 -124 -9 -6
-13 -14 -9 -18 4 -4 1 -11 -7 -16 -22 -14 -30 -12 -30 6 0 17 -14 15 -86 -18
-27 -11 -42 -23 -38 -30 5 -7 1 -9 -9 -5 -10 3 -17 3 -17 -1 0 -4 -17 -13 -37
-19 -65 -19 -107 -37 -125 -55 -10 -10 -27 -18 -38 -18 -18 0 -19 2 -8 20 7
11 16 20 20 20 5 0 8 7 8 15 0 12 -4 13 -19 5 -30 -16 -46 -13 -31 5 10 13 7
14 -25 12 -21 -1 -39 3 -42 8 -5 17 49 44 72 35 11 -4 26 -3 34 3 7 6 23 16
35 22 11 6 23 22 24 35 2 14 13 35 25 47 25 28 23 30 -28 33 -67 4 -92 1 -76
-9 12 -8 8 -13 -19 -28 -19 -10 -49 -33 -66 -51 -25 -26 -33 -30 -36 -18 -3
14 -6 14 -32 1 -40 -21 -62 -4 -39 31 18 28 8 32 -19 7 -14 -12 -21 -14 -30
-5 -8 8 -4 13 16 18 14 3 26 10 26 15 0 5 9 9 21 9 13 0 19 5 15 13 -3 6 -9
19 -12 27 -6 18 -128 60 -173 60 -17 0 -31 5 -31 10 0 6 -22 10 -50 10 -27 0
-50 -4 -50 -10 0 -5 -12 -10 -26 -10 -34 0 -27 -19 19 -49 20 -13 35 -26 33
-28 -5 -5 -100 20 -106 29 -3 4 -16 9 -29 10 -30 4 -47 -34 -26 -56 15 -15 10
-26 -13 -26 -9 0 -12 3 -9 6 4 4 0 19 -8 33 -7 14 -16 38 -19 53 -5 22 -14 29
-49 38 -23 6 -54 16 -70 22 -15 6 -46 8 -70 5 l-42 -6 50 24 c28 13 66 29 85
34 19 6 56 28 82 48 68 56 85 103 36 103 -25 0 -199 -58 -212 -71 -6 -5 -18
-9 -28 -9 -10 0 -21 -7 -24 -15 -4 -9 -39 -32 -79 -51 -41 -20 -81 -44 -91
-55 -9 -10 -28 -19 -41 -19 -12 0 -23 -4 -23 -8 0 -10 -113 -62 -135 -62 -8 0
-24 9 -35 20 -11 11 -31 20 -45 20 -14 0 -25 4 -25 8 0 13 -47 32 -78 32 -21
0 -24 2 -12 10 12 8 8 10 -15 11 -24 1 -25 3 -7 6 12 2 22 9 22 14 0 5 5 9 11
9 6 0 24 9 40 21 24 16 27 24 19 39 -6 10 -10 28 -10 40 0 27 -40 42 -110 40
-78 -3 -101 -6 -133 -19 -16 -6 -37 -11 -48 -11 -22 0 -26 -28 -4 -36 11 -5 9
-13 -13 -40 -15 -19 -33 -34 -41 -34 -12 0 -12 3 1 18 19 22 28 56 18 73 -12
19 -67 -41 -85 -92 -18 -51 -18 -52 -2 -46 8 3 20 1 28 -3 11 -7 10 -12 -4
-28 -9 -10 -15 -21 -13 -23 3 -3 -29 -17 -70 -31 -69 -25 -102 -23 -51 3 12 6
30 20 39 30 17 17 17 18 -1 24 -23 7 -56 0 -129 -26 -29 -10 -59 -19 -68 -19
-28 0 -27 30 1 60 44 46 32 53 -97 57 -102 4 -119 2 -150 -16 -28 -17 -140
-61 -155 -61 -1 0 -3 4 -3 8 0 4 25 20 55 36 30 15 55 29 55 31 0 2 -23 4 -52
3 -46 0 -96 -11 -153 -33 l-20 -8 20 23 c18 21 18 23 2 17 -10 -4 -23 -7 -28
-7 -5 0 -9 -7 -9 -16 0 -9 -6 -14 -12 -11 -7 2 -12 12 -12 21 1 12 -7 16 -37
16 -36 0 -39 2 -29 19 15 30 13 91 -5 97 -25 10 -83 -34 -101 -77 -10 -21 -24
-39 -31 -39 -11 0 -11 4 -2 21 16 31 6 102 -20 138 -27 37 -41 40 -41 8 0 -35
-10 -39 -32 -12 -29 38 -41 31 -33 -17 8 -50 20 -74 48 -106 20 -22 20 -22 1
-36 -10 -8 -21 -11 -24 -6 -8 12 -60 24 -60 13 0 -5 6 -15 13 -22 10 -10 0
-11 -50 -5 -35 3 -63 4 -63 1 0 -3 33 -22 73 -41 73 -37 114 -63 106 -70 -8
-7 -316 45 -337 57 -14 9 -323 59 -329 53 -3 -3 -3 -12 0 -21 5 -11 21 -15 57
-15 126 0 274 -103 359 -250 23 -40 40 -75 37 -77 -2 -2 -35 15 -73 38 -37 23
-81 49 -98 58 -16 9 -32 19 -35 22 -10 13 -262 189 -270 189 -4 0 -13 -14 -19
-31 -10 -30 -8 -35 32 -78 57 -61 57 -61 73 -26 8 17 12 21 9 11 -3 -11 -8
-45 -11 -75 -7 -64 -24 -93 -24 -40 0 23 -8 43 -26 62 -25 27 -122 77 -151 77
-17 0 -147 -102 -163 -128 -10 -16 -11 -16 -23 1 -7 11 -25 33 -40 50 -16 18
-35 42 -44 55 -19 28 -28 28 -108 -4 -46 -18 -65 -31 -61 -40 4 -10 -3 -13
-25 -11 -20 1 -34 -4 -39 -13 -5 -8 -29 -58 -54 -110 -26 -52 -62 -113 -81
-135 l-34 -40 0 70 c1 100 -9 145 -32 145 -10 0 -21 5 -24 10 -3 6 5 10 18 10
26 0 37 21 37 68 0 13 6 38 14 55 12 28 20 74 29 167 2 25 1 25 -92 28 -69 2
-96 0 -102 -10 -7 -10 -9 -10 -9 0 0 26 -30 12 -30 -15 -1 -24 -2 -26 -11 -10
-5 9 -7 22 -3 28 4 7 0 9 -12 6 -11 -3 -54 -11 -97 -16 -42 -6 -94 -18 -115
-27 -36 -15 -84 -33 -241 -88 -41 -14 -83 -34 -95 -43 -20 -18 -20 -18 1 12
47 69 75 129 62 134 -7 2 -3 9 12 17 22 12 16 13 -55 14 -68 0 -85 -4 -115
-24 -41 -28 -101 -43 -101 -27 0 6 4 11 9 11 6 0 9 9 8 20 -1 17 -8 20 -45 20
-38 0 -43 2 -32 15 7 8 20 15 29 15 9 0 25 7 35 15 11 8 30 15 42 15 45 0 40
61 -8 94 -38 27 -62 20 -202 -56 -44 -24 -67 -22 -33 3 15 11 27 29 27 39 0
15 -11 19 -67 24 -38 3 -124 12 -193 20 -187 22 -323 11 -475 -37 -38 -12 -67
-27 -128 -69 -16 -11 -44 -21 -63 -22 -18 -2 -41 -9 -49 -16 -23 -19 -15 -53
15 -60 18 -4 21 -8 12 -14 -7 -4 -11 -14 -8 -22 3 -9 -21 0 -59 21 -56 32 -71
36 -105 30 -22 -4 -40 -11 -40 -17 0 -6 7 -8 15 -4 8 3 15 0 15 -7 0 -7 21
-27 46 -46 l46 -35 19 25 c18 24 18 23 4 -30 -14 -56 -25 -76 -25 -48 0 27
-46 60 -116 84 l-65 22 -64 -35 c-66 -37 -86 -54 -63 -54 20 0 -13 -20 -35
-20 -10 0 -37 20 -62 44 -24 24 -57 47 -73 51 -29 6 -46 32 -43 63 3 21 -92
15 -122 -8 -14 -11 -28 -20 -31 -20 -3 0 -38 16 -77 35 -57 28 -86 35 -140 37
l-68 3 27 22 c25 21 76 48 132 72 22 9 21 10 -15 7 -188 -18 -239 -34 -294
-90 l-42 -42 -50 10 c-51 10 -51 10 -45 44 3 19 28 80 55 136 78 157 149 357
86 239z m-420 -409 c15 -25 25 -50 23 -56 -4 -11 -46 49 -66 96 -12 26 -11 28
2 17 8 -7 27 -33 41 -57z m2505 37 c0 -5 -12 -12 -27 -16 -15 -3 -33 -15 -41
-26 -12 -17 -25 -19 -135 -18 l-122 0 65 21 c68 21 100 25 137 15 13 -3 25 -1
29 4 14 22 94 39 94 20z m1110 -75 c0 -3 -4 -8 -10 -11 -5 -3 -10 -1 -10 4 0
6 5 11 10 11 6 0 10 -2 10 -4z m2340 -12 c0 -2 -15 -4 -32 -3 -27 0 -29 2 -13
8 18 8 45 4 45 -5z m-3823 0 c-3 -3 -12 -4 -19 -1 -8 3 -5 6 6 6 11 1 17 -2
13 -5z m1498 -44 c-5 -8 -11 -8 -17 -2 -6 6 -7 16 -3 22 5 8 11 8 17 2 6 -6 7
-16 3 -22z m1813 21 c17 -10 -1 -26 -42 -37 l-28 -7 17 27 c18 27 31 31 53 17z
m472 -6 c0 -8 -9 -15 -20 -15 -20 0 -26 11 -13 23 12 13 33 7 33 -8z m-4095
-25 c31 -18 132 -140 115 -140 -14 0 -171 72 -250 114 -62 34 -64 35 -40 45
33 13 137 2 175 -19z m5399 24 c39 -15 16 -26 -84 -39 -43 -6 -44 -5 -20 9 14
9 35 15 47 16 12 0 25 5 28 10 7 12 8 12 29 4z m-8147 -39 c2 -13 0 -26 -4
-28 -5 -3 -9 11 -10 30 -2 38 9 37 14 -2z m3183 25 c0 -5 -7 -10 -15 -10 -8 0
-15 5 -15 10 0 6 7 10 15 10 8 0 15 -4 15 -10z m-2655 -20 c3 -6 -1 -7 -9 -4
-18 7 -21 14 -7 14 6 0 13 -4 16 -10z m3915 0 c0 -5 -4 -10 -10 -10 -5 0 -10
5 -10 10 0 6 5 10 10 10 6 0 10 -4 10 -10z m59 -35 c12 -20 16 -37 10 -40 -5
-4 -16 9 -24 29 -25 58 -18 64 14 11z m-4539 15 c0 -5 -4 -10 -10 -10 -5 0
-10 5 -10 10 0 6 5 10 10 10 6 0 10 -4 10 -10z m95 -12 c-1 -13 -3 -26 -4 -30
0 -5 -9 0 -19 10 -13 11 -16 21 -9 30 15 20 34 14 32 -10z m1685 -23 c0 -42
-17 -72 -79 -137 l-60 -63 -1 41 c0 33 5 45 24 57 13 9 41 43 61 77 37 61 55
69 55 25z m5149 -6 c-54 -29 -66 -21 -29 19 18 19 24 20 42 11 21 -11 21 -12
-13 -30z m-7105 13 c9 -5 -21 -32 -35 -32 -10 0 -20 30 -14 40 5 8 26 5 49 -8z
m8972 -7 c5 -11 10 -12 26 -4 11 6 27 8 36 4 12 -4 2 -14 -38 -34 -31 -16 -59
-24 -64 -19 -14 11 -29 10 -21 -2 9 -14 -43 -24 -59 -11 -7 6 -15 8 -18 6 -3
-3 -8 3 -11 15 -3 12 0 20 8 20 7 0 16 7 19 16 4 11 13 14 30 10 14 -3 28 -2
31 4 10 15 55 12 61 -5z m-7871 -28 c-4 -15 -13 -31 -21 -38 -18 -15 -18 -7 3
36 19 39 27 40 18 2z m3565 23 c0 -5 -5 -10 -11 -10 -5 0 -7 5 -4 10 3 6 8 10
11 10 2 0 4 -4 4 -10z m6010 -6 c0 -2 -7 -4 -15 -4 -8 0 -15 4 -15 10 0 5 7 7
15 4 8 -4 15 -8 15 -10z m-7861 -35 c-30 -32 -42 -39 -59 -34 -27 9 -18 19 42
51 59 31 60 30 17 -17z m1123 9 c-7 -7 -12 -8 -12 -2 0 14 12 26 19 19 2 -3
-1 -11 -7 -17z m-3914 -46 c0 -35 -3 -38 -57 -59 l-56 -23 -22 28 c-28 34 -29
46 -3 30 15 -9 25 -10 37 -2 26 16 27 34 3 34 -13 0 -18 4 -14 11 3 6 16 8 28
5 15 -4 28 1 40 15 24 28 45 9 44 -39z m186 47 c-4 -7 -40 -27 -82 -46 -57
-27 -77 -32 -86 -23 -8 9 -8 14 2 17 6 3 12 9 12 15 0 5 10 18 23 29 25 21
144 28 131 8z m4466 -17 c0 -15 -2 -15 -10 -2 -13 20 -13 33 0 25 6 -3 10 -14
10 -23z m-333 12 c-3 -3 -12 -4 -19 -1 -8 3 -5 6 6 6 11 1 17 -2 13 -5z
m-3440 -20 c-3 -3 -12 -4 -19 -1 -8 3 -5 6 6 6 11 1 17 -2 13 -5z m7899 -41
c-11 -20 -15 -23 -16 -10 0 17 21 49 28 42 2 -2 -3 -16 -12 -32z m1725 20 c13
-15 12 -15 -8 -4 -24 12 -29 21 -14 21 5 0 15 -7 22 -17z m-9586 -3 c3 -6 -1
-7 -9 -4 -18 7 -21 14 -7 14 6 0 13 -4 16 -10z m92 -3 c3 -4 -2 -7 -13 -8 -10
0 -27 -2 -36 -4 -10 -2 -15 2 -12 9 5 12 49 14 61 3z m2983 -2 c-7 -9 -15 -13
-19 -10 -3 3 1 10 9 15 21 14 24 12 10 -5z m7628 -13 c3 -9 -45 -42 -63 -42
-11 0 -4 17 16 39 21 22 40 24 47 3z m-12118 -16 c0 -2 -7 -7 -16 -10 -8 -3
-12 -2 -9 4 6 10 25 14 25 6z m5195 -6 c3 -5 1 -10 -4 -10 -6 0 -11 5 -11 10
0 6 2 10 4 10 3 0 8 -4 11 -10z m-5065 -20 c0 -5 -7 -10 -16 -10 -8 0 -12 5
-9 10 3 6 10 10 16 10 5 0 9 -4 9 -10z m6230 -4 c0 -3 -4 -8 -10 -11 -5 -3
-10 -1 -10 4 0 6 5 11 10 11 6 0 10 -2 10 -4z m3764 -26 c-14 -13 -144 -60
-144 -52 0 13 145 80 149 70 2 -5 -1 -14 -5 -18z m-3809 -10 c-10 -11 -15 -23
-11 -27 3 -4 -10 -23 -30 -44 -22 -23 -32 -39 -25 -43 21 -13 11 -24 -31 -30
-24 -4 -54 -14 -68 -23 -23 -15 -24 -15 -11 0 7 9 11 24 7 32 -3 9 1 18 10 22
9 3 33 24 54 46 32 33 104 86 119 87 2 0 -4 -9 -14 -20z m4935 -30 c8 -5 11
-10 5 -10 -5 0 -17 5 -25 10 -8 5 -10 10 -5 10 6 0 17 -5 25 -10z m-1850 -14
c0 -2 -7 -7 -16 -10 -8 -3 -12 -2 -9 4 6 10 25 14 25 6z m-223 -48 c-3 -7 -5
-2 -5 12 0 14 2 19 5 13 2 -7 2 -19 0 -25z m-9015 -4 c-31 -22 -142 -66 -154
-62 -15 5 131 78 156 78 20 0 20 0 -2 -16z m9153 -4 c-3 -5 -11 -10 -16 -10
-6 0 -7 5 -4 10 3 6 11 10 16 10 6 0 7 -4 4 -10z m105 0 c0 -5 -5 -10 -11 -10
-5 0 -7 5 -4 10 3 6 8 10 11 10 2 0 4 -4 4 -10z m-10673 -20 c-3 -11 -1 -23 4
-26 5 -3 9 -10 9 -16 0 -7 -9 -2 -20 10 -12 12 -26 22 -33 21 -9 0 -9 -2 1 -6
6 -2 9 -9 6 -14 -3 -6 -12 -2 -20 8 -19 25 -17 31 9 36 45 9 49 7 44 -13z
m9853 10 c0 -5 -4 -10 -10 -10 -5 0 -10 5 -10 10 0 6 5 10 10 10 6 0 10 -4 10
-10z m-8773 -36 c2 -7 -10 -17 -28 -23 -46 -16 -51 -14 -33 15 17 25 54 30 61
8z m9978 -2 c-3 -3 -11 0 -18 7 -9 10 -8 11 6 5 10 -3 15 -9 12 -12z m-11002
-42 c9 -9 -9 -11 -83 -6 -148 10 -180 27 -42 22 72 -2 118 -8 125 -16z m252 0
c4 -6 1 -18 -6 -26 -11 -13 -14 -13 -27 0 -8 8 -11 19 -8 25 9 14 33 14 41 1z
m133 -75 c167 -48 203 -60 202 -70 -2 -12 1 -13 -188 31 -127 30 -151 38 -141
50 15 19 26 18 127 -11z m287 -95 c8 -13 -5 -13 -25 0 -13 8 -13 10 2 10 9 0
20 -4 23 -10z m6481 -12 c-39 -56 -74 -126 -80 -160 -4 -21 -11 -38 -15 -38
-5 0 -13 -21 -17 -47 -10 -51 -27 -62 -80 -49 -35 9 -30 41 19 118 31 49 46
66 59 62 11 -3 21 3 29 18 7 12 18 29 26 36 7 8 25 29 39 48 29 38 46 47 20
12z m-6212 -47 c33 -37 -12 -71 -48 -35 -18 18 -18 17 -10 38 8 22 37 20 58
-3z m-253 -126 c-1 -15 -24 -12 -29 3 -3 9 2 13 12 10 10 -1 17 -7 17 -13z
m13003 -20 c23 -17 40 -20 31 -5 -3 6 -1 10 5 10 7 0 10 -7 6 -15 -3 -10 7
-21 32 -35 44 -23 72 -44 72 -54 0 -4 -4 -5 -9 -1 -6 3 -14 -1 -18 -10 -7 -12
-14 -9 -40 18 -17 17 -56 45 -87 61 -31 16 -56 33 -56 38 0 13 43 9 64 -7z
m371 -77 c41 -19 29 -27 -17 -11 -24 8 -45 16 -47 19 -9 9 40 3 64 -8z
m-13955 -37 c0 -6 -4 -13 -10 -16 -5 -3 -10 1 -10 9 0 9 5 16 10 16 6 0 10 -4
10 -9z m13770 -1 c0 -5 -2 -10 -4 -10 -3 0 -8 5 -11 10 -3 6 -1 10 4 10 6 0
11 -4 11 -10z m-240 -31 c0 -5 -9 -9 -20 -9 -22 0 -27 16 -7 23 15 5 27 -1 27
-14z m291 4 c15 -9 31 -23 33 -30 6 -16 -14 -6 -54 26 -31 25 -18 27 21 4z
m-76 -64 c0 -7 -8 -15 -17 -17 -18 -3 -25 18 -11 32 10 10 28 1 28 -15z
m-14045 -59 c0 -5 -4 -10 -10 -10 -5 0 -10 5 -10 10 0 6 5 10 10 10 6 0 10 -4
10 -10z m14200 -20 c0 -5 -7 -10 -16 -10 -8 0 -12 5 -9 10 3 6 10 10 16 10 5
0 9 -4 9 -10z m-272 -27 c-5 -25 -28 -28 -28 -4 0 12 6 21 16 21 9 0 14 -7 12
-17z m-14048 -147 c0 -3 -4 -8 -10 -11 -5 -3 -10 -1 -10 4 0 6 5 11 10 11 6 0
10 -2 10 -4z m14571 -39 c-16 -16 -26 0 -10 19 9 11 15 12 17 4 2 -6 -1 -17
-7 -23z m-131 4 c0 -14 -18 -23 -30 -16 -6 4 -8 11 -5 16 8 12 35 12 35 0z
m-14375 -11 c-3 -5 -10 -10 -16 -10 -5 0 -9 5 -9 10 0 6 7 10 16 10 8 0 12 -4
9 -10z m14550 -110 c-3 -5 -13 -10 -21 -10 -8 0 -12 5 -9 10 3 6 13 10 21 10
8 0 12 -4 9 -10z m-127 -126 c4 -27 -26 -40 -46 -20 -13 13 -13 18 -2 31 18
21 44 15 48 -11z m-14324 -10 c20 -19 20 -38 2 -53 -30 -25 -79 26 -55 55 15
18 34 18 53 -2z m14110 0 c18 -7 12 -24 -10 -24 -8 0 -14 7 -14 15 0 17 2 18
24 9z m251 -113 c-16 -14 -65 -23 -65 -11 0 5 5 10 10 10 6 0 10 6 10 14 0 8
6 16 13 19 17 6 44 -20 32 -32z m-14630 -61 c-3 -5 -18 -10 -33 -9 -24 0 -25
1 -7 9 28 12 47 12 40 0z m443 -147 c-3 -31 -34 -44 -44 -19 -7 19 12 46 33
46 10 0 13 -9 11 -27z m-328 -113 c0 -5 -4 -10 -9 -10 -6 0 -13 5 -16 10 -3 6
1 10 9 10 9 0 16 -4 16 -10z m110 -51 c0 -11 -27 -12 -34 0 -3 4 -3 11 0 14 8
8 34 -3 34 -14z m-40 -69 c0 -5 -4 -10 -10 -10 -5 0 -10 5 -10 10 0 6 5 10 10
10 6 0 10 -4 10 -10z m60 -200 c24 -8 24 -8 -7 -9 -17 -1 -35 4 -38 9 -7 11 9
11 45 0z m14440 -30 c0 -5 -2 -10 -4 -10 -2 0 -20 -7 -40 -15 l-36 -15 12 25
c8 18 19 25 40 25 15 0 28 -4 28 -10z m-14530 -510 c10 -6 2 -7 -25 -3 -49 7
-58 13 -19 13 16 0 36 -5 44 -10z m186 -27 c-9 -15 -23 -46 -30 -68 -9 -23
-15 -32 -15 -20 -1 24 47 130 55 122 3 -3 -1 -18 -10 -34z m294 -102 c0 -12
-72 -72 -78 -66 -3 3 7 17 21 31 15 15 27 31 27 35 0 5 7 9 15 9 8 0 15 -4 15
-9z m-603 -143 c-3 -8 -6 -5 -6 6 -1 11 2 17 5 13 3 -3 4 -12 1 -19z m1143
-59 c-88 -27 -128 -34 -115 -20 10 10 122 38 160 39 11 0 -9 -8 -45 -19z
m-130 -33 c0 -3 -17 -10 -37 -16 -46 -14 -98 -35 -137 -56 -25 -13 -31 -13
-44 -1 -12 12 -10 15 15 22 34 8 55 24 47 36 -3 5 22 8 55 7 34 -1 64 1 68 5
7 8 33 10 33 3z m13676 -104 c-23 -23 -33 -6 -10 19 12 13 20 16 22 9 3 -7 -3
-19 -12 -28z m39 -122 c-3 -5 -10 -10 -16 -10 -5 0 -9 5 -9 10 0 6 7 10 16 10
8 0 12 -4 9 -10z m-86 -224 c9 -11 5 -16 -18 -26 -17 -6 -36 -10 -43 -7 -8 3
-6 6 6 6 11 1 16 6 13 15 -5 13 4 23 24 25 4 1 12 -5 18 -13z m132 -13 c13
-15 12 -15 -8 -4 -24 12 -29 21 -14 21 5 0 15 -7 22 -17z m-14581 -63 c0 -5
-5 -10 -11 -10 -5 0 -7 5 -4 10 3 6 8 10 11 10 2 0 4 -4 4 -10z m14442 -762
c-21 -21 -32 -3 -15 22 16 22 18 23 21 6 2 -10 -1 -23 -6 -28z m-38 -45 c8
-19 -17 -48 -33 -39 -12 8 -15 39 -4 49 12 12 31 7 37 -10z m-64 -263 c0 -5
-4 -10 -10 -10 -5 0 -10 5 -10 10 0 6 5 10 10 10 6 0 10 -4 10 -10z m50 -30
c17 -11 9 -20 -32 -38 -33 -14 -38 0 -11 30 18 21 22 21 43 8z m176 -265 c-3
-9 0 -15 8 -15 14 0 40 -49 31 -58 -3 -3 -12 4 -20 15 -10 14 -22 19 -35 16
-23 -6 -26 9 -5 27 8 7 12 16 9 21 -3 5 0 9 6 9 7 0 10 -7 6 -15z m-86 -39 c0
-3 -4 -8 -10 -11 -5 -3 -10 -1 -10 4 0 6 5 11 10 11 6 0 10 -2 10 -4z m-5 -97
c4 -6 5 -12 2 -15 -7 -7 -37 7 -37 17 0 13 27 11 35 -2z m80 -43 c17 2 39 1
50 -3 17 -5 14 -8 -14 -14 -40 -8 -87 6 -96 29 -5 14 -4 15 12 0 11 -9 30 -14
48 -12z m-3925 -21 c17 -21 -2 -65 -28 -65 -22 0 -42 19 -42 40 0 37 47 53 70
25z m-10222 -21 c4 -30 -21 -48 -47 -34 -23 12 -28 45 -8 54 25 10 52 1 55
-20z m13689 -40 c4 -11 -1 -22 -12 -31 -16 -11 -21 -11 -33 1 -8 8 -12 22 -9
30 8 21 46 21 54 0z m166 -599 c-3 -38 -17 -65 -35 -65 -6 0 -7 7 -4 16 4 12
1 14 -14 9 -12 -4 -20 -2 -20 5 0 7 -8 10 -20 7 -11 -3 -20 -3 -20 -1 0 11 35
42 42 38 4 -3 18 4 30 16 30 28 43 20 41 -25z m-428 -35 c3 -6 -1 -13 -10 -16
-19 -8 -30 0 -20 15 8 14 22 14 30 1z m501 -22 c5 -8 2 -9 -10 -5 -10 4 -19 1
-22 -8 -3 -8 -14 -17 -25 -20 -10 -4 -19 -13 -19 -21 0 -8 -7 -14 -16 -14 -8
0 -13 4 -9 9 3 5 -3 11 -12 14 -16 3 -16 5 2 12 11 5 25 14 30 21 9 11 33 20
62 23 6 0 15 -4 19 -11z m273 -1105 c-6 -7 -17 -13 -24 -13 -8 0 -15 -6 -17
-14 -2 -9 -10 -11 -23 -6 -18 7 -17 9 12 27 39 23 69 27 52 6z m-29 -352 c0
-5 -7 -11 -15 -15 -15 -5 -20 5 -8 17 9 10 23 9 23 -2z m-14650 -166 c0 -8 -4
-15 -10 -15 -5 0 -7 7 -4 15 4 8 8 15 10 15 2 0 4 -7 4 -15z m254 -42 c4 -9 0
-23 -9 -32 -13 -14 -15 -12 -15 17 0 34 14 43 24 15z m-334 -67 c0 -3 -4 -8
-10 -11 -5 -3 -10 -1 -10 4 0 6 5 11 10 11 6 0 10 -2 10 -4z m-20 -51 c0 -12
-19 -12 -23 0 -4 9 -1 12 9 8 7 -3 14 -7 14 -8z m416 -43 c-10 -17 -158 -84
-172 -78 -25 10 34 75 62 69 12 -2 25 0 28 6 4 6 25 11 47 11 22 0 38 -4 35
-8z m-317 -106 l12 -29 -30 32 c-17 18 -28 38 -25 43 8 13 26 -7 43 -46z m126
24 c3 -5 1 -10 -4 -10 -6 0 -11 5 -11 10 0 6 2 10 4 10 3 0 8 -4 11 -10z
m12825 -105 c9 -11 10 -19 3 -26 -14 -14 -43 0 -43 22 0 23 23 25 40 4z
m-13061 -140 c6 3 11 -1 11 -9 0 -19 -31 -21 -48 -4 -7 7 -12 19 -12 27 0 11
4 11 19 -3 11 -10 25 -15 30 -11z m14531 -146 c0 -5 -4 -9 -8 -9 -5 0 -14 -12
-21 -27 -11 -25 -14 -26 -23 -10 -13 23 15 69 37 61 8 -4 15 -10 15 -15z
m-14310 -108 c120 -25 130 -29 130 -53 0 -17 -5 -19 -32 -15 -66 10 -298 72
-298 79 0 14 103 8 200 -11z m325 -95 l30 -14 -28 -11 c-36 -14 -56 -14 -86 3
l-24 13 29 11 c38 14 44 14 79 -2z m13634 -99 c11 -32 21 -72 20 -90 0 -30
-13 4 -56 148 -13 44 15 -2 36 -58z m-8948 -37 c15 -81 52 -219 75 -274 13
-33 22 -62 19 -65 -3 -2 -11 10 -17 27 -7 18 -15 32 -19 32 -4 0 -12 14 -19
30 -9 21 -18 29 -29 25 -12 -3 -24 13 -49 66 -19 38 -41 91 -49 116 -16 45
-15 46 8 64 13 11 35 18 49 17 20 -2 26 -10 31 -38z m-4811 -1 c0 -5 -9 -9
-20 -9 -19 0 -27 20 -13 33 7 8 33 -11 33 -24z m13485 10 c0 -7 -8 -15 -17
-17 -18 -3 -25 18 -11 32 10 10 28 1 28 -15z m13 -119 c32 -41 27 -56 -9 -23
-38 35 -52 60 -43 75 5 8 11 6 18 -6 6 -10 21 -31 34 -46z m-608 30 c0 -5 -7
-10 -15 -10 -8 0 -15 5 -15 10 0 6 7 10 15 10 8 0 15 -4 15 -10z m-13067 -22
c6 -23 1 -38 -12 -38 -10 0 -21 47 -13 55 11 10 20 4 25 -17z m13027 2 c0 -5
-2 -10 -4 -10 -3 0 -8 5 -11 10 -3 6 -1 10 4 10 6 0 11 -4 11 -10z m1145 -20
c-3 -5 -11 -10 -16 -10 -6 0 -7 5 -4 10 3 6 11 10 16 10 6 0 7 -4 4 -10z
m-10048 -67 c23 -21 43 -56 43 -75 -1 -7 -7 2 -16 21 -11 26 -17 32 -26 23
-17 -17 -55 -15 -62 3 -15 41 25 59 61 28z m268 -13 c-3 -5 -21 -10 -38 -9
-27 0 -29 2 -12 9 28 12 57 12 50 0z m1115 -14 c-90 -85 -379 -331 -423 -360
-30 -19 -58 -39 -62 -46 -11 -17 -34 19 -35 54 0 41 35 96 82 129 35 24 39 32
33 55 -6 26 -6 26 9 7 14 -20 14 -20 38 2 13 12 66 39 118 61 52 21 129 57
170 79 87 48 104 52 70 19z m5660 -44 c0 -7 -4 -10 -10 -7 -5 3 -10 16 -10 28
0 18 2 19 10 7 5 -8 10 -21 10 -28z m-7380 -2 c0 -5 -4 -10 -10 -10 -5 0 -10
5 -10 10 0 6 5 10 10 10 6 0 10 -4 10 -10z m400 -40 c6 -11 8 -26 4 -32 -5 -8
-10 -5 -15 8 -16 41 -8 59 11 24z m-1977 -6 c-4 -10 1 -17 16 -21 11 -3 18 -9
16 -14 -8 -12 -63 24 -58 38 3 7 11 13 19 13 8 0 11 -6 7 -16z m10820 9 c-7
-2 -19 -2 -25 0 -7 3 -2 5 12 5 14 0 19 -2 13 -5z m-2734 -27 c-15 -15 -213
-116 -217 -111 -3 3 3 18 15 33 14 19 43 35 99 54 72 24 114 34 103 24z m2878
-11 c44 -31 102 -45 144 -36 23 5 41 5 45 0 3 -5 -4 -9 -15 -9 -12 0 -21 -7
-21 -16 0 -11 6 -13 19 -9 11 3 22 1 26 -4 3 -6 -5 -13 -18 -16 -16 -4 -45 5
-92 29 -37 20 -75 36 -84 36 -9 1 -32 9 -51 20 l-35 19 30 1 c17 0 40 -7 52
-15z m-10733 -19 c-3 -9 -10 -13 -16 -10 -5 3 -4 12 3 20 15 18 22 13 13 -10z
m10256 -1 c0 -9 -9 -15 -21 -15 -18 0 -19 2 -9 15 7 8 16 15 21 15 5 0 9 -7 9
-15z m-8809 -17 c6 -13 21 -33 32 -45 11 -13 16 -23 11 -23 -15 0 -74 61 -74
76 0 22 18 17 31 -8z m69 12 c0 -5 -4 -10 -10 -10 -5 0 -10 5 -10 10 0 6 5 10
10 10 6 0 10 -4 10 -10z m5018 -35 c-3 -3 -9 2 -12 12 -6 14 -5 15 5 6 7 -7
10 -15 7 -18z m-8860 -35 c18 0 22 -6 22 -35 0 -38 -15 -47 -25 -15 -10 31
-25 24 -26 -12 0 -31 -1 -31 -11 -11 -10 21 -12 21 -41 6 -78 -40 -119 -33
-76 13 18 19 20 27 11 36 -16 16 -15 25 4 32 12 5 15 2 10 -10 -5 -13 -2 -15
16 -10 13 3 29 6 37 6 7 0 11 6 8 14 -9 24 5 27 28 6 12 -11 31 -20 43 -20z
m2282 20 c8 -15 7 -26 -6 -46 -14 -20 -15 -27 -4 -34 7 -4 9 -13 6 -19 -4 -6
-11 -9 -15 -6 -11 6 -24 103 -16 115 10 16 23 12 35 -10z m11250 4 c0 -17 -22
-14 -28 4 -2 7 3 12 12 12 9 0 16 -7 16 -16z m-2473 -26 c-3 -7 -5 -2 -5 12 0
14 2 19 5 13 2 -7 2 -19 0 -25z m-2453 -36 c-4 -6 -64 41 -64 51 0 5 15 -4 33
-20 19 -15 33 -30 31 -31z m4540 43 c-7 -17 -20 -20 -28 -6 -7 10 3 21 20 21
8 0 11 -6 8 -15z m-800 -21 c-28 -15 -64 -10 -64 8 0 6 13 8 30 6 17 -3 33 -1
36 4 3 5 10 6 15 2 6 -3 -2 -12 -17 -20z m749 0 c-1 -10 3 -26 8 -36 11 -21 8
-22 -26 -6 -28 13 -33 28 -9 28 11 0 14 6 9 21 -5 16 -3 20 6 17 8 -3 13 -13
12 -24z m-7398 -4 c3 -10 1 -29 -5 -41 -10 -17 -9 -23 1 -30 11 -7 11 -12 -4
-26 -11 -11 -20 -14 -25 -8 -4 6 -14 10 -22 10 -27 0 -24 51 6 84 32 36 40 38
49 11z m6735 16 c0 -11 -19 -15 -25 -6 -3 5 1 10 9 10 9 0 16 -2 16 -4z
m-10095 -16 c3 -5 -1 -10 -9 -10 -8 0 -18 5 -21 10 -3 6 1 10 9 10 8 0 18 -4
21 -10z m8735 -39 c0 -20 3 -61 6 -91 4 -40 3 -51 -5 -40 -6 8 -11 41 -11 72
0 31 -4 60 -10 63 -5 3 -14 14 -20 24 -8 16 -6 17 15 13 21 -4 25 -10 25 -41z
m-8246 22 c4 -9 0 -23 -9 -32 -13 -14 -15 -14 -15 1 0 9 -3 23 -6 32 -4 10 -1
16 9 16 8 0 18 -8 21 -17z m6066 -40 c12 -61 30 -83 66 -83 22 0 137 -40 132
-46 -2 -1 -30 4 -63 12 -33 8 -69 13 -80 12 -11 -1 -25 1 -31 4 -6 4 -68 14
-138 22 -71 8 -131 17 -134 20 -8 8 89 6 171 -3 37 -4 67 -4 67 0 0 15 -100
44 -170 50 l-75 6 66 1 c38 1 85 -4 109 -13 23 -8 49 -15 56 -15 23 0 16 46
-8 59 -13 6 -15 9 -5 7 10 -4 17 0 17 9 0 32 9 12 20 -42z m-4930 32 c0 -8 -4
-15 -10 -15 -5 0 -10 7 -10 15 0 8 5 15 10 15 6 0 10 -7 10 -15z m-2650 -5 c0
-5 -5 -10 -11 -10 -5 0 -7 5 -4 10 3 6 8 10 11 10 2 0 4 -4 4 -10z m1075 0 c3
-5 -1 -10 -9 -10 -9 0 -16 5 -16 10 0 6 4 10 9 10 6 0 13 -4 16 -10z m826 -5
c-1 -15 -24 -12 -29 3 -3 9 2 13 12 10 10 -1 17 -7 17 -13z m9937 3 c-2 -6
-10 -14 -16 -16 -7 -2 -10 2 -6 12 7 18 28 22 22 4z m-3418 -39 c0 -39 -1 -40
-32 -37 -26 2 -34 8 -36 26 -4 26 21 51 51 52 13 0 17 -8 17 -41z m320 29 c0
-17 -31 -48 -47 -48 -11 0 -11 6 4 30 17 30 43 41 43 18z m1497 -4 c3 -8 0
-27 -6 -41 -10 -21 -9 -28 1 -35 10 -6 9 -12 -7 -24 -17 -13 -20 -13 -23 -1
-2 9 -11 13 -23 10 -30 -8 -25 44 8 79 31 32 41 35 50 12z m-9663 -8 c-3 -8
-1 -17 5 -21 6 -3 11 -16 11 -28 -1 -18 -4 -15 -15 12 -8 18 -12 37 -9 42 8
14 14 11 8 -5z m841 4 c3 -5 1 -10 -4 -10 -6 0 -11 5 -11 10 0 6 2 10 4 10 3
0 8 -4 11 -10z m45 -11 c0 -5 -4 -9 -10 -9 -5 0 -10 7 -10 16 0 8 5 12 10 9 6
-3 10 -10 10 -16z m10050 1 c5 7 11 6 20 -5 10 -12 10 -15 -3 -15 -8 0 -27 -7
-43 -15 -18 -9 -32 -11 -38 -5 -13 13 -17 42 -5 34 5 -3 9 -1 9 5 0 7 8 7 27
0 18 -7 28 -6 33 1z m-10345 -20 c3 -5 2 -10 -4 -10 -5 0 -13 5 -16 10 -3 6
-2 10 4 10 5 0 13 -4 16 -10z m242 -16 c-2 -2 -12 -1 -22 3 -18 6 -18 7 1 13
17 7 33 -5 21 -16z m-2067 -8 c0 -7 -6 -19 -14 -25 -11 -9 -15 -6 -18 14 -4
19 -1 25 13 25 11 0 19 -6 19 -14z m2130 5 c0 -5 -7 -11 -15 -15 -9 -3 -15 0
-15 9 0 8 7 15 15 15 8 0 15 -4 15 -9z m8206 -23 c26 -18 50 -39 52 -45 7 -23
-13 -14 -48 22 -33 33 -38 34 -110 36 -53 1 -68 3 -50 9 57 18 106 11 156 -22z
m-8912 8 c-5 -13 -34 -31 -34 -22 0 16 14 36 26 36 7 0 11 -6 8 -14z m5869 7
c-7 -2 -19 -2 -25 0 -7 3 -2 5 12 5 14 0 19 -2 13 -5z m674 1 c-3 -3 -12 -4
-19 -1 -8 3 -5 6 6 6 11 1 17 -2 13 -5z m-6324 -50 c-10 -25 -23 -15 -23 19 1
30 2 31 15 14 7 -11 11 -25 8 -33z m242 36 c3 -5 2 -10 -4 -10 -5 0 -13 5 -16
10 -3 6 -2 10 4 10 5 0 13 -4 16 -10z m5462 4 c-3 -3 -12 -4 -19 -1 -8 3 -5 6
6 6 11 1 17 -2 13 -5z m-7452 -14 c3 -5 2 -10 -4 -10 -5 0 -13 5 -16 10 -3 6
-2 10 4 10 5 0 13 -4 16 -10z m45 -11 c0 -5 -4 -9 -10 -9 -5 0 -10 7 -10 16 0
8 5 12 10 9 6 -3 10 -10 10 -16z m1565 11 c3 -6 -1 -7 -9 -4 -18 7 -21 14 -7
14 6 0 13 -4 16 -10z m-1682 -53 c-8 -26 -19 -44 -24 -42 -6 5 11 60 28 88 12
20 10 -3 -4 -46z m1951 47 c22 -9 10 -24 -20 -24 -23 0 -31 10 -17 23 8 9 17
9 37 1z m46 -4 c0 -5 -4 -10 -10 -10 -5 0 -10 5 -10 10 0 6 5 10 10 10 6 0 10
-4 10 -10z m3025 -36 c-25 -19 -35 -18 -35 4 0 30 20 43 38 25 14 -14 14 -17
-3 -29z m-3500 26 c3 -5 1 -10 -4 -10 -6 0 -11 5 -11 10 0 6 2 10 4 10 3 0 8
-4 11 -10z m572 -12 c-3 -8 -6 -5 -6 6 -1 11 2 17 5 13 3 -3 4 -12 1 -19z
m3031 16 c26 -8 30 -27 4 -22 -11 2 -27 -3 -36 -11 -13 -11 -20 -11 -28 -3 -9
9 -9 12 0 12 7 0 12 7 12 15 0 16 12 18 48 9z m2196 -11 c4 -9 0 -23 -9 -32
-13 -14 -15 -13 -15 7 0 12 -5 22 -11 22 -5 0 -7 5 -4 10 10 16 32 12 39 -7z
m3656 -4 c0 -6 -4 -7 -10 -4 -5 3 -10 11 -10 16 0 6 5 7 10 4 6 -3 10 -11 10
-16z m-10900 -30 c0 -17 -24 -32 -34 -22 -10 10 -7 38 6 51 14 14 28 -1 28
-29z m-260 23 c0 -5 -9 -17 -21 -28 -21 -19 -21 -19 -8 9 12 26 29 37 29 19z
m1730 -2 c0 -5 -5 -10 -11 -10 -6 0 -8 -9 -4 -20 9 -28 -4 -25 -14 3 -5 14 -4
25 3 29 16 11 26 10 26 -2z m3812 -18 c-27 -4 -37 2 -27 17 4 8 13 7 28 -1
l22 -13 -23 -3z m-5238 -3 c-3 -5 -10 -7 -15 -3 -5 3 -7 10 -3 15 3 5 10 7 15
3 5 -3 7 -10 3 -15z m7356 6 c17 -21 5 -31 -15 -12 -8 9 -15 18 -15 21 0 11
18 6 30 -9z m3386 -20 c-3 -8 -12 -15 -21 -15 -14 0 -13 3 2 26 17 26 30 18
19 -11z m-9382 10 c3 -8 1 -15 -4 -15 -6 0 -10 7 -10 15 0 8 2 15 4 15 2 0 6
-7 10 -15z m746 5 c11 -7 12 -12 3 -21 -13 -13 -33 -4 -33 17 0 16 9 18 30 4z
m5038 -13 c2 -9 -1 -17 -7 -17 -6 0 -11 7 -11 15 0 8 -6 12 -15 9 -9 -4 -13
-18 -12 -42 1 -28 -2 -37 -15 -40 -14 -3 -18 3 -18 27 0 17 4 31 9 31 5 0 7 9
4 20 -5 17 -1 20 28 17 23 -2 35 -8 37 -20z m-2230 1 c-6 -18 -28 -21 -28 -4
0 9 7 16 16 16 9 0 14 -5 12 -12z m532 -43 c-29 -57 -45 -69 -24 -19 19 46 37
74 43 69 2 -3 -6 -25 -19 -50z m2290 51 c0 -3 -4 -8 -10 -11 -5 -3 -10 -1 -10
4 0 6 5 11 10 11 6 0 10 -2 10 -4z m1490 -6 c0 -5 -2 -10 -4 -10 -3 0 -8 5
-11 10 -3 6 -1 10 4 10 6 0 11 -4 11 -10z m-2670 -21 c0 -6 -4 -7 -10 -4 -5 3
-10 11 -10 16 0 6 5 7 10 4 6 -3 10 -11 10 -16z m-4560 -4 c0 -8 -4 -15 -10
-15 -5 0 -10 7 -10 15 0 8 5 15 10 15 6 0 10 -7 10 -15z m-1600 -9 c8 -10 8
-21 2 -32 -8 -15 -11 -14 -26 7 -9 13 -16 27 -16 31 0 13 27 9 40 -6z m840
-11 c0 -8 -2 -15 -4 -15 -2 0 -6 7 -10 15 -3 8 -1 15 4 15 6 0 10 -7 10 -15z
m60 11 c0 -11 -19 -15 -25 -6 -3 5 1 10 9 10 9 0 16 -2 16 -4z m5858 -8 c-6
-18 -28 -21 -28 -4 0 9 7 16 16 16 9 0 14 -5 12 -12z m3417 -17 c-3 -6 -11 -8
-17 -5 -6 4 -5 9 3 15 16 10 23 4 14 -10z m315 10 c0 -5 -7 -11 -14 -14 -10
-4 -13 -1 -9 9 6 15 23 19 23 5z m57 -7 c-3 -3 -12 -4 -19 -1 -8 3 -5 6 6 6
11 1 17 -2 13 -5z m-3207 -48 c0 -16 -28 -42 -36 -33 -7 6 18 47 28 47 5 0 8
-6 8 -14z m2155 -6 c7 0 16 6 18 13 3 6 6 8 6 2 1 -16 -43 -88 -56 -93 -17 -5
-17 70 -1 86 8 8 14 9 16 2 2 -5 10 -10 17 -10z m-7322 -5 c-3 -16 -31 -17
-54 -2 -20 14 -19 15 18 14 21 -1 37 -6 36 -12z m3980 -2 c-7 -2 -19 -2 -25 0
-7 3 -2 5 12 5 14 0 19 -2 13 -5z m3851 -24 c-3 -5 -14 -5 -25 1 -26 14 -24
18 6 12 14 -2 22 -8 19 -13z"/>
<path d="M0 11191 c0 -17 4 -32 8 -35 4 -2 6 11 4 30 -5 42 -12 45 -12 5z"/>
<path d="M3722 11165 c0 -11 6 -36 13 -55 12 -32 14 -33 14 -9 1 14 -3 29 -8
35 -5 5 -11 18 -14 29 l-5 20 0 -20z"/>
<path d="M1 11064 c0 -11 3 -14 6 -6 3 7 2 16 -1 19 -3 4 -6 -2 -5 -13z"/>
<path d="M2955 10910 c3 -5 17 -10 31 -10 14 0 34 -9 46 -20 29 -27 35 -25 40
10 l5 30 -64 0 c-40 0 -62 -4 -58 -10z"/>
<path d="M6864 10883 c-11 -21 -27 -48 -34 -60 -21 -33 -5 -39 32 -12 18 13
65 40 105 58 40 19 70 39 66 44 -7 12 -116 5 -125 -8 -5 -6 -8 -5 -8 3 0 23
-16 12 -36 -25z"/>
<path d="M7770 10916 c0 -2 -7 -43 -15 -91 -9 -48 -14 -90 -12 -92 5 -5 69 34
105 64 21 18 24 25 14 31 -8 5 -13 12 -11 16 1 4 -4 23 -11 42 -11 27 -19 34
-42 34 -15 0 -28 -2 -28 -4z"/>
<path d="M7950 10906 c0 -20 27 -39 45 -32 13 5 13 9 3 26 -14 23 -48 27 -48
6z"/>
<path d="M8758 10913 c7 -3 16 -2 19 1 4 3 -2 6 -13 5 -11 0 -14 -3 -6 -6z"/>
<path d="M12490 10905 c0 -11 11 -15 42 -15 39 0 40 1 22 15 -25 19 -64 19
-64 0z"/>
<path d="M13920 10910 c0 -5 5 -10 10 -10 6 0 10 5 10 10 0 6 -4 10 -10 10 -5
0 -10 -4 -10 -10z"/>
<path d="M14015 10910 c3 -5 8 -10 11 -10 2 0 4 5 4 10 0 6 -5 10 -11 10 -5 0
-7 -4 -4 -10z"/>
<path d="M3490 10895 c0 -8 5 -15 10 -15 6 0 10 7 10 15 0 8 -4 15 -10 15 -5
0 -10 -7 -10 -15z"/>
<path d="M5030 10898 c-19 -5 -36 -11 -37 -12 -5 -5 30 -86 36 -86 4 0 27 20
51 45 37 38 42 47 30 55 -18 12 -34 11 -80 -2z"/>
<path d="M12173 10882 c-22 -3 -33 -22 -13 -22 6 0 10 -4 10 -9 0 -5 -9 -7
-20 -4 -25 7 -25 2 0 -42 20 -35 20 -35 0 -35 -11 0 -20 5 -20 11 0 8 -4 8
-14 -1 -8 -6 -12 -18 -9 -26 3 -8 0 -14 -6 -14 -6 0 -11 -9 -11 -20 0 -13 7
-20 20 -20 17 0 19 5 14 25 -7 28 13 36 23 9 10 -26 72 -2 73 29 0 4 -10 7
-21 7 -18 0 -19 3 -9 15 7 8 9 23 4 37 -6 19 -5 21 7 11 10 -8 20 -9 29 -3 13
8 12 10 -2 10 -10 0 -18 5 -18 10 0 6 -8 10 -17 10 -15 0 -16 2 -3 10 19 11
11 17 -17 12z"/>
<path d="M8220 10859 c-20 -5 -22 -8 -9 -13 9 -4 34 -6 54 -4 l38 3 -29 11
c-16 5 -40 7 -54 3z"/>
<path d="M2330 10840 c-9 -16 -8 -18 5 -14 8 4 15 12 15 20 0 20 -7 17 -20 -6z"/>
<path d="M3019 10848 c-11 -8 -10 -9 3 -4 10 3 22 -2 27 -12 9 -15 10 -15 11
-1 0 21 -22 30 -41 17z"/>
<path d="M12720 10835 c0 -14 5 -25 10 -25 6 0 10 11 10 25 0 14 -4 25 -10 25
-5 0 -10 -11 -10 -25z"/>
<path d="M11960 10840 c0 -5 7 -7 15 -4 8 4 15 8 15 10 0 2 -7 4 -15 4 -8 0
-15 -4 -15 -10z"/>
<path d="M2190 10833 c0 -1 9 -7 19 -13 20 -10 51 -4 51 10 0 7 -70 10 -70 3z"/>
<path d="M9875 10829 c-12 -19 5 -23 22 -6 16 16 16 17 1 17 -9 0 -20 -5 -23
-11z"/>
<path d="M1815 10810 c-3 -5 -1 -10 4 -10 6 0 11 5 11 10 0 6 -2 10 -4 10 -3
0 -8 -4 -11 -10z"/>
<path d="M8275 10809 c-4 -6 -5 -13 -2 -16 7 -7 27 6 27 18 0 12 -17 12 -25
-2z"/>
<path d="M12225 10810 c-3 -5 -2 -10 4 -10 5 0 13 5 16 10 3 6 2 10 -4 10 -5
0 -13 -4 -16 -10z"/>
<path d="M8042 10794 c-26 -11 -31 -18 -24 -32 5 -9 12 -34 16 -54 8 -46 21
-55 37 -26 7 13 27 41 45 64 26 31 31 43 22 52 -16 16 -55 14 -96 -4z"/>
<path d="M12290 10780 c0 -5 5 -10 11 -10 5 0 7 5 4 10 -3 6 -8 10 -11 10 -2
0 -4 -4 -4 -10z"/>
<path d="M12261 10754 c0 -11 3 -14 6 -6 3 7 2 16 -1 19 -3 4 -6 -2 -5 -13z"/>
<path d="M1660 10751 c0 -6 5 -13 10 -16 6 -3 10 1 10 9 0 9 -4 16 -10 16 -5
0 -10 -4 -10 -9z"/>
<path d="M1370 10740 c0 -5 11 -10 25 -10 14 0 25 5 25 10 0 6 -11 10 -25 10
-14 0 -25 -4 -25 -10z"/>
<path d="M14538 10734 c-31 -16 -36 -35 -14 -53 11 -10 21 -9 43 3 58 32 60
34 38 50 -25 19 -33 19 -67 0z"/>
<path d="M1707 10719 c4 -12 0 -25 -7 -29 -11 -7 -8 -16 13 -43 30 -40 67 -56
60 -26 -4 13 0 19 11 19 19 0 20 4 5 32 -8 15 -17 18 -35 14 -13 -4 -24 -3
-23 1 2 15 -13 53 -21 53 -5 0 -6 -9 -3 -21z"/>
<path d="M1344 10713 c5 -9 1 -13 -11 -13 -17 -1 -17 -1 0 -11 26 -15 43 3 21
22 -12 9 -15 10 -10 2z"/>
<path d="M12220 10710 c-8 -5 -12 -11 -9 -14 3 -3 14 1 25 9 21 16 8 20 -16 5z"/>
<path d="M14633 10684 c-23 -12 -52 -24 -65 -28 -22 -6 -22 -7 -4 -17 14 -9
28 -8 56 1 21 7 43 9 49 6 6 -4 11 -2 11 4 0 6 4 8 10 5 5 -3 22 0 37 8 26 14
26 15 6 25 -11 6 -23 9 -26 5 -4 -3 -12 -2 -19 3 -9 7 -27 3 -55 -12z"/>
<path d="M11810 10690 c-9 -6 -10 -10 -3 -10 6 0 15 5 18 10 8 12 4 12 -15 0z"/>
<path d="M14450 10695 c0 -2 9 -9 20 -15 16 -9 20 -8 20 5 0 8 -9 15 -20 15
-11 0 -20 -2 -20 -5z"/>
<path d="M1320 10671 c0 -6 4 -13 10 -16 6 -3 7 1 4 9 -7 18 -14 21 -14 7z"/>
<path d="M1918 10673 c7 -3 16 -2 19 1 4 3 -2 6 -13 5 -11 0 -14 -3 -6 -6z"/>
<path d="M12170 10670 c-8 -5 -12 -11 -9 -14 2 -3 11 -1 19 4 8 5 12 11 9 14
-2 3 -11 1 -19 -4z"/>
<path d="M12016 10614 c-8 -20 1 -34 21 -34 10 0 13 6 9 16 -3 9 -6 20 -6 25
0 15 -17 10 -24 -7z"/>
<path d="M14752 10602 c-23 -11 -31 -20 -27 -33 7 -23 -13 -99 -25 -99 -6 0
-10 -9 -10 -20 0 -31 -25 -74 -52 -88 -13 -7 -46 -19 -73 -26 -30 -7 -50 -18
-50 -26 0 -8 28 -25 65 -40 36 -14 94 -40 130 -59 38 -20 78 -33 97 -33 69 3
173 66 173 105 0 30 -36 53 -56 36 -8 -7 -13 -18 -10 -26 3 -7 -1 -13 -9 -13
-18 0 -19 12 -3 28 10 10 5 11 -22 8 -19 -3 -43 -5 -53 -5 -10 -1 -16 -5 -12
-11 6 -10 -53 -45 -62 -37 -2 3 0 14 6 24 9 19 5 19 -102 17 l-112 -3 140 20
c127 18 142 23 164 47 13 15 20 21 16 14 -6 -11 -3 -12 13 -3 23 12 37 30 30
37 -3 2 -26 -7 -52 -21 -85 -45 -101 -28 -34 36 31 29 39 42 30 51 -13 13 13
58 34 58 8 0 14 5 14 10 0 6 -4 10 -10 10 -5 0 -7 7 -4 15 4 8 2 15 -4 15 -6
0 -12 -6 -15 -12 -2 -8 -10 -1 -17 15 -15 31 -45 34 -98 9z m44 -145 c-14 -15
-26 -22 -26 -17 0 6 -7 10 -15 10 -26 0 -16 19 13 26 15 3 32 7 37 9 19 5 16
-3 -9 -28z m84 -204 c0 -15 -34 -43 -52 -43 -16 0 -15 4 9 25 28 24 43 31 43
18z"/>
<path d="M14151 10470 c-51 -34 -40 -46 35 -37 55 6 58 8 43 41 -15 32 -23 32
-78 -4z"/>
<path d="M14913 10374 l-28 -25 33 22 c17 13 32 24 32 26 0 8 -11 1 -37 -23z"/>
<path d="M15010 10314 c0 -8 5 -12 10 -9 6 4 8 11 5 16 -9 14 -15 11 -15 -7z"/>
<path d="M714 10305 c-17 -13 -17 -14 -1 -15 19 0 24 -16 6 -22 -14 -5 8 -55
29 -63 8 -3 16 -4 18 -2 4 3 -23 107 -29 113 -2 2 -12 -3 -23 -11z"/>
<path d="M14990 10233 l-25 -25 32 16 c35 17 52 36 31 35 -7 0 -24 -12 -38
-26z"/>
<path d="M14980 10177 l-45 -22 50 -5 c33 -3 44 -7 33 -12 -10 -4 -18 -12 -18
-17 0 -5 28 5 63 22 40 20 56 33 45 35 -10 2 -18 8 -18 13 0 16 -64 8 -110
-14z"/>
<path d="M15213 10189 c-28 -10 -29 -25 -4 -38 16 -9 18 -8 13 11 -4 18 -2 20
16 16 12 -4 22 -3 22 2 0 13 -24 18 -47 9z"/>
<path d="M660 10180 c0 -5 5 -10 10 -10 6 0 10 5 10 10 0 6 -4 10 -10 10 -5 0
-10 -4 -10 -10z"/>
<path d="M14918 10173 c7 -3 16 -2 19 1 4 3 -2 6 -13 5 -11 0 -14 -3 -6 -6z"/>
<path d="M14835 10160 c3 -5 15 -10 26 -10 11 0 17 5 14 10 -3 6 -15 10 -26
10 -11 0 -17 -4 -14 -10z"/>
<path d="M15455 10120 c-3 -5 -1 -10 4 -10 6 0 11 5 11 10 0 6 -2 10 -4 10 -3
0 -8 -4 -11 -10z"/>
<path d="M15328 10113 c7 -3 16 -2 19 1 4 3 -2 6 -13 5 -11 0 -14 -3 -6 -6z"/>
<path d="M14964 10086 c22 -18 46 -21 46 -6 0 6 -6 10 -14 10 -8 0 -23 3 -33
6 -16 5 -16 4 1 -10z"/>
<path d="M15350 10062 c0 -10 33 -22 60 -22 13 1 13 2 0 9 -27 16 -60 22 -60
13z"/>
<path d="M15453 10035 c-7 -16 -8 -27 -1 -31 14 -9 20 1 16 30 l-3 26 -12 -25z"/>
<path d="M790 9994 c0 -15 22 -44 31 -39 18 12 10 45 -11 45 -11 0 -20 -3 -20
-6z"/>
<path d="M611 9674 c0 -11 3 -14 6 -6 3 7 2 16 -1 19 -3 4 -6 -2 -5 -13z"/>
<path d="M15480 8033 c0 -6 -9 -15 -20 -18 -19 -6 -29 -34 -12 -36 4 0 16 -2
27 -4 31 -7 59 5 46 18 -15 15 -14 27 4 27 8 0 15 5 15 10 0 14 -27 13 -36 -1
-4 -8 -9 -7 -15 2 -6 9 -9 10 -9 2z"/>
<path d="M15360 7740 c0 -6 7 -10 15 -10 8 0 15 2 15 4 0 2 -7 6 -15 10 -8 3
-15 1 -15 -4z"/>
<path d="M15310 7699 c0 -5 9 -9 19 -9 11 0 22 4 25 9 3 5 -6 9 -19 9 -14 0
-25 -4 -25 -9z"/>
<path d="M15375 7690 c3 -5 8 -10 11 -10 2 0 4 5 4 10 0 6 -5 10 -11 10 -5 0
-7 -4 -4 -10z"/>
<path d="M604 7502 c3 -6 0 -13 -6 -16 -7 -3 -3 -4 10 -3 26 2 31 20 6 25 -9
2 -14 -1 -10 -6z"/>
<path d="M647 7473 c-18 -18 -4 -52 34 -83 l42 -33 18 24 19 24 -10 -33 c-5
-18 -7 -39 -4 -47 3 -7 1 -30 -5 -50 -7 -27 -7 -35 2 -32 7 2 12 10 12 18 0
19 38 41 46 27 8 -13 29 -1 29 16 0 9 -9 12 -26 8 -20 -4 -25 -1 -22 9 8 23
45 22 61 -2 9 -11 20 -18 26 -14 14 8 15 45 1 45 -5 0 -7 6 -5 13 4 8 -33 31
-100 65 -116 57 -109 55 -118 45z"/>
<path d="M642 7348 c2 -12 11 -22 22 -24 10 -1 23 -9 27 -16 6 -10 11 -10 20
-1 9 9 5 18 -14 37 -32 32 -60 34 -55 4z"/>
<path d="M590 7319 c0 -5 5 -7 10 -4 6 3 10 8 10 11 0 2 -4 4 -10 4 -5 0 -10
-5 -10 -11z"/>
<path d="M604 7282 c3 -6 2 -13 -2 -16 -5 -3 -7 -16 -5 -30 5 -22 6 -23 31
-10 15 8 33 14 40 14 21 0 13 28 -10 35 -13 4 -31 9 -42 12 -11 3 -16 1 -12
-5z"/>
<path d="M15433 7283 c4 -3 -1 -12 -11 -19 -16 -13 -16 -13 1 -14 9 0 17 5 17
11 0 6 7 8 16 5 14 -5 15 -4 4 9 -7 8 -17 15 -23 15 -6 0 -7 -3 -4 -7z"/>
<path d="M669 7215 c-1 -5 -1 -13 0 -17 0 -5 -8 -8 -19 -8 -11 0 -20 -4 -20
-9 0 -20 20 -21 52 -5 23 12 28 19 18 22 -8 3 -18 10 -22 16 -5 7 -8 7 -9 1z"/>
<path d="M15344 7206 c-10 -8 -15 -18 -11 -22 4 -4 17 2 30 14 24 25 12 30
-19 8z"/>
<path d="M707 7173 c-10 -9 -9 -23 2 -23 5 0 11 7 15 15 5 15 -5 20 -17 8z"/>
<path d="M597 7156 c-4 -10 -1 -13 9 -9 15 6 19 23 5 23 -5 0 -11 -7 -14 -14z"/>
<path d="M655 7130 c-19 -8 -19 -9 3 -9 12 -1 22 4 22 9 0 6 -1 10 -2 9 -2 0
-12 -4 -23 -9z"/>
<path d="M15761 7100 c-16 -9 -6 -30 15 -30 15 0 20 25 6 34 -4 2 -14 1 -21
-4z"/>
<path d="M650 7039 c0 -5 5 -7 10 -4 6 3 10 8 10 11 0 2 -4 4 -10 4 -5 0 -10
-5 -10 -11z"/>
<path d="M15437 6803 c-11 -10 -8 -43 3 -43 6 0 10 -7 8 -16 -2 -10 3 -19 10
-21 8 -3 12 9 12 41 0 43 -13 59 -33 39z"/>
<path d="M750 6755 c0 -9 5 -15 11 -13 6 2 11 8 11 13 0 5 -5 11 -11 13 -6 2
-11 -4 -11 -13z"/>
<path d="M590 6700 c0 -5 5 -10 11 -10 5 0 7 5 4 10 -3 6 -8 10 -11 10 -2 0
-4 -4 -4 -10z"/>
<path d="M615 6679 c-11 -17 1 -21 15 -4 8 9 8 15 2 15 -6 0 -14 -5 -17 -11z"/>
<path d="M672 6575 c-1 -18 2 -23 14 -18 16 6 16 34 -1 40 -6 2 -12 -8 -13
-22z"/>
<path d="M595 6580 c-3 -5 -1 -10 4 -10 6 0 11 5 11 10 0 6 -2 10 -4 10 -3 0
-8 -4 -11 -10z"/>
<path d="M675 6521 c-6 -5 -27 -14 -47 -21 l-38 -12 0 -59 c0 -32 4 -59 9 -59
5 0 35 26 67 57 32 31 54 49 51 38 -5 -11 -3 -22 5 -27 19 -11 25 -10 32 8 4
11 2 15 -8 11 -10 -4 -12 0 -9 14 3 10 0 19 -6 19 -6 0 -11 9 -11 20 0 21 -28
28 -45 11z m-40 -81 c3 -6 -1 -7 -9 -4 -18 7 -21 14 -7 14 6 0 13 -4 16 -10z"/>
<path d="M593 6092 c0 -27 4 -39 11 -32 6 6 5 21 -2 42 l-11 33 2 -43z"/>
<path d="M15280 6014 c0 -8 5 -12 10 -9 6 4 8 11 5 16 -9 14 -15 11 -15 -7z"/>
<path d="M620 5986 c0 -8 5 -18 10 -21 6 -3 10 3 10 14 0 12 -4 21 -10 21 -5
0 -10 -6 -10 -14z"/>
<path d="M15767 5854 c-4 -4 -7 -16 -7 -26 0 -13 7 -18 26 -18 21 0 25 4 22
22 -3 23 -27 35 -41 22z"/>
<path d="M15458 5224 c-5 -4 -8 -17 -8 -29 0 -11 -5 -26 -11 -32 -7 -7 -7 -13
-1 -17 6 -3 13 -2 17 4 3 5 3 10 -2 10 -4 0 -2 4 5 9 8 4 12 20 10 36 -2 15
-6 23 -10 19z"/>
<path d="M15456 5125 c-3 -8 -1 -15 4 -15 6 0 10 7 10 15 0 8 -2 15 -4 15 -2
0 -6 -7 -10 -15z"/>
<path d="M15450 5001 c0 -11 5 -23 10 -26 6 -4 10 5 10 19 0 14 -4 26 -10 26
-5 0 -10 -9 -10 -19z"/>
<path d="M15405 4970 c3 -5 8 -10 11 -10 2 0 4 5 4 10 0 6 -5 10 -11 10 -5 0
-7 -4 -4 -10z"/>
<path d="M15318 4869 c-20 -11 -23 -45 -7 -86 15 -39 30 -45 56 -21 22 21 32
45 14 34 -5 -4 -7 2 -5 11 3 10 -6 30 -18 45 -18 22 -27 25 -40 17z"/>
<path d="M15275 4662 c-5 -4 -16 -15 -24 -24 -12 -17 -10 -18 26 -16 22 0 45
-2 51 -6 7 -4 9 1 7 15 -7 33 -37 48 -60 31z"/>
<path d="M15630 3780 c0 -5 5 -10 11 -10 5 0 7 5 4 10 -3 6 -8 10 -11 10 -2 0
-4 -4 -4 -10z"/>
<path d="M590 3175 c0 -8 7 -15 16 -15 14 0 14 3 4 15 -7 8 -14 15 -16 15 -2
0 -4 -7 -4 -15z"/>
<path d="M15522 2929 c2 -7 10 -15 17 -17 8 -3 12 1 9 9 -2 7 -10 15 -17 17
-8 3 -12 -1 -9 -9z"/>
<path d="M15557 2891 c-3 -12 1 -22 10 -25 22 -9 23 -8 23 19 0 30 -25 34 -33
6z"/>
<path d="M590 2884 c0 -12 7 -24 15 -28 19 -7 19 5 0 30 -14 19 -14 19 -15 -2z"/>
<path d="M640 2830 c0 -5 5 -10 11 -10 5 0 7 5 4 10 -3 6 -8 10 -11 10 -2 0
-4 -4 -4 -10z"/>
<path d="M15335 2420 c3 -5 11 -10 16 -10 6 0 7 5 4 10 -3 6 -11 10 -16 10 -6
0 -7 -4 -4 -10z"/>
<path d="M15306 2398 c-9 -36 -7 -48 9 -48 12 0 14 8 10 32 -8 41 -11 44 -19
16z"/>
<path d="M15260 2364 c0 -8 5 -12 10 -9 6 3 10 10 10 16 0 5 -4 9 -10 9 -5 0
-10 -7 -10 -16z"/>
<path d="M15288 2323 c-42 -5 -43 -7 -26 -63 9 -27 19 -40 31 -40 28 0 63 41
62 75 0 32 -6 34 -67 28z"/>
<path d="M15424 2273 c4 -9 2 -19 -4 -23 -7 -4 -6 -17 3 -39 l14 -33 7 32 c10
50 7 67 -10 74 -12 5 -15 2 -10 -11z"/>
<path d="M595 2169 c1 -39 7 -64 16 -70 23 -15 31 -10 26 14 -3 12 -9 43 -12
70 -11 72 -33 62 -30 -14z"/>
<path d="M15329 2137 c-8 -13 -8 -22 0 -30 8 -8 11 -8 11 1 0 7 15 5 45 -8
l45 -19 0 23 c0 29 -16 42 -58 48 -25 4 -35 0 -43 -15z"/>
<path d="M15320 2063 c0 -11 7 -26 15 -33 8 -7 15 -20 14 -29 0 -10 -2 -12 -6
-3 -7 19 -22 4 -16 -17 6 -25 33 -16 33 11 0 12 8 27 18 34 16 12 16 13 -3 20
-11 4 -28 14 -37 22 -16 14 -18 13 -18 -5z"/>
<path d="M15417 2059 c-12 -7 -16 -17 -12 -30 5 -14 2 -17 -8 -13 -8 3 -17 -2
-20 -10 -10 -25 9 -19 45 13 22 20 30 33 23 40 -7 6 -16 6 -28 0z"/>
<path d="M590 2034 c0 -8 5 -12 10 -9 6 3 10 10 10 16 0 5 -4 9 -10 9 -5 0
-10 -7 -10 -16z"/>
<path d="M625 2018 c4 -12 11 -30 16 -38 7 -12 8 -12 9 4 0 15 3 16 15 6 9 -7
15 -29 15 -52 0 -36 23 -78 36 -65 11 11 -41 147 -53 142 -7 -2 -12 1 -10 7 1
7 -6 14 -16 16 -16 3 -18 0 -12 -20z"/>
<path d="M15256 1975 c4 -8 1 -15 -5 -15 -12 0 -3 -31 13 -42 17 -12 23 -9 28
10 7 25 -9 62 -26 62 -10 0 -13 -6 -10 -15z"/>
<path d="M15120 1765 c0 -8 5 -15 10 -15 6 0 10 7 10 15 0 8 -4 15 -10 15 -5
0 -10 -7 -10 -15z"/>
<path d="M766 1697 c3 -10 9 -15 12 -12 3 3 0 11 -7 18 -10 9 -11 8 -5 -6z"/>
<path d="M13085 1690 c-3 -5 -3 -14 0 -20 3 -5 1 -10 -6 -10 -14 0 -38 -30
-39 -47 0 -7 9 -13 20 -13 14 0 20 6 18 18 -2 13 4 17 25 18 45 2 57 21 27 44
-29 22 -36 24 -45 10z"/>
<path d="M5090 1620 c0 -5 5 -10 10 -10 6 0 10 5 10 10 0 6 -4 10 -10 10 -5 0
-10 -4 -10 -10z"/>
<path d="M13120 1601 c-14 -27 -13 -34 5 -27 8 3 15 1 15 -4 0 -13 27 -13 35
0 11 18 -6 50 -25 50 -11 0 -24 -9 -30 -19z"/>
<path d="M13413 1607 c-13 -5 -23 -13 -23 -18 0 -8 26 -6 36 3 3 4 12 4 20 1
8 -3 14 -1 14 5 0 16 -23 20 -47 9z"/>
<path d="M14563 1606 c0 -8 6 -12 14 -9 7 3 10 9 7 14 -8 14 -21 11 -21 -5z"/>
<path d="M13513 1595 c-7 -20 2 -29 21 -22 9 4 13 13 10 22 -8 19 -23 19 -31
0z"/>
<path d="M13632 1583 c-26 -29 -27 -33 -9 -33 14 0 44 46 36 54 -2 3 -14 -7
-27 -21z"/>
<path d="M13013 1585 c-11 -12 -8 -25 8 -25 10 0 20 28 11 34 -4 2 -12 -2 -19
-9z"/>
<path d="M13065 1580 c-3 -5 -1 -10 4 -10 6 0 11 5 11 10 0 6 -2 10 -4 10 -3
0 -8 -4 -11 -10z"/>
<path d="M936 1565 c-16 -12 -17 -17 -6 -30 27 -32 48 -14 32 27 -6 14 -9 15
-26 3z"/>
<path d="M5080 1570 c0 -5 7 -10 15 -10 8 0 15 5 15 10 0 6 -7 10 -15 10 -8 0
-15 -4 -15 -10z"/>
<path d="M13464 1566 c-18 -14 -18 -16 -1 -33 15 -15 17 -16 17 -1 0 9 6 18
13 21 8 3 9 8 1 16 -7 8 -15 7 -30 -3z"/>
<path d="M8255 1500 c3 -5 8 -10 11 -10 2 0 4 5 4 10 0 6 -5 10 -11 10 -5 0
-7 -4 -4 -10z"/>
<path d="M10100 1495 c0 -14 6 -16 29 -12 17 4 31 2 33 -4 2 -6 25 -9 53 -7
l50 3 -40 12 c-22 6 -59 14 -82 18 -37 6 -43 4 -43 -10z"/>
<path d="M5440 1484 c0 -17 22 -14 28 4 2 7 -3 12 -12 12 -9 0 -16 -7 -16 -16z"/>
<path d="M10020 1490 c0 -5 11 -10 24 -10 14 0 28 5 31 10 4 6 -7 10 -24 10
-17 0 -31 -4 -31 -10z"/>
<path d="M7642 1478 c5 -15 28 -23 28 -10 0 5 -7 13 -16 16 -10 4 -14 1 -12
-6z"/>
<path d="M8369 1474 c-12 -14 -11 -16 5 -13 11 2 21 10 24 17 5 17 -13 15 -29
-4z"/>
<path d="M13768 1483 c12 -2 30 -2 40 0 9 3 -1 5 -23 4 -22 0 -30 -2 -17 -4z"/>
<path d="M5593 1467 c4 -10 -1 -13 -19 -9 -13 2 -24 0 -24 -6 0 -16 20 -19 57
-8 37 12 39 29 3 34 -16 3 -21 0 -17 -11z"/>
<path d="M6756 1471 c-3 -5 1 -12 10 -15 8 -3 12 -10 9 -16 -3 -5 1 -10 9 -10
9 0 16 6 16 13 0 16 -37 39 -44 28z"/>
<path d="M12900 1470 c0 -5 5 -10 10 -10 6 0 10 5 10 10 0 6 -4 10 -10 10 -5
0 -10 -4 -10 -10z"/>
<path d="M10098 1458 c-15 -11 -15 -16 -4 -31 13 -17 15 -17 52 0 59 26 59 28
4 38 -23 4 -41 1 -52 -7z"/>
<path d="M1225 1434 c-9 -14 -14 -28 -12 -31 3 -3 13 9 22 26 19 38 14 41 -10
5z"/>
<path d="M3385 1450 c3 -5 16 -10 28 -9 21 0 21 1 2 9 -28 12 -37 12 -30 0z"/>
<path d="M5282 1448 c5 -15 48 -24 48 -10 0 10 -23 22 -42 22 -5 0 -8 -6 -6
-12z"/>
<path d="M6600 1445 c7 -8 20 -15 29 -15 13 1 13 3 -3 15 -26 19 -42 19 -26 0z"/>
<path d="M10335 1451 c-19 -8 -19 -8 0 -17 11 -6 40 -7 65 -4 l45 6 -40 12
c-45 13 -43 13 -70 3z"/>
<path d="M13800 1445 l-55 -13 41 -1 c22 0 49 6 60 14 10 8 17 14 14 14 -3 -1
-30 -7 -60 -14z"/>
<path d="M6346 1434 c-4 -9 -5 -18 -4 -18 14 -8 61 -26 67 -26 5 0 11 9 14 19
3 14 -2 21 -18 25 -13 3 -30 8 -38 12 -8 3 -17 -2 -21 -12z"/>
<path d="M9560 1440 c0 -5 7 -10 15 -10 8 0 15 -7 15 -15 0 -8 7 -15 15 -15 8
0 15 7 15 15 0 8 5 15 10 15 6 0 10 5 10 10 0 6 -18 10 -40 10 -22 0 -40 -4
-40 -10z"/>
<path d="M3875 1430 c-9 -15 4 -30 26 -30 23 0 26 25 3 34 -21 8 -22 8 -29 -4z"/>
<path d="M6671 1426 c-24 -13 -24 -14 -4 -25 23 -12 119 -11 100 1 -7 4 -21 8
-32 8 -11 0 -27 5 -35 11 -12 9 -11 10 8 6 12 -3 22 -1 22 4 0 13 -31 10 -59
-5z"/>
<path d="M8322 1428 c-17 -17 -15 -32 6 -50 27 -24 59 -31 65 -14 4 10 1 13
-8 10 -8 -3 -22 1 -31 10 -8 9 -20 14 -25 11 -5 -4 -9 -1 -9 4 0 6 7 11 15 11
8 0 15 7 15 15 0 18 -12 19 -28 3z"/>
<path d="M3540 1423 c0 -5 11 -9 25 -9 14 -1 22 2 19 7 -6 11 -44 12 -44 2z"/>
<path d="M8388 1413 c7 -3 16 -2 19 1 4 3 -2 6 -13 5 -11 0 -14 -3 -6 -6z"/>
<path d="M8475 1410 c-3 -5 -1 -18 4 -27 11 -20 12 -19 16 15 2 23 -9 30 -20
12z"/>
<path d="M10213 1413 c-38 -7 -15 -33 31 -34 22 -1 31 -4 19 -6 -38 -7 -26
-24 16 -22 23 2 43 9 49 20 9 14 4 19 -31 33 -24 9 -47 15 -52 15 -6 -1 -20
-4 -32 -6z"/>
<path d="M10548 1413 c6 -2 18 -2 25 0 6 3 1 5 -13 5 -14 0 -19 -2 -12 -5z"/>
<path d="M2860 1402 c-38 -12 -55 -66 -18 -60 14 2 24 13 29 32 9 34 9 35 -11
28z"/>
<path d="M3391 1391 c-1 -21 -3 -22 -18 -10 -14 12 -16 12 -11 -1 3 -9 15 -14
32 -12 14 1 26 -2 26 -7 0 -6 7 -8 15 -5 24 10 18 34 -9 34 -13 0 -27 6 -29
13 -3 6 -6 1 -6 -12z"/>
<path d="M5212 1396 c-35 -7 -71 -20 -80 -30 -16 -15 -14 -15 33 -1 28 9 65
19 83 22 18 3 35 10 38 14 6 11 7 11 -74 -5z"/>
<path d="M6910 1399 c0 -5 5 -7 10 -4 6 3 10 8 10 11 0 2 -4 4 -10 4 -5 0 -10
-5 -10 -11z"/>
<path d="M8440 1400 c-13 -8 -12 -10 3 -10 9 0 17 5 17 10 0 12 -1 12 -20 0z"/>
<path d="M8513 1384 c2 -15 9 -30 16 -32 9 -3 11 5 9 24 -2 15 -9 29 -16 32
-9 3 -12 -4 -9 -24z"/>
<path d="M8555 1400 c-4 -6 -3 -16 3 -22 13 -13 23 4 13 21 -7 10 -10 10 -16
1z"/>
<path d="M10410 1400 c-13 -8 -12 -10 3 -10 9 0 17 5 17 10 0 12 -1 12 -20 0z"/>
<path d="M5305 1390 c-18 -8 -17 -9 8 -9 15 -1 27 4 27 9 0 12 -8 12 -35 0z"/>
<path d="M1571 1373 c1 -16 18 -48 19 -38 1 6 3 18 5 28 2 9 -3 17 -11 17 -8
0 -14 -3 -13 -7z"/>
<path d="M8418 1373 c7 -3 16 -2 19 1 4 3 -2 6 -13 5 -11 0 -14 -3 -6 -6z"/>
<path d="M10355 1371 c3 -5 -1 -12 -7 -14 -8 -4 -7 -6 4 -6 23 -1 32 15 12 23
-8 3 -13 2 -9 -3z"/>
<path d="M1510 1340 c0 -5 7 -10 16 -10 8 0 12 5 9 10 -3 6 -10 10 -16 10 -5
0 -9 -4 -9 -10z"/>
<path d="M7654 1317 c-15 -32 -15 -35 2 -56 27 -32 34 -26 34 28 0 62 -15 73
-36 28z"/>
<path d="M10190 1340 c0 -5 5 -10 10 -10 6 0 10 5 10 10 0 6 -4 10 -10 10 -5
0 -10 -4 -10 -10z"/>
<path d="M13770 1346 c0 -9 40 -13 46 -5 3 5 -6 9 -20 9 -14 0 -26 -2 -26 -4z"/>
<path d="M10318 1333 c12 -2 32 -2 45 0 12 2 2 4 -23 4 -25 0 -35 -2 -22 -4z"/>
</g>
</svg>
