<?xml version="1.0" standalone="no"?>
<!DOCTYPE svg PUBLIC "-//W3C//DTD SVG 20010904//EN"
 "http://www.w3.org/TR/2001/REC-SVG-20010904/DTD/svg10.dtd">
<svg version="1.0" xmlns="http://www.w3.org/2000/svg"
 width="1600.000000pt" height="1200.000000pt" viewBox="0 0 1600.000000 1200.000000"
 preserveAspectRatio="xMidYMid meet">

<g transform="translate(0.000000,1200.000000) scale(0.100000,-0.100000)"
fill="#000000" stroke="none">
<path d="M3786 9165 c-26 -30 -54 -55 -62 -55 -11 0 -14 -6 -9 -22 5 -20 4
-21 -7 -7 -27 32 -78 30 -168 -8 -61 -26 -65 -30 -70 -59 -9 -50 -41 -38 -73
28 -16 32 -37 60 -47 63 -23 7 -149 -45 -193 -79 l-31 -24 -55 30 c-51 28 -65
31 -164 33 -65 2 -113 8 -122 15 -9 8 -29 9 -55 5 -26 -4 -46 -3 -55 5 -30 25
-138 -6 -295 -83 -40 -20 -45 -26 -46 -57 0 -19 -4 -47 -7 -62 -8 -29 -25 -37
-31 -15 -22 75 -35 108 -37 92 -1 -11 -1 -23 -1 -26 1 -4 -17 -9 -38 -11 -22
-2 -40 -2 -40 0 0 1 7 13 15 26 9 13 13 31 9 40 -5 13 -12 9 -35 -20 -16 -20
-29 -47 -29 -60 0 -27 -10 -54 -19 -54 -4 0 -8 6 -9 13 0 6 -6 40 -13 75 -9
46 -17 62 -29 62 -14 0 -83 -21 -149 -45 -11 -4 -9 -11 9 -30 34 -36 21 -57
-32 -52 -42 4 -57 8 -107 28 -16 7 -28 6 -34 0 -14 -14 19 -74 46 -87 11 -5
22 -17 23 -26 3 -24 -13 -23 -25 1 -14 25 -72 58 -126 72 -57 14 -105 -10
-105 -53 0 -34 -3 -34 -47 -7 -23 15 -58 23 -103 27 -63 4 -68 3 -75 -17 -6
-20 4 -82 26 -153 4 -16 4 -28 -1 -28 -5 0 -11 9 -15 19 -7 24 -70 81 -89 81
-7 0 -21 9 -31 20 -17 19 -64 28 -66 13 -4 -49 -12 -99 -16 -103 -3 -3 -24 16
-47 43 -23 26 -47 47 -54 47 -6 0 -35 -15 -64 -33 -29 -19 -79 -46 -110 -60
-31 -15 -60 -31 -63 -37 -3 -5 22 -22 57 -38 76 -35 99 -59 109 -115 4 -23 12
-68 19 -100 6 -33 9 -62 6 -65 -3 -3 -37 24 -74 59 -89 84 -139 121 -182 136
-42 15 -40 15 -40 4 0 -5 29 -33 65 -61 35 -29 62 -57 58 -63 -3 -5 -24 -7
-46 -4 -41 6 -45 4 -115 -54 -28 -23 -9 -44 47 -49 30 -3 56 -10 58 -16 2 -6
-17 -22 -42 -35 l-47 -24 7 -47 c5 -46 5 -48 -22 -54 -53 -11 -61 -15 -87 -35
-29 -23 -35 -64 -10 -73 9 -3 30 -6 47 -6 52 0 56 -7 45 -80 -6 -44 -6 -74 1
-93 11 -28 12 -28 65 -22 30 4 59 4 65 0 15 -9 -12 -60 -59 -111 -21 -23 -41
-51 -45 -63 -8 -26 10 -52 34 -49 22 4 16 -34 -15 -94 -16 -31 -24 -64 -24
-96 0 -48 1 -49 40 -65 40 -15 40 -15 27 -47 -8 -17 -29 -40 -47 -52 -29 -17
-46 -20 -118 -16 -93 5 -94 -5 -3 -39 62 -23 103 -46 103 -58 0 -5 -44 -28
-99 -50 -114 -48 -179 -81 -188 -95 -11 -17 4 -47 33 -66 18 -12 47 -18 84
-18 69 -1 79 -9 41 -33 -77 -48 -173 -130 -179 -153 -9 -33 -38 -64 -101 -106
-40 -26 -53 -41 -53 -59 0 -42 33 -54 164 -59 107 -4 125 -2 184 19 37 13 68
22 71 19 3 -2 5 -30 5 -62 0 -43 -12 -89 -47 -187 -53 -148 -50 -135 -38 -135
5 0 26 25 46 55 21 30 42 52 46 49 5 -3 9 -22 9 -44 0 -44 23 -61 40 -30 6 11
15 20 21 20 16 0 23 -31 9 -40 -17 -11 -40 -79 -32 -98 4 -12 1 -14 -12 -9
-12 5 -16 3 -13 -5 2 -7 0 -24 -5 -37 -6 -16 -4 -29 5 -40 19 -24 39 -89 31
-103 -4 -6 -6 -29 -6 -51 2 -29 -4 -46 -18 -60 -15 -13 -19 -25 -14 -40 12
-38 41 -91 73 -130 16 -21 33 -48 37 -59 5 -17 12 -20 47 -15 l42 6 -49 -45
c-40 -38 -47 -50 -43 -72 3 -15 0 -61 -6 -101 -12 -73 -13 -76 -56 -105 -58
-40 -120 -95 -131 -117 -15 -26 -2 -47 36 -59 30 -10 33 -14 23 -32 -6 -12
-47 -59 -90 -105 -109 -115 -116 -126 -95 -158 10 -15 28 -26 48 -29 133 -19
132 -19 134 -53 2 -43 -6 -45 -173 -41 -123 3 -142 1 -171 -17 -69 -41 -52
-80 55 -124 104 -44 171 -62 199 -55 41 11 56 -1 42 -33 -6 -15 -20 -37 -30
-49 -10 -11 -18 -34 -18 -50 0 -28 -51 -114 -100 -169 -10 -11 -21 -38 -25
-61 -9 -57 6 -68 90 -59 81 9 83 -2 10 -50 -30 -21 -58 -41 -61 -47 -11 -17
30 -48 72 -55 21 -3 44 -9 50 -14 16 -12 5 -77 -14 -81 -13 -2 -15 -14 -13
-58 3 -75 -10 -103 -62 -133 -63 -37 -141 -127 -109 -127 16 0 114 39 145 59
19 12 39 21 46 21 19 0 12 -41 -18 -109 -86 -190 -99 -239 -100 -353 -1 -73
14 -92 24 -30 4 20 11 53 16 72 5 19 9 48 9 63 0 32 55 147 70 147 6 0 13 -7
16 -15 8 -19 42 -29 58 -16 10 9 16 -1 25 -47 21 -97 22 -104 12 -98 -6 4 -13
-9 -17 -29 -3 -19 -12 -35 -19 -35 -7 0 -15 -11 -17 -25 -3 -14 -1 -25 6 -25
6 0 4 -5 -4 -10 -10 -7 -11 -13 -4 -17 5 -5 15 -24 20 -43 5 -19 16 -36 24
-36 8 -1 27 -2 41 -3 31 -1 64 -44 54 -69 -5 -12 -9 -13 -12 -4 -7 19 -22 14
-16 -7 7 -29 -13 -34 -25 -6 -7 15 -8 25 -2 25 6 0 10 5 10 10 0 14 -12 12
-35 -6 -20 -16 -20 -16 2 -31 16 -11 23 -25 22 -47 0 -26 -2 -28 -9 -11 -7 18
-9 16 -16 -14 -7 -32 -8 -33 -22 -15 -13 18 -14 16 -8 -15 3 -18 6 -37 6 -42
0 -19 21 -7 64 36 26 25 75 58 113 75 37 17 105 52 152 78 48 26 95 51 106 55
24 9 -258 -267 -367 -360 -72 -61 -78 -69 -78 -104 0 -39 -1 -38 84 -99 52
-38 64 -65 61 -140 -2 -40 2 -74 10 -90 8 -15 17 -51 20 -81 4 -30 11 -66 17
-81 7 -19 6 -33 -3 -50 -7 -12 -16 -45 -19 -73 -5 -52 -8 -52 -45 0 -9 14 -17
17 -24 9 -14 -13 8 -64 27 -64 6 0 12 -7 12 -15 0 -9 -9 -15 -24 -15 -13 0
-27 -7 -30 -16 -10 -26 -7 -29 9 -8 10 13 14 15 15 5 0 -12 3 -11 18 1 24 21
42 12 42 -22 0 -19 -8 -33 -25 -44 -26 -17 -37 -72 -12 -63 6 2 11 9 10 14 -1
5 25 9 57 9 32 0 57 -3 54 -8 -8 -13 24 -58 40 -58 8 0 17 12 21 27 7 29 -13
53 -45 53 -9 0 -17 7 -17 15 0 16 13 21 19 8 2 -5 17 -15 33 -23 27 -14 30
-21 30 -64 1 -37 -4 -51 -19 -62 -11 -8 -15 -14 -8 -14 15 0 15 -47 0 -105
-28 -105 37 -82 252 92 18 15 31 22 26 15 -13 -21 8 -12 44 18 19 17 40 30 48
30 7 0 31 -18 51 -41 38 -40 93 -61 106 -39 3 5 15 10 26 10 11 0 18 -4 15 -9
-10 -16 43 1 60 20 18 20 41 23 92 13 l31 -6 -29 -24 c-15 -13 -33 -24 -39
-24 -6 0 -11 -8 -11 -18 0 -10 -5 -23 -12 -30 -13 -13 -14 -13 44 -14 34 -1
46 4 66 28 l24 29 -4 -56 c-3 -38 -16 -79 -42 -131 -31 -63 -36 -80 -26 -97
18 -35 37 -24 55 32 9 28 22 55 28 59 6 3 17 30 24 59 8 29 17 56 22 59 4 3 8
12 8 21 0 28 23 74 43 87 16 10 18 9 14 -3 -5 -12 3 -15 35 -15 25 0 44 -5 47
-13 8 -23 44 -18 54 9 10 25 30 33 30 11 0 -7 14 -24 31 -36 30 -22 31 -26 27
-82 -4 -49 -2 -59 12 -59 9 0 21 5 28 12 8 8 18 -4 38 -51 15 -34 29 -59 31
-57 3 3 -4 34 -16 70 -20 63 -20 66 -3 100 18 37 32 46 32 21 0 -23 28 -18 36
7 l7 23 8 -23 c7 -19 13 -22 31 -16 13 4 30 8 39 9 9 1 27 9 40 19 13 9 17 14
9 10 -9 -4 -7 1 5 13 18 19 21 19 32 5 7 -8 16 -12 20 -9 4 4 1 13 -5 19 -8 8
-7 15 6 24 11 9 13 13 4 14 -20 0 -3 20 17 20 10 0 23 -6 29 -12 10 -14 1 -50
-12 -48 -11 2 -26 -20 -26 -37 0 -7 9 -13 20 -13 11 0 20 6 20 13 0 23 34 47
50 37 26 -16 34 -11 15 10 -10 11 -24 20 -31 20 -19 0 -5 31 24 54 13 10 28
30 33 44 5 13 12 22 15 19 9 -8 -16 -77 -27 -77 -6 0 -9 -10 -7 -22 3 -20 9
-23 48 -23 28 0 49 6 57 15 6 8 15 12 18 8 9 -8 -17 -67 -50 -118 -27 -40 -45
-97 -27 -86 7 4 32 39 57 77 47 73 46 73 104 51 11 -4 13 2 8 26 -6 32 -6 32
34 32 26 0 42 -5 45 -15 9 -23 22 -18 39 16 18 34 38 33 89 -3 33 -23 46 -14
46 35 0 18 5 27 16 27 9 0 27 11 39 24 16 17 29 22 49 19 14 -3 29 -9 32 -14
3 -5 15 -4 27 2 19 11 24 8 42 -16 63 -89 103 -110 77 -43 -14 39 -4 52 23 30
26 -22 47 -70 40 -91 -4 -12 3 -21 19 -29 31 -14 45 3 15 18 -15 8 -19 18 -15
33 3 11 0 27 -6 34 -15 19 20 29 45 13 40 -24 110 -60 119 -60 5 0 6 9 3 21
-6 17 -3 20 17 17 18 -2 23 -9 23 -33 0 -24 7 -33 40 -52 22 -12 50 -23 62
-23 34 0 60 42 67 112 9 74 20 97 43 93 73 -15 73 -15 73 -44 0 -30 21 -54 58
-65 12 -4 22 -15 22 -26 0 -52 42 -68 80 -30 l20 20 12 -25 c10 -21 9 -31 -5
-54 -18 -31 -22 -73 -14 -136 4 -22 9 -63 12 -92 7 -65 36 -116 82 -143 l36
-21 46 52 c60 68 73 106 74 209 1 81 -1 88 -31 133 -36 54 -38 64 -17 91 8 11
15 30 15 43 0 13 6 23 13 23 22 0 40 -51 41 -116 1 -33 6 -67 12 -75 6 -8 16
-32 22 -54 13 -45 76 -122 87 -106 3 6 4 20 0 30 -11 35 28 30 53 -7 18 -27
20 -37 11 -48 -15 -18 5 -61 33 -70 27 -8 78 46 78 85 0 36 8 38 58 12 45 -23
72 -13 72 25 0 30 -58 109 -105 143 -19 13 -35 28 -35 33 0 4 -6 8 -13 8 -22
0 -47 34 -47 65 l0 28 -23 -21 c-29 -28 -58 -31 -34 -4 26 28 21 38 -28 56
-25 10 -45 22 -45 27 0 16 27 10 76 -16 41 -22 49 -23 63 -11 9 7 31 17 49 21
36 7 53 32 32 45 -7 4 -9 13 -5 21 6 9 11 6 17 -12 l9 -24 29 35 c22 27 32 32
41 23 8 -8 9 -20 1 -42 -8 -22 -7 -31 1 -34 8 -3 6 -10 -5 -23 -11 -11 -18
-13 -18 -6 0 7 -4 12 -10 12 -5 0 -10 -9 -10 -20 0 -11 5 -20 10 -20 14 0 13
-27 -2 -36 -8 -5 -9 -2 -5 9 3 10 2 17 -3 17 -6 0 -10 11 -10 24 0 14 -4 28
-10 31 -13 8 -13 -19 1 -66 l12 -38 46 6 c25 3 48 10 49 15 2 4 8 6 13 3 4 -3
43 10 84 29 66 31 114 39 101 17 -5 -7 155 7 162 14 2 2 -3 13 -10 24 -20 33
-55 37 -84 10 -24 -22 -35 -14 -12 9 7 7 10 12 8 13 -3 0 -12 2 -20 5 -8 2
-37 8 -63 14 -27 5 -52 12 -57 15 -4 2 -13 -2 -20 -10 -15 -18 -40 -8 -40 15
0 25 13 28 89 17 57 -7 67 -6 78 9 20 27 16 33 -29 54 -50 23 -34 27 19 5 44
-19 41 -19 45 8 2 14 11 23 26 25 30 5 42 -26 17 -44 -15 -11 -16 -17 -7 -26
9 -9 12 -8 12 7 0 27 13 9 25 -33 9 -31 17 -39 60 -54 88 -32 89 -32 82 -14
-8 21 16 21 34 0 10 -13 10 -17 -2 -25 -11 -7 -8 -13 16 -33 37 -30 47 -25 44
23 -1 20 -1 49 0 66 l1 29 17 -24 c9 -14 17 -26 19 -28 1 -2 11 1 22 7 11 6
53 16 93 22 41 6 78 15 84 20 14 14 22 11 28 -11 3 -11 -2 -25 -11 -32 -13
-11 -15 -10 -9 5 7 18 -8 24 -18 7 -4 -6 -21 -17 -38 -25 -29 -13 -29 -14 -7
-12 34 3 150 -35 150 -49 0 -28 31 -21 59 12 35 44 61 42 75 -4 6 -22 14 -31
23 -27 8 3 18 5 23 5 4 0 8 18 8 41 1 23 3 43 5 45 7 7 141 -56 164 -78 14
-13 37 -21 63 -22 33 -2 45 2 61 22 10 14 19 28 19 33 0 12 -32 27 -92 43
l-53 15 60 0 c69 0 302 -43 369 -69 16 -6 42 -8 58 -5 20 5 39 0 63 -15 l35
-22 26 21 c30 24 54 27 72 9 12 -12 50 -20 92 -20 13 0 33 -6 44 -14 11 -8 35
-14 52 -14 27 0 32 -5 40 -32 12 -41 39 -46 138 -23 39 9 81 18 92 20 12 3 49
25 83 50 34 25 66 43 70 41 5 -3 11 -18 14 -33 11 -55 61 -149 89 -166 21 -14
48 -2 48 20 0 10 -16 49 -35 87 -35 69 -45 116 -25 116 6 0 17 15 25 33 l13
32 12 -30 c7 -16 10 -54 8 -83 -3 -29 -2 -55 2 -57 3 -2 24 2 46 9 33 12 43
23 66 70 15 31 32 56 38 56 5 0 30 -14 54 -32 25 -17 66 -38 92 -47 52 -17 56
-23 152 -231 32 -71 45 -88 76 -105 l38 -20 18 23 c24 30 35 117 20 170 -6 23
-24 58 -41 77 -17 18 -32 49 -35 67 -7 40 15 74 40 65 14 -6 17 -14 11 -46 -4
-25 -2 -41 5 -46 6 -4 21 -24 35 -44 30 -49 78 -71 104 -47 9 9 22 16 28 16 6
0 16 6 23 14 9 12 7 21 -10 43 -23 31 -18 68 7 59 8 -3 19 -6 24 -6 5 0 9 -8
9 -18 0 -33 53 -66 72 -46 3 3 1 19 -6 35 -10 27 -8 33 9 45 12 9 30 12 47 9
15 -4 37 -1 50 6 13 7 34 13 48 13 23 1 25 4 23 42 -2 29 3 46 18 63 25 26 45
23 41 -8 -5 -35 17 -84 49 -109 l29 -24 0 27 c0 20 4 26 18 23 17 -4 20 -20 8
-48 -5 -12 3 -15 34 -17 50 -1 70 -17 70 -53 0 -22 8 -32 44 -51 42 -22 46
-22 64 -6 10 9 22 17 26 17 14 0 112 69 154 109 35 34 42 46 42 79 0 21 3 42
7 45 12 12 42 -25 49 -59 4 -21 12 -34 21 -34 11 0 14 -7 10 -22 -7 -24 8 -58
25 -58 7 0 24 -12 39 -26 26 -25 28 -25 58 -10 17 9 31 21 31 26 0 5 16 24 35
41 19 18 35 37 35 44 0 6 18 28 40 50 42 41 40 41 56 -12 6 -21 84 -15 176 11
109 32 226 36 294 11 60 -22 71 -30 87 -64 18 -38 41 -37 97 3 44 32 57 36
117 37 37 1 80 5 95 9 18 6 33 4 45 -6 21 -16 59 -18 68 -4 9 15 23 12 45 -10
31 -31 25 -56 -17 -77 -80 -39 -26 -78 109 -78 47 0 90 3 94 8 4 4 1 18 -6 32
-11 21 -11 27 4 44 15 16 23 18 54 9 20 -6 50 -20 67 -33 44 -33 100 -47 180
-43 64 3 70 5 73 26 4 27 21 28 73 1 22 -11 62 -23 89 -26 43 -5 49 -3 55 17
l7 22 15 -22 c11 -16 23 -21 44 -18 24 4 29 1 29 -15 0 -11 5 -37 11 -58 l12
-38 29 22 c16 12 40 40 53 63 25 42 26 42 53 28 34 -18 42 -18 42 1 0 8 7 15
15 15 8 0 15 -7 15 -15 0 -8 6 -12 13 -10 7 3 36 -19 64 -48 39 -40 65 -57
108 -71 46 -14 58 -23 67 -47 12 -34 23 -37 31 -10 3 14 15 21 43 23 49 4 55
26 23 85 -25 46 -25 50 11 56 49 10 80 19 81 26 0 3 2 14 4 23 4 24 -10 33
-90 58 -48 14 -76 29 -89 47 -18 24 -18 26 -2 20 16 -6 142 -37 152 -37 2 0 4
8 4 18 0 14 3 14 18 -5 45 -58 188 -97 210 -58 4 9 18 17 30 18 24 1 29 13 10
20 -8 3 -3 9 12 15 14 6 33 20 43 32 10 11 22 18 27 15 14 -9 12 -49 -2 -63
-9 -9 -8 -15 8 -27 20 -16 67 -15 119 3 160 54 175 58 175 42 0 -7 -8 -19 -17
-26 -24 -17 -13 -25 35 -26 29 0 50 7 76 27 34 26 36 30 36 86 0 80 30 144
119 251 40 49 75 88 79 88 4 0 51 29 106 64 94 62 126 72 126 39 0 -8 -17 -36
-37 -62 -21 -25 -43 -55 -49 -66 -6 -11 -15 -18 -19 -17 -9 4 -28 -25 -31 -46
-2 -8 -10 -22 -18 -31 -9 -10 -16 -23 -16 -29 0 -19 51 -52 81 -52 19 0 30 -6
34 -21 6 -19 12 -20 68 -14 34 4 66 11 72 16 35 33 68 -21 35 -56 -22 -23 -18
-35 11 -35 10 0 21 -9 24 -20 3 -11 10 -20 15 -20 5 0 13 -15 19 -32 7 -22 26
-43 55 -60 51 -33 72 -35 81 -8 3 11 9 20 13 20 9 0 57 -60 65 -82 3 -10 12
-18 18 -18 8 0 10 16 6 55 -5 49 -3 55 13 55 14 0 17 -5 13 -21 -6 -20 -3 -21
38 -14 24 4 53 14 64 21 18 13 15 14 -30 15 -28 1 -40 4 -27 6 18 4 21 9 16
29 -5 21 -3 24 19 24 14 0 28 -4 31 -9 8 -12 57 -1 63 15 12 32 48 12 127 -71
98 -102 173 -139 205 -102 6 8 14 53 17 100 5 66 10 87 21 87 11 0 13 8 8 30
-6 26 -3 30 22 35 15 4 37 10 49 15 12 4 27 4 35 -1 23 -14 93 -10 117 7 12 8
22 26 22 39 0 38 49 58 151 61 127 3 220 50 163 82 -15 8 -15 11 1 36 16 24
23 27 51 21 24 -4 36 -1 46 11 44 54 58 64 94 64 30 0 43 8 80 48 42 44 44 50
39 88 -4 30 -2 44 10 54 18 15 19 40 3 63 -7 9 -85 41 -174 72 -140 47 -340
137 -369 166 -15 15 233 -76 487 -179 23 -9 51 -12 74 -9 27 5 43 1 63 -14 56
-41 117 18 87 84 -8 18 -18 53 -22 79 -5 42 -3 51 19 77 30 36 51 146 43 224
-3 28 -6 66 -8 82 -5 47 19 37 60 -25 31 -45 43 -56 73 -61 20 -3 55 -15 78
-27 67 -35 121 -24 121 25 0 19 4 24 18 20 89 -26 152 -40 158 -35 24 24 -55
130 -116 156 -19 8 -45 23 -58 33 -13 10 -46 22 -73 25 -27 4 -52 11 -55 15
-10 16 -42 9 -47 -10 -8 -30 -55 -15 -79 25 -11 19 -28 34 -39 34 -10 0 -35
11 -55 25 -20 14 -43 25 -50 25 -7 0 -15 4 -18 8 -2 4 20 9 51 10 30 1 68 9
85 18 21 11 44 13 83 9 97 -13 182 16 159 53 -11 17 -51 30 -159 52 -33 6 -77
16 -97 21 l-37 10 20 20 c17 17 20 29 16 63 -4 29 -1 46 10 58 11 13 13 21 5
30 -5 7 -12 31 -14 52 -3 37 -1 40 27 46 17 4 48 19 70 34 27 18 46 25 60 21
64 -21 151 -10 142 19 -3 12 -209 85 -239 86 -13 0 -18 8 -18 30 0 33 -2 35
-33 19 -18 -8 -17 -5 6 15 15 14 27 30 27 36 0 5 9 10 20 10 11 0 23 7 26 15
4 10 14 13 30 9 52 -13 85 54 44 91 -24 21 -26 43 -5 51 20 8 29 42 15 59 -16
19 -81 19 -127 0 -32 -14 -38 -14 -53 0 -9 8 -39 23 -66 33 l-49 17 35 3 c19
1 45 8 57 14 17 8 26 8 38 -2 17 -14 16 -14 31 55 l9 40 70 1 c39 0 80 6 93
12 47 26 19 89 -73 165 -77 64 -106 79 -202 107 -72 20 -86 33 -61 58 18 18 4
24 -27 12 -41 -16 -42 -4 -2 33 45 44 37 62 -24 52 -24 -4 -55 -16 -68 -26
-38 -30 -49 -21 -12 10 33 27 36 51 6 51 -14 0 -35 29 -35 49 0 6 18 22 39 37
38 25 55 52 42 71 -10 16 -76 34 -114 31 -30 -2 -42 4 -73 36 -40 41 -38 48
19 66 25 8 48 26 66 50 15 21 42 51 59 65 38 32 39 37 10 75 -17 24 -19 32 -8
45 17 21 43 19 65 -5 10 -11 22 -20 27 -20 5 0 26 -11 46 -25 44 -30 57 -21
37 28 -22 53 -19 70 18 87 17 8 33 23 35 32 5 26 -40 65 -89 78 -47 12 -89 35
-89 48 0 10 78 62 92 62 6 0 8 -9 5 -20 -6 -23 27 -36 62 -25 18 5 20 13 18
56 -3 46 -1 52 40 94 23 25 47 45 51 45 17 0 118 -38 156 -58 29 -16 44 -19
58 -11 43 23 24 39 -134 116 l-57 27 -3 61 c-3 54 -5 60 -25 63 -13 2 -23 9
-23 15 0 7 -5 41 -10 77 -8 59 -7 67 14 95 40 54 40 55 -2 55 -31 0 -51 -9
-93 -42 -30 -24 -62 -53 -72 -65 -10 -13 -24 -23 -32 -23 -16 0 -28 42 -13 51
6 4 8 18 4 32 -4 18 1 31 19 51 21 23 23 30 13 51 -10 22 -7 29 35 74 43 46
56 74 71 158 4 27 0 39 -24 67 -24 26 -30 43 -30 77 0 28 -8 58 -24 83 -30 50
-23 82 32 145 30 35 42 59 42 80 0 17 8 46 18 64 13 26 17 57 17 154 0 110 -2
124 -21 145 -12 13 -27 33 -34 46 -11 23 -11 23 31 20 37 -3 44 0 47 17 2 11
7 29 12 40 34 78 54 171 40 180 -13 8 -13 45 0 45 6 0 10 7 10 15 0 17 -55 22
-64 6 -3 -5 -16 -7 -27 -4 -21 6 -20 7 7 34 52 51 58 60 44 69 -18 11 -3 48
23 56 l22 7 -24 9 c-17 6 -31 4 -47 -7 -33 -21 -33 -20 -17 28 8 23 16 63 17
89 l1 46 27 -31 c28 -34 47 -33 29 2 -7 13 -8 22 -1 26 17 10 11 41 -11 61
-18 16 -20 26 -14 64 3 25 6 66 5 92 0 25 4 49 10 53 16 10 12 76 -6 90 -14 9
-14 15 -4 31 10 16 8 29 -14 74 -15 32 -22 56 -16 58 5 2 10 10 10 18 0 10 -6
11 -26 4 -39 -15 -49 -12 -29 10 18 20 17 20 -8 20 -15 0 -27 5 -27 11 0 5 5
7 10 4 6 -3 10 -1 10 4 0 6 -10 11 -23 11 -30 0 -70 29 -63 46 3 8 0 11 -11 7
-8 -3 -19 0 -23 7 -5 9 -17 10 -36 5 -16 -5 -35 -7 -42 -6 -8 1 -19 -3 -27 -9
-9 -8 -15 -8 -20 0 -3 5 -22 10 -41 10 -32 0 -34 2 -24 20 13 23 6 40 -16 40
-11 0 -13 6 -9 19 7 22 1 23 -112 23 -40 1 -73 4 -73 8 0 7 8 11 85 45 26 12
35 20 25 23 -8 3 -20 12 -26 20 -9 12 -15 12 -43 -2 -45 -23 -61 -15 -28 14
19 17 27 33 27 57 0 24 7 37 25 49 21 14 23 19 13 32 -10 13 -10 14 0 8 7 -4
15 -1 19 10 8 22 -31 56 -55 46 -16 -6 -16 -7 1 -10 21 -4 22 -18 1 -26 -22
-9 -24 -8 -24 9 0 10 -10 15 -32 15 -55 -1 -80 -22 -95 -79 -16 -64 -58 -137
-90 -158 -13 -9 -37 -17 -53 -19 -23 -3 -28 0 -23 12 3 9 -3 21 -15 29 -11 8
-23 26 -26 40 -4 14 -11 25 -16 25 -6 0 -8 11 -4 26 5 19 -4 45 -31 99 -32 62
-44 75 -76 88 -22 9 -39 22 -39 29 0 8 -16 20 -35 28 -19 7 -33 16 -30 18 2 2
-4 13 -14 23 -15 17 -22 18 -47 8 -16 -6 -43 -15 -60 -19 l-32 -7 16 26 c33
59 -11 110 -83 97 -35 -7 -89 -51 -81 -65 3 -4 -4 -7 -15 -7 -14 0 -19 5 -16
18 3 11 0 18 -9 18 -11 0 -14 -10 -11 -40 2 -22 0 -40 -5 -40 -4 0 -8 4 -8 9
0 5 -9 11 -20 14 -13 3 -20 14 -20 29 -1 20 -4 17 -21 -15 -11 -21 -24 -35
-29 -32 -14 9 -49 -17 -43 -32 3 -7 -2 -13 -12 -13 -9 0 -13 5 -10 10 7 11 -8
14 -19 3 -4 -4 -17 -8 -29 -10 -12 -1 -31 -4 -42 -7 -11 -2 -23 -5 -27 -5 -4
-1 -5 -9 -2 -18 5 -15 3 -15 -11 2 -9 11 -18 19 -20 18 -3 -2 -6 -3 -7 -2 -2
0 -13 2 -26 3 -12 2 -29 11 -37 22 -8 11 -15 14 -15 7 0 -17 -27 -17 -37 0 -4
7 -21 18 -36 25 -15 7 -26 16 -23 21 3 5 -1 11 -9 15 -8 3 -16 1 -16 -4 -1 -6
-2 -14 -3 -20 0 -5 -10 -16 -21 -24 -19 -14 -19 -15 -2 -22 17 -6 17 -8 1 -25
-17 -19 -40 -27 -30 -10 7 11 -14 20 -31 14 -7 -2 -9 -12 -6 -21 5 -14 4 -15
-8 -6 -8 6 -35 14 -60 18 -26 4 -55 13 -65 21 -21 15 -44 3 -44 -23 0 -34 -25
-94 -43 -103 -18 -10 -18 -10 1 18 20 28 37 93 33 126 -1 10 -17 33 -35 50
-19 18 -36 44 -40 60 -8 32 -17 34 -41 7 -14 -16 -16 -23 -7 -32 7 -7 12 -17
12 -22 0 -6 -5 -5 -12 2 -7 7 -18 12 -25 12 -19 0 -16 -27 4 -39 10 -5 14 -13
10 -17 -4 -4 -20 2 -35 14 -59 48 -72 55 -85 45 -6 -6 -32 -13 -57 -17 -24 -4
-50 -12 -57 -17 -7 -6 -18 -9 -25 -6 -8 4 -5 8 9 12 27 9 19 35 -11 35 -16 0
-24 -9 -31 -32 -8 -26 -15 -32 -32 -31 -14 2 -23 -3 -23 -11 0 -8 -12 -17 -26
-20 -14 -4 -38 -15 -53 -26 -38 -28 -81 -36 -81 -16 0 20 -34 21 -89 1 -22 -8
-41 -11 -41 -8 0 4 -5 2 -12 -5 -7 -7 -21 -12 -32 -12 -10 0 -73 -27 -138 -60
-65 -33 -120 -60 -122 -60 -7 0 7 50 15 56 5 3 9 14 9 25 0 14 -7 19 -25 19
-14 0 -25 5 -25 10 0 6 -11 10 -24 10 -14 0 -37 5 -51 10 -35 13 -152 2 -170
-16 -7 -8 -18 -14 -24 -14 -6 0 -11 -14 -11 -30 0 -27 -2 -29 -19 -21 -22 12
-30 6 -24 -19 7 -26 36 -30 63 -8 12 10 26 16 29 12 3 -4 0 -9 -7 -11 -20 -8
-83 -78 -72 -81 5 -2 29 12 52 31 64 51 115 74 106 46 -5 -15 -146 -89 -175
-91 -12 -1 -23 -6 -23 -11 0 -7 -60 -37 -75 -37 -3 0 -5 16 -5 35 0 19 -4 35
-10 35 -5 0 -12 10 -15 23 -3 12 -24 32 -45 45 -22 12 -41 30 -42 40 -1 9 -2
40 -3 67 -2 28 -3 57 -4 66 -1 17 -41 39 -70 39 -10 0 -24 7 -32 16 -8 10 -22
14 -40 10 -17 -3 -32 0 -39 9 -7 8 -26 12 -53 10 -34 -2 -45 -8 -55 -29 -16
-31 -27 -32 -66 -7 -33 22 -46 19 -46 -8 0 -10 -7 -24 -15 -31 -8 -7 -15 -20
-15 -29 0 -10 -6 -26 -14 -36 -14 -19 -15 -19 -60 4 -51 25 -123 33 -145 17
-9 -7 -16 -6 -25 6 -6 8 -20 17 -31 19 -12 3 -22 16 -26 37 -8 39 -21 55 -46
57 -10 1 -28 7 -41 14 -19 10 -26 10 -38 0 -13 -10 -17 -10 -23 0 -6 10 -10 8
-15 -5 -5 -13 -9 -15 -18 -6 -19 19 -30 14 -23 -10 6 -18 5 -20 -5 -11 -7 6
-14 22 -15 35 -4 41 -5 43 -14 30 -6 -10 -10 -10 -20 2 -7 8 -18 13 -26 10 -7
-3 -16 -1 -19 5 -8 12 -62 -4 -87 -25 -22 -19 -28 -17 -22 7 5 18 2 19 -23 13
-16 -4 -31 -10 -34 -14 -6 -8 -70 -31 -70 -25 0 3 -9 -3 -20 -12 -11 -9 -15
-20 -10 -23 5 -3 -2 -23 -17 -45 -24 -35 -27 -37 -34 -18 -7 19 -22 22 -64 13
-5 -1 -21 -2 -35 -1 -19 1 -21 4 -12 13 16 16 15 49 0 47 -7 -1 -30 -1 -50 0
-31 1 -38 5 -38 21 0 17 -3 19 -19 10 -28 -14 -41 -13 -41 6 0 12 -8 14 -45 9
-35 -6 -51 -3 -78 14 -50 30 -103 27 -160 -9 -56 -35 -106 -39 -145 -10 -15
11 -45 22 -67 26 -33 5 -47 1 -79 -21 -67 -46 -192 -58 -260 -26 -38 18 -76
18 -76 -1 0 -5 5 -18 10 -29 10 -17 7 -19 -22 -19 -52 0 -263 37 -288 50 -29
15 -186 27 -177 13 3 -5 42 -31 85 -56 78 -45 164 -127 193 -185 7 -15 22 -40
32 -55 11 -16 17 -30 14 -33 -2 -3 -26 9 -53 25 -27 16 -69 42 -94 57 -25 15
-74 51 -110 79 -124 98 -197 145 -224 145 -15 0 -36 5 -47 10 -27 15 -44 3
-27 -18 8 -10 21 -34 31 -54 18 -42 14 -45 -38 -27 -26 10 -38 9 -65 -5 -42
-21 -41 -21 -34 14 12 56 -31 75 -101 46 -30 -13 -35 -20 -35 -48 1 -18 7 -51
15 -73 8 -22 15 -42 15 -45 0 -2 -24 21 -53 53 -57 61 -76 67 -146 47 l-34
-10 36 34 c20 19 37 41 37 51 0 27 -37 72 -64 77 -35 7 -54 -7 -66 -50 -17
-61 -13 -98 12 -114 23 -15 22 -15 -25 -48 -40 -29 -50 -44 -73 -104 -35 -97
-40 -107 -84 -157 l-39 -44 6 66 c3 39 1 87 -6 117 -11 45 -10 61 14 157 14
59 25 124 23 144 l-3 36 -75 0 -75 0 -17 -34 c-10 -19 -24 -39 -33 -44 -19
-10 -72 6 -144 45 -30 16 -66 30 -80 30 -29 1 -149 -40 -211 -72 -42 -21 -60
-25 -60 -12 0 5 23 19 50 32 58 27 63 44 18 58 -59 18 -111 24 -103 12 3 -5
12 -7 18 -4 7 4 9 4 5 -1 -5 -5 -21 -10 -38 -12 -23 -2 -28 1 -24 12 7 18 -31
21 -42 4 -4 -7 -20 -9 -40 -6 -24 4 -40 0 -59 -14 -27 -22 -62 -25 -139 -14
-39 6 -47 5 -41 -5 6 -10 3 -12 -13 -8 -14 4 -19 2 -16 -7 6 -16 -12 -29 -26
-20 -8 5 -7 12 1 22 16 19 -7 36 -36 26 -11 -3 -47 -6 -81 -5 -53 2 -66 -1
-102 -28 -37 -27 -47 -29 -94 -24 -29 3 -60 11 -68 18 -40 33 -104 46 -201 39
-80 -5 -100 -3 -120 11 -36 25 -119 18 -119 -10 0 -8 22 -27 48 -44 40 -25
112 -104 112 -124 0 -12 -24 -5 -94 29 -40 19 -78 35 -83 35 -6 0 -16 7 -23
15 -7 9 -67 42 -132 75 -89 45 -126 58 -145 54 -30 -8 -40 -29 -23 -49 19 -23
5 -29 -39 -17 -34 8 -47 6 -92 -14 -28 -13 -53 -24 -56 -24 -2 0 5 14 17 30
30 42 21 60 -33 60 -62 0 -83 -18 -71 -60 5 -18 18 -38 29 -44 11 -6 22 -12
24 -13 9 -6 -23 -33 -38 -33 -9 0 -34 20 -54 45 -45 53 -88 66 -145 42 -20 -9
-57 -22 -82 -29 -39 -11 -48 -20 -78 -73 -18 -33 -52 -79 -75 -103 -36 -37
-42 -40 -51 -25 -5 9 -10 70 -12 136 -1 65 -5 121 -7 124 -3 3 -36 -4 -74 -16
-56 -18 -72 -28 -91 -57 -21 -32 -25 -34 -60 -28 -20 4 -38 7 -39 8 -1 1 4 20
12 41 24 67 20 79 -17 70 -18 -4 -47 -8 -64 -9 -16 -2 -35 -6 -41 -9 -7 -4
-14 -3 -18 3 -3 5 -29 10 -57 10 -40 0 -49 3 -44 15 3 9 0 15 -10 15 -9 0 -12
-5 -8 -11 4 -8 -3 -9 -23 -5 -17 4 -42 4 -57 0 l-27 -6 26 -34 26 -34 -30 0
c-25 0 -29 -3 -24 -17 6 -17 5 -17 -14 0 -34 30 -49 21 -62 -37 -7 -30 -19
-60 -27 -66 -18 -16 -18 -6 2 31 9 18 14 49 12 77 -3 40 -6 47 -24 46 l-21 0
19 64 c11 35 18 66 16 68 -3 2 -26 -21 -52 -51z m6079 -154 c7 -12 -12 -24
-25 -16 -11 7 -4 25 10 25 5 0 11 -4 15 -9z m-5643 -23 c-6 -6 -15 -8 -19 -4
-4 4 -1 11 7 16 19 12 27 3 12 -12z m-1692 3 c0 -11 -39 -25 -47 -18 -3 3 -2
10 2 16 8 13 45 15 45 2z m7300 -5 c0 -3 -4 -8 -10 -11 -5 -3 -10 -1 -10 4 0
6 5 11 10 11 6 0 10 -2 10 -4z m3138 -26 c7 -11 8 -20 2 -20 -5 0 -14 9 -20
20 -6 11 -7 20 -3 20 5 0 14 -9 21 -20z m-8798 -14 c0 -15 -37 -32 -47 -22 -9
8 17 36 33 36 8 0 14 -6 14 -14z m1380 -4 c0 -5 -11 -19 -25 -32 -14 -13 -25
-29 -25 -35 0 -18 -82 -27 -98 -11 -20 20 2 59 28 51 11 -3 36 3 57 14 41 22
63 26 63 13z m7731 -29 c13 -17 13 -17 -6 -3 -11 8 -22 16 -24 17 -2 2 0 3 6
3 6 0 17 -8 24 -17z m-9497 -2 c6 -9 -54 -25 -62 -16 -3 2 6 9 19 14 31 13 37
13 43 2z m-1600 -10 c3 -5 -1 -11 -9 -15 -15 -6 -29 7 -18 18 9 9 21 8 27 -3z
m12230 -12 c25 -14 36 -28 36 -44 0 -53 -63 -59 -91 -9 -15 28 -16 34 -3 53
18 26 15 26 58 0z m-5967 -21 c-3 -8 -6 -5 -6 6 -1 11 2 17 5 13 3 -3 4 -12 1
-19z m4558 12 c3 -5 1 -10 -4 -10 -6 0 -11 5 -11 10 0 6 2 10 4 10 3 0 8 -4
11 -10z m-4549 -79 c-3 -22 -9 -46 -12 -55 -9 -24 20 -20 53 8 15 12 48 36 73
51 36 22 41 24 27 7 -11 -11 -16 -25 -13 -30 3 -5 -10 -24 -29 -42 -23 -22
-33 -40 -30 -51 5 -14 -2 -18 -37 -21 -24 -2 -44 -1 -46 4 -2 4 -10 8 -19 8
-9 0 -13 7 -10 18 3 9 10 40 17 67 17 70 19 75 26 75 4 0 4 -18 0 -39z m5484
14 c0 -7 -7 -25 -14 -41 -8 -15 -13 -31 -10 -36 10 -15 59 -35 120 -48 57 -11
67 -10 119 9 31 12 70 28 85 36 28 15 32 14 91 -25 34 -22 72 -40 85 -40 16 0
21 -5 17 -18 -2 -10 3 -24 11 -31 20 -16 20 -32 2 -56 -13 -18 -16 -18 -59 18
-45 37 -87 49 -87 24 0 -7 5 -18 12 -25 16 -16 1 -15 -56 4 -29 10 -59 14 -79
10 -40 -9 -111 -7 -157 3 -33 7 -32 8 28 15 66 7 77 26 15 26 -20 0 -33 3 -30
6 6 7 -80 59 -117 71 -15 5 -17 13 -13 44 3 22 3 39 0 39 -3 0 -36 -11 -74
-25 -61 -22 -68 -23 -58 -6 7 10 26 23 43 30 24 9 28 13 16 21 -10 6 1 10 35
12 60 4 75 0 75 -17z m-1555 4 c-8 -13 -56 -31 -63 -24 -3 2 10 11 29 19 42
18 42 19 34 5z m630 1 c3 -6 -1 -7 -9 -4 -18 7 -21 14 -7 14 6 0 13 -4 16 -10z
m80 -10 c-3 -5 -17 -10 -31 -10 -13 0 -24 5 -24 10 0 6 14 10 31 10 17 0 28
-4 24 -10z m-1020 -30 c-3 -5 -11 -10 -16 -10 -6 0 -7 5 -4 10 3 6 11 10 16
10 6 0 7 -4 4 -10z m225 0 c-8 -5 -19 -10 -25 -10 -5 0 -3 5 5 10 8 5 20 10
25 10 6 0 3 -5 -5 -10z m1276 -11 c38 -12 143 -48 233 -80 102 -37 171 -57
184 -53 14 4 17 3 12 -6 -6 -9 -33 -11 -108 -5 -154 11 -279 55 -362 129 -22
20 -37 36 -34 36 4 0 38 -10 75 -21z m-8416 -141 c-16 -22 -30 -46 -30 -52 0
-6 -11 -33 -25 -61 -27 -53 -48 -62 -92 -42 -20 9 -21 12 -8 36 20 39 84 103
96 96 5 -4 26 10 47 29 20 20 38 36 39 36 2 0 -10 -19 -27 -42z m8425 7 c66
-8 183 -20 260 -27 128 -11 135 -13 85 -19 -174 -22 -465 6 -595 56 -40 15
-40 15 45 9 47 -3 139 -11 205 -19z m-12451 -21 c68 -13 94 -14 108 -5 25 15
36 14 40 -5 2 -12 34 -24 116 -44 63 -15 119 -33 125 -39 18 -18 -38 -13 -128
10 -89 23 -157 38 -322 70 -62 12 -113 26 -113 32 0 10 46 5 174 -19z m12056
-35 c0 -5 -9 -9 -19 -9 -28 0 -52 -11 -45 -21 4 -7 -55 -1 -65 7 -1 1 17 8 40
14 24 6 51 14 59 19 16 9 30 5 30 -10z m674 -18 c73 13 84 5 17 -12 -27 -7
-48 -16 -46 -19 3 -4 -7 -5 -20 -2 -34 6 -52 -12 -60 -59 -5 -28 -12 -39 -23
-38 -11 0 -12 2 -4 6 6 2 12 16 12 30 0 21 -3 24 -22 19 -60 -16 -68 -14 -20
5 29 12 50 24 48 26 -2 3 -53 0 -112 -6 -59 -6 -121 -11 -138 -10 -47 1 85 25
186 34 57 4 91 12 99 21 8 10 15 11 19 4 4 -7 24 -7 64 1z m-831 -18 c-7 -2
-19 -2 -25 0 -7 3 -2 5 12 5 14 0 19 -2 13 -5z m-83 -19 c-54 -17 -50 -16 -50
-5 0 5 12 12 28 14 57 8 65 5 22 -9z m1907 10 c-3 -3 -12 -4 -19 -1 -8 3 -5 6
6 6 11 1 17 -2 13 -5z m-270 -49 c20 -14 20 -17 7 -44 -15 -30 -40 -46 -48
-33 -6 10 -5 74 1 85 6 11 16 9 40 -8z m-980 -22 c-20 -2 -52 -2 -70 0 -17 2
0 4 38 4 39 0 53 -2 32 -4z m1159 -58 c84 -43 87 -45 44 -39 -25 4 -60 8 -77
8 -18 0 -33 3 -33 8 0 5 -10 13 -22 19 -13 6 -31 21 -41 35 l-18 25 29 -6 c16
-3 69 -25 118 -50z m-1316 -2 c-14 -9 -28 -21 -31 -26 -4 -5 -13 -7 -20 -5 -9
3 -1 13 21 26 41 26 66 30 30 5z m1765 -13 c-3 -5 -13 -10 -21 -10 -8 0 -14 5
-14 10 0 6 9 10 21 10 11 0 17 -4 14 -10z m-7049 -64 c-9 -19 -16 -38 -15 -43
6 -35 -23 -64 -70 -68 -23 -2 -41 -1 -41 4 0 11 60 100 73 108 7 4 8 0 4 -13
-4 -11 7 -3 26 18 38 43 46 41 23 -6z m5545 11 c-10 -9 -11 -8 -5 6 3 10 9 15
12 12 3 -3 0 -11 -7 -18z m1544 3 c3 -5 2 -10 -4 -10 -5 0 -13 5 -16 10 -3 6
-2 10 4 10 5 0 13 -4 16 -10z m65 0 c0 -5 -12 -10 -26 -10 -14 0 -23 4 -19 10
3 6 15 10 26 10 10 0 19 -4 19 -10z m-135 -40 c3 -5 -1 -10 -9 -10 -8 0 -18 5
-21 10 -3 6 1 10 9 10 8 0 18 -4 21 -10z m-415 -60 c0 -5 -4 -10 -9 -10 -6 0
-13 5 -16 10 -3 6 1 10 9 10 9 0 16 -4 16 -10z m75 -61 c4 -5 4 -22 0 -36 l-6
-26 -21 21 c-12 12 -18 27 -15 36 7 18 33 21 42 5z m-175 -80 c0 -5 -9 -9 -20
-9 -22 0 -27 16 -7 23 15 5 27 -1 27 -14z m216 -68 c-10 -16 -36 -13 -36 3 0
17 21 27 34 16 4 -5 5 -13 2 -19z m154 -69 c0 -13 -12 -22 -22 -16 -10 6 -1
24 13 24 5 0 9 -4 9 -8z m-272 -29 c-5 -25 -28 -28 -28 -4 0 12 6 21 16 21 9
0 14 -7 12 -17z m-4418 -143 c0 -5 -4 -10 -10 -10 -5 0 -10 5 -10 10 0 6 5 10
10 10 6 0 10 -4 10 -10z m4810 -39 c0 -14 -18 -23 -30 -16 -6 4 -8 11 -5 16 8
12 35 12 35 0z m48 -247 c4 -27 -26 -40 -46 -20 -13 13 -13 18 -2 31 18 21 44
15 48 -11z m-14328 -19 c15 -18 6 -45 -13 -45 -20 0 -40 27 -33 45 7 19 30 19
46 0z m14117 -11 c-9 -9 -28 6 -21 18 4 6 10 6 17 -1 6 -6 8 -13 4 -17z m283
-78 c0 -3 -4 -8 -10 -11 -5 -3 -10 -1 -10 4 0 6 5 11 10 11 6 0 10 -2 10 -4z
m-14222 -223 c-3 -31 -34 -44 -44 -19 -7 19 12 46 33 46 10 0 13 -9 11 -27z
m-21 -1249 c-16 -9 -31 -13 -34 -10 -3 3 5 10 18 15 37 15 47 12 16 -5z m-83
-20 c13 -5 14 -9 5 -20 -7 -8 -10 -16 -8 -18 2 -3 60 2 128 10 68 8 126 13
128 11 7 -8 -118 -38 -195 -47 -43 -5 -90 -14 -105 -21 -20 -9 -30 -10 -39 -1
-8 8 -4 14 15 23 14 6 31 25 38 40 13 32 11 31 33 23z m943 -20 c-3 -3 -12 -4
-19 -1 -8 3 -5 6 6 6 11 1 17 -2 13 -5z m-40 -10 c-3 -3 -12 -4 -19 -1 -8 3
-5 6 6 6 11 1 17 -2 13 -5z m-72 -20 c-22 -8 -46 -13 -55 -11 -22 6 28 26 65
26 29 0 29 -1 -10 -15z m-100 -29 c-16 -8 -37 -14 -45 -15 -9 0 -20 -4 -25 -9
-6 -5 -28 -14 -50 -21 -22 -7 -43 -17 -46 -23 -7 -11 -29 -1 -29 13 0 5 16 14
35 20 19 6 35 18 35 25 0 10 10 13 33 10 18 -2 46 0 62 4 46 14 64 11 30 -4z
m-695 -55 c155 -17 296 -51 365 -89 l40 -22 -80 7 c-44 3 -129 15 -190 26 -60
11 -151 22 -202 25 -71 4 -96 9 -108 23 -15 17 -14 19 27 33 24 9 50 13 58 10
8 -3 49 -9 90 -13z m-48 -96 c118 -52 154 -78 213 -158 29 -38 29 -39 6 -31
-13 4 -62 25 -109 46 -46 22 -90 39 -96 39 -7 0 -23 12 -37 26 -13 15 -43 35
-65 45 -56 25 -71 44 -47 58 29 17 47 13 135 -25z m14438 -259 c0 -8 -4 -15
-10 -15 -5 0 -10 7 -10 15 0 8 5 15 10 15 6 0 10 -7 10 -15z m-14380 -5 c0
-11 -29 -24 -75 -36 -19 -5 -25 -2 -25 10 0 8 10 18 23 20 82 18 77 18 77 6z
m14440 -1704 c0 -7 -9 -16 -21 -19 -12 -3 -18 -10 -14 -16 3 -7 0 -8 -9 -5
-23 9 -19 21 12 38 34 19 32 19 32 2z m-14427 -587 c-6 -6 -9 -1 -7 13 3 33 6
36 11 14 3 -10 1 -22 -4 -27z m57 -138 c12 -3 -84 -51 -101 -51 -20 0 -23 8
-13 34 5 12 10 14 19 6 9 -7 16 -6 25 5 11 13 24 14 70 6z m-130 -60 c0 -5 -7
-11 -15 -15 -15 -5 -20 5 -8 17 9 10 23 9 23 -2z m-190 -21 c0 -5 -5 -10 -11
-10 -5 0 -7 5 -4 10 3 6 8 10 11 10 2 0 4 -4 4 -10z m12970 -105 c9 -11 10
-19 3 -26 -14 -14 -43 0 -43 22 0 23 23 25 40 4z m-12792 -410 c48 -11 72 -21
72 -31 0 -8 -10 -14 -22 -14 -28 1 -228 56 -237 66 -10 11 106 -2 187 -21z
m267 -75 c14 -5 23 -14 20 -20 -8 -13 -95 -13 -95 0 0 6 9 10 20 10 11 0 20 5
20 10 0 12 2 12 35 0z m4668 -109 c22 -8 26 -18 32 -73 4 -35 11 -71 16 -80 5
-10 12 -37 15 -60 l6 -43 -40 41 c-43 44 -65 81 -88 147 -14 40 -14 42 8 59
27 21 21 20 51 9z m-4783 -32 c0 -12 -27 -11 -35 1 -11 17 5 32 21 19 8 -6 14
-15 14 -20z m13485 10 c0 -7 -8 -15 -17 -17 -18 -3 -25 18 -11 32 10 10 28 1
28 -15z m-11 -100 c14 -28 14 -30 0 -18 -21 17 -37 49 -25 49 5 0 16 -14 25
-31z m-584 11 c0 -5 -7 -10 -15 -10 -8 0 -15 5 -15 10 0 6 7 10 15 10 8 0 15
-4 15 -10z m-612 -32 c-9 -13 -24 -24 -34 -26 -14 -2 -12 3 11 23 37 31 42 31
23 3z m572 12 c0 -5 -2 -10 -4 -10 -3 0 -8 5 -11 10 -3 6 -1 10 4 10 6 0 11
-4 11 -10z m-8912 -79 c8 -5 12 -17 10 -27 -4 -24 -53 -32 -61 -10 -14 36 18
59 51 37z m9843 -18 c0 -5 2 -25 4 -46 l3 -39 -23 22 c-20 19 -22 26 -13 46
11 23 27 32 29 17z m-8461 -16 c0 -2 -39 -37 -86 -78 -48 -41 -132 -114 -188
-162 -117 -102 -204 -163 -216 -151 -4 5 -10 23 -13 40 -7 38 21 88 63 112 16
9 34 26 40 37 17 30 68 59 183 105 56 23 125 54 152 69 48 27 65 35 65 28z
m-1710 -47 c0 -5 -4 -10 -10 -10 -5 0 -10 5 -10 10 0 6 5 10 10 10 6 0 10 -4
10 -10z m6495 -69 c-6 -5 -54 -33 -109 -62 l-98 -52 23 35 c19 29 37 40 98 61
85 28 100 31 86 18z m2905 -17 c17 -17 3 -18 -34 -4 -32 12 -35 34 -3 25 12
-4 29 -13 37 -21z m-9230 -14 c0 -5 -4 -10 -10 -10 -5 0 -10 5 -10 10 0 6 5
10 10 10 6 0 10 -4 10 -10z m-80 -10 c0 -5 -2 -10 -4 -10 -3 0 -8 5 -11 10 -3
6 -1 10 4 10 6 0 11 -4 11 -10z m9416 -10 c15 0 24 -6 24 -15 0 -19 1 -19 -54
5 -48 20 -65 37 -20 20 14 -6 36 -10 50 -10z m-10899 -32 c7 -9 5 -22 -7 -41
l-17 -28 -7 23 c-10 37 -7 58 8 58 7 0 18 -6 23 -12z m10214 -28 c6 0 6 -7 0
-19 -11 -19 -61 -35 -61 -19 0 22 22 49 37 44 8 -3 19 -6 24 -6z m-12489 -11
c7 -4 9 -11 5 -15 -4 -4 -13 -2 -19 4 -8 8 -15 9 -25 1 -7 -7 -13 -8 -13 -5 0
4 -12 -1 -27 -11 -26 -18 -78 -43 -88 -43 -3 0 -5 5 -5 10 0 6 9 10 20 10 14
0 20 7 20 23 0 13 3 27 7 31 9 9 108 5 125 -5z m5688 -2 c0 -8 -7 -28 -16 -46
-22 -44 -41 -27 -24 23 11 34 40 51 40 23z m-2867 -17 c3 -11 1 -23 -4 -26 -5
-3 -9 2 -9 10 0 9 -5 16 -11 16 -5 0 -7 5 -4 10 10 16 22 12 28 -10z m1137 -5
c0 -8 -4 -15 -10 -15 -5 0 -10 7 -10 15 0 8 5 15 10 15 6 0 10 -7 10 -15z
m5762 -17 c14 -42 -16 -71 -52 -48 -12 7 -11 13 10 34 26 29 36 32 42 14z
m318 -18 c-13 -24 -27 -33 -35 -21 -7 12 25 52 37 45 4 -3 4 -14 -2 -24z
m1497 -9 c-3 -14 -9 -35 -13 -45 -5 -14 -4 -17 4 -12 7 4 12 3 12 -3 0 -5 -4
-13 -10 -16 -5 -3 -10 -1 -10 4 0 6 -11 11 -25 11 -27 0 -26 9 9 67 22 36 41
33 33 -6z m1189 18 c-21 -11 -50 -22 -64 -23 -29 -3 -76 -75 -65 -102 5 -13 2
-15 -18 -9 -33 10 -32 8 -25 69 6 45 10 53 21 43 7 -6 10 -16 8 -21 -3 -5 0
-6 8 -4 8 3 13 11 11 18 -7 29 26 45 95 47 l68 2 -39 -20z m-10456 1 c0 -5 -5
-10 -11 -10 -5 0 -7 5 -4 10 3 6 8 10 11 10 2 0 4 -4 4 -10z m10270 6 c0 -3
-4 -8 -10 -11 -5 -3 -10 -1 -10 4 0 6 5 11 10 11 6 0 10 -2 10 -4z m-8633 -32
c-3 -3 -12 -4 -19 -1 -8 3 -5 6 6 6 11 1 17 -2 13 -5z m-3264 -28 c3 -8 -1
-20 -9 -27 -12 -10 -13 -9 -8 6 4 10 1 21 -7 26 -11 7 -11 9 2 9 9 0 19 -6 22
-14z m10297 -2 c0 -2 -30 -3 -67 -2 -67 1 -67 1 -18 7 47 6 85 3 85 -5z
m-8878 -16 c-7 -7 -12 -8 -12 -2 0 14 12 26 19 19 2 -3 -1 -11 -7 -17z m5178
-2 c0 -18 -16 -29 -30 -21 -13 8 -1 35 16 35 8 0 14 -6 14 -14z m3769 -16 c19
-16 32 -32 29 -35 -3 -3 -23 10 -44 29 -47 43 -33 48 15 6z m-8719 -6 c0 -8
-4 -12 -10 -9 -5 3 -10 13 -10 21 0 8 5 12 10 9 6 -3 10 -13 10 -21z m1313 -4
c3 -11 1 -20 -4 -20 -5 0 -9 9 -9 20 0 11 2 20 4 20 2 0 6 -9 9 -20z m9056 -6
c-13 -14 -25 -20 -27 -14 -5 15 17 40 36 40 12 0 10 -6 -9 -26z m-1579 -9 c0
-8 -2 -15 -4 -15 -2 0 -6 7 -10 15 -3 8 -1 15 4 15 6 0 10 -7 10 -15z m-10540
-25 c0 -11 -4 -20 -10 -20 -5 0 -10 9 -10 20 0 11 5 20 10 20 6 0 10 -9 10
-20z m10792 -12 c-7 -7 -12 -8 -12 -2 0 14 12 26 19 19 2 -3 -1 -11 -7 -17z
m1190 5 c19 -17 24 -43 8 -43 -5 0 -10 5 -10 10 0 6 -9 19 -20 30 -24 24 -4
27 22 3z m-8747 -13 c3 -5 1 -10 -4 -10 -6 0 -11 5 -11 10 0 6 2 10 4 10 3 0
8 -4 11 -10z m205 -4 c0 -11 -19 -15 -25 -6 -3 5 1 10 9 10 9 0 16 -2 16 -4z
m-2991 -36 c3 -25 3 -25 -18 -6 -26 23 -27 39 -3 34 9 -2 19 -14 21 -28z
m3121 26 c0 -3 -4 -8 -10 -11 -5 -3 -10 -1 -10 4 0 6 5 11 10 11 6 0 10 -2 10
-4z m-2283 -28 c-3 -8 -6 -5 -6 6 -1 11 2 17 5 13 3 -3 4 -12 1 -19z m2043 4
c0 -13 -36 -43 -43 -36 -10 10 12 44 28 44 8 0 15 -4 15 -8z m6619 -68 c15 10
13 -4 -7 -38 -22 -37 -36 -38 -40 -3 -4 32 17 65 28 46 4 -6 13 -8 19 -5z
m125 -29 c-6 -16 -24 -21 -24 -7 0 11 11 22 21 22 5 0 6 -7 3 -15z"/>
<path d="M8445 8700 c3 -5 8 -10 11 -10 2 0 4 5 4 10 0 6 -5 10 -11 10 -5 0
-7 -4 -4 -10z"/>
<path d="M14198 8696 c-26 -17 -48 -34 -48 -37 0 -14 51 -19 98 -9 l49 11 -16
35 c-8 18 -20 34 -26 33 -5 -1 -31 -15 -57 -33z"/>
<path d="M4816 9141 c-32 -5 -41 -11 -49 -34 -13 -41 1 -50 54 -32 58 21 83
40 76 60 -7 16 -15 16 -81 6z"/>
<path d="M12213 8983 c-20 -3 -33 -10 -33 -19 0 -8 -6 -14 -14 -14 -24 0 -29
-19 -12 -45 10 -15 22 -22 31 -19 8 4 15 1 15 -5 0 -20 32 -11 72 21 33 26 38
33 26 42 -8 6 -17 19 -21 29 -3 9 -12 16 -19 15 -7 0 -28 -3 -45 -5z m27 -63
c0 -5 -9 -10 -21 -10 -11 0 -17 5 -14 10 3 6 13 10 21 10 8 0 14 -4 14 -10z"/>
<path d="M1193 8973 c-17 -6 -16 -28 1 -42 10 -8 16 -8 25 2 13 17 -7 47 -26
40z"/>
<path d="M14570 8950 c-19 -11 -43 -19 -52 -20 -25 0 -23 -37 3 -50 11 -7 28
-9 36 -6 9 4 24 -2 35 -14 12 -13 31 -20 57 -20 50 0 132 27 153 51 11 14 18
15 21 7 3 -10 8 -10 16 -2 14 13 4 44 -15 44 -8 0 -14 7 -14 15 0 9 -6 12 -15
9 -8 -4 -15 -12 -15 -20 0 -9 -12 -14 -32 -14 -18 -1 -44 -7 -58 -15 -38 -22
-60 -18 -30 5 24 20 25 21 6 35 -26 20 -53 18 -96 -5z"/>
<path d="M1372 8918 c-13 -13 -16 -38 -4 -38 13 1 42 27 42 39 0 15 -23 14
-38 -1z"/>
<path d="M15050 8840 c0 -6 7 -10 15 -10 8 0 15 2 15 4 0 2 -7 6 -15 10 -8 3
-15 1 -15 -4z"/>
<path d="M11740 8769 c0 -5 5 -7 10 -4 6 3 10 8 10 11 0 2 -4 4 -10 4 -5 0
-10 -5 -10 -11z"/>
<path d="M15026 8645 c-9 -14 -14 -25 -11 -25 13 0 64 38 58 43 -13 14 -31 7
-47 -18z"/>
<path d="M15262 4648 c-20 -20 -13 -29 20 -26 40 4 54 38 16 38 -13 0 -29 -5
-36 -12z"/>
<path d="M306 3324 c-4 -9 -4 -19 -2 -22 10 -9 36 8 36 23 0 20 -26 19 -34 -1z"/>
<path d="M613 2845 c0 -14 2 -25 6 -25 10 0 11 39 2 45 -5 2 -8 -7 -8 -20z"/>
<path d="M640 2824 c0 -8 5 -12 10 -9 6 3 10 10 10 16 0 5 -4 9 -10 9 -5 0
-10 -7 -10 -16z"/>
<path d="M15335 2140 c-11 -18 5 -30 41 -30 38 0 45 14 15 30 -25 13 -48 13
-56 0z"/>
<path d="M684 1926 c-8 -20 5 -47 24 -54 17 -5 15 30 -2 54 -14 19 -15 19 -22
0z"/>
<path d="M701 1764 c0 -11 3 -14 6 -6 3 7 2 16 -1 19 -3 4 -6 -2 -5 -13z"/>
<path d="M13087 1682 c-21 -23 -48 -88 -40 -96 13 -13 23 -5 23 19 0 14 5 26
10 27 32 4 35 1 35 -32 0 -28 4 -36 21 -38 11 -2 27 4 34 13 11 13 10 22 -6
53 -21 42 -44 72 -54 72 -4 0 -14 -8 -23 -18z"/>
<path d="M5082 1569 c2 -6 8 -10 13 -10 5 0 11 4 13 10 2 6 -4 11 -13 11 -9 0
-15 -5 -13 -11z"/>
<path d="M5434 1488 c13 -21 30 -23 48 -5 7 8 20 17 28 20 8 3 -8 5 -36 4 -46
-2 -50 -4 -40 -19z"/>
<path d="M5178 1469 c8 -8 31 -14 57 -13 28 1 46 -4 49 -13 6 -15 46 -18 46
-4 0 11 -57 31 -85 29 -11 0 -33 3 -50 7 -25 6 -28 5 -17 -6z"/>
<path d="M5593 1467 c4 -10 -1 -13 -19 -9 -13 2 -24 0 -24 -6 0 -16 20 -19 57
-8 37 12 39 29 3 34 -16 3 -21 0 -17 -11z"/>
<path d="M1221 1429 c-7 -12 -10 -23 -8 -26 3 -3 11 5 17 17 15 28 8 35 -9 9z"/>
<path d="M10342 1438 c3 -7 17 -14 32 -16 20 -3 27 0 24 10 -3 7 -17 14 -32
16 -20 3 -27 0 -24 -10z"/>
<path d="M3875 1430 c-9 -15 3 -30 25 -30 18 0 34 23 23 34 -10 10 -41 7 -48
-4z"/>
<path d="M6350 1425 c0 -17 46 -39 61 -29 14 9 10 31 -7 38 -28 11 -54 6 -54
-9z"/>
<path d="M6673 1433 c-21 -8 -15 -20 18 -33 26 -11 33 -11 46 3 8 8 12 20 9
26 -7 11 -50 14 -73 4z"/>
<path d="M5210 1395 c-66 -15 -90 -24 -90 -35 0 -5 24 -1 53 7 28 8 64 17 80
20 15 3 30 9 33 14 7 11 -7 10 -76 -6z"/>
<path d="M2832 1380 c-18 -29 -15 -42 11 -38 16 2 23 11 25 31 4 32 -17 37
-36 7z"/>
<path d="M5305 1390 c-18 -8 -17 -9 7 -9 15 -1 30 4 33 9 7 12 -12 12 -40 0z"/>
<path d="M1587 1383 c-10 -9 -9 -33 1 -33 4 0 8 9 9 20 2 21 0 24 -10 13z"/>
<path d="M13780 1350 c0 -5 7 -10 16 -10 8 0 12 5 9 10 -3 6 -10 10 -16 10 -5
0 -9 -4 -9 -10z"/>
<path d="M7657 1294 c-8 -8 3 -34 14 -34 5 0 9 9 9 20 0 19 -11 26 -23 14z"/>
</g>
</svg>
