<?xml version="1.0" standalone="no"?>
<!DOCTYPE svg PUBLIC "-//W3C//DTD SVG 20010904//EN"
 "http://www.w3.org/TR/2001/REC-SVG-20010904/DTD/svg10.dtd">
<svg version="1.0" xmlns="http://www.w3.org/2000/svg"
 width="1600.000000pt" height="1200.000000pt" viewBox="0 0 1600.000000 1200.000000"
 preserveAspectRatio="xMidYMid meet">

<g transform="translate(0.000000,1200.000000) scale(0.100000,-0.100000)"
fill="#000000" stroke="none">
<path d="M3833 9227 c-20 -43 -63 -84 -95 -91 -18 -4 -57 -11 -86 -16 -30 -5
-83 -23 -118 -40 -57 -28 -64 -35 -64 -61 0 -27 -2 -29 -27 -23 -16 4 -29 7
-29 8 -1 1 -14 21 -29 45 -15 24 -30 40 -34 35 -3 -5 -40 -9 -82 -9 -61 0 -81
-4 -97 -18 -23 -21 -115 -27 -148 -9 -11 6 -50 12 -87 14 -37 2 -67 7 -67 12
0 6 -6 4 -12 -2 -10 -10 -10 -15 -1 -20 9 -6 8 -16 -4 -40 -16 -32 -43 -44
-43 -18 0 8 -6 13 -14 12 -8 0 -14 2 -13 5 1 4 -6 16 -16 27 -19 21 -8 40 14
26 7 -4 10 -1 7 7 -7 23 -40 21 -93 -5 -50 -24 -83 -24 -50 0 10 7 22 11 26 8
5 -3 9 2 9 10 0 24 -71 21 -103 -4 -27 -22 -43 -25 -49 -11 -1 5 -46 -12 -98
-38 l-95 -46 -5 -62 c-5 -60 -20 -99 -20 -52 0 17 -3 20 -9 10 -6 -9 -10 -3
-15 20 -4 19 -8 43 -10 54 -3 11 -5 23 -5 28 -1 4 -5 7 -11 7 -5 0 -7 -13 -5
-29 3 -27 1 -29 -31 -28 -18 1 -30 3 -25 6 9 6 23 121 15 121 -13 0 -34 -31
-34 -49 0 -12 -5 -21 -12 -21 -6 0 -9 -3 -6 -6 4 -3 -2 -14 -13 -25 -10 -10
-19 -29 -19 -41 -1 -41 -27 6 -34 62 -4 28 -9 50 -12 50 -3 0 -17 -6 -32 -14
-16 -8 -56 -22 -91 -31 -59 -15 -70 -15 -135 0 -56 12 -79 13 -104 4 -27 -9
-30 -14 -22 -30 6 -10 17 -19 25 -19 8 0 15 -5 15 -10 0 -7 -6 -7 -20 0 -23
12 -27 -2 -5 -20 8 -7 15 -18 15 -25 0 -10 -8 -10 -40 1 -39 14 -100 9 -100
-7 0 -5 -9 -9 -21 -9 -18 0 -20 -4 -14 -32 4 -18 12 -39 17 -45 16 -20 1 -15
-41 13 -25 16 -58 27 -92 30 -30 3 -59 7 -66 9 -26 8 -37 -24 -25 -73 30 -123
26 -151 -13 -89 -11 17 -34 36 -50 42 -17 5 -38 20 -48 33 -10 12 -29 22 -43
22 -23 0 -24 -2 -25 -82 0 -81 0 -82 -17 -58 -9 14 -26 34 -38 46 -11 11 -19
25 -17 31 2 5 -8 20 -21 32 l-25 23 -60 -37 c-35 -20 -58 -41 -55 -47 4 -6 1
-9 -7 -6 -18 6 -101 -28 -116 -49 -11 -14 -5 -19 43 -35 97 -33 134 -74 134
-149 0 -16 4 -29 9 -29 4 0 12 -21 17 -47 10 -51 7 -103 -4 -103 -4 0 -36 34
-70 75 -35 42 -79 86 -98 98 -24 15 -37 34 -45 61 -8 29 -13 36 -22 27 -9 -9
-8 -14 3 -21 8 -5 11 -12 7 -17 -5 -4 -31 5 -60 21 l-52 28 59 -57 c32 -31 71
-62 85 -70 38 -19 174 -185 153 -185 -12 0 -77 71 -101 111 -22 38 -43 49 -98
49 -22 0 -38 -8 -51 -25 -11 -14 -26 -25 -33 -25 -16 -1 -49 -24 -49 -35 0 -4
11 -5 25 -3 25 5 35 -7 13 -15 -7 -2 -10 -7 -6 -11 3 -4 15 -3 25 2 24 13 132
3 109 -10 -9 -5 -16 -16 -16 -24 0 -8 -4 -13 -9 -9 -7 4 -59 -14 -89 -31 -2
-1 6 -25 18 -52 12 -28 19 -56 15 -61 -3 -6 -31 -11 -61 -11 -30 0 -54 -4 -54
-10 0 -5 -9 -10 -20 -10 -20 0 -49 -44 -38 -56 3 -3 23 -1 44 5 36 9 115 15
157 12 9 0 17 -8 17 -16 0 -8 5 -15 10 -15 6 0 10 5 10 11 0 6 10 9 23 7 29
-4 38 -48 10 -48 -11 0 -24 5 -29 10 -15 15 -114 -28 -115 -49 -1 -9 -3 -25
-5 -36 -11 -66 -11 -81 -2 -92 7 -8 16 -8 36 3 31 16 96 19 87 4 -3 -5 1 -10
10 -10 14 0 14 -3 0 -37 -8 -20 -13 -44 -9 -55 3 -12 0 -18 -9 -18 -17 0 -51
-36 -40 -43 4 -2 31 -8 58 -12 28 -4 53 -9 57 -12 15 -8 -48 -74 -109 -114
-34 -22 -66 -45 -70 -52 -12 -19 -4 -159 10 -176 8 -10 9 -13 0 -8 -8 5 -13
-3 -15 -25 l-3 -33 -70 0 c-38 0 -86 3 -105 7 l-35 7 35 -16 c19 -9 68 -31
108 -49 79 -36 91 -58 39 -72 -57 -16 -187 -74 -187 -83 0 -5 -6 -9 -13 -9 -8
0 -22 -9 -32 -20 -17 -18 -17 -21 -1 -45 21 -32 56 -46 125 -51 29 -2 55 -5
57 -7 2 -2 -11 -15 -30 -28 -18 -13 -57 -44 -86 -69 -29 -25 -66 -53 -84 -63
-17 -10 -23 -16 -13 -13 9 3 17 2 17 -3 0 -9 -111 -113 -159 -149 -25 -19 -29
-27 -21 -42 13 -24 59 -31 195 -31 91 -1 121 3 156 19 81 37 82 36 84 -43 1
-47 -4 -83 -16 -110 -9 -22 -24 -62 -32 -90 -8 -27 -23 -67 -32 -89 -9 -21
-14 -40 -12 -42 2 -2 23 25 46 61 24 36 46 63 50 60 5 -2 7 -37 6 -77 -1 -40
3 -79 8 -86 5 -7 7 -37 3 -72 -7 -56 -6 -60 14 -60 20 0 27 -14 11 -24 -18
-12 1 -46 25 -46 30 0 31 -22 2 -35 -27 -12 -28 -22 -6 -54 16 -23 18 -23 86
-11 43 7 73 17 76 26 7 19 -24 18 -88 -1 -27 -8 -51 -13 -54 -11 -5 6 82 46
133 60 32 10 42 18 52 46 7 19 12 29 12 21 1 -9 9 -11 29 -7 l27 6 -27 -15
c-47 -26 -35 -39 33 -32 74 8 70 -5 -8 -22 -82 -19 -81 -18 -92 -40 -10 -18
-6 -20 64 -26 41 -4 75 -11 75 -16 0 -5 6 -9 13 -9 7 0 13 -10 15 -23 l1 -23
-102 13 c-169 21 -240 25 -281 16 -46 -10 -61 -33 -22 -33 14 0 26 3 26 8 0 4
45 4 99 1 80 -5 110 -11 156 -33 31 -16 54 -30 51 -33 -3 -3 8 -23 25 -45 17
-21 29 -41 26 -44 -2 -3 -24 2 -47 10 -23 8 -49 12 -56 9 -8 -3 -14 0 -14 6 0
15 -221 125 -230 114 -25 -26 -17 -49 26 -80 24 -18 49 -33 55 -33 8 0 10 -20
7 -60 -4 -62 2 -73 24 -41 7 10 29 20 50 23 40 4 40 -4 0 -36 -13 -10 -21 -25
-18 -32 4 -10 -6 -16 -34 -20 -23 -4 -40 -12 -40 -19 0 -8 -6 -15 -12 -18 -7
-2 -10 -8 -6 -12 4 -4 14 0 24 9 12 13 19 14 30 5 21 -17 17 -57 -6 -69 -12
-6 -18 -16 -13 -22 12 -20 7 -69 -7 -78 -8 -5 -11 -12 -7 -16 9 -9 -23 -33
-45 -34 -9 0 -23 -6 -31 -14 -7 -8 -37 -24 -65 -36 -44 -19 -102 -73 -102 -95
0 -3 13 -11 30 -16 19 -7 30 -18 30 -30 0 -10 7 -19 15 -19 22 0 19 -8 -15
-37 -17 -13 -30 -31 -30 -39 0 -7 -13 -20 -30 -29 -16 -9 -30 -18 -30 -21 0
-3 6 -2 13 2 15 10 -13 -28 -29 -38 -7 -4 -21 -24 -33 -43 l-21 -36 32 -30
c18 -16 36 -29 40 -29 12 0 9 -35 -4 -48 -7 -7 -35 -12 -64 -12 -88 0 -209
-57 -209 -99 0 -19 13 -27 104 -57 57 -19 110 -39 116 -44 16 -14 8 -92 -15
-146 -27 -62 -32 -99 -22 -138 7 -22 7 -50 1 -77 -11 -48 6 -99 33 -99 23 0
27 -29 8 -62 -14 -25 -13 -28 5 -42 17 -13 18 -18 8 -35 -7 -12 -13 -29 -13
-38 1 -14 4 -12 15 7 8 14 14 20 15 14 0 -5 -7 -19 -15 -30 -8 -10 -15 -32
-15 -47 0 -15 -8 -42 -17 -60 -19 -36 -24 -67 -11 -67 5 0 4 -9 -2 -19 -15
-30 -12 -69 6 -73 11 -2 -4 -25 -55 -81 -71 -77 -93 -119 -51 -97 14 8 19 17
15 30 -5 15 4 25 37 46 51 32 74 36 71 11 -1 -12 4 -17 14 -13 8 3 12 2 9 -3
-9 -13 32 -44 49 -38 9 4 15 1 15 -9 0 -8 5 -12 11 -9 5 4 3 -10 -6 -32 -58
-134 -67 -169 -71 -273 -4 -107 7 -115 20 -15 16 114 65 265 87 265 5 0 14
-11 19 -25 5 -14 16 -25 25 -25 10 0 15 -10 16 -27 1 -53 9 -97 19 -103 5 -3
13 -21 16 -40 6 -29 5 -32 -10 -27 -14 6 -16 3 -10 -16 4 -12 11 -25 16 -28 5
-3 4 -16 -2 -30 -8 -17 -8 -33 -1 -51 8 -21 16 -26 43 -26 54 0 58 -1 58 -21
0 -11 5 -21 12 -23 7 -3 9 -12 5 -22 -6 -16 -8 -15 -29 3 -25 24 -27 24 -48
11 -14 -9 -22 -80 -9 -80 4 0 5 -23 4 -51 l-2 -51 47 48 c27 27 46 53 43 57
-3 5 3 6 14 3 24 -8 115 31 232 99 45 26 84 45 87 42 6 -6 -404 -400 -433
-416 -17 -9 -23 -21 -23 -46 0 -18 -6 -35 -12 -38 -8 -3 -6 -7 7 -12 87 -30
137 -86 139 -157 1 -17 6 -33 12 -35 6 -2 8 -17 6 -33 -2 -17 2 -45 11 -63 12
-26 25 -101 27 -150 0 -5 4 -6 9 -2 22 13 20 -17 -4 -68 -18 -40 -23 -64 -18
-87 6 -30 5 -31 -15 -19 -11 7 -25 23 -31 36 -11 24 -26 30 -35 14 -10 -15 18
-61 37 -61 10 0 16 -4 13 -9 -3 -5 2 -11 12 -13 28 -8 22 -76 -9 -92 -25 -12
-40 -66 -18 -66 6 0 9 8 6 19 -4 16 -1 18 15 12 30 -11 90 -1 84 14 -3 8 2 19
11 26 13 11 17 10 28 -4 7 -9 21 -17 32 -17 11 0 26 -6 32 -14 14 -17 5 -107
-12 -121 -7 -5 -11 -20 -9 -32 2 -11 -3 -45 -11 -75 -7 -29 -12 -59 -10 -65
14 -40 123 20 262 144 14 12 28 20 32 17 5 -3 28 9 51 27 l43 31 41 -46 c41
-47 78 -64 100 -45 7 5 31 8 53 5 30 -3 46 1 63 16 17 15 32 18 58 14 19 -3
41 -6 48 -6 8 0 0 -11 -16 -25 -17 -14 -35 -25 -41 -25 -6 0 -11 -7 -11 -15 0
-8 -5 -15 -11 -15 -5 0 -7 -6 -3 -12 4 -7 -2 -5 -13 5 -22 19 -33 14 -33 -16
0 -13 5 -17 15 -13 8 3 15 1 15 -5 0 -6 8 -6 21 2 12 6 33 9 48 6 19 -4 33 1
53 20 l26 25 -2 -49 c-2 -34 -15 -75 -40 -126 -31 -62 -36 -79 -26 -96 18 -35
37 -24 55 31 9 29 22 56 28 60 6 3 17 30 24 59 8 29 17 56 21 59 5 3 9 16 9
29 1 14 11 33 22 44 19 19 19 19 30 -2 7 -11 20 -21 31 -21 10 0 22 -5 25 -10
11 -18 93 -50 129 -50 34 0 36 -2 36 -33 0 -44 8 -51 37 -32 23 15 24 15 50
-45 14 -33 28 -59 30 -56 3 2 -4 33 -15 69 -17 58 -18 67 -4 93 20 39 22 41
32 24 8 -12 13 -13 30 -2 14 8 20 9 20 1 0 -7 10 -9 28 -5 15 4 37 8 48 10 29
5 64 25 64 35 0 5 10 7 22 3 18 -4 20 -2 16 16 -3 12 -1 23 6 26 7 3 6 8 -4
15 -13 9 -13 11 2 11 9 0 23 3 32 6 24 9 21 -38 -4 -59 -26 -22 -26 -47 0 -47
11 0 20 5 20 10 0 20 37 48 51 39 23 -14 30 -10 19 11 -6 11 -21 20 -33 20
-18 0 -19 2 -7 10 8 5 11 10 6 10 -5 0 1 9 13 19 12 10 30 36 41 58 14 27 19
32 20 18 0 -20 -24 -64 -43 -76 -5 -4 -5 -15 2 -27 8 -16 20 -20 55 -20 29 1
47 6 50 15 6 15 26 9 26 -8 0 -6 -5 -7 -12 -3 -7 4 -8 3 -4 -4 3 -6 -12 -47
-36 -91 -23 -45 -39 -83 -36 -87 3 -3 30 31 59 75 l53 80 25 -22 c13 -12 20
-15 16 -7 -5 8 4 5 19 -8 44 -34 80 -26 81 18 0 8 5 14 11 13 6 -1 18 15 27
37 l15 39 46 -22 c25 -12 46 -27 46 -33 0 -6 7 -17 16 -25 13 -11 14 -9 9 14
-5 20 -3 27 7 27 10 0 13 9 10 29 -3 25 -1 29 15 25 19 -5 40 11 42 31 2 13
42 14 64 1 12 -8 23 -7 37 2 17 11 23 7 58 -41 22 -28 47 -59 56 -67 17 -13
17 -12 1 25 -32 76 -35 85 -25 85 6 0 10 -5 10 -11 0 -6 6 -9 13 -6 15 6 41
-29 32 -43 -4 -6 0 -13 8 -15 8 -4 13 -19 13 -39 -1 -28 -3 -32 -15 -23 -11
10 -13 9 -9 -3 3 -8 14 -15 25 -15 12 0 24 -3 28 -7 12 -11 35 3 35 22 0 11
-9 20 -22 23 -22 4 -23 4 -1 6 16 1 20 6 16 20 -8 30 13 33 51 7 23 -15 32
-26 24 -30 -7 -3 -1 -3 15 0 18 4 27 2 27 -6 0 -7 8 -10 20 -7 13 3 28 -2 40
-15 10 -11 23 -17 29 -13 6 3 11 1 11 -4 0 -6 9 -11 20 -11 11 0 20 -4 20 -10
0 -18 35 -10 51 13 9 12 19 46 23 76 11 81 30 121 58 120 13 0 32 -4 43 -8 19
-8 19 -8 -3 -20 -27 -14 -29 -31 -3 -31 27 0 33 -24 10 -43 -10 -9 -19 -21
-19 -27 0 -15 40 -32 58 -24 30 13 41 12 53 -2 9 -11 8 -18 -1 -29 -15 -18
-13 -20 17 -29 15 -5 25 -2 32 11 6 10 11 14 11 8 0 -5 4 -4 9 4 8 12 12 12
25 2 13 -11 17 -11 22 3 3 9 13 16 20 16 11 0 12 -4 5 -19 -6 -10 -7 -21 -4
-25 4 -3 -3 -15 -14 -25 -22 -21 -22 -17 -9 -188 7 -87 34 -144 83 -173 l36
-21 46 52 c60 69 74 107 75 205 1 77 -1 82 -37 132 -41 57 -45 72 -21 72 9 0
14 8 13 18 -3 33 1 52 12 52 5 0 7 -5 4 -10 -4 -6 5 -10 20 -10 15 0 24 -4 20
-10 -4 -6 7 -10 25 -10 18 0 29 -4 25 -10 -3 -5 -15 -10 -25 -10 -22 0 -18
-27 7 -47 15 -12 9 -38 -7 -28 -16 10 -20 -13 -5 -25 8 -7 15 -21 15 -32 0
-30 25 -80 58 -117 31 -33 58 -34 47 -2 -3 10 1 24 10 31 13 10 15 9 15 -8 0
-12 9 -26 21 -33 15 -8 18 -14 10 -22 -17 -17 -13 -41 9 -65 23 -25 60 -30 60
-8 0 7 11 21 23 29 19 12 23 22 19 46 -5 37 4 39 57 12 34 -18 40 -18 59 -6
14 11 18 22 14 37 -8 32 -65 106 -104 134 -17 13 -34 27 -37 31 -3 5 -19 16
-36 25 -27 15 -30 21 -26 59 3 42 19 69 44 73 27 5 57 18 57 25 0 4 -6 14 -12
21 -11 13 -11 13 2 2 20 -17 26 -16 59 20 25 27 31 29 36 16 4 -9 1 -26 -5
-38 -9 -18 -9 -24 0 -30 19 -12 1 -32 -21 -25 -14 5 -19 2 -19 -12 0 -11 5
-24 12 -31 9 -9 9 -15 -1 -24 -10 -11 -12 -10 -10 2 1 8 0 22 -4 30 -3 8 -9
29 -13 45 -7 28 -8 29 -12 6 -2 -13 2 -44 8 -68 l13 -43 54 5 c29 3 70 14 91
25 20 11 41 20 47 20 6 0 26 11 45 24 28 19 38 21 47 11 6 -7 10 -15 8 -17 -2
-2 35 0 82 4 57 6 108 5 148 -2 33 -6 79 -13 103 -15 44 -4 49 2 44 58 -1 10
2 26 7 34 7 13 14 9 36 -25 31 -47 39 -49 78 -24 31 21 87 18 87 -4 0 -8 -6
-14 -12 -14 -7 0 -21 -7 -32 -15 -17 -13 -14 -14 25 -11 24 1 62 10 83 20 44
18 56 14 38 -14 -16 -26 -15 -30 4 -30 10 0 14 -6 10 -15 -3 -8 -1 -15 4 -15
6 0 10 6 10 13 1 6 20 34 44 62 37 41 46 47 59 37 8 -7 18 -24 21 -37 7 -27
17 -30 47 -14 12 6 17 15 12 22 -7 11 -14 67 -8 67 2 0 35 -13 75 -29 76 -31
120 -64 121 -90 0 -10 4 -7 10 8 7 17 14 21 27 16 30 -13 51 -7 77 21 23 25
24 29 9 37 -9 5 -67 20 -128 33 l-111 24 95 -4 c120 -5 301 -39 405 -77 33
-13 42 -13 100 -5 31 5 35 4 18 -4 -28 -11 -31 -24 -4 -15 12 3 21 0 25 -10 8
-22 24 -19 55 13 28 27 81 42 81 23 0 -21 -5 -26 -23 -23 -10 2 -26 -3 -35
-11 -10 -8 -24 -17 -32 -20 -20 -6 32 -27 70 -27 32 0 50 18 30 30 -8 5 -6 9
8 12 31 8 47 -8 44 -42 -2 -16 1 -30 7 -30 6 0 8 7 5 14 -4 11 0 14 20 10 20
-3 24 -1 20 11 -4 8 -12 15 -19 15 -22 0 -26 29 -4 40 25 14 44 3 28 -16 -9
-11 -7 -14 14 -14 16 0 26 -7 30 -20 7 -26 27 -26 34 0 3 11 9 20 14 20 5 0 9
8 9 19 0 10 11 26 24 34 l23 16 -22 -77 c-12 -42 -25 -87 -29 -99 -10 -31 0
-29 17 3 12 23 20 26 77 28 35 1 65 7 67 13 2 6 13 8 24 6 23 -6 99 16 99 29
0 4 6 8 13 8 7 0 28 16 47 35 19 19 40 35 46 35 7 0 21 -26 31 -57 10 -32 23
-62 29 -68 6 -5 19 -31 28 -57 18 -49 32 -53 54 -18 10 17 7 29 -23 83 -35 64
-45 120 -23 133 6 4 17 -1 25 -11 7 -11 13 -13 13 -6 0 7 4 10 10 6 5 -3 7
-28 4 -55 -4 -40 -2 -50 9 -50 8 0 20 7 28 16 7 8 21 13 31 11 13 -4 21 4 30
29 6 19 18 34 25 34 7 0 12 3 12 8 -4 24 3 40 21 45 11 3 22 2 24 -2 3 -4 27
-18 53 -31 67 -34 126 -82 112 -91 -6 -4 -8 -12 -4 -18 5 -9 10 -9 20 -1 14
12 11 17 94 -162 32 -68 72 -108 110 -108 23 0 36 19 45 73 13 71 -2 123 -52
178 -34 38 -42 53 -33 62 6 6 11 17 11 23 0 7 5 25 10 40 15 38 33 17 35 -38
0 -24 5 -42 11 -41 6 1 19 -18 29 -43 10 -24 24 -44 32 -44 7 0 22 -5 32 -12
30 -18 53 -3 45 29 -6 26 -5 27 8 9 9 -12 21 -17 32 -13 22 9 20 38 -3 44 -19
5 -36 46 -26 63 3 4 -1 11 -7 13 -10 4 -9 6 1 6 9 1 10 5 4 14 -17 20 -21 66
-8 77 19 16 47 2 36 -18 -10 -20 -8 -48 6 -82 6 -14 11 -28 12 -32 2 -14 36
-45 43 -41 4 2 17 -1 29 -7 15 -9 24 -9 32 -1 6 6 17 11 24 11 8 0 25 7 38 16
23 15 24 17 7 41 -16 26 -16 26 11 21 18 -3 27 -1 27 7 0 17 30 28 30 12 0 -7
8 -3 16 8 8 11 20 19 25 17 5 -1 9 2 9 8 0 5 -7 10 -15 10 -23 0 -18 32 9 63
30 35 50 29 35 -11 -7 -18 -7 -28 0 -30 6 -2 11 -15 11 -28 0 -13 6 -24 13
-24 7 0 21 -17 31 -38 17 -33 19 -35 27 -17 7 19 8 19 8 -3 1 -21 2 -22 24 -7
21 14 27 14 56 -1 28 -14 32 -21 29 -46 -4 -25 -1 -31 21 -39 14 -5 39 -16 54
-25 24 -14 31 -14 45 -2 9 8 29 20 44 27 45 23 158 121 173 152 21 40 27 39
73 -15 6 -8 12 -22 12 -30 0 -27 12 -46 29 -46 17 0 51 -33 51 -50 0 -15 36
-12 50 5 7 8 18 15 25 15 8 0 11 8 9 18 -7 25 51 59 72 41 13 -10 17 -10 24 2
7 10 3 16 -13 20 -19 5 -17 7 13 13 19 5 40 11 45 15 6 4 53 16 105 26 52 10
104 23 115 28 11 6 58 9 103 8 50 -1 89 2 97 9 8 7 15 7 19 1 3 -5 45 -13 94
-17 48 -5 77 -10 65 -12 -13 -2 -23 -10 -23 -19 0 -11 7 -14 25 -11 14 3 28 1
31 -3 3 -5 28 -9 56 -9 62 0 57 8 -14 26 -74 17 -42 19 152 9 25 -1 50 1 55 4
6 4 22 12 36 18 24 10 26 9 23 -13 -3 -30 30 -33 60 -5 21 19 21 19 48 -4 16
-14 25 -30 22 -38 -3 -8 -1 -18 5 -22 6 -3 11 -13 11 -21 0 -12 -8 -13 -36 -8
-27 5 -35 4 -30 -5 4 -6 0 -11 -11 -11 -23 -1 -53 -23 -53 -41 0 -10 3 -10 12
-1 14 14 32 16 24 3 -3 -4 20 -13 51 -20 62 -12 224 -15 208 -3 -5 4 -10 14
-10 22 0 8 -14 18 -32 22 -99 24 -102 26 -41 27 58 1 79 14 59 34 -25 25 -8
25 47 0 31 -14 66 -34 77 -43 11 -10 38 -26 60 -36 22 -10 44 -20 49 -22 5 -3
6 0 2 7 -4 6 -1 11 8 11 8 0 17 -4 20 -8 2 -4 28 -5 58 -2 38 3 54 10 56 21 2
11 -7 18 -30 23 -25 5 -29 9 -18 16 17 11 67 3 97 -16 12 -8 29 -14 38 -14 8
0 15 -4 15 -9 0 -9 61 -23 116 -26 17 -1 36 -5 43 -9 7 -5 18 -3 24 3 16 16
29 13 25 -6 -1 -10 3 -32 11 -50 9 -23 10 -36 2 -51 -20 -38 -11 -37 16 1 14
20 31 37 37 37 6 0 22 20 35 45 22 42 25 44 42 29 10 -9 30 -14 49 -12 18 2
34 -3 39 -10 5 -8 11 -13 15 -13 23 3 35 -3 69 -33 22 -19 67 -44 101 -56 60
-22 63 -24 76 -69 l14 -46 4 41 c3 37 5 41 27 36 38 -7 75 6 75 26 0 9 -11 38
-25 64 -29 54 -30 58 -12 58 21 1 102 44 102 55 -1 21 -16 33 -62 45 -60 16
-103 37 -103 50 0 13 46 13 89 0 25 -7 39 -6 49 2 11 10 16 9 23 -4 9 -17 76
-55 119 -68 14 -4 32 -11 41 -15 11 -4 27 3 44 19 15 14 36 26 46 26 11 0 19
6 19 13 1 6 12 25 25 42 31 37 53 24 33 -20 -10 -22 -10 -29 0 -33 6 -2 12
-10 12 -18 0 -17 79 -9 120 13 14 7 35 13 46 13 12 0 41 7 64 15 59 21 70 18
36 -10 l-29 -23 39 -8 c59 -11 77 -7 99 21 12 14 28 25 36 25 13 0 15 11 12
64 -4 80 19 135 103 238 80 98 73 92 161 144 43 26 91 57 107 71 26 22 31 23
44 9 14 -13 10 -22 -36 -82 -29 -37 -52 -71 -52 -76 0 -5 -4 -7 -9 -4 -8 5
-17 -9 -22 -32 -1 -4 -12 -20 -25 -35 -13 -16 -24 -32 -24 -36 0 -9 69 -45 90
-47 8 0 20 -2 27 -3 7 0 10 -8 7 -16 -7 -18 37 -30 63 -17 10 6 30 8 45 5 17
-3 33 1 43 11 9 9 25 16 36 16 12 0 19 7 19 19 0 26 23 43 47 34 16 -6 19 -13
12 -30 -5 -15 -14 -21 -24 -17 -8 4 -17 -1 -21 -10 -3 -9 -12 -16 -20 -16 -8
0 -14 -4 -14 -10 0 -5 5 -10 11 -10 7 0 17 -8 24 -17 10 -13 16 -15 26 -6 8 6
29 9 47 7 39 -5 42 12 6 29 l-27 12 24 6 c45 13 69 10 69 -8 1 -17 2 -17 15 1
8 10 19 15 26 10 9 -5 10 -2 6 11 -6 14 -3 16 15 11 13 -3 41 -6 63 -6 l40 0
-25 -21 c-14 -11 -35 -24 -47 -29 -25 -10 -33 -53 -9 -44 23 9 28 -14 6 -26
-11 -6 -18 -16 -14 -22 10 -15 -18 -29 -33 -16 -10 8 -18 6 -32 -6 -16 -15
-19 -15 -24 -1 -4 8 -14 15 -23 15 -10 0 -14 5 -10 15 3 8 2 15 -3 15 -5 0
-11 9 -14 20 -7 26 -27 26 -34 -1 -3 -11 -11 -18 -18 -15 -7 2 -21 -2 -32 -9
-17 -13 -17 -15 0 -32 14 -15 17 -15 17 -2 0 9 12 21 28 28 15 7 24 9 20 5 -4
-4 1 -14 11 -23 25 -22 43 -59 32 -65 -12 -8 -41 3 -42 15 -1 5 -3 14 -4 19
-1 6 -3 13 -4 16 0 4 -7 1 -15 -5 -25 -21 2 -79 37 -81 4 0 7 -7 7 -16 0 -8 4
-13 8 -10 5 3 20 -1 35 -9 23 -12 28 -11 39 3 10 12 10 14 1 8 -14 -8 -17 3
-7 29 6 14 13 10 41 -21 18 -21 31 -44 29 -50 -3 -7 2 -15 10 -18 23 -9 24 -8
24 13 0 10 8 21 18 24 9 3 28 12 42 20 14 8 38 21 54 28 l29 14 -44 3 c-55 4
-77 22 -28 23 l34 1 -33 8 c-43 10 -52 20 -19 20 14 0 29 5 32 10 9 15 42 12
48 -4 7 -17 46 -11 62 9 18 22 70 6 91 -28 10 -18 18 -35 16 -40 -1 -4 7 -7
17 -7 11 0 31 -15 45 -33 41 -54 152 -98 170 -68 4 5 8 33 11 61 6 63 10 70
35 63 15 -4 20 0 20 15 0 12 -8 26 -17 31 -15 9 -16 12 -4 20 13 8 13 12 0 27
-11 13 -11 18 -1 21 6 3 9 9 6 15 -4 6 0 6 13 0 16 -9 25 -6 46 14 30 28 37
30 37 10 0 -20 80 -27 101 -9 24 20 47 16 52 -10 2 -12 4 0 3 27 l-1 50 43 16
c24 9 48 23 53 31 5 8 9 9 9 2 0 -17 107 -10 150 9 19 9 47 19 63 22 58 13 21
34 -98 56 -78 14 -135 31 -130 40 4 7 103 -4 173 -18 23 -5 45 -6 47 -2 3 5
-14 25 -37 45 -41 35 -42 36 -10 20 34 -17 59 -12 32 5 -10 7 -11 10 -2 10 6
0 12 8 12 18 0 14 2 15 10 2 5 -8 10 -27 10 -42 0 -21 5 -28 19 -28 11 0 21 6
24 13 2 7 10 1 17 -15 18 -38 28 -26 23 26 -5 41 -4 44 15 39 14 -3 21 1 24
13 3 16 7 15 29 -10 22 -24 27 -25 33 -11 4 11 15 15 33 13 26 -3 28 0 31 34
2 20 10 42 18 48 24 21 17 57 -11 64 -14 4 -23 11 -20 16 3 6 -2 10 -12 11
-11 0 -6 5 12 11 83 27 92 55 27 77 -186 65 -459 190 -435 198 7 3 66 -14 130
-37 65 -23 174 -60 242 -82 l124 -40 16 21 c13 17 19 19 29 9 6 -6 12 -20 12
-30 0 -26 44 -23 70 4 14 15 20 33 18 53 -3 25 -7 30 -30 30 -16 -1 -28 3 -28
7 0 4 7 8 15 8 20 0 20 59 0 86 -14 18 -14 18 -16 -11 -1 -24 -3 -25 -6 -8 -5
28 -23 30 -23 3 0 -11 -4 -20 -10 -20 -5 0 -10 11 -10 25 0 20 7 26 40 35 22
6 40 15 40 21 0 6 4 7 10 4 17 -11 50 15 50 40 0 13 5 27 12 31 7 5 8 3 3 -7
-8 -12 -6 -12 8 0 9 7 14 17 11 22 -3 5 0 9 5 9 6 0 11 7 11 15 0 14 29 107
36 114 2 2 10 -2 18 -8 18 -15 40 -5 32 15 -3 8 0 11 9 8 8 -3 17 -14 20 -25
5 -14 16 -19 41 -19 31 0 33 -2 22 -20 -20 -31 1 -38 27 -8 21 25 23 25 28 7
6 -23 32 -16 48 13 8 14 8 23 0 31 -6 6 -11 17 -11 24 0 9 11 7 38 -7 42 -22
148 -48 157 -38 11 10 -28 72 -70 111 -22 21 -57 42 -78 48 -33 9 -38 14 -34
31 4 15 3 18 -5 10 -8 -8 -15 -7 -25 4 -19 18 -34 18 -27 -1 4 -8 1 -15 -5
-15 -6 0 -11 7 -11 15 0 24 -25 17 -40 -10 -15 -28 -57 -31 -77 -6 -6 9 -22
16 -35 16 -17 0 -25 8 -33 32 -5 18 -15 33 -22 33 -7 0 -13 4 -13 9 0 5 -19
21 -42 35 l-43 25 47 1 c37 0 50 5 66 24 18 24 22 24 96 17 65 -6 84 -4 119
12 l42 18 -25 19 c-23 17 -74 31 -185 48 -52 8 -56 13 -40 61 5 18 4 22 -6 16
-11 -6 -11 -5 -3 5 9 9 7 17 -8 32 -18 18 -18 21 -4 37 9 10 16 24 16 33 0 8
9 27 20 41 11 14 20 29 20 34 1 14 53 69 78 82 18 9 27 10 37 1 18 -15 128 15
123 32 -2 6 -29 21 -59 32 -90 35 -117 55 -111 84 3 15 1 23 -5 19 -12 -7 -73
14 -73 25 0 9 75 58 89 58 11 0 41 45 41 62 0 7 -17 24 -37 37 l-37 24 32 26
c32 26 43 60 20 62 -56 7 -85 6 -99 -1 -11 -7 -29 -3 -55 10 -22 11 -33 20
-26 21 6 1 17 2 22 3 18 2 30 29 30 67 0 41 13 49 84 49 21 0 57 5 78 12 l40
12 -5 45 c-5 41 -12 52 -74 109 -37 35 -85 73 -105 84 -21 12 -38 25 -38 30 0
4 -7 8 -16 8 -8 0 -32 11 -52 25 -20 14 -40 25 -44 25 -5 0 -18 10 -29 21 -18
18 -20 25 -10 41 9 15 9 23 1 33 -9 11 -7 16 10 25 11 6 18 16 14 21 -3 6 -13
2 -23 -10 -10 -11 -46 -32 -82 -47 -35 -15 -70 -32 -77 -37 -7 -5 -15 -8 -18
-5 -2 3 6 12 18 20 13 9 35 26 49 39 59 54 89 71 119 64 26 -6 29 -4 25 16 -7
33 -20 42 -54 34 -19 -4 -38 -18 -51 -40 -20 -33 -80 -73 -80 -54 0 5 5 9 11
9 6 0 8 9 4 20 -5 14 6 32 38 67 24 27 42 54 40 61 -3 6 1 12 8 12 8 0 9 3 3
9 -5 5 -42 11 -82 15 -45 4 -79 12 -88 21 -9 8 -20 13 -25 10 -5 -4 -6 2 -2
11 5 14 2 16 -15 12 -12 -4 -20 -2 -17 2 9 15 -17 23 -26 9 -7 -10 -8 -5 -6
16 3 26 8 30 35 30 17 1 34 4 38 8 4 4 1 7 -7 7 -8 0 1 9 19 20 17 11 32 27
32 35 0 8 7 15 15 15 8 0 15 5 15 10 0 6 6 10 13 10 8 0 24 11 37 25 l24 25
-22 16 c-45 31 -16 98 33 76 14 -7 25 -16 25 -22 0 -6 5 -8 10 -5 6 3 29 -9
53 -27 23 -19 56 -43 72 -53 30 -18 30 -18 15 1 -8 10 -21 25 -28 33 -21 22
-50 85 -45 98 3 7 23 17 44 23 39 11 40 12 33 43 -3 18 -13 36 -21 41 -19 10
-9 75 14 92 21 14 10 44 -16 44 -10 0 -21 6 -24 14 -6 14 10 36 25 36 13 0 83
71 80 81 -1 5 4 9 12 9 8 0 16 5 18 11 4 13 109 -25 158 -58 41 -27 53 -28 74
-7 25 24 20 31 -35 49 -28 10 -53 23 -56 31 -2 7 -29 20 -59 29 -30 8 -54 19
-54 23 0 4 9 20 19 36 11 16 17 35 14 42 -3 8 -1 14 4 14 13 0 14 40 2 62 -7
13 -16 17 -31 12 -17 -5 -20 -3 -15 10 5 12 0 19 -15 25 -13 5 -17 10 -11 14
17 11 -1 62 -20 61 -21 -2 -22 12 -2 20 8 3 15 16 15 28 0 19 2 20 10 8 8 -13
10 -13 10 1 0 14 80 58 107 59 4 0 19 9 33 20 l25 20 -35 -11 c-19 -6 -64 -20
-100 -31 -36 -11 -76 -22 -90 -26 -13 -3 -31 -12 -39 -20 -13 -12 -16 -12 -27
2 -6 9 -10 25 -7 35 3 10 -2 32 -11 49 -11 21 -12 33 -5 37 7 5 6 12 -3 23
-10 12 -10 16 0 19 6 3 12 13 12 23 0 10 8 26 18 36 9 10 17 22 18 28 0 6 3
18 7 26 19 51 16 94 -11 142 -26 48 -27 49 -8 64 17 12 17 14 3 14 -9 0 -34
19 -56 42 -31 32 -38 45 -30 55 8 9 8 13 0 13 -17 0 -13 14 9 38 11 12 20 26
20 31 0 6 9 16 20 23 11 7 20 18 20 25 0 7 4 13 10 13 5 0 9 11 8 24 -2 17 -6
22 -14 16 -6 -6 -14 -7 -17 -3 -13 12 -7 32 12 38 49 15 79 73 52 100 -6 6 -6
28 -1 55 20 98 11 148 -32 194 -19 21 -19 21 4 40 20 16 23 17 26 2 7 -32 32
-17 32 19 0 19 5 35 10 35 6 0 10 11 10 24 0 14 7 31 15 40 8 8 18 35 21 60 6
38 4 46 -9 46 -15 0 -14 4 3 35 13 23 16 36 9 41 -6 4 -14 1 -18 -5 -4 -6 -15
-9 -24 -5 -17 6 -22 -12 -18 -58 1 -10 -4 -18 -13 -18 -20 0 -22 55 -3 64 6 4
-2 4 -20 1 l-32 -4 54 53 c48 47 52 55 39 68 -13 13 -12 18 10 41 14 15 23 27
20 27 -10 0 -69 -33 -86 -48 -21 -18 -23 -10 -4 26 23 46 38 123 27 136 -6 7
-8 30 -4 51 5 30 2 41 -13 52 -16 11 -16 15 -5 22 8 5 20 7 28 4 16 -6 17 20
2 48 -9 17 -7 21 10 26 19 5 31 25 14 22 -27 -4 -35 1 -23 15 6 8 11 23 10 33
-4 33 0 43 14 43 22 0 30 19 16 35 -9 11 -9 15 -1 15 6 0 11 5 11 10 0 6 -6
10 -14 10 -24 0 -29 19 -11 46 15 23 15 26 -5 52 -12 15 -29 30 -38 34 -15 6
-15 7 1 7 25 1 21 20 -7 27 -14 3 -37 -1 -54 -10 -35 -18 -78 -21 -87 -6 -3 6
1 10 10 10 9 0 15 6 13 13 -5 13 -64 17 -88 6 -51 -24 -143 -59 -147 -56 -2 3
8 12 22 21 30 20 33 36 6 36 -11 0 -23 5 -26 10 -4 6 -10 8 -15 5 -5 -3 -12 0
-16 6 -5 9 0 10 15 6 30 -8 58 2 40 14 -10 6 -4 12 21 23 50 20 52 26 25 48
-22 17 -29 18 -63 7 -81 -27 -106 -40 -91 -50 8 -5 10 -9 4 -9 -5 0 -16 4 -23
8 -9 6 -5 12 13 22 14 7 25 17 25 21 0 4 20 20 45 36 25 15 45 31 45 36 0 17
-28 4 -69 -33 -24 -22 -47 -40 -52 -40 -4 0 -14 -7 -23 -15 -10 -10 -21 -12
-37 -7 -19 8 -16 11 33 35 53 26 113 77 90 77 -7 0 -12 6 -12 13 0 16 -35 38
-52 32 -7 -3 -38 -6 -68 -8 -43 -3 -54 -7 -52 -19 1 -9 -7 -18 -19 -21 -17 -5
-20 -2 -16 14 5 18 0 19 -106 14 l-112 -5 131 19 c104 15 141 25 174 46 43 27
63 27 40 0 -7 -8 -8 -15 -2 -15 5 0 12 7 16 15 3 8 12 15 20 15 8 0 18 5 22
11 5 9 -1 10 -19 5 -22 -5 -25 -3 -20 10 5 14 1 15 -28 9 -19 -4 -43 -14 -54
-21 -23 -17 -48 -18 -43 -3 2 6 6 9 9 7 2 -2 19 12 37 30 27 27 30 36 22 52
-7 14 -7 20 0 20 5 0 10 8 10 19 0 11 10 22 23 26 12 3 17 8 11 11 -6 2 -9 17
-6 33 2 16 -1 31 -6 35 -5 3 -9 -2 -8 -11 0 -10 -7 -19 -16 -21 -11 -2 -18 3
-18 12 0 18 -49 22 -78 7 -9 -5 -25 -12 -35 -15 -12 -4 -17 -14 -16 -33 3 -38
-10 -93 -22 -93 -5 0 -9 -10 -9 -22 0 -56 -70 -104 -182 -124 l-38 -6 15 42
c8 23 15 56 15 72 0 29 -1 30 -36 23 -20 -3 -47 -10 -60 -15 -22 -9 -23 -12
-12 -30 7 -11 16 -20 20 -20 13 0 9 -13 -11 -39 l-19 -25 -45 37 c-52 42 -103
52 -92 17 7 -23 -7 -27 -24 -6 -7 8 -20 12 -30 9 -14 -3 -17 1 -16 19 1 17 10
25 37 31 l36 8 -16 32 c-8 18 -16 34 -18 35 -4 6 -114 -62 -114 -70 0 -5 -10
-3 -21 4 -17 10 -23 10 -26 1 -7 -18 -33 -16 -33 2 0 8 8 15 18 15 19 0 109
33 153 55 26 14 31 12 86 -21 62 -37 73 -38 181 -12 37 9 42 13 36 32 -4 11
-17 35 -30 52 -13 17 -22 33 -21 35 2 2 -4 11 -14 21 -16 15 -18 15 -29 -13
-21 -50 -76 -49 -87 2 -4 19 -10 26 -20 22 -13 -5 -13 -3 -1 18 7 13 20 29 28
35 28 23 -8 33 -65 20 -27 -7 -28 -6 -12 7 22 18 22 27 -2 27 -10 0 -23 6 -30
13 -13 16 -76 13 -100 -5 -9 -7 -6 -1 5 12 35 41 36 67 5 103 -28 31 -29 31
-72 18 -46 -14 -70 -37 -62 -58 3 -7 0 -13 -6 -13 -6 0 -11 -7 -11 -15 0 -8
-4 -15 -8 -15 -5 0 -8 16 -7 35 0 23 -4 35 -13 35 -9 0 -12 -11 -9 -40 2 -22
0 -40 -5 -40 -4 0 -8 5 -8 10 0 6 -9 10 -20 10 -14 0 -20 7 -20 21 0 29 -24
18 -28 -13 -2 -18 -9 -26 -25 -27 -12 -1 -40 -3 -62 -5 -22 -3 -48 -5 -59 -5
-11 -1 -16 -6 -13 -15 7 -18 -9 -24 -53 -19 -19 3 -45 5 -57 5 -16 0 -27 11
-40 39 -16 35 -21 38 -46 33 -22 -5 -33 1 -59 30 -17 20 -39 36 -47 36 -14 0
-14 -2 -1 -11 11 -8 7 -9 -19 -5 -27 5 -32 3 -27 -10 5 -13 -3 -14 -55 -8 -60
7 -61 7 -54 -16 5 -17 4 -21 -6 -15 -20 13 -69 13 -70 1 -1 -6 -1 -17 0 -23 1
-8 -5 -10 -14 -7 -8 3 -15 10 -15 16 0 5 -4 7 -9 3 -6 -3 -19 5 -31 17 l-20
22 21 12 c12 6 31 9 42 6 19 -5 19 -4 1 16 -15 19 -20 20 -27 7 -12 -23 -27
-18 -24 8 2 19 -3 22 -33 22 -27 0 -37 -6 -47 -25 -13 -25 -32 -28 -45 -7 -4
7 -20 12 -35 13 -40 1 -73 13 -73 27 0 7 -6 4 -14 -5 -20 -26 -105 -59 -158
-61 -27 -1 -48 -6 -48 -12 0 -5 -15 -26 -33 -45 -17 -20 -37 -44 -43 -55 -16
-29 -33 -30 -30 -1 4 30 -6 33 -29 10 -9 -9 -19 -14 -22 -11 -3 4 -14 2 -24
-4 -13 -7 -31 -7 -55 0 -29 8 -41 7 -60 -6 -19 -12 -27 -13 -39 -3 -8 7 -15
19 -15 26 0 12 -4 12 -20 2 -16 -11 -22 -9 -34 7 -11 16 -17 17 -27 8 -9 -9
-18 -9 -31 -2 -11 6 -27 8 -36 4 -15 -6 -15 -8 2 -21 19 -13 18 -14 -11 -14
-22 0 -32 -6 -36 -19 -3 -12 1 -22 9 -25 8 -3 14 -12 14 -20 0 -8 6 -17 13
-19 6 -3 2 -6 -10 -6 -12 -1 -25 4 -28 10 -4 6 -20 7 -38 3 -28 -6 -30 -5 -18
10 16 19 8 21 -21 5 -16 -8 -19 -8 -13 1 5 9 1 10 -14 5 -11 -3 -21 -3 -21 2
0 10 -81 11 -97 0 -14 -9 -45 2 -37 14 3 5 1 9 -5 9 -5 0 -13 -5 -16 -10 -4
-6 -11 -7 -17 -4 -6 4 -8 2 -5 -4 4 -5 4 -17 1 -26 -5 -12 -10 -14 -19 -6 -17
14 -27 -1 -14 -20 15 -25 10 -32 -21 -25 -24 5 -29 4 -24 -8 8 -21 -39 -47
-86 -47 -28 0 -40 4 -40 14 0 8 -7 12 -17 10 -10 -3 -33 5 -50 16 -29 17 -33
25 -33 60 0 25 -4 39 -10 35 -6 -4 -10 6 -9 22 0 23 2 25 8 9 6 -16 9 -17 13
-4 9 21 -40 81 -60 73 -18 -7 -32 11 -32 43 0 12 -4 22 -10 22 -5 0 -10 7 -10
16 0 14 -7 15 -39 10 -29 -4 -45 -1 -62 12 -27 20 -38 21 -95 4 -22 -6 -102
-13 -177 -14 -75 -2 -137 -5 -137 -8 0 -3 -25 -3 -55 -2 -34 3 -61 -1 -70 -8
-10 -8 -19 -9 -27 -3 -7 5 -34 8 -60 7 -27 -2 -50 1 -54 7 -5 8 -9 8 -14 0 -4
-8 -17 -2 -39 18 -33 31 -55 39 -65 22 -6 -9 -62 -8 -72 2 -4 3 -18 -5 -33
-19 -21 -19 -27 -21 -29 -9 -4 17 -50 10 -67 -10 -5 -6 -29 -17 -53 -24 -25
-7 -49 -22 -59 -37 -10 -16 -21 -23 -32 -19 -9 4 -31 8 -50 10 -19 2 -37 8
-40 14 -6 10 -56 9 -66 -1 -3 -2 -18 -3 -34 0 -19 3 -28 9 -25 17 8 19 -37 8
-53 -13 -16 -20 -17 1 -2 30 14 26 -6 52 -21 28 -7 -11 -10 -11 -10 -2 0 8
-10 12 -27 10 -22 -2 -28 1 -27 15 1 13 -6 17 -34 17 -26 0 -44 8 -65 28 -24
23 -37 27 -86 27 -61 -1 -110 -23 -118 -54 -3 -12 -16 -16 -49 -16 -24 0 -44
3 -44 8 0 4 -17 7 -38 7 -21 0 -43 5 -48 10 -17 17 -137 24 -177 11 -28 -9
-50 -10 -89 -2 -118 25 -207 13 -229 -29 -15 -30 -22 -55 -20 -74 2 -15 -1
-17 -16 -12 -29 12 -140 36 -233 52 -167 29 -192 31 -196 20 -2 -6 -23 -12
-45 -12 -22 -1 -46 -7 -52 -13 -6 -6 -19 -11 -30 -11 -14 0 -17 -5 -11 -22 6
-19 4 -21 -7 -11 -11 9 -18 8 -33 -2 -11 -8 -30 -12 -47 -8 -16 3 -35 0 -42
-6 -8 -6 -28 -9 -45 -7 -23 2 -32 -1 -32 -11 0 -9 -9 -5 -27 12 -21 19 -35 24
-55 20 -23 -6 -30 -1 -54 37 -15 24 -29 37 -31 31 -4 -10 -10 -10 -25 -2 -26
14 -32 6 -46 -60 -16 -71 -93 -167 -135 -167 -19 0 -36 -11 -57 -34 l-29 -35
6 50 c3 28 11 64 18 80 8 17 16 55 19 86 3 30 8 63 12 72 5 15 -3 17 -71 17
-68 0 -80 -3 -97 -22 l-19 -22 -37 42 c-33 39 -44 44 -110 56 -42 8 -75 10
-78 5 -3 -5 -9 -7 -12 -5 -4 2 -19 -4 -32 -15 -14 -10 -19 -19 -12 -19 24 0
11 -29 -20 -44 -44 -21 -161 -56 -166 -51 -7 7 19 35 33 35 7 0 18 7 25 15 11
13 8 15 -13 15 -14 0 -27 6 -29 13 -6 15 -278 20 -278 5 0 -6 -8 -4 -17 3 -15
12 -16 12 -10 -3 9 -25 -15 -28 -40 -6 -20 19 -22 19 -47 3 -29 -19 -32 -15
-14 15 7 10 9 22 5 26 -4 4 -41 9 -83 11 -62 4 -79 1 -95 -13 -17 -15 -19 -15
-19 -1 0 19 -32 31 -60 22 -12 -4 -20 -2 -20 5 0 8 -33 11 -112 9 -97 -2 -127
1 -213 25 -107 30 -159 30 -216 1 -30 -16 -30 -17 -14 -42 21 -32 14 -38 -26
-24 -26 9 -34 8 -43 -4 -6 -8 -27 -17 -46 -19 -19 -2 -39 -4 -44 -5 -6 0 -1
-7 10 -15 25 -19 16 -26 -42 -37 -44 -8 -55 -6 -125 27 -66 31 -86 36 -124 31
-37 -4 -48 -1 -53 11 -3 9 -17 29 -31 44 -20 23 -32 28 -72 28 -29 0 -53 -6
-63 -15 -8 -8 -19 -15 -25 -15 -6 0 -11 -6 -11 -13 0 -13 -40 -37 -60 -37 -5
0 -35 -16 -67 -35 -81 -49 -172 -76 -265 -77 -43 -1 -81 2 -85 6 -5 4 -8 25
-8 47 0 21 -4 39 -10 39 -5 0 -10 -5 -10 -12 0 -18 -63 -29 -69 -12 -3 8 -19
14 -35 14 -17 0 -31 6 -35 16 -4 11 -13 14 -27 11 -12 -3 -32 1 -45 10 -17 10
-35 13 -59 9 -22 -4 -35 -3 -35 4 0 5 -23 10 -52 11 -29 0 -62 4 -73 8 -13 5
-30 0 -53 -16 -19 -12 -41 -23 -48 -23 -16 0 -19 26 -4 35 24 15 7 24 -20 10
-16 -8 -44 -15 -62 -15 -18 0 -53 -5 -77 -11 -24 -5 -45 -8 -47 -6 -3 2 3 23
11 47 16 46 15 65 -2 27z m1492 -127 c-3 -5 -2 -10 3 -10 4 0 24 -13 42 -30
40 -36 40 -36 -30 -10 -30 11 -56 20 -57 20 -2 0 -3 9 -3 20 0 15 7 20 26 20
14 0 23 -4 19 -10z m2295 -6 c0 -2 -26 -4 -57 -3 -39 1 -50 3 -34 8 24 6 91 3
91 -5z m895 -25 c54 -11 129 -54 120 -69 -4 -6 -12 -10 -18 -10 -19 0 -39 -37
-24 -43 7 -3 2 -6 -10 -6 -12 -1 -41 14 -65 32 -82 61 -130 89 -148 84 -16 -4
-18 3 -11 31 1 4 98 -8 156 -19z m4385 17 c0 -2 3 -12 6 -21 5 -13 2 -16 -16
-13 -29 4 -37 38 -9 38 10 0 19 -2 19 -4z m-4560 -40 c0 -9 -30 -14 -35 -6 -4
6 3 10 14 10 12 0 21 -2 21 -4z m-403 -32 c-3 -3 -12 -4 -19 -1 -8 3 -5 6 6 6
11 1 17 -2 13 -5z m-5377 -8 c0 -2 -9 -6 -20 -9 -11 -3 -18 -1 -14 4 5 9 34
13 34 5z m195 -6 c3 -5 -1 -10 -10 -10 -9 0 -13 5 -10 10 3 6 8 10 10 10 2 0
7 -4 10 -10z m5915 -32 c0 -5 -4 -8 -10 -8 -5 0 -10 10 -10 23 0 18 2 19 10 7
5 -8 10 -18 10 -22z m-5742 -7 c10 -6 4 -14 -23 -30 -57 -33 -71 -29 -59 17 5
17 14 22 38 22 17 0 37 -4 44 -9z m5454 -11 c7 -11 18 -20 25 -20 7 0 17 -9
23 -21 9 -16 14 -18 26 -8 17 14 18 -1 1 -25 -12 -16 -15 -15 -44 18 -18 19
-41 37 -52 41 -21 6 -26 16 -14 28 11 12 22 8 35 -13z m-5614 -43 c-2 -17 -8
-32 -14 -34 -16 -5 -25 23 -18 52 9 36 36 20 32 -18z m5703 20 c-10 -9 -11 -8
-5 6 3 10 9 15 12 12 3 -3 0 -11 -7 -18z m219 -7 c0 -5 -4 -10 -10 -10 -5 0
-10 5 -10 10 0 6 5 10 10 10 6 0 10 -4 10 -10z m-5865 -20 c3 -6 -4 -10 -17
-10 -18 0 -20 2 -8 10 19 12 18 12 25 0z m5948 -53 c-3 -22 -11 -36 -17 -34
-12 5 -12 11 0 41 6 16 4 18 -11 12 -18 -7 -18 -6 0 14 24 27 36 14 28 -33z
m-6068 2 c-31 -12 -45 -10 -39 5 3 8 15 11 32 8 24 -5 25 -6 7 -13z m8812 -1
c-3 -8 -6 -5 -6 6 -1 11 2 17 5 13 3 -3 4 -12 1 -19z m553 8 c0 -3 -4 -8 -10
-11 -5 -3 -10 -1 -10 4 0 6 5 11 10 11 6 0 10 -2 10 -4z m-230 -56 c-30 -28
-61 -50 -67 -50 -12 0 25 38 77 79 51 41 43 19 -10 -29z m140 39 c0 -7 -10
-21 -22 -32 -25 -21 -148 -81 -154 -74 -8 8 91 79 119 84 15 3 27 12 27 19 0
8 7 14 15 14 8 0 15 -5 15 -11z m155 -2 c-11 -9 -15 -19 -10 -27 6 -10 10 -9
17 4 5 9 16 16 23 16 26 0 16 -16 -19 -32 -34 -17 -34 -16 -39 8 -3 16 1 28
12 34 25 14 37 12 16 -3z m1805 -17 c0 -4 -7 -25 -16 -45 -17 -42 -16 -44 41
-70 17 -8 25 -14 18 -15 -7 0 -28 8 -48 18 -34 16 -36 19 -30 55 6 40 1 43
-42 26 -53 -21 -83 -28 -83 -19 0 5 14 17 31 26 24 12 28 18 18 24 -8 6 5 10
36 12 54 3 75 0 75 -12z m-11310 6 c0 -5 -59 -36 -68 -36 -2 0 6 9 19 20 22
17 49 26 49 16z m-300 -52 c0 -16 -83 -58 -102 -52 -13 5 69 66 90 67 6 1 12
-6 12 -15z m11310 -28 c197 -65 215 -73 212 -93 -2 -10 -6 -20 -8 -22 -8 -8
-116 19 -179 46 -61 25 -164 102 -140 103 6 0 57 -16 115 -34z m-11445 4 c-3
-5 -11 -10 -16 -10 -6 0 -7 5 -4 10 3 6 11 10 16 10 6 0 7 -4 4 -10z m6331
-26 c-4 -9 -9 -15 -11 -12 -3 3 -3 13 1 22 4 9 9 15 11 12 3 -3 3 -13 -1 -22z
m-7316 -4 c0 -5 -4 -10 -10 -10 -5 0 -10 5 -10 10 0 6 5 10 10 10 6 0 10 -4
10 -10z m930 -10 c0 -5 -7 -10 -16 -10 -8 0 -12 5 -9 10 3 6 10 10 16 10 5 0
9 -4 9 -10z m-1085 -11 c-12 -18 -69 -37 -82 -26 -28 21 -14 28 60 34 16 1 25
-2 22 -8z m1325 -8 c0 -10 -24 -21 -43 -21 -7 0 -3 7 7 15 22 17 36 19 36 6z
m-70 -31 c-8 -5 -19 -10 -25 -10 -5 0 -3 5 5 10 8 5 20 10 25 10 6 0 3 -5 -5
-10z m11027 -6 c-3 -3 -12 -4 -19 -1 -8 3 -5 6 6 6 11 1 17 -2 13 -5z m551
-13 c3 -8 -1 -12 -9 -9 -7 2 -15 10 -17 17 -3 8 1 12 9 9 7 -2 15 -10 17 -17z
m-12744 -26 c82 -14 89 -14 101 1 15 21 47 12 43 -12 -2 -13 18 -21 97 -41
151 -36 348 -101 311 -103 -4 0 -47 9 -95 21 -47 11 -149 35 -226 54 -77 18
-216 45 -310 60 -93 15 -179 32 -190 36 -31 14 166 2 269 -16z m12521 10 c77
-8 148 -15 157 -15 11 0 15 -5 12 -15 -4 -11 -21 -15 -56 -15 -79 0 -278 23
-278 32 0 4 6 8 13 8 8 0 7 4 -3 10 -21 13 -14 13 155 -5z m484 -9 c8 -10 8
-16 -1 -23 -17 -14 -90 -4 -85 11 2 6 13 10 25 8 11 -2 23 2 27 8 9 14 20 13
34 -4z m61 4 c0 -5 -4 -10 -10 -10 -5 0 -10 5 -10 10 0 6 5 10 10 10 6 0 10
-4 10 -10z m-396 -80 c-11 -11 -153 -27 -143 -17 5 6 95 24 134 26 13 1 16 -2
9 -9z m784 -40 c29 -11 92 -40 140 -64 48 -23 120 -56 161 -72 41 -16 86 -39
99 -53 17 -17 19 -22 7 -17 -43 16 -288 77 -292 72 -3 -3 -20 5 -37 18 -52 37
-79 46 -100 30 -24 -17 -38 -9 -35 19 1 12 -1 30 -6 40 -6 14 -1 47 7 47 2 0
27 -9 56 -20z m-13548 0 c0 -5 -4 -10 -10 -10 -5 0 -10 5 -10 10 0 6 5 10 10
10 6 0 10 -4 10 -10z m687 -46 c-3 -3 -12 -4 -19 -1 -8 3 -5 6 6 6 11 1 17 -2
13 -5z m237 -63 c21 -23 11 -51 -19 -51 -29 0 -48 24 -40 50 8 25 37 26 59 1z
m13096 -111 c0 -5 -4 -10 -10 -10 -5 0 -19 -9 -31 -21 -14 -14 -24 -18 -31
-11 -6 6 1 14 20 23 17 7 28 17 26 21 -3 4 2 8 10 8 9 0 16 -4 16 -10z
m-13342 -12 c-3 -7 -11 -13 -18 -13 -7 0 -15 6 -17 13 -3 7 4 12 17 12 13 0
20 -5 18 -12z m13541 -39 c-50 -27 -70 -22 -25 6 22 13 44 21 49 18 6 -3 -5
-14 -24 -24z m-14355 4 c4 -9 0 -23 -9 -32 -13 -14 -15 -14 -15 2 0 9 -7 17
-15 17 -8 0 -15 4 -15 8 0 26 45 30 54 5z m13856 7 c0 -5 -4 -10 -10 -10 -5 0
-10 5 -10 10 0 6 5 10 10 10 6 0 10 -4 10 -10z m205 -29 c3 -6 -4 -15 -15 -21
-16 -8 -20 -8 -20 3 0 25 23 36 35 18z m-135 -36 c6 -8 9 -23 5 -36 l-7 -21
-20 20 c-12 12 -18 27 -15 36 8 20 21 20 37 1z m-14027 -27 c3 -11 0 -21 -8
-24 -18 -7 -31 1 -37 23 -4 13 1 18 18 19 14 1 24 -5 27 -18z m319 -30 c-7 -7
-12 -8 -12 -2 0 14 12 26 19 19 2 -3 -1 -11 -7 -17z m13538 -19 c0 -5 -9 -9
-20 -9 -22 0 -27 16 -7 23 15 5 27 -1 27 -14z m216 -68 c-10 -16 -36 -13 -36
3 0 17 21 27 34 16 4 -5 5 -13 2 -19z m154 -71 c0 -5 -7 -10 -16 -10 -8 0 -12
5 -9 10 3 6 10 10 16 10 5 0 9 -4 9 -10z m-272 -27 c-5 -25 -28 -28 -28 -4 0
12 6 21 16 21 9 0 14 -7 12 -17z m639 -149 c-9 -9 -28 6 -21 18 4 6 10 6 17
-1 6 -6 8 -13 4 -17z m-5057 6 c0 -5 -4 -10 -10 -10 -5 0 -10 5 -10 10 0 6 5
10 10 10 6 0 10 -4 10 -10z m4810 -39 c0 -14 -18 -23 -30 -16 -6 4 -8 11 -5
16 8 12 35 12 35 0z m48 -247 c4 -27 -26 -40 -46 -20 -13 13 -13 18 -2 31 18
21 44 15 48 -11z m232 22 c0 -2 -8 -10 -17 -17 -16 -13 -17 -12 -4 4 13 16 21
21 21 13z m-14556 -32 c20 -19 20 -38 2 -53 -30 -25 -79 26 -55 55 15 18 34
18 53 -2z m14113 -20 c-9 -9 -28 6 -21 18 4 6 10 6 17 -1 6 -6 8 -13 4 -17z
m351 -21 c-10 -2 -18 -12 -18 -20 0 -9 -3 -14 -6 -10 -12 11 5 37 23 36 17 -1
17 -2 1 -6z m-63 -52 c3 -5 -8 -16 -25 -24 -27 -14 -30 -14 -30 0 0 9 3 14 6
10 4 -3 13 0 21 8 17 18 20 18 28 6z m-14227 -228 c-3 -31 -34 -44 -44 -19 -7
19 12 46 33 46 10 0 13 -9 11 -27z m14319 -289 c-3 -3 -12 -4 -19 -1 -8 3 -5
6 6 6 11 1 17 -2 13 -5z m-38 -168 c10 -12 5 -16 -24 -26 -45 -15 -51 -10 -25
18 24 26 33 27 49 8z m-14392 -758 c-3 -8 -6 -5 -6 6 -1 11 2 17 5 13 3 -3 4
-12 1 -19z m14588 -208 c3 -5 1 -10 -4 -10 -6 0 -11 5 -11 10 0 6 2 10 4 10 3
0 8 -4 11 -10z m-860 -920 c3 -6 -1 -13 -10 -16 -19 -8 -30 0 -20 15 8 14 22
14 30 1z m480 -200 c-3 -5 -11 -10 -16 -10 -6 0 -7 5 -4 10 3 6 11 10 16 10 6
0 7 -4 4 -10z m-14640 -290 c3 -5 -3 -10 -14 -10 -12 0 -21 5 -21 10 0 6 6 10
14 10 8 0 18 -4 21 -10z m-36 -774 c-15 -16 -32 9 -24 35 l7 22 14 -24 c8 -15
9 -28 3 -33z m586 -588 c5 -5 -133 -78 -148 -78 -4 0 -7 7 -7 15 0 8 9 15 19
15 12 0 21 9 25 26 5 20 10 23 20 15 10 -8 17 -7 26 4 12 14 52 16 65 3z
m-315 -78 c0 -5 -5 -10 -11 -10 -5 0 -7 5 -4 10 3 6 8 10 11 10 2 0 4 -4 4
-10z m12970 -105 c9 -11 10 -19 3 -26 -14 -14 -43 0 -43 22 0 23 23 25 40 4z
m-12982 -7 c14 -14 16 -28 2 -28 -5 0 -14 9 -20 20 -12 22 -1 27 18 8z m-19
-60 c0 -28 -2 -30 -9 -13 -12 28 -12 45 0 45 6 0 10 -15 9 -32z m14701 -113
c0 -2 -10 -9 -22 -15 -22 -11 -22 -10 -4 4 21 17 26 19 26 11z m-14630 -206
c36 -6 75 -13 87 -14 119 -16 139 -24 121 -48 -12 -16 -17 -16 -83 4 -38 11
-105 28 -147 36 -43 8 -78 19 -78 24 0 12 21 11 100 -2z m409 -100 c42 -15 27
-32 -29 -32 -49 0 -60 8 -34 28 23 18 23 18 63 4z m-119 -140 c0 -5 -9 -9 -20
-9 -19 0 -27 20 -13 33 7 8 33 -11 33 -24z m13485 10 c0 -7 -8 -15 -17 -17
-18 -3 -25 18 -11 32 10 10 28 1 28 -15z m-8715 -43 c0 -8 8 -13 17 -12 12 1
19 -9 24 -34 4 -19 14 -53 23 -75 30 -78 7 -84 -30 -7 -15 31 -18 34 -24 17
-8 -22 -12 -16 -40 54 -11 29 -18 57 -15 62 9 14 45 11 45 -5z m9202 -38 c-7
-7 -12 -8 -12 -2 0 14 12 26 19 19 2 -3 -1 -11 -7 -17z m-1082 -8 c0 -5 -7
-10 -15 -10 -8 0 -15 5 -15 10 0 6 7 10 15 10 8 0 15 -4 15 -10z m-13067 -20
c3 -11 -2 -25 -11 -32 -13 -11 -15 -10 -9 4 3 10 2 20 -4 23 -10 7 -3 25 10
25 5 0 11 -9 14 -20z m12467 7 c0 -12 -41 -49 -47 -43 -4 4 3 16 17 26 26 20
30 22 30 17z m560 -7 c0 -5 -2 -10 -4 -10 -3 0 -8 5 -11 10 -3 6 -1 10 4 10 6
0 11 -4 11 -10z m948 -81 c3 -19 -50 -78 -55 -62 -3 7 3 28 13 48 17 36 36 42
42 14z m-9860 2 c8 -5 12 -17 10 -27 -4 -24 -53 -32 -61 -10 -14 36 18 59 51
37z m10069 -17 c-3 -3 -12 -4 -19 -1 -8 3 -5 6 6 6 11 1 17 -2 13 -5z m-10397
-64 c0 -5 -4 -10 -10 -10 -5 0 -10 5 -10 10 0 6 5 10 10 10 6 0 10 -4 10 -10z
m1612 -35 c4 -13 -226 -217 -298 -265 -27 -18 -59 -42 -70 -52 -21 -18 -22
-18 -29 -1 -17 37 -14 69 11 110 13 24 35 48 47 54 12 7 45 31 72 54 28 23 83
54 125 70 41 16 86 34 100 42 24 12 35 9 42 -12z m8332 0 c3 -9 -1 -18 -10
-22 -19 -7 -39 11 -30 26 10 16 33 13 40 -4z m-13601 -55 c-3 -11 -9 -20 -14
-20 -14 0 -11 28 4 33 6 3 13 6 14 6 0 1 -1 -8 -4 -19z m3827 -10 c0 -5 -4
-10 -10 -10 -5 0 -10 5 -10 10 0 6 5 10 10 10 6 0 10 -4 10 -10z m5018 -35
c-3 -3 -9 2 -12 12 -6 14 -5 15 5 6 7 -7 10 -15 7 -18z m1162 4 c0 -6 -4 -7
-10 -4 -5 3 -10 11 -10 16 0 6 5 7 10 4 6 -3 10 -11 10 -16z m-10006 -11 c8
-33 7 -98 -2 -98 -4 0 -13 10 -21 22 -12 19 -14 20 -23 4 -5 -9 -14 -14 -19
-10 -5 3 -15 2 -22 -4 -27 -21 -96 -41 -103 -31 -4 6 -3 14 2 18 26 18 35 40
25 59 -8 16 -7 21 5 26 12 4 15 2 10 -9 -7 -19 8 -19 28 0 8 8 19 15 25 15 6
0 11 5 11 12 0 6 10 2 23 -10 24 -23 47 -29 47 -13 0 6 -4 13 -10 16 -15 9
-12 25 4 25 7 0 16 -10 20 -22z m13516 -4 c0 -17 -22 -14 -28 4 -2 7 3 12 12
12 9 0 16 -7 16 -16z m-11254 -7 c2 -7 -2 -26 -9 -41 -14 -27 -14 -27 -21 -4
-10 38 -7 58 9 58 9 0 18 -6 21 -13z m10864 -1 c0 -3 -4 -8 -10 -11 -5 -3 -10
-1 -10 4 0 6 5 11 10 11 6 0 10 -2 10 -4z m480 -26 c0 -5 -4 -10 -10 -10 -5 0
-10 5 -10 10 0 6 5 10 10 10 6 0 10 -4 10 -10z m-9660 -35 c0 -8 -4 -15 -10
-15 -5 0 -10 7 -10 15 0 8 5 15 10 15 6 0 10 -7 10 -15z m1718 -19 c-9 -22 -9
-29 1 -35 9 -6 10 -11 2 -15 -6 -4 -11 -2 -11 4 0 7 -8 9 -20 5 -13 -4 -20 -2
-20 7 1 18 25 48 39 48 6 0 11 5 11 12 0 6 2 9 5 6 3 -3 0 -18 -7 -32z m-2470
13 c-2 -6 -8 -10 -13 -10 -5 0 -11 4 -13 10 -2 6 4 11 13 11 9 0 15 -5 13 -11z
m6512 -39 c0 -44 -13 -51 -46 -25 -18 15 -18 16 11 40 17 14 31 25 33 25 1 0
2 -18 2 -40z m330 34 c0 -16 -23 -44 -35 -44 -18 0 -19 5 -3 30 12 18 38 28
38 14z m-5952 -27 c3 -12 -4 -20 -17 -24 -27 -7 -26 -17 3 -37 14 -8 27 -24
30 -34 4 -12 28 -27 64 -39 31 -11 65 -23 75 -27 13 -7 17 -3 17 15 0 19 2 21
10 9 5 -8 7 -22 4 -31 -2 -10 2 -19 12 -23 9 -4 15 -9 12 -11 -3 -3 -21 1 -41
10 -19 8 -54 19 -76 24 -35 8 -41 6 -41 -8 -1 -13 -3 -12 -12 4 -24 42 -69 47
-100 13 l-20 -23 5 22 c5 23 -9 31 -90 50 -33 8 -45 7 -54 -3 -15 -18 -39 -6
-39 19 0 19 4 20 90 13 90 -7 90 -7 90 17 0 12 -6 29 -12 36 -11 11 -9 11 9 2
30 -15 35 -14 28 9 -3 11 -3 25 0 30 11 17 49 7 53 -13z m4707 -12 c24 -12 25
-13 5 -8 -14 4 -43 10 -65 14 l-40 6 35 1 c19 1 49 -5 65 -13z m2720 -27 c-4
-9 -15 -18 -25 -21 -13 -3 -17 0 -13 9 3 8 9 14 14 14 5 0 9 8 9 17 0 12 3 14
10 7 6 -6 8 -18 5 -26z m1265 22 c0 -5 -4 -10 -10 -10 -5 0 -10 5 -10 10 0 6
5 10 10 10 6 0 10 -4 10 -10z m-10070 -10 c0 -5 -5 -10 -11 -10 -5 0 -7 5 -4
10 3 6 8 10 11 10 2 0 4 -4 4 -10z m-2077 -15 c4 -8 2 -17 -3 -20 -6 -4 -10 3
-10 14 0 25 6 27 13 6z m8257 -1 c0 -16 31 -34 57 -34 11 0 28 -6 38 -14 18
-13 15 -14 -27 -11 -25 1 -50 5 -55 8 -5 3 -47 11 -93 17 -47 6 -87 14 -89 16
-9 9 7 10 77 5 74 -6 88 -2 50 16 -21 10 -21 11 10 10 19 0 32 -5 32 -13z
m-1660 -17 c0 -24 -19 -42 -30 -31 -9 9 -8 17 1 32 13 21 29 20 29 -1z m6005
3 c-3 -5 -15 -10 -26 -10 -10 0 -19 5 -19 10 0 6 12 10 26 10 14 0 23 -4 19
-10z m-10955 -19 c0 -11 -4 -23 -10 -26 -6 -4 -10 5 -10 19 0 14 5 26 10 26 6
0 10 -9 10 -19z m-1819 -45 c-10 -27 -20 -45 -23 -40 -6 10 31 98 38 92 2 -2
-5 -26 -15 -52z m5019 34 c0 -5 -5 -10 -11 -10 -5 0 -7 5 -4 10 3 6 8 10 11
10 2 0 4 -4 4 -10z m120 -6 c0 -2 -7 -4 -15 -4 -8 0 -15 4 -15 10 0 5 7 7 15
4 8 -4 15 -8 15 -10z m5430 -16 c0 -12 -6 -9 -26 13 -19 22 -19 22 4 8 12 -8
22 -17 22 -21z m1757 -12 c-4 -9 -17 -16 -29 -16 -13 0 -18 4 -12 8 6 4 14 16
18 26 5 14 10 16 18 8 6 -6 8 -18 5 -26z m-12507 16 c0 -5 -9 -17 -21 -28 -21
-19 -21 -19 -8 9 12 26 29 37 29 19z m250 -17 c0 -16 -6 -25 -15 -25 -28 0
-18 40 13 49 1 1 2 -10 2 -24z m8540 3 c10 -6 7 -7 -10 -2 -14 3 -32 11 -40
16 -10 6 -7 7 10 2 14 -3 32 -11 40 -16z m-4550 -7 c-23 -13 -120 -23 -120
-12 0 12 30 18 90 19 30 1 40 -2 30 -7z m5290 -11 c0 -5 -2 -10 -4 -10 -3 0
-8 5 -11 10 -3 6 -1 10 4 10 6 0 11 -4 11 -10z m-5840 -14 c0 -11 -19 -15 -25
-6 -3 5 1 10 9 10 9 0 16 -2 16 -4z m8714 -21 c-4 -8 -10 -12 -15 -9 -14 8
-10 24 6 24 9 0 12 -6 9 -15z m-10264 -16 c0 -5 -9 -9 -20 -9 -22 0 -27 16 -7
23 15 5 27 -1 27 -14z m1083 -1 c29 -11 36 -38 14 -60 -8 -7 -16 -18 -18 -23
-3 -7 -16 -7 -38 1 l-34 11 36 7 c27 5 37 12 37 26 0 10 -9 21 -19 25 -11 3
-25 13 -33 22 -11 15 -11 16 7 9 11 -4 32 -13 48 -18z m4177 2 c0 -11 -4 -20
-9 -20 -11 0 -22 26 -14 34 12 12 23 5 23 -14z m-3824 -11 c-29 -23 -42 -20
-33 6 4 8 18 15 33 15 l27 0 -27 -21z m3524 -7 c0 -11 -10 -24 -22 -30 -13 -6
-18 -11 -11 -11 14 -1 6 -31 -8 -31 -17 0 -9 44 13 67 26 28 28 28 28 5z
m-4785 -32 c-9 -15 -25 -12 -32 6 -8 21 19 38 30 18 4 -8 5 -19 2 -24z m4530
22 c-3 -3 -11 0 -18 7 -9 10 -8 11 6 5 10 -3 15 -9 12 -12z m5589 -6 c-14 -11
-21 -11 -26 -3 -5 8 1 14 15 18 30 8 35 2 11 -15z m-10904 -31 c0 -8 -4 -15
-10 -15 -5 0 -10 -7 -10 -17 0 -22 -6 -14 -14 20 -5 23 -3 27 14 27 11 0 20
-7 20 -15z m1334 6 c3 -5 -1 -11 -9 -15 -15 -6 -29 7 -18 18 9 9 21 8 27 -3z
m4246 -16 c-7 -9 -15 -13 -17 -11 -7 7 7 26 19 26 6 0 6 -6 -2 -15z m3070 -34
c0 -11 -4 -23 -10 -26 -6 -4 -10 5 -10 19 0 14 5 26 10 26 6 0 10 -9 10 -19z"/>
<path d="M5077 1576 c-7 -18 1 -26 25 -26 21 0 23 11 6 28 -16 16 -25 15 -31
-2z"/>
<path d="M4780 9130 c-6 -4 -12 -13 -13 -21 -2 -8 -6 -20 -10 -27 -5 -7 -2
-14 6 -18 17 -6 137 51 137 66 0 10 -103 10 -120 0z"/>
<path d="M9881 9124 c0 -11 3 -14 6 -6 3 7 2 16 -1 19 -3 4 -6 -2 -5 -13z"/>
<path d="M7065 9120 c3 -5 8 -10 11 -10 2 0 4 5 4 10 0 6 -5 10 -11 10 -5 0
-7 -4 -4 -10z"/>
<path d="M13420 9119 c0 -5 5 -7 10 -4 6 3 10 8 10 11 0 2 -4 4 -10 4 -5 0
-10 -5 -10 -11z"/>
<path d="M11450 9061 c0 -12 5 -21 10 -21 6 0 10 6 10 14 0 8 -4 18 -10 21 -5
3 -10 -3 -10 -14z"/>
<path d="M2365 9050 c-23 -26 -8 -26 25 0 18 14 21 20 9 20 -9 0 -24 -9 -34
-20z"/>
<path d="M13918 9063 c7 -3 16 -2 19 1 4 3 -2 6 -13 5 -11 0 -14 -3 -6 -6z"/>
<path d="M2265 9050 c-8 -12 20 -24 35 -15 5 3 10 10 10 16 0 12 -37 12 -45
-1z"/>
<path d="M12526 9015 c-3 -9 0 -15 9 -15 16 0 20 16 6 24 -5 3 -11 -1 -15 -9z"/>
<path d="M12433 8991 c-17 -27 -3 -34 18 -9 22 25 23 28 6 28 -7 0 -18 -9 -24
-19z"/>
<path d="M2292 8980 c0 -14 2 -19 5 -12 2 6 2 18 0 25 -3 6 -5 1 -5 -13z"/>
<path d="M1403 8966 c-13 -6 -29 -28 -38 -49 -19 -48 -19 -47 10 -47 18 0 23
4 19 15 -4 10 0 15 16 15 11 0 19 -4 15 -10 -3 -5 11 -3 32 4 46 16 45 31 -2
32 -19 0 -41 6 -48 13 -10 11 -8 12 10 7 29 -9 72 12 52 25 -18 11 -38 10 -66
-5z"/>
<path d="M1582 8966 c1 -10 8 -17 13 -17 15 1 12 24 -3 29 -9 3 -13 -2 -10
-12z"/>
<path d="M14598 8952 c-29 -17 -33 -28 -19 -50 7 -12 13 -11 37 2 59 32 61 34
39 50 -25 19 -24 19 -57 -2z"/>
<path d="M1193 8935 c0 -8 6 -15 14 -15 7 0 13 7 13 15 0 8 -6 15 -13 15 -8 0
-14 -7 -14 -15z"/>
<path d="M1240 8940 c-8 -5 -10 -10 -5 -10 6 0 17 5 25 10 8 5 11 10 5 10 -5
0 -17 -5 -25 -10z"/>
<path d="M14690 8908 c-19 -9 -50 -22 -67 -29 -53 -19 -28 -32 45 -25 76 8
133 31 126 51 -8 20 -65 22 -104 3z"/>
<path d="M14395 8910 c3 -5 16 -15 28 -21 22 -12 22 -12 3 10 -19 21 -43 30
-31 11z"/>
<path d="M1245 8900 c-3 -5 -2 -10 4 -10 5 0 13 5 16 10 3 6 2 10 -4 10 -5 0
-13 -4 -16 -10z"/>
<path d="M15048 8653 c7 -3 16 -2 19 1 4 3 -2 6 -13 5 -11 0 -14 -3 -6 -6z"/>
<path d="M765 8640 c3 -5 11 -10 16 -10 6 0 7 5 4 10 -3 6 -11 10 -16 10 -6 0
-7 -4 -4 -10z"/>
<path d="M15083 8558 c-23 -11 -39 -38 -23 -38 5 0 21 11 36 25 28 26 24 31
-13 13z"/>
<path d="M15251 8440 c-11 -6 -11 -9 0 -13 11 -5 10 -9 -3 -20 -24 -19 -23
-24 12 -42 26 -13 30 -13 30 -1 0 8 -6 16 -12 19 -7 2 -10 7 -6 11 3 4 16 2
28 -4 34 -18 33 -7 -4 27 -21 20 -37 28 -45 23z"/>
<path d="M15185 8420 c-4 -6 3 -10 14 -10 25 0 27 6 6 13 -8 4 -17 2 -20 -3z"/>
<path d="M710 8394 c0 -8 5 -12 10 -9 6 4 8 11 5 16 -9 14 -15 11 -15 -7z"/>
<path d="M665 8370 c3 -5 8 -10 11 -10 2 0 4 5 4 10 0 6 -5 10 -11 10 -5 0 -7
-4 -4 -10z"/>
<path d="M15146 8341 c-38 -40 -17 -47 33 -11 47 35 50 40 18 40 -13 0 -36
-13 -51 -29z"/>
<path d="M15353 8333 c9 -2 25 -2 35 0 9 3 1 5 -18 5 -19 0 -27 -2 -17 -5z"/>
<path d="M680 7999 c0 -5 5 -7 10 -4 6 3 10 8 10 11 0 2 -4 4 -10 4 -5 0 -10
-5 -10 -11z"/>
<path d="M15450 7833 c1 -19 16 -32 29 -24 11 7 9 11 -8 20 -11 7 -21 8 -21 4z"/>
<path d="M700 5587 c0 -7 57 -67 63 -67 17 0 5 30 -19 49 -24 19 -44 27 -44
18z"/>
<path d="M15455 5470 c3 -5 8 -10 11 -10 2 0 4 5 4 10 0 6 -5 10 -11 10 -5 0
-7 -4 -4 -10z"/>
<path d="M15380 5414 c0 -9 5 -14 12 -12 18 6 21 28 4 28 -9 0 -16 -7 -16 -16z"/>
<path d="M15335 4760 c-19 -8 -19 -9 3 -9 12 -1 22 4 22 9 0 6 -1 10 -2 9 -2
0 -12 -4 -23 -9z"/>
<path d="M15180 4625 c0 -9 6 -12 15 -9 8 4 12 10 9 15 -8 14 -24 10 -24 -6z"/>
<path d="M15440 4430 c0 -5 5 -10 10 -10 6 0 10 5 10 10 0 6 -4 10 -10 10 -5
0 -10 -4 -10 -10z"/>
<path d="M15630 3780 c0 -5 5 -10 10 -10 6 0 10 5 10 10 0 6 -4 10 -10 10 -5
0 -10 -4 -10 -10z"/>
<path d="M15520 2926 c0 -9 7 -16 16 -16 9 0 14 5 12 12 -6 18 -28 21 -28 4z"/>
<path d="M15556 2893 c-4 -9 -1 -20 6 -25 21 -13 28 -9 28 17 0 28 -24 34 -34
8z"/>
<path d="M610 2860 c0 -5 5 -10 11 -10 5 0 7 5 4 10 -3 6 -8 10 -11 10 -2 0
-4 -4 -4 -10z"/>
<path d="M640 2824 c0 -8 5 -12 10 -9 6 3 10 10 10 16 0 5 -4 9 -10 9 -5 0
-10 -7 -10 -16z"/>
<path d="M657 2681 c-3 -11 -1 -21 3 -21 5 0 10 -8 12 -17 3 -15 4 -16 10 -2
3 8 0 25 -7 38 -12 23 -12 23 -18 2z"/>
<path d="M15410 2286 c0 -8 -3 -16 -7 -19 -5 -2 -3 -2 4 -1 15 4 27 -13 13
-18 -7 -2 -7 -14 1 -37 8 -24 14 -29 20 -19 14 21 10 78 -5 94 -18 18 -26 18
-26 0z"/>
<path d="M15350 2210 c0 -4 9 -10 20 -13 11 -3 20 -2 20 3 0 4 -9 10 -20 13
-11 3 -20 2 -20 -3z"/>
<path d="M15330 2145 c-7 -8 -9 -23 -5 -32 4 -10 9 -13 12 -7 4 12 50 7 58 -7
8 -12 35 1 35 16 0 31 -80 54 -100 30z"/>
<path d="M685 1928 c-5 -19 -2 -32 8 -43 30 -29 35 -11 13 40 l-13 30 -8 -27z"/>
<path d="M754 1698 c-4 -6 -3 -8 4 -4 5 3 13 0 15 -6 3 -8 6 -6 6 5 1 19 -14
23 -25 5z"/>
<path d="M13066 1659 c-15 -22 -25 -47 -22 -55 7 -19 37 -6 34 15 -2 11 5 16
25 17 45 2 57 21 27 44 -14 11 -28 20 -31 20 -4 0 -19 -18 -33 -41z"/>
<path d="M13133 1618 c-6 -7 -15 -22 -21 -33 -9 -18 -6 -20 29 -22 35 -2 39 0
39 20 0 22 -16 47 -31 47 -4 0 -11 -6 -16 -12z"/>
<path d="M13398 1609 c-31 -17 -20 -29 27 -29 43 0 45 1 35 20 -12 22 -35 25
-62 9z"/>
<path d="M13641 1598 c-6 -16 -15 -28 -21 -28 -5 0 -10 -4 -10 -10 0 -5 6 -10
13 -10 17 0 41 43 34 62 -3 8 -9 3 -16 -14z"/>
<path d="M13013 1585 c-11 -12 -8 -25 8 -25 10 0 20 28 11 34 -4 2 -12 -2 -19
-9z"/>
<path d="M13060 1580 c0 -5 5 -10 10 -10 6 0 10 5 10 10 0 6 -4 10 -10 10 -5
0 -10 -4 -10 -10z"/>
<path d="M936 1565 c-16 -12 -17 -17 -6 -30 27 -32 48 -14 32 27 -6 14 -9 15
-26 3z"/>
<path d="M13325 1570 c-3 -5 1 -10 9 -10 9 0 16 5 16 10 0 6 -4 10 -9 10 -6 0
-13 -4 -16 -10z"/>
<path d="M10020 1490 c0 -5 11 -10 24 -10 14 0 28 5 31 10 4 6 -7 10 -24 10
-17 0 -31 -4 -31 -10z"/>
<path d="M12903 1485 c-3 -9 -3 -18 0 -21 9 -9 27 6 27 22 0 19 -19 18 -27 -1z"/>
<path d="M7642 1479 c2 -7 10 -15 17 -17 8 -3 12 1 9 9 -2 7 -10 15 -17 17 -8
3 -12 -1 -9 -9z"/>
<path d="M13428 1483 c7 -3 16 -2 19 1 4 3 -2 6 -13 5 -11 0 -14 -3 -6 -6z"/>
<path d="M10098 1458 c-15 -11 -15 -16 -4 -31 13 -17 15 -17 52 0 59 26 59 28
4 38 -23 4 -41 1 -52 -7z"/>
<path d="M1225 1434 c-9 -14 -14 -28 -12 -31 3 -3 13 9 22 26 19 38 14 41 -10
5z"/>
<path d="M9593 1453 c-33 -4 -47 -23 -17 -23 10 0 14 -6 10 -15 -9 -24 28 -18
52 8 36 38 33 40 -45 30z"/>
<path d="M10338 1453 c-26 -6 -22 -16 13 -36 26 -14 30 -15 25 -2 -4 12 3 15
32 15 26 1 32 3 22 9 -21 12 -72 20 -92 14z"/>
<path d="M6339 1441 c-1 -6 -2 -16 -3 -22 -1 -13 62 -36 87 -31 20 4 21 12 5
34 -16 20 -87 35 -89 19z"/>
<path d="M7650 1440 c0 -5 7 -10 15 -10 8 0 15 5 15 10 0 6 -7 10 -15 10 -8 0
-15 -4 -15 -10z"/>
<path d="M10213 1413 c-38 -7 -15 -33 31 -34 22 -1 31 -4 19 -6 -39 -7 -25
-24 17 -21 22 1 40 6 40 10 0 4 7 8 16 8 8 0 12 -4 9 -10 -4 -6 5 -10 19 -10
14 0 26 4 26 8 0 9 -129 63 -145 61 -6 -1 -20 -4 -32 -6z"/>
<path d="M12606 1405 c-7 -19 3 -19 28 0 19 15 19 15 -1 15 -11 0 -23 -7 -27
-15z"/>
<path d="M5200 1394 c-61 -14 -90 -28 -78 -39 2 -3 27 2 54 10 27 8 75 15 106
15 32 0 60 5 64 11 5 9 -1 10 -20 5 -15 -4 -26 -2 -26 4 0 13 -19 12 -100 -6z"/>
<path d="M10400 1400 c-12 -8 -11 -10 8 -10 12 0 22 5 22 10 0 13 -11 13 -30
0z"/>
<path d="M13806 1382 c-11 -2 -30 -14 -42 -26 l-24 -21 40 0 c22 0 40 3 40 7
0 5 -5 8 -12 8 -6 0 -3 6 8 14 22 16 18 24 -10 18z"/>
<path d="M4700 1359 c0 -5 5 -7 10 -4 6 3 10 8 10 11 0 2 -4 4 -10 4 -5 0 -10
-5 -10 -11z"/>
<path d="M6898 1353 c7 -3 16 -2 19 1 4 3 -2 6 -13 5 -11 0 -14 -3 -6 -6z"/>
<path d="M6840 1340 c20 -13 33 -13 25 0 -3 6 -14 10 -23 10 -15 0 -15 -2 -2
-10z"/>
<path d="M10190 1340 c0 -5 5 -10 10 -10 6 0 10 5 10 10 0 6 -4 10 -10 10 -5
0 -10 -4 -10 -10z"/>
<path d="M10318 1333 c12 -2 32 -2 45 0 12 2 2 4 -23 4 -25 0 -35 -2 -22 -4z"/>
<path d="M7650 1302 c0 -26 16 -62 28 -62 4 0 9 16 10 36 2 25 -1 33 -9 29 -6
-4 -15 -1 -20 6 -6 10 -9 8 -9 -9z"/>
</g>
</svg>
