<?xml version="1.0" standalone="no"?>
<!DOCTYPE svg PUBLIC "-//W3C//DTD SVG 20010904//EN"
 "http://www.w3.org/TR/2001/REC-SVG-20010904/DTD/svg10.dtd">
<svg version="1.0" xmlns="http://www.w3.org/2000/svg"
 width="1600.000000pt" height="1200.000000pt" viewBox="0 0 1600.000000 1200.000000"
 preserveAspectRatio="xMidYMid meet">

<g transform="translate(0.000000,1200.000000) scale(0.100000,-0.100000)"
fill="#000000" stroke="none">
<path d="M3796 9175 c-32 -41 -100 -77 -131 -69 -22 5 -91 -13 -137 -37 -13
-7 -30 -15 -38 -19 -8 -4 -16 -19 -18 -34 -5 -40 -35 -33 -78 20 l-38 46 -66
-6 c-45 -5 -82 -16 -120 -38 l-54 -31 -71 16 c-130 30 -158 31 -179 8 -11 -12
-30 -21 -43 -21 -23 0 -63 31 -63 50 0 6 -18 10 -40 10 -23 0 -52 7 -65 16
-23 15 -28 15 -68 -5 -24 -12 -50 -21 -59 -21 -9 0 -29 -7 -44 -15 -16 -8 -38
-15 -49 -15 -11 0 -38 -11 -60 -23 -38 -22 -40 -25 -41 -73 -1 -52 -8 -74 -25
-74 -10 0 -10 0 -30 73 -14 50 -28 64 -24 22 3 -22 0 -25 -31 -25 -37 0 -39 2
-23 31 5 11 7 29 4 40 -6 17 -10 14 -36 -23 -16 -24 -29 -55 -29 -70 0 -65
-31 -28 -46 55 -4 21 -12 41 -19 43 -7 3 -56 -8 -110 -24 -76 -23 -100 -34
-106 -51 -11 -27 -12 -27 -52 8 -41 37 -87 51 -87 27 0 -9 7 -16 16 -16 13 0
15 -7 10 -31 -3 -19 -1 -38 5 -46 18 -21 7 -23 -36 -8 -88 31 -150 9 -143 -51
2 -19 3 -34 1 -34 -2 0 -21 12 -43 26 -30 20 -57 28 -109 32 -67 4 -70 4 -76
-20 -3 -13 3 -59 15 -101 12 -43 20 -83 18 -88 -2 -6 -20 14 -40 44 -21 31
-47 59 -60 62 -13 4 -33 16 -45 27 -24 22 -57 21 -60 -2 -1 -8 -5 -37 -8 -65
l-7 -50 -47 53 c-26 28 -53 52 -59 52 -7 0 -29 -10 -50 -23 -20 -13 -70 -39
-109 -57 -40 -18 -73 -38 -73 -44 0 -6 27 -22 61 -36 68 -26 109 -73 109 -123
0 -16 7 -50 16 -77 17 -52 16 -95 -2 -95 -7 0 -30 23 -53 50 -50 62 -132 129
-189 155 -50 23 -52 23 -52 11 0 -5 29 -33 65 -62 36 -29 65 -57 65 -62 0 -5
-20 -7 -44 -5 -49 3 -120 -32 -132 -65 -8 -24 1 -32 37 -33 16 -1 43 -2 59 -3
45 -2 38 -28 -15 -53 -48 -23 -57 -47 -34 -89 15 -29 -5 -49 -48 -49 -38 0
-89 -25 -98 -48 -11 -30 15 -42 96 -42 43 0 81 -4 84 -10 3 -5 2 -10 -2 -10
-5 0 -23 -13 -41 -29 -29 -27 -32 -36 -32 -84 0 -66 14 -82 58 -66 47 16 88 8
84 -16 -2 -11 -5 -38 -9 -61 -3 -27 -12 -43 -26 -50 -23 -10 -44 -40 -35 -49
5 -5 66 6 98 19 8 3 28 -6 45 -20 35 -29 40 -21 -76 -94 -86 -54 -119 -98
-119 -158 0 -32 4 -44 17 -48 62 -19 63 -21 49 -56 -8 -18 -20 -34 -28 -36 -7
-3 -21 -11 -30 -20 -14 -11 -36 -14 -102 -10 -47 2 -83 1 -81 -2 2 -4 39 -22
82 -40 86 -37 105 -49 98 -60 -2 -4 -33 -17 -67 -30 -35 -12 -98 -41 -141 -63
-69 -37 -78 -44 -75 -67 4 -33 58 -60 120 -60 26 0 49 -4 53 -9 3 -5 -12 -22
-32 -38 -73 -53 -163 -136 -163 -148 0 -16 -73 -83 -122 -114 -45 -27 -51 -62
-14 -86 19 -13 52 -16 149 -16 111 0 130 3 182 26 32 14 61 25 66 25 16 0 10
-129 -8 -163 -14 -28 -27 -64 -73 -209 -14 -44 4 -33 44 27 20 30 40 55 46 55
5 0 10 -21 12 -47 2 -36 7 -49 21 -51 10 -2 17 3 17 11 0 8 7 18 15 21 20 7
33 -23 15 -34 -16 -10 -41 -80 -33 -93 3 -5 2 -12 -3 -16 -5 -3 -15 -19 -22
-35 -11 -24 -10 -31 1 -45 31 -35 45 -191 20 -216 -22 -22 -15 -68 17 -116 72
-106 80 -114 118 -119 l37 -5 -37 -41 c-32 -35 -37 -47 -36 -85 2 -41 -7 -112
-18 -150 -2 -9 -37 -33 -76 -55 -130 -71 -171 -132 -113 -170 34 -22 31 -44
-11 -85 -20 -18 -58 -62 -85 -95 -78 -98 -64 -133 58 -153 56 -9 115 -30 87
-31 -7 0 -14 -9 -17 -20 -5 -19 -14 -20 -149 -20 -161 0 -205 -12 -222 -62
-13 -37 11 -62 78 -84 28 -9 67 -25 86 -35 19 -11 63 -25 98 -32 l63 -13 -26
-37 c-14 -21 -25 -47 -25 -58 0 -24 -30 -84 -76 -153 -34 -52 -51 -121 -36
-144 4 -7 28 -18 52 -25 l43 -12 -31 -32 c-18 -17 -32 -38 -32 -47 0 -8 20
-30 45 -48 50 -37 53 -47 25 -73 -17 -16 -18 -19 -4 -41 14 -21 14 -28 -7 -85
-13 -34 -36 -76 -52 -93 -16 -17 -42 -50 -58 -73 l-29 -42 62 5 c58 6 65 4 87
-19 l24 -26 -32 -93 c-18 -51 -36 -113 -41 -138 -11 -57 -13 -180 -2 -180 9 0
42 140 42 179 0 13 14 47 30 77 l31 53 44 -30 c25 -17 48 -35 52 -41 9 -15 12
-109 3 -103 -3 2 -4 -9 -2 -26 3 -22 0 -29 -13 -29 -11 0 -15 -5 -12 -15 4 -8
1 -17 -5 -21 -7 -4 -5 -10 7 -16 11 -7 15 -17 11 -33 -7 -29 10 -76 26 -74 39
5 69 -3 75 -19 4 -9 11 -20 16 -23 6 -4 6 -15 2 -25 -5 -13 -9 -15 -12 -6 -3
6 -11 12 -19 12 -8 0 -14 5 -14 10 0 14 -13 13 -34 -3 -15 -11 -17 -18 -8 -33
6 -10 14 -17 19 -14 4 3 9 -11 10 -30 2 -28 1 -31 -6 -15 -8 18 -10 16 -17
-14 -7 -31 -8 -33 -21 -16 -14 21 -17 7 -7 -32 9 -32 25 -29 65 13 20 22 75
55 136 84 56 27 130 65 164 85 34 20 66 34 71 33 11 -4 -277 -283 -395 -383
-31 -27 -49 -50 -53 -71 -6 -30 -2 -35 50 -73 75 -56 88 -78 93 -163 3 -40 11
-84 19 -99 7 -15 17 -54 20 -86 4 -32 13 -66 22 -75 13 -15 12 -21 -7 -54 -12
-21 -22 -51 -21 -68 3 -51 0 -52 -30 -16 -20 23 -33 31 -40 24 -12 -12 9 -64
26 -64 7 0 14 -7 18 -15 3 -8 11 -15 18 -15 8 0 13 -13 13 -32 0 -25 -7 -37
-27 -50 -19 -12 -28 -26 -28 -44 0 -16 5 -24 13 -21 6 2 11 9 10 14 -1 5 19
10 45 11 41 2 55 9 64 35 2 4 22 -2 46 -13 42 -20 42 -21 42 -76 0 -48 -3 -57
-21 -61 -15 -4 -17 -8 -8 -14 10 -6 10 -21 0 -78 -18 -98 -6 -110 66 -69 34
19 150 103 163 118 16 17 52 43 46 33 -12 -22 7 -14 44 17 19 17 41 30 49 30
8 0 31 -18 51 -40 39 -43 82 -59 106 -39 11 9 18 9 25 2 14 -14 67 1 83 23 10
14 22 15 60 10 l48 -8 -23 -24 c-12 -13 -28 -24 -36 -24 -7 0 -13 -7 -13 -15
0 -8 -5 -15 -11 -15 -5 0 -7 -5 -3 -12 4 -7 3 -8 -4 -4 -8 5 -12 0 -12 -14 0
-18 3 -19 21 -10 11 6 33 10 49 8 20 -2 37 5 56 22 l27 25 -5 -51 c-3 -31 -19
-81 -42 -127 -31 -62 -36 -79 -26 -96 18 -35 37 -24 55 32 9 28 22 55 28 59 6
3 17 30 24 59 8 29 17 56 21 59 5 3 9 15 9 27 1 12 9 33 19 48 15 23 18 24 33
10 12 -10 20 -12 28 -4 13 13 59 8 56 -7 -1 -6 16 -15 37 -21 22 -5 37 -6 34
-2 -3 5 6 9 20 9 14 0 26 -4 26 -10 0 -5 6 -10 14 -10 11 0 14 -13 12 -60 -3
-51 -1 -60 13 -60 9 0 22 5 29 12 8 8 18 -4 38 -51 15 -34 29 -60 31 -57 3 2
-4 33 -15 68 -19 65 -19 65 1 104 15 28 22 34 25 21 5 -22 28 -22 41 1 10 16
10 16 11 -2 0 -15 5 -17 28 -12 15 4 38 9 51 11 12 2 33 13 45 25 15 13 29 18
41 14 15 -6 17 -4 11 11 -4 11 -2 22 6 27 11 6 10 10 -1 17 -15 10 -5 18 24
17 28 -1 31 -34 6 -57 -27 -25 -27 -49 -1 -49 11 0 20 5 20 10 0 20 37 48 51
39 23 -14 30 -10 19 10 -5 11 -20 21 -32 23 -23 3 -23 3 7 33 16 17 37 46 47
65 10 20 17 28 18 18 0 -20 -21 -70 -33 -79 -5 -4 -7 -15 -5 -25 3 -15 12 -19
48 -19 28 0 49 5 57 15 6 8 14 12 18 8 7 -7 -19 -64 -55 -123 -22 -36 -36 -85
-24 -85 5 0 31 34 58 75 41 64 51 73 66 65 10 -6 28 -10 40 -10 19 0 21 4 16
25 -5 20 -3 25 14 25 24 0 26 -17 4 -41 -9 -10 -13 -23 -9 -28 11 -19 44 -12
56 12 23 42 64 87 80 87 9 0 32 -11 51 -24 l36 -24 11 25 c6 13 11 30 11 38 0
8 7 15 15 15 8 0 22 11 31 25 17 26 57 34 70 14 4 -6 19 -9 35 -5 26 5 33 0
65 -44 46 -64 69 -67 59 -8 -7 39 -6 41 9 29 25 -21 46 -66 43 -92 -1 -16 5
-24 26 -31 36 -13 44 -5 27 26 -7 14 -10 31 -7 39 3 8 0 20 -6 26 -17 17 1 26
20 9 28 -25 110 -68 129 -68 10 0 27 -8 38 -18 12 -11 41 -27 65 -36 l44 -17
28 27 c16 15 29 38 29 51 0 31 20 115 31 127 15 17 56 -3 69 -34 10 -25 10
-36 0 -55 -24 -46 12 -74 51 -39 23 20 35 13 43 -27 6 -29 8 -31 39 -26 17 4
42 9 55 13 18 5 22 3 22 -18 0 -13 -4 -28 -9 -34 -14 -14 -17 -79 -7 -178 10
-107 37 -161 92 -188 l38 -18 45 52 c60 67 73 105 74 208 1 79 -2 89 -31 136
-31 49 -31 53 -17 80 8 16 15 35 15 42 0 18 14 15 35 -8 13 -15 19 -37 19 -79
1 -32 6 -64 12 -72 6 -8 16 -32 22 -54 11 -37 69 -115 87 -115 4 0 5 14 1 32
-3 17 -3 29 0 25 4 -4 13 -2 20 4 9 7 14 4 20 -13 4 -13 14 -28 23 -35 13 -9
14 -14 4 -24 -18 -18 -16 -32 7 -57 24 -25 60 -29 60 -7 0 8 9 19 20 25 14 8
20 21 20 45 0 40 7 42 58 16 45 -23 72 -13 72 25 0 30 -58 109 -105 143 -19
13 -35 28 -35 33 0 4 -6 8 -13 8 -22 0 -47 34 -47 65 l0 28 -23 -21 c-30 -28
-58 -30 -32 -2 10 11 15 26 11 35 -5 14 -1 15 22 10 20 -4 33 -1 42 10 7 8 21
15 31 15 10 0 30 11 45 25 15 14 31 25 35 25 5 0 9 6 9 14 0 22 29 41 42 28 9
-9 8 -18 -1 -38 -10 -22 -9 -29 1 -35 10 -7 9 -12 -5 -26 -10 -11 -17 -13 -17
-5 0 7 -4 12 -10 12 -5 0 -10 -9 -10 -20 0 -11 5 -20 10 -20 14 0 13 -27 -2
-36 -8 -5 -9 -2 -5 9 3 10 2 17 -3 17 -6 0 -10 10 -10 23 0 12 -5 29 -10 37
-14 22 -13 -22 1 -70 l12 -38 56 6 c31 3 76 15 101 27 93 45 114 53 122 49 5
-3 6 -10 2 -15 -3 -6 4 -8 18 -5 12 3 53 8 91 11 37 4 67 10 67 14 0 3 -7 17
-16 29 -19 28 -51 28 -81 0 -13 -12 -23 -16 -23 -10 0 6 5 14 10 17 16 10 12
24 -7 24 -22 0 -111 19 -123 26 -4 2 -13 -2 -20 -10 -15 -18 -40 -8 -40 18 0
19 4 20 80 14 64 -5 82 -3 95 9 19 20 19 24 -2 40 -17 12 -16 13 4 8 17 -5 22
-1 25 18 2 15 11 24 26 26 29 4 42 -26 18 -44 -17 -12 -14 -40 3 -30 4 3 15
-10 23 -28 13 -26 28 -37 76 -54 70 -26 83 -27 76 -7 -4 8 -2 15 4 15 13 0 24
-29 16 -41 -3 -6 0 -17 8 -26 7 -9 8 -14 2 -10 -7 4 -42 13 -78 21 -54 11 -66
11 -66 0 0 -8 18 -15 48 -19 26 -4 56 -10 67 -15 11 -5 35 -8 53 -8 l32 1 0
66 c1 65 1 66 19 45 17 -21 20 -21 71 -8 73 19 120 18 120 -1 0 -8 -6 -15 -12
-16 -44 -1 -144 -12 -147 -15 -2 -2 4 -13 14 -24 18 -20 18 -20 50 0 18 11 50
20 73 20 35 0 39 -2 35 -20 -3 -11 -13 -20 -22 -20 -9 0 -24 -7 -34 -14 -15
-12 -12 -13 23 -13 22 0 43 4 46 8 3 5 14 9 24 9 10 0 22 5 26 12 4 6 3 8 -4
4 -6 -3 -14 -1 -18 5 -5 9 0 10 17 6 13 -4 28 -7 33 -7 5 0 6 -13 3 -30 -4
-17 -2 -30 3 -30 6 0 10 6 10 14 0 8 7 12 18 10 11 -3 26 8 42 31 33 45 55 45
70 -1 8 -25 16 -34 27 -30 8 3 19 6 24 6 5 0 9 20 9 45 0 48 1 50 28 36 9 -5
37 -19 62 -31 25 -12 55 -31 66 -41 13 -12 40 -22 68 -24 40 -3 50 0 71 23 31
33 28 42 -16 64 -34 17 -34 17 -7 18 41 0 169 -21 198 -33 29 -12 93 -25 170
-36 35 -4 74 -19 106 -39 64 -40 106 -42 122 -7 12 25 13 25 42 10 17 -9 35
-13 40 -10 6 4 24 -1 42 -9 17 -9 39 -16 49 -16 10 0 24 -12 31 -27 17 -37 45
-39 164 -14 72 15 108 29 142 54 74 52 71 52 88 10 24 -58 84 -151 101 -157
46 -18 54 56 14 113 -40 55 -37 121 5 121 10 0 14 -15 14 -54 0 -30 4 -57 9
-60 14 -9 101 31 101 46 0 7 7 22 15 32 12 16 18 17 27 8 7 -7 16 -12 20 -12
15 0 8 33 -9 47 -23 19 -16 16 97 -39 63 -31 99 -54 105 -70 6 -13 20 -41 32
-63 12 -22 37 -74 56 -116 34 -75 75 -119 111 -119 31 0 50 48 51 130 0 74 -1
79 -37 125 -41 52 -49 96 -24 131 14 18 15 18 21 1 4 -9 4 -28 1 -42 -5 -18 1
-31 24 -55 16 -17 30 -37 30 -45 0 -8 16 -22 36 -31 34 -16 37 -16 80 5 46 23
54 40 29 61 -18 15 -20 60 -2 60 6 0 25 -16 40 -35 40 -50 107 -47 76 3 -16
25 -5 52 21 52 25 0 25 -8 3 -33 -17 -18 -17 -19 12 -15 21 2 30 9 30 21 0 18
39 43 77 49 20 3 23 9 23 44 0 27 7 49 19 63 26 29 39 26 33 -5 -10 -56 58
-148 111 -150 76 -3 112 -27 97 -66 -4 -10 9 -21 42 -37 l48 -22 56 30 c68 38
170 124 186 160 7 14 12 36 13 49 0 36 23 21 40 -26 8 -23 21 -42 28 -42 10 0
12 -7 9 -22 -7 -24 8 -58 25 -58 7 0 24 -12 39 -26 26 -25 31 -26 58 -14 17 7
33 20 36 30 3 10 21 30 40 45 19 14 35 32 35 39 0 12 58 73 62 65 2 -2 8 -13
14 -24 19 -35 78 -30 230 20 63 21 189 20 258 -3 49 -16 62 -25 75 -53 22 -47
48 -47 100 -2 43 36 47 37 145 44 83 5 104 3 119 -9 15 -14 23 -14 54 -3 34
13 38 12 55 -9 28 -35 23 -59 -17 -76 -77 -32 -13 -84 103 -84 96 0 120 14 88
49 -13 14 -12 19 5 39 18 23 19 24 68 7 27 -8 56 -24 65 -34 25 -27 92 -43
171 -39 64 3 70 5 73 25 4 29 17 29 85 -3 38 -17 73 -25 109 -25 122 0 115 3
122 -49 3 -26 9 -49 12 -53 12 -12 62 29 84 70 22 42 34 51 44 34 3 -4 31 -11
62 -15 49 -6 64 -13 108 -52 29 -27 72 -54 101 -63 39 -13 53 -24 64 -49 17
-37 26 -40 34 -12 4 14 14 20 34 20 16 0 38 6 49 14 19 14 18 15 -9 70 -15 31
-27 58 -27 60 0 2 23 9 50 16 48 12 62 22 66 47 3 19 -16 30 -81 48 -52 14
-104 50 -91 62 2 2 34 -3 70 -12 82 -18 76 -19 76 3 0 14 3 14 18 -5 45 -58
200 -99 216 -58 3 8 15 15 26 15 12 0 20 6 18 13 -5 21 61 72 74 59 8 -8 8
-18 -1 -38 -10 -22 -9 -28 6 -40 23 -17 74 -18 115 0 37 15 107 35 153 42 l30
5 -24 -21 c-21 -18 -22 -23 -10 -31 29 -18 85 -10 122 18 35 27 36 30 37 91 0
87 29 148 118 255 40 48 77 87 80 87 4 0 51 29 106 64 129 85 164 76 86 -22
-22 -27 -40 -53 -40 -57 0 -3 -7 -13 -15 -21 -8 -9 -15 -12 -15 -8 0 4 -6 -1
-14 -11 -8 -11 -13 -23 -10 -26 2 -3 -6 -15 -16 -27 -11 -12 -20 -28 -20 -37
0 -17 56 -55 81 -55 9 0 24 -9 34 -20 17 -18 26 -20 74 -14 31 3 61 10 66 14
6 4 22 10 38 14 17 4 27 13 27 25 0 26 22 41 48 34 28 -7 17 -27 -29 -52 -23
-13 -33 -25 -32 -39 1 -11 -4 -26 -12 -32 -36 -30 4 -39 52 -12 30 16 33 15
33 -11 0 -13 11 -34 25 -47 14 -13 25 -33 25 -44 -1 -20 -1 -20 -20 3 -22 26
-50 22 -50 -7 0 -24 59 -70 100 -79 26 -5 32 -2 37 16 7 27 23 27 30 1 3 -11
9 -20 14 -20 5 0 16 -14 24 -31 18 -33 40 -34 39 -1 0 16 10 25 38 37 21 8 44
15 51 15 6 0 21 8 32 16 19 15 17 16 -27 11 -50 -5 -64 7 -25 22 l22 9 -25 10
c-14 6 -20 11 -14 11 6 1 10 11 10 22 -1 12 5 24 12 26 6 3 12 -2 12 -9 0 -9
17 -19 43 -24 49 -12 67 -8 67 11 0 25 56 -3 82 -41 13 -18 27 -34 31 -34 5 0
26 -20 48 -44 46 -50 93 -76 138 -76 40 0 51 26 51 120 0 52 4 69 15 74 10 4
15 16 13 33 -3 24 2 29 36 41 31 10 50 10 92 1 47 -11 56 -10 86 8 22 13 34
28 36 46 5 41 48 58 150 61 133 4 207 44 157 86 -12 10 -12 15 1 36 14 21 22
23 55 18 36 -6 40 -4 60 30 17 30 27 36 54 36 52 0 77 14 113 63 35 49 39 67
20 97 -10 16 -9 23 10 43 12 13 22 28 22 34 0 23 -44 46 -176 92 -76 26 -177
67 -224 90 -167 82 -193 105 -63 55 143 -53 360 -137 395 -151 23 -10 51 -13
74 -10 27 5 43 1 63 -14 22 -16 32 -18 54 -10 41 16 54 52 34 98 -9 21 -19 57
-22 79 -6 37 -3 45 20 67 32 29 64 119 72 199 l6 57 27 -19 c16 -11 42 -19 63
-18 20 1 51 -8 72 -20 20 -13 53 -22 75 -22 34 0 42 4 55 30 9 17 17 30 18 30
1 0 24 -7 51 -15 65 -20 106 -20 106 0 0 42 -81 136 -130 150 -13 4 -36 17
-51 27 -14 11 -45 22 -68 25 -23 3 -44 10 -47 14 -9 15 -53 10 -62 -7 -13 -23
-49 -9 -67 27 -9 16 -23 29 -33 29 -17 0 -81 45 -72 52 32 22 116 40 185 39
64 -1 86 2 113 19 17 11 32 24 32 30 0 16 -56 37 -145 55 -107 23 -108 23
-101 40 3 9 -1 36 -10 61 -14 41 -14 48 1 70 11 17 13 30 6 42 -5 9 -11 30
-12 47 -3 23 0 30 15 33 11 2 38 16 60 31 34 22 49 26 102 24 69 -3 114 9 114
30 0 9 -36 27 -93 47 -50 18 -96 36 -101 41 -6 5 -22 9 -37 9 -23 0 -27 5 -31
33 -5 47 1 67 22 67 10 0 21 4 24 8 3 5 19 9 37 10 62 2 88 55 48 98 -20 21
-20 23 -4 47 9 14 15 36 13 49 -3 22 -7 23 -88 23 -48 0 -98 6 -115 13 -28 13
-29 14 -11 27 14 11 22 11 37 2 23 -14 27 -10 42 49 l12 49 70 6 c39 3 78 10
87 14 22 9 31 36 23 68 -12 48 -200 207 -245 207 -8 0 -32 11 -52 25 -23 15
-44 22 -55 18 -15 -5 -16 -3 -5 8 19 20 15 29 -14 29 l-25 0 22 31 c19 28 20
32 6 46 -12 13 -21 14 -48 4 -44 -15 -47 -14 -41 14 3 18 0 25 -11 25 -8 0
-20 7 -27 15 -11 13 -8 22 22 53 41 43 54 75 36 90 -7 5 -42 16 -78 22 -36 7
-74 21 -86 31 -11 11 -25 19 -31 19 -16 0 -33 24 -25 36 4 6 18 14 32 17 22 6
170 138 170 152 0 3 -10 19 -22 35 -17 24 -19 32 -8 45 19 23 32 19 106 -30
38 -24 72 -41 76 -37 5 5 2 25 -7 45 -23 56 -20 71 20 86 38 13 47 42 23 73
-14 17 -86 58 -103 58 -6 0 -21 7 -34 16 l-23 17 32 13 c27 12 34 12 47 -1 17
-18 34 -19 67 -4 21 10 24 17 22 60 -2 44 1 52 31 79 18 17 33 35 33 40 0 29
94 10 184 -38 29 -16 44 -19 58 -11 30 16 21 38 -24 60 -24 11 -70 35 -103 53
l-60 33 3 56 c3 53 2 57 -22 68 -17 8 -27 22 -30 43 -17 110 -17 117 4 146 28
39 25 50 -11 50 -34 0 -142 -66 -166 -101 -8 -10 -21 -19 -28 -19 -21 0 -8 89
17 117 16 17 19 30 14 60 -6 33 -3 42 19 63 39 36 64 90 71 153 6 51 5 57 -21
83 -23 23 -28 37 -29 80 -1 40 -7 59 -24 77 -40 42 -26 91 46 168 17 17 22 32
19 54 -4 22 1 37 19 55 13 15 24 37 24 50 0 14 0 64 -1 113 0 93 -2 102 -49
185 l-30 53 37 -7 c21 -3 42 -7 47 -8 6 0 11 8 14 19 2 11 16 48 33 81 29 62
37 112 19 130 -6 6 -5 19 5 37 14 27 1 53 -14 28 -4 -6 -15 -9 -24 -5 -16 6
-21 -8 -20 -53 1 -19 -17 -16 -23 5 -3 9 -10 25 -14 34 -7 13 -3 24 18 45 15
15 34 37 42 47 14 18 13 19 -3 13 -13 -5 -16 -3 -10 6 4 6 8 16 8 20 0 4 11
19 24 33 31 32 6 32 -43 -1 -20 -13 -36 -21 -36 -17 0 5 10 37 21 72 16 46 19
67 11 80 -5 9 -8 28 -5 43 5 28 17 35 28 17 10 -16 35 -11 35 7 0 9 -8 25 -17
36 -19 20 -26 75 -13 92 5 6 8 32 8 59 0 26 5 53 11 59 16 16 13 68 -5 88 -12
14 -13 21 -3 37 10 16 8 27 -10 65 -29 60 -44 71 -84 63 l-32 -6 28 23 c32 27
34 37 7 37 -22 0 -27 15 -7 23 6 3 0 6 -15 6 -16 1 -34 11 -46 26 -11 14 -25
25 -31 25 -6 0 -11 5 -11 11 0 7 -9 9 -22 4 -70 -21 -102 -25 -112 -15 -5 5
-26 10 -45 10 -32 0 -33 1 -18 18 23 25 21 31 -10 43 -16 7 -23 13 -15 16 6 3
12 8 12 11 0 9 -40 14 -122 14 -72 1 -86 11 -40 29 76 31 96 42 82 47 -8 3
-19 11 -23 18 -6 11 -15 11 -48 -2 -49 -20 -59 -13 -25 17 18 16 26 33 26 55
0 24 7 38 28 53 15 11 21 21 15 21 -7 0 -13 5 -13 11 0 5 4 8 9 4 16 -9 23 13
11 35 -7 13 -20 20 -38 19 -17 -1 -20 -3 -9 -6 21 -6 22 -19 1 -27 -22 -9 -24
-8 -24 9 0 10 -10 15 -32 15 -55 -1 -80 -22 -95 -79 -27 -109 -94 -185 -157
-179 -26 3 -30 9 -41 52 -7 26 -16 51 -21 55 -5 3 -9 23 -10 43 -1 47 -61 147
-100 168 -16 8 -42 27 -58 43 -16 15 -35 27 -43 27 -8 0 -12 4 -9 9 3 4 -3 16
-13 25 -15 14 -23 15 -47 5 -16 -6 -43 -15 -60 -19 l-32 -7 16 26 c33 58 -11
110 -82 97 -37 -7 -92 -49 -83 -63 3 -5 -3 -9 -14 -9 -14 0 -19 5 -16 18 3 11
0 18 -9 18 -11 0 -14 -10 -11 -40 2 -22 0 -40 -5 -40 -4 0 -8 4 -8 9 0 5 -9
11 -19 14 -11 2 -21 15 -23 28 -3 22 -5 20 -21 -14 -10 -20 -22 -35 -27 -32
-14 9 -49 -17 -43 -32 3 -7 -2 -13 -12 -13 -9 0 -13 5 -10 10 7 11 -8 14 -19
3 -4 -4 -17 -8 -29 -10 -12 -1 -31 -4 -42 -7 -11 -2 -23 -5 -27 -5 -4 -1 -5
-9 -2 -18 5 -16 4 -16 -8 -2 -7 9 -16 17 -20 17 -5 1 -9 2 -10 3 -2 0 -14 2
-27 3 -13 2 -28 11 -33 20 -8 14 -12 15 -25 4 -12 -10 -17 -9 -28 5 -7 9 -17
17 -24 17 -6 0 -11 5 -11 10 0 6 -7 10 -16 10 -8 0 -13 4 -10 9 3 5 -1 11 -9
15 -10 3 -17 -3 -21 -19 -3 -13 -13 -26 -21 -29 -12 -5 -13 -9 -3 -21 10 -12
9 -16 -3 -21 -9 -3 -20 -3 -26 0 -12 8 -42 -4 -36 -14 8 -14 -65 0 -114 21
-42 18 -44 18 -57 2 -12 -16 -12 -16 -7 5 4 17 -4 31 -36 60 -44 40 -50 52
-26 52 10 0 7 8 -10 26 -20 22 -27 24 -39 14 -9 -6 -18 -20 -21 -31 -4 -10
-13 -19 -21 -19 -19 0 -18 -39 1 -46 15 -6 21 -24 7 -24 -4 0 -25 16 -47 35
-39 33 -75 46 -75 25 0 -16 -82 -12 -100 5 -26 23 -70 4 -70 -30 0 -16 -6 -25
-15 -25 -14 0 -19 11 -16 38 3 18 -20 15 -34 -5 -10 -14 -10 -20 1 -31 17 -16
10 -32 -14 -32 -9 0 -32 -11 -51 -24 -49 -33 -86 -44 -78 -23 9 24 -30 26 -85
5 -27 -10 -48 -15 -48 -11 0 4 -5 2 -12 -5 -7 -7 -21 -12 -31 -12 -10 0 -78
-29 -149 -65 -72 -36 -136 -65 -142 -65 -6 0 -25 -12 -43 -27 -30 -24 -103
-57 -111 -49 -2 2 18 14 43 27 26 13 59 35 73 48 15 14 35 24 45 23 9 -2 20 5
23 15 3 10 10 26 15 35 14 28 11 31 -26 24 -27 -5 -35 -4 -35 7 0 22 -123 46
-143 29 -7 -6 -23 -9 -36 -5 -26 7 -71 -30 -71 -58 0 -10 -12 -25 -27 -33
l-28 -15 28 -1 c17 0 27 5 27 15 0 10 10 15 27 15 25 0 25 -2 -22 -45 -47 -42
-60 -71 -19 -40 10 8 37 29 58 45 22 17 51 33 65 37 14 3 32 10 39 16 9 7 16
7 24 -1 9 -9 8 -12 -4 -12 -9 0 -18 -4 -20 -10 -4 -13 -167 -100 -188 -100 -8
0 -26 -7 -38 -16 -12 -8 -36 -19 -52 -24 -29 -8 -30 -8 -30 26 0 21 -4 33 -12
32 -7 -2 -14 6 -16 17 -3 22 -55 52 -60 35 -6 -18 -22 -11 -22 11 0 11 -5 29
-10 40 -6 10 -11 48 -11 84 -1 36 -4 67 -8 70 -4 2 -23 7 -41 10 -18 3 -41 10
-51 15 -9 6 -25 7 -34 4 -10 -4 -22 1 -31 15 -12 16 -26 21 -60 21 -38 0 -46
-3 -54 -25 -12 -30 -15 -31 -64 -4 -40 21 -55 16 -56 -18 0 -7 -4 -13 -9 -13
-5 0 -13 -17 -18 -37 -7 -29 -14 -39 -33 -41 -13 -2 -29 3 -35 11 -10 15 -72
33 -90 28 -5 -2 -17 -4 -25 -5 -9 -1 -21 -6 -29 -10 -7 -5 -18 -3 -24 3 -6 6
-21 11 -34 11 -24 0 -27 4 -37 52 -4 19 -16 30 -43 39 -27 9 -38 9 -41 0 -2
-7 -14 -8 -29 -5 -24 6 -25 5 -19 -21 5 -20 3 -26 -6 -23 -8 3 -12 16 -10 31
3 19 -1 27 -13 27 -8 0 -18 -7 -21 -15 -5 -11 -10 -10 -29 9 -12 12 -26 32
-29 43 -11 34 -100 40 -132 8 -20 -20 -32 -19 -30 3 1 13 -5 16 -23 14 -13 -2
-30 -10 -38 -17 -7 -7 -26 -16 -43 -20 -16 -4 -30 -11 -30 -16 0 -6 -5 -7 -12
-3 -7 4 -8 3 -4 -5 5 -7 -3 -29 -18 -52 -28 -42 -45 -50 -42 -21 1 13 -5 16
-24 14 -14 -2 -29 -8 -35 -13 -12 -12 -28 -12 -21 0 3 5 -2 8 -12 7 -18 -1
-19 4 -7 42 3 12 2 22 -3 22 -5 0 -14 -10 -20 -22 -7 -15 -11 -18 -11 -7 -1
10 -12 15 -38 16 -21 1 -39 6 -41 12 -6 17 -40 13 -52 -6 -9 -14 -10 -11 -5
15 l7 32 -45 0 c-29 0 -53 7 -70 20 -45 36 -76 35 -151 -4 -80 -42 -106 -44
-154 -14 -49 30 -117 30 -158 -1 -22 -15 -56 -27 -108 -34 -70 -10 -80 -9
-131 12 -68 28 -89 23 -80 -19 6 -27 4 -30 -17 -30 -46 0 -267 39 -289 50 -22
12 -189 28 -189 18 0 -3 41 -29 91 -59 90 -53 170 -128 200 -187 7 -15 21 -39
31 -54 27 -39 23 -41 -29 -13 -68 36 -141 86 -283 193 -86 64 -132 92 -151 92
-15 0 -39 4 -52 9 -30 12 -42 3 -24 -18 7 -9 20 -33 30 -53 19 -43 13 -46 -41
-27 -25 9 -38 7 -63 -5 -18 -9 -33 -16 -34 -16 -1 0 -2 16 -1 36 1 23 -5 40
-15 47 -19 12 -78 2 -104 -17 -17 -12 -18 -19 -8 -67 5 -30 14 -63 18 -74 4
-11 -18 6 -49 39 -62 63 -54 61 -161 41 l-30 -6 38 31 c26 23 37 40 37 59 0
65 -89 99 -112 44 -6 -16 -11 -50 -12 -78 -1 -45 1 -50 22 -53 34 -5 27 -20
-28 -54 -44 -27 -52 -38 -75 -102 -36 -97 -41 -106 -84 -156 l-37 -43 -1 84
c-1 46 -2 111 -4 144 -1 38 5 83 17 120 10 33 19 85 19 115 l0 55 -65 -3 c-65
-3 -100 -20 -100 -48 0 -15 -31 -34 -56 -34 -9 0 -58 19 -107 42 -105 48 -101
48 -290 -28 -64 -26 -77 -29 -77 -14 0 5 23 22 52 36 49 25 51 27 32 41 -29
21 -63 27 -90 14 -14 -6 -39 -11 -57 -10 -18 0 -26 3 -19 6 21 8 13 25 -10 21
-13 -2 -22 -8 -21 -15 2 -7 -9 -8 -35 -2 -30 7 -42 5 -65 -12 -30 -22 -64 -25
-141 -14 -36 6 -47 5 -42 -4 4 -6 1 -11 -8 -11 -8 0 -16 5 -18 11 -2 5 -19 10
-38 9 -19 -1 -64 -1 -99 0 -53 0 -71 -4 -111 -29 -40 -25 -54 -28 -96 -24 -27
3 -56 11 -64 18 -42 33 -104 45 -203 38 -85 -5 -100 -4 -117 12 -15 13 -30 16
-61 12 -65 -9 -67 -20 -9 -66 45 -36 110 -110 110 -126 0 -14 -89 21 -180 70
-125 68 -267 135 -287 135 -34 0 -40 -26 -13 -55 13 -14 21 -27 19 -30 -3 -2
-31 3 -62 12 -48 13 -62 14 -85 3 -51 -24 -92 -40 -92 -37 0 2 11 18 25 37 32
44 19 64 -38 57 -59 -8 -72 -25 -53 -71 8 -20 22 -36 31 -36 26 0 13 -35 -14
-38 -18 -3 -34 7 -61 36 -45 50 -92 62 -150 38 -22 -9 -49 -16 -60 -16 -39 0
-72 -25 -96 -72 -13 -26 -45 -69 -71 -96 l-46 -47 -14 75 c-8 44 -11 101 -8
138 3 34 2 62 -3 62 -5 0 -42 -7 -81 -16 -59 -14 -74 -21 -88 -45 -11 -18 -26
-29 -40 -29 -20 0 -22 6 -25 58 -3 64 4 60 -96 44 -75 -12 -162 -4 -162 15 0
12 -8 14 -37 9 -104 -18 -103 -17 -77 -54 14 -21 14 -22 -6 -22 -12 0 -30 5
-41 11 -15 7 -24 7 -35 -1 -11 -10 -15 -9 -20 4 -3 9 -13 16 -21 16 -12 0 -15
9 -10 43 2 23 8 50 12 60 12 29 -11 19 -39 -18z m6564 -85 c0 -5 -4 -10 -10
-10 -5 0 -10 5 -10 10 0 6 5 10 10 10 6 0 10 -4 10 -10z m-3854 -29 c-4 -5
-13 -8 -22 -4 -11 4 -12 8 -3 20 14 16 36 2 25 -16z m4074 -41 c0 -5 -4 -10
-10 -10 -5 0 -10 5 -10 10 0 6 5 10 10 10 6 0 10 -4 10 -10z m-8039 -32 c-23
-18 -71 -25 -71 -10 1 18 17 30 45 34 43 5 52 -2 26 -24z m7333 24 c3 -5 -10
-16 -29 -25 -19 -9 -35 -12 -35 -7 0 6 7 10 15 10 8 0 14 3 14 8 -4 22 23 33
35 14z m4426 -12 c0 -5 -5 -10 -11 -10 -5 0 -7 5 -4 10 3 6 8 10 11 10 2 0 4
-4 4 -10z m-11410 -50 c0 -5 -7 -10 -16 -10 -8 0 -12 5 -9 10 3 6 10 10 16 10
5 0 9 -4 9 -10z m2660 -8 c0 -5 -11 -19 -25 -32 -14 -13 -25 -29 -25 -35 0 -7
-19 -15 -42 -18 -54 -7 -73 8 -59 46 9 23 13 26 29 16 14 -9 26 -7 57 10 42
22 65 27 65 13z m-3625 -22 c3 -5 1 -10 -4 -10 -6 0 -11 5 -11 10 0 6 2 10 4
10 3 0 8 -4 11 -10z m11265 0 c0 -5 -5 -10 -11 -10 -5 0 -7 5 -4 10 3 6 8 10
11 10 2 0 4 -4 4 -10z m-10430 -21 c0 -5 -7 -9 -15 -9 -15 0 -20 12 -9 23 8 8
24 -1 24 -14z m-576 2 c3 -5 -1 -11 -9 -15 -15 -6 -29 7 -18 18 9 9 21 8 27
-3z m12230 -12 c25 -14 36 -28 36 -44 0 -53 -63 -59 -91 -9 -15 28 -16 34 -3
53 18 26 15 26 58 0z m-5967 -21 c-3 -8 -6 -5 -6 6 -1 11 2 17 5 13 3 -3 4
-12 1 -19z m4713 -28 c0 -5 -5 -10 -11 -10 -5 0 -7 5 -4 10 3 6 8 10 11 10 2
0 4 -4 4 -10z m-4704 -39 c-3 -22 -9 -46 -12 -55 -11 -28 19 -18 75 24 29 22
57 40 61 40 16 0 -3 -46 -32 -76 -17 -18 -26 -37 -23 -46 5 -12 -3 -17 -37
-20 -24 -2 -44 -1 -46 4 -2 4 -10 8 -19 8 -9 0 -13 7 -10 18 3 9 10 40 17 67
17 70 19 75 26 75 4 0 4 -18 0 -39z m5484 14 c0 -7 -7 -25 -14 -41 -8 -15 -13
-31 -10 -36 10 -15 59 -35 120 -48 57 -11 67 -10 119 9 31 12 70 28 85 36 28
15 32 14 91 -25 34 -22 72 -40 85 -40 16 0 21 -5 17 -18 -2 -10 3 -24 11 -31
20 -16 20 -32 2 -56 -13 -18 -16 -18 -59 18 -45 37 -87 49 -87 24 0 -7 5 -18
12 -25 16 -16 1 -15 -56 4 -29 10 -59 14 -79 10 -40 -9 -111 -7 -157 3 -33 7
-32 8 28 15 66 7 77 26 15 26 -20 0 -33 3 -30 6 6 7 -80 59 -117 71 -15 5 -17
12 -12 44 3 22 3 39 -1 39 -5 0 -38 -11 -75 -24 -58 -20 -65 -21 -56 -6 6 9
25 22 42 29 24 9 28 13 16 21 -10 6 1 10 35 12 60 4 75 0 75 -17z m-870 1 c0
-3 -4 -8 -10 -11 -5 -3 -10 -1 -10 4 0 6 5 11 10 11 6 0 10 -2 10 -4z m-720
-16 c-20 -13 -33 -13 -25 0 3 6 14 10 23 10 15 0 15 -2 2 -10z m1222 -30 c24
-7 124 -41 222 -76 111 -40 186 -62 199 -58 14 4 17 3 12 -6 -6 -9 -33 -11
-109 -5 -101 7 -208 35 -284 75 -41 21 -127 97 -100 87 9 -3 36 -11 60 -17z
m-12554 -82 c-3 -7 -11 -13 -18 -13 -7 0 -15 6 -17 13 -3 7 4 12 17 12 13 0
20 -5 18 -12z m12527 -49 c71 -8 356 -37 395 -40 8 -1 -3 -5 -25 -10 -64 -13
-222 -10 -345 6 -108 14 -270 52 -270 62 0 6 120 -3 245 -18z m-12492 -4 c20
-8 51 -15 68 -15 18 0 48 -5 66 -12 27 -10 38 -10 53 0 26 16 40 15 40 -3 0
-8 12 -17 28 -21 117 -27 217 -56 240 -69 27 -16 27 -16 -23 -11 -28 2 -107
18 -175 35 -69 16 -185 41 -259 55 -73 14 -136 28 -140 31 -8 9 21 25 45 25
12 0 38 -7 57 -15z m4087 -40 c-10 -20 -23 -41 -28 -48 -5 -7 -13 -27 -17 -44
-6 -31 -10 -33 -46 -33 -27 0 -42 5 -46 15 -7 20 65 107 91 111 11 1 26 10 35
18 25 26 30 18 11 -19z m8046 -12 c-11 -11 -79 -33 -105 -33 -34 0 -21 9 35
24 57 16 80 19 70 9z m1394 -3 c0 -5 -4 -10 -10 -10 -5 0 -10 5 -10 10 0 6 5
10 10 10 6 0 10 -4 10 -10z m-786 -21 c-5 -9 4 -10 32 -5 96 17 111 16 56 -2
-29 -10 -50 -21 -47 -24 3 -3 -6 -3 -20 -1 -34 7 -52 -10 -60 -58 -5 -28 -12
-39 -23 -38 -11 0 -12 2 -4 6 6 2 12 16 12 30 0 22 -3 24 -32 18 -33 -6 -32
-6 7 15 l40 20 -65 -5 c-186 -14 -215 -15 -180 -5 19 5 86 15 147 21 70 7 117
17 124 25 14 17 23 18 13 3z m-761 -16 c-7 -2 -19 -2 -25 0 -7 3 -2 5 12 5 14
0 19 -2 13 -5z m1822 -13 c-3 -5 -10 -10 -16 -10 -5 0 -9 5 -9 10 0 6 7 10 16
10 8 0 12 -4 9 -10z m-1912 -7 c-7 -2 -19 -2 -25 0 -7 3 -2 5 12 5 14 0 19 -2
13 -5z m1657 -43 c22 -11 45 -20 52 -21 20 0 235 -108 218 -108 -8 -1 -43 6
-78 14 -35 8 -68 12 -74 9 -5 -3 -19 3 -31 14 -12 11 -36 26 -52 35 -28 14
-32 14 -54 -4 -30 -25 -41 -17 -39 29 1 60 3 60 58 32z m-993 -17 c-20 -2 -52
-2 -70 0 -17 2 0 4 38 4 39 0 53 -2 32 -4z m-152 -55 c-11 -6 -25 -17 -32 -25
-6 -8 -18 -13 -25 -11 -13 5 48 48 67 48 6 0 1 -6 -10 -12z m1760 -18 c-3 -5
-15 -10 -26 -10 -11 0 -17 5 -14 10 3 6 15 10 26 10 11 0 17 -4 14 -10z
m-7049 -62 c-9 -12 -16 -32 -16 -43 -1 -33 -35 -65 -69 -65 -17 0 -31 2 -31 5
0 12 24 55 31 55 4 0 11 10 14 21 5 15 9 18 15 9 5 -8 16 -1 36 24 30 38 47
33 20 -6z m7162 13 c-2 -12 -17 -17 -56 -19 -45 -3 -52 -1 -52 15 0 16 9 19
55 19 46 1 55 -2 53 -15z m-203 -11 c3 -5 1 -10 -4 -10 -6 0 -11 5 -11 10 0 6
2 10 4 10 3 0 8 -4 11 -10z m85 -14 c0 -14 -21 -26 -46 -26 -22 0 -16 20 9 30
31 12 37 12 37 -4z m140 -20 c0 -3 -4 -8 -10 -11 -5 -3 -10 -1 -10 4 0 6 5 11
10 11 6 0 10 -2 10 -4z m-580 -56 c0 -5 -4 -10 -9 -10 -6 0 -13 5 -16 10 -3 6
1 10 9 10 9 0 16 -4 16 -10z m76 -95 c-7 -26 -8 -27 -26 -10 -23 21 -25 36 -8
53 19 19 42 -10 34 -43z m-176 -46 c0 -5 -9 -9 -20 -9 -22 0 -27 16 -7 23 15
5 27 -1 27 -14z m216 -68 c-10 -16 -36 -13 -36 3 0 17 21 27 34 16 4 -5 5 -13
2 -19z m154 -69 c0 -13 -12 -22 -22 -16 -10 6 -1 24 13 24 5 0 9 -4 9 -8z
m-272 -29 c-5 -25 -28 -28 -28 -4 0 12 6 21 16 21 9 0 14 -7 12 -17z m-4418
-143 c0 -5 -4 -10 -10 -10 -5 0 -10 5 -10 10 0 6 5 10 10 10 6 0 10 -4 10 -10z
m4810 -39 c0 -14 -18 -23 -30 -16 -6 4 -8 11 -5 16 8 12 35 12 35 0z m-14300
-81 c0 -5 -4 -10 -10 -10 -5 0 -10 5 -10 10 0 6 5 10 10 10 6 0 10 -4 10 -10z
m14348 -166 c4 -27 -26 -40 -46 -20 -13 13 -13 18 -2 31 18 21 44 15 48 -11z
m222 11 c-7 -8 -17 -15 -23 -15 -6 0 -2 7 9 15 25 19 30 19 14 0z m-14550 -30
c15 -18 6 -45 -13 -45 -20 0 -40 27 -33 45 7 19 30 19 46 0z m14117 -11 c-9
-9 -28 6 -21 18 4 6 10 6 17 -1 6 -6 8 -13 4 -17z m360 -20 c-3 -3 -12 -4 -19
-1 -8 3 -5 6 6 6 11 1 17 -2 13 -5z m-72 -63 c-6 -5 -21 -12 -35 -16 -24 -7
-24 -7 -5 9 21 16 56 23 40 7z m-14227 -218 c-3 -31 -34 -44 -44 -19 -7 19 12
46 33 46 10 0 13 -9 11 -27z m14262 -463 c0 -5 -5 -10 -11 -10 -5 0 -7 5 -4
10 3 6 8 10 11 10 2 0 4 -4 4 -10z m-14361 -826 c-19 -23 -7 -25 67 -14 38 5
87 9 109 9 37 0 38 -1 15 -10 -14 -6 -70 -17 -125 -25 -55 -8 -110 -21 -121
-29 -18 -12 -25 -12 -40 -1 -17 13 -16 15 18 29 24 10 39 24 43 40 5 18 12 23
26 20 15 -4 17 -8 8 -19z m32 -114 c88 -10 191 -29 208 -39 6 -4 9 -15 5 -24
-8 -21 -47 -22 -151 -2 -43 8 -110 15 -149 15 -69 0 -119 18 -101 37 14 13 81
31 97 26 8 -3 49 -9 91 -13z m-38 -104 c95 -44 147 -84 147 -111 0 -8 6 -15
13 -15 7 0 13 -9 14 -19 2 -18 0 -19 -35 -4 -20 8 -54 24 -74 34 -21 11 -46
19 -56 19 -10 0 -27 9 -38 21 -10 12 -45 34 -76 50 -60 30 -73 43 -63 59 13
22 78 9 168 -34z m14427 -252 c0 -8 -4 -12 -10 -9 -5 3 -10 10 -10 16 0 5 5 9
10 9 6 0 10 -7 10 -16z m-14400 -13 c0 -5 -11 -12 -24 -15 -13 -3 -32 -9 -41
-13 -13 -4 -16 -2 -13 8 4 12 28 21 71 28 4 0 7 -3 7 -8z m80 -2425 c0 -9 -73
-46 -91 -46 -19 0 -28 29 -9 31 6 1 14 2 19 3 5 0 13 4 17 9 8 7 64 10 64 3z
m-116 -55 c3 -5 -1 -12 -10 -15 -20 -8 -29 -1 -19 13 8 13 22 14 29 2z m-194
-21 c0 -5 -5 -10 -11 -10 -5 0 -7 5 -4 10 3 6 8 10 11 10 2 0 4 -4 4 -10z
m12970 -105 c9 -11 10 -19 3 -26 -14 -14 -43 0 -43 22 0 23 23 25 40 4z
m-12982 -7 c14 -14 16 -28 2 -28 -5 0 -14 9 -20 20 -12 22 -1 27 18 8z m150
-401 c57 -12 103 -26 102 -32 0 -5 -9 -9 -18 -9 -26 2 -201 50 -209 57 -10 11
14 8 125 -16z m325 -92 c1 -6 -17 -11 -40 -13 -28 -2 -43 1 -43 8 0 7 6 10 14
7 8 -3 17 1 20 8 6 16 46 7 49 -10z m-133 -126 c0 -12 -27 -11 -35 1 -11 17 5
32 21 19 8 -6 14 -15 14 -20z m13485 10 c0 -7 -8 -15 -17 -17 -18 -3 -25 18
-11 32 10 10 28 1 28 -15z m-8695 -13 c0 -14 5 -28 10 -31 6 -3 10 -19 10 -34
0 -16 7 -45 16 -66 22 -53 14 -80 -11 -37 -11 17 -25 32 -32 32 -15 0 -36 38
-54 98 -14 48 -6 62 39 62 17 0 22 -6 22 -24z m8677 -73 c3 -10 13 -27 22 -38
16 -20 16 -20 -7 0 -30 25 -47 55 -32 55 6 0 13 -8 17 -17z m-577 -3 c0 -5 -7
-10 -15 -10 -8 0 -15 5 -15 10 0 6 7 10 15 10 8 0 15 -4 15 -10z m-612 -35
c-24 -36 -33 -42 -42 -26 -5 8 47 61 60 61 2 0 -6 -16 -18 -35z m572 15 c0 -5
-2 -10 -4 -10 -3 0 -8 5 -11 10 -3 6 -1 10 4 10 6 0 11 -4 11 -10z m-8912 -79
c8 -5 12 -17 10 -27 -4 -24 -53 -32 -61 -10 -14 36 18 59 51 37z m9844 -63
c-4 -27 -5 -28 -23 -12 -17 15 -17 18 -2 48 14 27 17 28 23 12 3 -10 4 -32 2
-48z m-10172 -18 c0 -5 -4 -10 -10 -10 -5 0 -10 5 -10 10 0 6 5 10 10 10 6 0
10 -4 10 -10z m1631 -19 c-6 -10 -32 -34 -58 -53 -27 -19 -88 -72 -138 -117
-101 -93 -200 -165 -215 -156 -6 3 -10 24 -10 47 0 34 6 46 38 77 81 78 130
113 202 145 41 19 95 43 120 55 59 26 74 27 61 2z m7764 -67 c19 -16 19 -16
-5 -9 -14 4 -32 11 -40 16 -12 7 -11 8 5 8 11 0 29 -7 40 -15z m-9225 -14 c0
-5 -4 -10 -10 -10 -5 0 -10 5 -10 10 0 6 5 10 10 10 6 0 10 -4 10 -10z m8727
-6 c-3 -3 -12 -4 -19 -1 -8 3 -5 6 6 6 11 1 17 -2 13 -5z m-2541 -15 c4 -7 -4
-20 -17 -30 -31 -24 -47 -24 -26 -1 10 10 17 24 17 30 0 15 17 15 26 1z m3152
1 c13 0 22 -6 22 -15 0 -19 1 -19 -51 6 -24 11 -33 18 -19 15 14 -3 35 -6 48
-6z m-10903 -31 c4 -5 1 -24 -6 -41 -11 -27 -14 -29 -20 -12 -13 32 -10 64 5
64 8 0 18 -5 21 -11z m-2273 -38 c10 -7 15 -18 12 -23 -3 -5 -12 -4 -19 2 -11
9 -29 4 -80 -20 -40 -19 -73 -29 -83 -25 -15 6 -14 8 6 16 12 5 22 17 22 28 0
25 34 44 60 36 14 -5 20 -2 20 9 0 14 3 14 23 4 12 -7 30 -19 39 -27z m5682
-10 c3 -5 -1 -11 -9 -14 -9 -4 -12 -1 -8 9 6 16 10 17 17 5z m-1724 -16 c0 -8
-4 -15 -10 -15 -5 0 -10 7 -10 15 0 8 5 15 10 15 6 0 10 -7 10 -15z m5766 -18
c6 -16 -12 -67 -24 -67 -4 0 -17 6 -28 14 -19 14 -19 15 5 40 27 29 39 32 47
13z m314 -17 c-13 -24 -27 -33 -35 -21 -7 12 25 52 37 45 4 -3 4 -14 -2 -24z
m1497 -9 c-3 -14 -9 -35 -13 -45 -5 -14 -4 -17 4 -12 7 4 12 3 12 -3 0 -5 -4
-13 -10 -16 -5 -3 -10 -1 -10 4 0 6 -11 11 -25 11 -27 0 -26 10 8 67 22 37 42
34 34 -6z m1040 24 c17 -12 23 -12 32 -1 8 9 36 14 83 14 l71 1 -36 -25 c-20
-13 -41 -24 -46 -24 -6 0 -11 -2 -11 -4 0 -2 -3 -11 -6 -20 -4 -11 -1 -16 10
-16 21 0 20 -6 -5 -38 -22 -28 -77 -39 -109 -22 -19 10 -32 57 -19 66 17 10 9
43 -13 55 -22 12 -22 12 -3 20 28 11 28 11 52 -6z m-8597 -25 c18 -12 2 -12
-25 0 -13 6 -15 9 -5 9 8 0 22 -4 30 -9z m8820 -10 c0 -5 -9 -10 -21 -10 -11
0 -17 5 -14 10 3 6 13 10 21 10 8 0 14 -4 14 -10z m-12157 -25 c4 -8 2 -17 -3
-20 -6 -4 -10 3 -10 14 0 25 6 27 13 6z m6583 -42 c-11 -11 -19 6 -11 24 8 17
8 17 12 0 3 -10 2 -21 -1 -24z m-4936 6 c0 -5 -4 -9 -10 -9 -5 0 -10 7 -10 16
0 8 5 12 10 9 6 -3 10 -10 10 -16z m8750 -31 c0 -11 -49 23 -50 35 0 4 11 0
25 -9 14 -9 25 -20 25 -26z m-6430 5 c0 -10 -4 -14 -8 -8 -4 6 -11 13 -16 18
-5 4 -2 7 7 7 10 0 17 -8 17 -17z m6470 2 c0 -8 -2 -15 -4 -15 -2 0 -6 7 -10
15 -3 8 -1 15 4 15 6 0 10 -7 10 -15z m-10790 -9 c0 -2 -7 -9 -15 -16 -13 -11
-14 -10 -9 4 5 14 24 23 24 12z m250 -16 c0 -11 -4 -20 -10 -20 -5 0 -10 9
-10 20 0 11 5 20 10 20 6 0 10 -9 10 -20z m-83 -32 c-3 -8 -6 -5 -6 6 -1 11 2
17 5 13 3 -3 4 -12 1 -19z m3523 8 c0 -11 -19 -15 -25 -6 -3 5 1 10 9 10 9 0
16 -2 16 -4z m-501 -30 c10 -12 8 -13 -9 -9 -25 7 -37 23 -17 23 8 0 20 -6 26
-14z m4211 -6 c0 -11 -4 -20 -10 -20 -5 0 -10 9 -10 20 0 11 5 20 10 20 6 0
10 -9 10 -20z m-3820 1 c0 -13 -29 -35 -37 -28 -7 8 15 37 28 37 5 0 9 -4 9
-9z m8859 -32 c-9 -17 -13 -19 -19 -8 -11 16 -4 29 16 29 12 0 13 -4 3 -21z
m-10139 -9 c0 -5 -4 -10 -10 -10 -5 0 -10 5 -10 10 0 6 5 10 10 10 6 0 10 -4
10 -10z m7880 -80 c-8 -14 -15 -19 -21 -13 -6 6 -7 22 -3 37 6 24 8 26 21 13
12 -12 13 -19 3 -37z"/>
<path d="M8445 8700 c3 -5 8 -10 11 -10 2 0 4 5 4 10 0 6 -5 10 -11 10 -5 0
-7 -4 -4 -10z"/>
<path d="M14196 8695 c-46 -32 -47 -34 -27 -45 16 -8 36 -8 75 0 l53 11 -15
34 c-9 19 -21 35 -27 34 -5 -1 -32 -16 -59 -34z"/>
<path d="M13634 1585 c-20 -30 -10 -47 11 -19 14 18 20 44 10 44 -2 0 -12 -11
-21 -25z"/>
<path d="M4786 9126 c-24 -18 -24 -51 -1 -54 23 -2 96 37 102 55 6 16 -81 15
-101 -1z"/>
<path d="M6898 9133 c7 -3 16 -2 19 1 4 3 -2 6 -13 5 -11 0 -14 -3 -6 -6z"/>
<path d="M12213 8973 c-33 -6 -28 -29 7 -36 34 -7 40 -26 10 -34 -23 -6 -27
-33 -5 -33 8 0 15 4 15 10 0 5 14 16 30 25 35 18 37 28 10 55 -20 20 -25 21
-67 13z"/>
<path d="M14570 8950 c-19 -11 -43 -19 -52 -20 -11 0 -18 -8 -18 -18 0 -22 43
-48 60 -37 6 4 20 -2 31 -14 13 -14 32 -21 58 -21 50 0 132 27 153 51 11 14
18 15 21 7 3 -10 8 -10 16 -2 14 13 4 44 -15 44 -8 0 -14 7 -14 15 0 9 -6 12
-15 9 -8 -4 -15 -12 -15 -20 0 -9 -12 -14 -32 -14 -18 -1 -44 -7 -58 -15 -38
-22 -60 -18 -30 5 24 20 25 21 6 35 -26 20 -53 18 -96 -5z"/>
<path d="M12150 8926 c0 -7 7 -19 15 -26 12 -10 16 -9 21 3 3 9 3 21 -1 27 -9
15 -35 12 -35 -4z"/>
<path d="M1370 8909 c-7 -11 -9 -23 -7 -26 8 -7 47 21 47 34 0 21 -28 15 -40
-8z"/>
<path d="M15050 8840 c0 -6 7 -10 15 -10 8 0 15 2 15 4 0 2 -7 6 -15 10 -8 3
-15 1 -15 -4z"/>
<path d="M11765 8820 c3 -5 8 -10 11 -10 2 0 4 5 4 10 0 6 -5 10 -11 10 -5 0
-7 -4 -4 -10z"/>
<path d="M15030 8650 c-6 -11 -8 -20 -5 -20 14 0 45 21 45 30 0 18 -29 10 -40
-10z"/>
<path d="M15440 8310 c0 -5 7 -10 15 -10 8 0 15 5 15 10 0 6 -7 10 -15 10 -8
0 -15 -4 -15 -10z"/>
<path d="M15254 4647 c-28 -25 -26 -48 4 -42 66 13 72 16 72 34 0 17 -18 31
-40 31 -5 0 -21 -11 -36 -23z"/>
<path d="M306 3324 c-4 -9 -4 -19 -2 -22 10 -9 36 8 36 23 0 20 -26 19 -34 -1z"/>
<path d="M610 2860 c0 -5 5 -10 11 -10 5 0 7 5 4 10 -3 6 -8 10 -11 10 -2 0
-4 -4 -4 -10z"/>
<path d="M610 2830 c0 -5 5 -10 11 -10 5 0 7 5 4 10 -3 6 -8 10 -11 10 -2 0
-4 -4 -4 -10z"/>
<path d="M640 2824 c0 -8 5 -12 10 -9 6 3 10 10 10 16 0 5 -4 9 -10 9 -5 0
-10 -7 -10 -16z"/>
<path d="M15335 2140 c-11 -18 5 -30 41 -30 38 0 45 14 15 30 -25 13 -48 13
-56 0z"/>
<path d="M685 1928 c-9 -24 1 -48 20 -48 19 0 19 20 1 46 -14 18 -15 18 -21 2z"/>
<path d="M701 1764 c0 -11 3 -14 6 -6 3 7 2 16 -1 19 -3 4 -6 -2 -5 -13z"/>
<path d="M746 1694 c-5 -14 -4 -15 9 -4 11 9 15 9 15 1 0 -7 5 -9 10 -6 17 10
11 25 -9 25 -10 0 -22 -7 -25 -16z"/>
<path d="M13088 1683 c-34 -39 -50 -93 -28 -93 6 0 10 9 10 20 0 11 5 21 10
22 30 4 35 0 40 -31 6 -39 18 -47 43 -29 16 12 15 17 -11 67 -30 62 -42 69
-64 44z"/>
<path d="M930 1590 c13 -9 13 -11 0 -20 -18 -11 -3 -43 24 -48 24 -5 22 54 -3
68 -25 13 -41 13 -21 0z"/>
<path d="M5081 1576 c-9 -11 -8 -15 5 -20 22 -8 24 -8 24 8 0 21 -16 28 -29
12z"/>
<path d="M13462 1553 c5 -25 28 -28 28 -4 0 12 -6 21 -16 21 -9 0 -14 -7 -12
-17z"/>
<path d="M1221 1429 c-7 -12 -10 -23 -8 -26 3 -3 11 5 17 17 15 28 8 35 -9 9z"/>
<path d="M6344 1435 c-8 -21 2 -33 37 -40 44 -10 61 10 30 36 -28 23 -59 25
-67 4z"/>
<path d="M5210 1395 c-30 -7 -63 -16 -72 -20 -26 -11 -22 -28 5 -19 73 23 121
31 161 27 28 -4 46 -2 46 5 0 14 -28 23 -35 12 -4 -6 -11 -10 -16 -10 -6 0 -7
5 -4 10 8 13 -15 11 -85 -5z"/>
<path d="M1586 1383 c-9 -10 -7 -43 3 -43 11 0 21 39 11 45 -4 2 -10 2 -14 -2z"/>
<path d="M13770 1350 c0 -5 12 -10 26 -10 14 0 23 4 19 10 -3 6 -15 10 -26 10
-10 0 -19 -4 -19 -10z"/>
<path d="M7652 1283 c2 -10 10 -18 18 -18 22 0 18 29 -3 33 -14 3 -18 -1 -15
-15z"/>
</g>
</svg>
