<?xml version="1.0" standalone="no"?>
<!DOCTYPE svg PUBLIC "-//W3C//DTD SVG 20010904//EN"
 "http://www.w3.org/TR/2001/REC-SVG-20010904/DTD/svg10.dtd">
<svg version="1.0" xmlns="http://www.w3.org/2000/svg"
 width="1600.000000pt" height="1200.000000pt" viewBox="0 0 1600.000000 1200.000000"
 preserveAspectRatio="xMidYMid meet">

<g transform="translate(0.000000,1200.000000) scale(0.100000,-0.100000)"
fill="#000000" stroke="none">
<path d="M5145 9251 c-50 -12 -115 -56 -115 -77 0 -6 -34 -29 -76 -50 -41 -22
-87 -46 -102 -54 -15 -8 -47 -14 -72 -13 -25 1 -77 3 -116 4 -42 2 -71 7 -71
13 1 45 -4 57 -20 54 -10 -2 -17 -10 -16 -18 3 -17 -53 -25 -62 -10 -4 6 -17
10 -31 10 -14 0 -27 7 -30 15 -4 8 -16 15 -29 15 -12 0 -35 6 -50 14 -16 9
-36 11 -53 7 -17 -5 -35 -3 -48 6 -11 7 -46 14 -77 14 -34 1 -61 7 -68 15 -6
8 -16 14 -22 14 -7 0 -7 -4 1 -12 7 -7 12 -16 12 -21 0 -7 -60 -37 -75 -37
-12 0 -3 28 15 48 25 26 16 28 -35 6 -21 -9 -57 -17 -79 -19 -23 -1 -56 -6
-73 -10 l-33 -7 15 42 c21 60 19 61 -14 10 -30 -48 -54 -72 -67 -69 -5 2 -27
-3 -49 -9 -22 -7 -54 -12 -72 -12 -17 0 -35 -4 -38 -10 -3 -5 -13 -10 -21 -10
-8 0 -28 -10 -43 -21 -16 -12 -34 -19 -39 -15 -12 7 -22 -16 -22 -50 0 -26
-10 -30 -28 -12 -7 7 -12 8 -12 3 0 -18 -40 29 -50 60 -13 38 -40 49 -77 30
-14 -7 -39 -11 -57 -8 -22 3 -41 -2 -66 -19 -42 -29 -116 -35 -163 -14 -17 8
-53 14 -79 13 -26 0 -53 4 -60 10 -7 5 -26 10 -41 11 -38 3 -53 12 -36 23 10
6 10 9 2 9 -6 0 -14 -4 -17 -9 -5 -8 -64 -25 -78 -22 -5 0 -8 -4 -8 -11 0 -6
-3 -8 -6 -5 -4 4 -2 13 5 21 10 12 1 13 -56 9 -37 -3 -73 -9 -78 -14 -6 -4
-17 -4 -24 0 -18 12 -49 2 -53 -16 -2 -8 -34 -27 -72 -43 -38 -17 -73 -35 -78
-42 -4 -7 -8 -30 -8 -50 0 -37 -14 -59 -23 -36 -3 7 -6 2 -6 -11 -1 -36 -7
-23 -15 33 -5 33 -4 46 3 41 7 -4 11 4 11 21 0 26 -1 26 -13 9 -9 -11 -16 -14
-21 -7 -10 16 3 39 25 45 31 8 22 27 -13 28 -18 1 -48 2 -65 4 -32 2 -33 1
-33 -36 0 -22 -5 -39 -11 -39 -5 0 -7 -6 -3 -12 6 -10 4 -10 -8 0 -14 11 -17
7 -23 -35 -7 -47 -7 -47 -21 -23 -7 14 -14 39 -14 55 -1 52 -11 58 -61 37 -42
-18 -66 -25 -129 -37 -14 -3 -51 2 -83 10 -71 18 -97 18 -120 1 -16 -13 -16
-15 -2 -30 9 -9 21 -16 26 -16 5 0 9 -5 9 -10 0 -7 -6 -7 -20 0 -25 13 -25 7
-3 -27 l17 -26 -29 8 c-42 13 -106 9 -115 -6 -5 -6 -15 -9 -24 -6 -18 7 -20
-4 -7 -51 11 -38 8 -39 -29 -12 -16 11 -50 23 -77 26 -68 8 -79 12 -65 26 6 6
8 17 5 24 -3 8 1 14 10 14 8 0 17 -5 19 -11 3 -8 16 -6 42 5 45 19 39 35 -12
37 -22 1 -28 3 -15 6 12 2 27 10 33 18 9 11 5 16 -22 23 -25 6 -35 5 -41 -5
-5 -7 -12 -11 -17 -8 -11 7 -44 -80 -37 -99 4 -9 1 -18 -4 -22 -8 -4 -9 -32
-4 -81 l7 -75 -36 27 c-19 15 -39 24 -45 21 -5 -3 -23 7 -39 24 -53 52 -72 35
-72 -62 0 -27 -4 -48 -8 -48 -7 0 -35 43 -67 104 -5 11 -15 21 -20 23 -6 2
-46 -19 -88 -47 -43 -28 -96 -58 -118 -66 -50 -21 -69 -50 -36 -59 77 -20 101
-32 127 -61 16 -19 31 -50 35 -76 4 -24 11 -48 16 -54 6 -7 12 -34 16 -61 4
-42 3 -51 -12 -57 -10 -3 -18 -5 -19 -4 -11 22 -125 142 -147 155 -19 12 -31
28 -35 50 -3 18 -10 35 -14 38 -13 8 -40 -6 -40 -21 0 -10 -10 -8 -37 8 l-38
22 50 -55 c27 -29 61 -59 75 -66 15 -6 32 -18 38 -26 10 -11 3 -12 -41 -4 -28
5 -62 14 -74 19 -28 13 -88 -19 -72 -38 7 -9 7 -19 0 -31 -5 -11 -10 -45 -10
-77 0 -46 3 -55 14 -46 9 8 14 7 19 -5 3 -8 1 -15 -4 -15 -6 0 -10 -5 -10 -10
0 -6 7 -10 16 -8 11 2 22 -11 34 -42 10 -25 16 -48 13 -52 -2 -5 -29 -8 -59
-8 -30 0 -54 -4 -54 -10 0 -5 -8 -10 -19 -10 -22 0 -36 -16 -44 -48 -4 -19 -2
-22 11 -17 37 16 80 24 127 26 74 2 85 0 85 -16 0 -8 5 -15 10 -15 6 0 10 5
10 10 0 16 40 11 47 -6 9 -24 -13 -41 -36 -27 -20 13 -50 7 -103 -17 -21 -10
-28 -20 -28 -42 0 -15 -4 -28 -9 -28 -5 0 -9 -31 -10 -70 -1 -45 3 -70 10 -70
13 0 39 25 39 38 0 5 18 14 40 21 34 10 43 10 56 -4 13 -13 14 -21 3 -53 -7
-20 -11 -39 -10 -41 1 -2 -16 -12 -38 -22 -39 -17 -46 -27 -42 -57 2 -8 -5
-12 -16 -10 -10 2 -17 10 -16 16 2 7 -2 12 -8 12 -6 0 -9 -12 -7 -27 3 -29 36
-40 68 -23 21 11 100 21 100 13 0 -19 -46 -63 -82 -78 -43 -19 -107 -65 -91
-65 11 0 12 -17 15 -150 l2 -105 -70 0 c-38 0 -87 3 -109 8 -29 5 -19 -2 40
-26 171 -71 179 -83 80 -116 -67 -22 -155 -63 -155 -72 0 -5 -6 -9 -13 -9 -8
0 -22 -9 -33 -21 -36 -40 23 -89 117 -95 34 -3 64 -6 66 -7 1 -2 -19 -19 -45
-39 -26 -20 -56 -43 -67 -52 -67 -53 -99 -76 -109 -76 -7 0 -7 -3 1 -8 14 -9
-50 -82 -127 -143 -38 -31 -43 -38 -32 -51 20 -25 99 -40 205 -39 80 0 105 4
132 20 37 21 95 34 95 21 0 -5 -5 -12 -10 -15 -14 -8 -13 -68 1 -99 9 -20 9
-32 -4 -58 -8 -18 -22 -55 -30 -83 -8 -27 -23 -67 -32 -89 -24 -56 -12 -54 25
4 18 27 33 50 34 50 0 0 -1 -23 -2 -50 -5 -65 4 -100 26 -101 10 0 12 -3 5 -6
-18 -7 -16 -30 4 -42 14 -7 15 -12 4 -25 -19 -22 -5 -59 20 -51 19 6 28 -10 9
-17 -5 -1 -7 -13 -4 -25 5 -16 14 -23 31 -23 15 0 23 -5 20 -12 -2 -7 -9 -13
-15 -13 -6 0 -19 -10 -27 -22 -9 -13 -11 -23 -6 -23 6 0 13 -11 17 -25 4 -18
11 -24 23 -21 52 16 163 26 223 20 38 -4 66 -9 63 -12 -3 -3 5 -16 17 -29 27
-29 30 -29 -149 -6 -150 18 -245 11 -251 -18 -2 -13 3 -15 23 -12 14 3 25 8
25 12 0 3 45 3 100 0 125 -9 171 -29 224 -100 20 -28 36 -52 34 -54 -7 -7 -99
30 -217 86 -86 42 -127 57 -135 49 -5 -5 -19 -11 -31 -11 -16 -1 -17 -2 -2 -6
9 -2 17 -10 17 -17 0 -7 25 -30 55 -52 l56 -39 -6 -52 c-6 -56 1 -65 31 -35
14 14 64 28 64 18 0 -9 -51 -56 -60 -56 -5 0 -9 -5 -7 -12 1 -6 -9 -14 -22
-17 -27 -7 -50 -36 -38 -48 4 -4 17 -2 27 5 28 17 30 16 30 -18 0 -18 -6 -33
-15 -36 -10 -4 -13 -18 -11 -47 3 -52 -30 -102 -75 -111 -17 -3 -28 -10 -25
-14 3 -5 -14 -15 -37 -22 -40 -12 -117 -78 -117 -101 0 -6 14 -16 30 -22 18
-7 30 -19 30 -29 0 -10 7 -18 15 -18 22 0 19 -8 -15 -37 -16 -13 -30 -31 -30
-39 0 -8 -11 -19 -24 -24 -13 -5 -27 -14 -32 -21 -5 -8 -3 -10 7 -4 15 10 4
-7 -36 -51 -54 -60 -54 -71 1 -105 61 -37 39 -79 -42 -79 -88 0 -209 -57 -209
-99 0 -19 13 -27 104 -57 57 -19 110 -39 116 -44 17 -14 8 -93 -16 -148 -24
-57 -31 -100 -21 -142 5 -19 4 -52 0 -74 -10 -45 8 -96 34 -96 23 0 27 -29 8
-62 -14 -25 -13 -28 5 -42 17 -13 18 -18 7 -35 -6 -12 -12 -29 -12 -38 1 -14
4 -12 15 7 8 14 14 20 15 14 0 -5 -7 -19 -15 -30 -8 -10 -15 -32 -15 -47 0
-15 -8 -42 -17 -60 -19 -36 -24 -67 -11 -67 5 0 4 -9 -2 -19 -15 -30 -12 -69
6 -73 11 -2 -4 -25 -55 -81 -65 -70 -86 -107 -62 -107 15 0 32 27 25 43 -4 11
7 24 36 42 68 43 74 43 67 7 -5 -23 -3 -32 7 -32 7 0 19 -6 25 -14 14 -16 51
-17 52 -1 0 5 4 -3 9 -18 11 -36 -32 -140 -53 -131 -20 7 -32 -28 -15 -41 10
-7 12 -21 6 -50 -11 -62 -9 -196 3 -166 5 13 12 44 15 70 9 81 50 220 69 240
2 2 19 -6 37 -17 31 -19 34 -25 32 -64 -1 -24 -6 -60 -10 -80 -5 -30 -4 -38 8
-38 13 0 15 -11 11 -55 -2 -31 0 -55 5 -55 6 0 13 -12 16 -27 4 -16 10 -37 13
-48 5 -17 3 -18 -9 -8 -8 7 -18 10 -21 6 -4 -3 -7 -1 -7 5 0 7 -4 12 -9 12
-14 0 -10 -51 5 -57 21 -8 90 27 74 37 -8 5 -3 8 13 7 37 -3 34 -20 -7 -39
-34 -17 -37 -32 -20 -88 7 -21 6 -25 -7 -25 -7 0 -15 -9 -20 -20 -11 -29 -11
-37 3 -29 8 5 9 0 6 -14 -10 -36 15 -26 71 28 29 27 56 50 61 50 12 0 125 55
224 110 69 38 77 40 63 19 -30 -45 -200 -194 -221 -194 -15 0 -22 -7 -24 -26
-3 -27 -83 -110 -165 -172 -30 -23 -36 -33 -33 -58 2 -25 11 -34 53 -53 46
-22 78 -56 51 -56 -9 0 -9 -3 -1 -11 7 -7 9 -26 6 -46 -5 -26 -1 -38 15 -53
12 -11 27 -17 34 -15 11 4 13 -3 10 -30 -2 -19 1 -41 7 -48 9 -12 30 -124 31
-165 0 -6 3 -11 8 -10 19 7 8 -49 -13 -67 -18 -15 -25 -55 -14 -77 16 -29 -4
-21 -32 14 -17 20 -32 29 -42 25 -25 -9 -2 -67 26 -67 24 0 13 -15 -25 -34
-26 -13 -39 -50 -14 -40 9 3 14 10 11 14 -3 5 -1 11 5 15 5 3 10 -2 10 -12 1
-16 3 -15 19 4 14 17 21 20 28 10 18 -24 12 -54 -13 -66 -30 -13 -36 -75 -7
-69 10 2 17 10 15 18 -3 11 0 11 11 1 8 -6 17 -8 19 -3 1 5 18 7 35 5 18 -3
30 -9 27 -15 -3 -5 -14 -6 -25 -3 -15 5 -19 1 -19 -14 0 -25 35 -29 44 -5 5
12 10 10 31 -13 l25 -28 6 23 c3 12 13 22 20 22 20 0 7 -51 -17 -69 -15 -10
-16 -17 -8 -33 6 -12 7 -36 3 -61 -19 -99 -2 -117 72 -78 21 12 44 21 50 21 7
0 14 7 18 15 3 8 11 15 19 15 7 0 31 18 52 40 37 38 72 57 45 25 -7 -9 -10
-18 -7 -21 3 -3 11 4 17 17 14 25 54 62 88 80 20 12 27 9 65 -30 46 -44 90
-60 113 -40 9 7 18 8 26 2 11 -8 47 -10 81 -4 4 0 7 7 7 15 0 17 22 23 67 18
l33 -4 -23 -24 c-12 -13 -30 -24 -40 -24 -10 0 -20 -6 -23 -14 -3 -8 -13 -12
-24 -9 -24 6 -34 -12 -20 -37 11 -21 54 -28 65 -10 3 5 19 7 36 3 23 -4 35 -1
50 16 24 26 24 26 26 -1 1 -34 -26 -117 -54 -167 -21 -36 -23 -47 -14 -67 17
-39 37 -28 56 28 9 29 22 57 29 63 7 5 19 33 26 60 8 28 21 55 29 62 14 11 14
12 1 13 -9 0 -11 3 -5 8 6 4 10 13 10 21 0 8 7 18 15 23 12 8 27 -1 62 -33 91
-86 117 -102 152 -93 19 4 26 1 31 -16 7 -21 16 -22 55 -6 11 5 23 -9 43 -51
27 -58 28 -48 6 38 -10 39 -9 49 4 70 14 21 23 24 63 22 25 -2 54 2 64 7 9 5
20 6 24 3 3 -3 18 -8 33 -9 16 -2 22 0 16 4 -9 6 -7 12 7 25 26 22 24 22 54
-8 31 -31 43 -31 52 -3 9 30 31 51 45 42 8 -4 7 -9 -2 -15 -17 -10 -5 -23 16
-16 22 9 19 43 -7 67 l-22 20 21 22 c11 13 28 37 36 53 9 17 16 24 17 16 0 -8
-12 -30 -26 -48 -22 -29 -25 -38 -15 -56 9 -17 22 -22 57 -24 25 -1 49 -4 52
-7 3 -4 -12 -40 -33 -81 -21 -41 -36 -77 -33 -80 3 -3 27 25 53 64 l47 69 36
-10 c20 -6 45 -16 56 -23 31 -19 66 -3 66 30 0 15 4 24 9 21 5 -3 12 1 15 9 5
13 10 14 27 5 19 -11 20 -10 9 10 -6 12 -10 25 -8 30 6 15 75 -20 88 -46 16
-29 34 -32 25 -4 -4 14 -1 22 10 26 12 5 15 14 11 30 -7 26 8 33 18 9 3 -8 13
-15 23 -15 14 0 15 2 5 9 -11 7 -11 9 2 14 8 3 22 0 30 -8 22 -23 36 -18 43
15 7 37 29 34 26 -4 -2 -27 11 -33 37 -16 13 8 12 10 -2 10 -21 0 -23 13 -4
29 11 9 17 5 31 -16 39 -59 100 -123 114 -118 7 3 19 1 26 -5 31 -26 60 34 32
68 -17 22 0 25 32 6 17 -10 31 -24 31 -32 0 -9 7 -11 23 -6 12 3 19 3 15 -1
-4 -4 -1 -14 7 -21 18 -18 26 -18 19 1 -9 22 29 19 43 -4 7 -11 23 -19 39 -18
16 0 30 -6 32 -12 6 -17 40 -13 61 8 10 10 25 21 32 23 11 4 11 8 3 19 -15 18
-9 70 8 80 10 7 10 9 -2 9 -12 0 -12 2 -1 12 10 9 15 10 18 2 2 -6 19 -10 38
-7 39 4 52 -9 30 -30 -36 -37 -11 -67 57 -67 22 0 27 -4 25 -21 -1 -16 7 -26
31 -36 24 -10 31 -10 26 -2 -5 9 -2 10 12 4 10 -4 34 -7 52 -6 39 2 40 -2 7
-23 -19 -13 -30 -14 -45 -6 -14 7 -20 7 -20 0 0 -5 7 -10 15 -10 17 0 20 -16
5 -25 -15 -9 -12 -25 4 -19 17 7 36 -25 36 -60 0 -17 -6 -26 -15 -26 -18 0
-38 -46 -28 -63 4 -7 8 -25 9 -42 1 -16 2 -37 3 -46 0 -9 22 -22 54 -33 28
-10 63 -25 76 -33 22 -14 25 -13 70 38 60 69 74 107 75 205 1 77 -1 82 -37
132 -20 29 -37 54 -37 57 0 3 9 5 21 5 15 0 19 -5 15 -15 -8 -22 1 -18 14 5 8
16 7 23 -9 37 -11 9 -18 20 -16 23 7 11 55 -1 55 -12 0 -6 11 -7 26 -4 17 5
23 3 19 -4 -3 -5 -13 -10 -20 -10 -17 0 -9 -29 12 -47 15 -12 9 -38 -7 -28
-15 9 -20 -12 -6 -24 14 -12 32 -96 29 -138 -2 -17 3 -23 17 -23 11 0 20 -7
20 -15 0 -8 -6 -15 -13 -15 -8 0 -14 -6 -14 -14 0 -8 6 -12 14 -9 7 3 15 -2
19 -10 5 -13 8 -13 25 4 23 23 24 30 4 23 -8 -4 -15 -1 -15 5 0 16 26 13 40
-5 11 -13 10 -16 -8 -21 -12 -3 -22 -10 -22 -15 0 -20 44 19 51 45 4 15 4 25
-1 22 -4 -3 -13 2 -21 11 -10 12 -9 18 4 32 16 15 17 15 17 -5 0 -11 7 -26 15
-33 9 -8 13 -21 9 -36 -9 -33 20 -74 51 -74 15 0 25 6 25 14 0 7 11 21 23 29
19 12 23 22 19 46 -5 37 4 39 57 12 34 -18 40 -18 59 -6 14 11 18 22 14 37 -8
33 -67 108 -107 137 -19 13 -35 28 -35 33 0 4 -7 8 -15 8 -7 0 -18 8 -24 18
-5 9 -13 17 -18 17 -14 0 -2 67 16 86 9 10 28 20 42 22 29 5 55 -33 65 -93 7
-41 18 -51 28 -25 3 8 12 12 20 9 7 -3 47 9 87 26 41 17 81 29 90 27 9 -3 23
-1 30 4 11 7 10 9 -4 9 -10 0 -15 4 -12 10 10 16 35 12 35 -5 0 -11 7 -14 23
-10 54 14 185 21 232 12 27 -5 69 -12 92 -16 52 -10 63 0 63 56 0 52 13 55 36
8 12 -25 23 -35 40 -35 17 0 22 -4 18 -15 -5 -11 1 -15 22 -16 16 -1 43 -3 59
-4 17 -2 49 6 72 16 55 25 56 24 48 -11 -4 -20 -3 -30 5 -30 6 0 8 -5 5 -10
-3 -6 0 -10 7 -10 7 0 33 27 57 60 25 33 49 59 55 57 6 -2 17 -18 25 -35 11
-25 21 -32 43 -32 21 0 28 5 28 20 0 11 -4 20 -8 20 -5 0 -9 14 -9 30 0 17 1
30 3 30 1 0 33 -14 71 -31 74 -33 109 -61 126 -99 l11 -25 4 28 c2 15 6 27 10
27 18 -1 32 -18 26 -33 -3 -10 -1 -17 5 -17 6 0 11 6 11 13 0 8 17 29 38 48
34 32 40 34 77 27 21 -5 43 -14 47 -21 5 -8 8 -7 8 5 0 11 -15 20 -52 28 -72
17 -83 23 -66 37 18 16 111 -4 298 -62 50 -16 77 -20 81 -13 4 7 10 5 15 -4
12 -20 74 -47 130 -57 25 -5 50 -15 55 -22 5 -8 9 -9 9 -4 0 6 5 2 11 -8 11
-18 79 -25 79 -7 0 6 -13 10 -28 10 -18 0 -29 5 -29 15 0 8 9 13 21 12 15 -1
20 3 18 16 -4 24 25 22 38 -3 9 -17 8 -20 -12 -20 -21 0 -21 -1 -6 -17 14 -13
20 -14 32 -3 9 7 16 18 16 25 0 15 19 24 37 18 9 -3 8 -16 -2 -51 -16 -51 -12
-69 6 -29 10 23 16 25 56 22 44 -4 93 10 93 27 0 5 9 4 19 -2 13 -7 28 -7 46
0 15 6 38 8 53 5 19 -4 22 -3 9 3 -16 7 -12 12 26 39 24 18 55 35 69 38 23 6
26 3 38 -42 8 -26 19 -51 25 -55 7 -4 18 -28 25 -53 17 -61 26 -65 58 -23 12
15 9 26 -23 82 -34 62 -39 92 -17 130 8 15 41 -57 42 -91 0 -39 21 -44 44 -12
8 13 21 19 29 16 10 -4 19 4 27 23 11 26 40 44 66 41 7 -1 14 5 18 14 3 8 11
15 18 15 16 0 88 -37 103 -52 7 -8 6 -8 -4 -3 -9 5 -12 4 -7 -6 3 -8 9 -21 12
-29 3 -9 15 -20 27 -26 12 -5 21 -17 21 -27 -1 -11 5 -17 18 -17 22 0 58 -35
58 -56 0 -25 61 -133 87 -154 32 -25 69 -26 81 -2 16 30 23 91 16 137 -4 32
-18 58 -45 89 -23 26 -35 47 -29 51 6 3 8 11 5 16 -4 5 -1 9 6 9 7 0 9 8 6 21
-3 11 -3 27 0 35 9 23 23 5 23 -29 0 -48 11 -77 27 -77 8 0 19 -14 24 -30 7
-19 18 -30 29 -30 10 0 20 -5 22 -11 3 -8 16 -10 41 -5 21 4 35 11 32 17 -4 5
1 9 10 9 19 0 30 26 18 43 -5 6 -10 23 -11 37 l-1 25 19 -25 c11 -14 20 -28
20 -32 0 -5 8 -8 18 -8 10 0 23 -5 29 -11 14 -14 123 36 123 57 0 8 6 14 14
14 21 0 31 21 15 31 -11 7 -10 9 4 9 9 0 17 -6 17 -12 0 -7 9 1 20 17 11 17
20 23 20 15 0 -12 2 -13 9 -1 7 11 9 11 14 0 4 -10 6 -10 6 -1 1 6 -8 21 -19
32 -24 24 -24 27 -6 45 16 16 26 10 26 -17 0 -10 5 -18 11 -18 5 0 8 -4 5 -9
-8 -13 4 -41 18 -41 6 0 18 -15 26 -33 8 -17 21 -31 28 -29 6 1 12 -5 12 -13
0 -17 45 -21 55 -5 3 5 17 10 31 10 17 0 24 -5 24 -19 0 -11 -4 -23 -10 -26
-18 -11 -11 -25 13 -25 13 0 32 -9 42 -20 18 -20 80 -28 87 -12 2 4 21 19 43
33 60 39 157 124 170 149 l12 23 31 -29 c17 -17 32 -42 34 -59 2 -22 8 -29 21
-27 9 2 20 -4 23 -13 3 -8 13 -15 21 -15 9 0 13 -6 9 -15 -7 -20 26 -20 70 1
26 13 32 20 24 29 -17 20 27 46 65 40 26 -4 33 -1 50 27 24 39 61 46 58 10 -2
-14 3 -22 12 -22 9 0 12 -6 9 -15 -11 -28 25 -29 51 -1 35 37 31 46 -17 46
l-43 1 35 16 c67 31 165 52 247 52 46 1 85 6 88 11 4 7 11 8 18 1 7 -5 50 -13
97 -17 47 -5 75 -10 63 -12 -13 -2 -23 -10 -23 -19 0 -11 7 -14 25 -11 14 3
28 1 31 -3 3 -5 29 -9 57 -9 61 0 48 15 -23 26 -39 6 -42 8 -20 14 14 4 52 4
85 0 33 -4 95 -5 138 -4 49 3 76 0 72 -6 -3 -6 5 -10 19 -10 14 0 28 5 31 10
17 27 91 -4 79 -33 -3 -8 -1 -18 5 -22 6 -3 11 -13 11 -21 0 -12 -7 -14 -29
-9 -33 7 -76 -11 -103 -43 -15 -19 -15 -21 0 -27 25 -9 318 -17 307 -8 -5 4
-15 17 -21 28 -8 14 -27 22 -64 28 -72 10 -75 17 -8 17 53 0 88 17 70 34 -4 4
17 -2 46 -13 29 -12 55 -21 57 -21 3 0 5 -6 5 -14 0 -15 57 -46 85 -46 9 0 14
-3 11 -8 -5 -9 148 -7 163 3 6 3 11 17 11 31 0 13 1 24 3 24 2 0 26 -11 53
-25 27 -14 55 -25 62 -25 6 0 12 -3 12 -8 0 -4 36 -7 79 -7 l79 0 5 -30 c3
-16 1 -34 -4 -39 -14 -15 -11 -29 6 -23 11 5 12 1 5 -18 -14 -36 1 -30 29 10
13 19 29 35 36 35 7 0 18 13 25 29 14 35 46 47 60 21 5 -10 21 -20 34 -22 14
-3 23 -1 20 3 -3 5 -2 14 2 21 5 8 10 6 14 -8 4 -10 13 -19 21 -19 19 -1 70
-26 91 -45 9 -8 46 -26 81 -39 60 -22 66 -27 78 -65 l14 -41 3 38 c3 35 5 37
34 32 19 -4 39 0 54 9 25 17 23 41 -10 104 -21 40 -21 42 9 42 14 0 25 4 25 9
0 5 14 9 30 9 39 -1 44 5 33 39 -8 24 -20 31 -86 51 -59 18 -75 26 -70 38 4
11 14 13 34 10 16 -4 43 -9 59 -12 21 -4 30 -2 30 8 1 9 4 8 13 -4 7 -9 35
-28 62 -43 28 -15 64 -36 81 -46 l31 -19 29 30 c16 16 38 30 49 30 22 0 65 45
65 69 0 10 3 12 10 5 6 -6 6 -21 1 -42 -8 -26 -7 -32 5 -32 8 0 12 -5 9 -10
-10 -16 62 -10 125 10 100 32 117 34 123 11 3 -13 13 -21 26 -21 12 0 30 -6
41 -12 17 -11 24 -8 52 18 18 17 40 34 49 37 10 3 18 21 22 47 3 23 15 52 26
64 23 24 30 72 9 60 -9 -5 -9 -3 1 9 7 9 11 26 8 37 -3 11 0 23 5 27 7 4 8 1
3 -7 -5 -9 -4 -11 4 -6 6 4 10 13 9 20 -3 12 26 53 86 123 33 39 101 77 118
67 7 -4 8 -3 4 5 -4 6 0 14 11 18 10 4 37 22 61 41 32 26 46 32 54 24 12 -12
9 -18 -84 -143 -26 -35 -74 -100 -105 -143 -83 -113 -121 -158 -158 -183 -18
-12 -35 -31 -38 -42 -10 -40 25 -34 37 6 4 12 16 25 27 28 10 4 17 10 14 15
-7 11 22 33 35 25 6 -3 26 -1 44 5 30 10 34 15 33 42 -1 17 3 33 10 35 16 6
28 -36 14 -50 -17 -17 -13 -26 9 -20 14 4 19 1 17 -8 -2 -8 -2 -11 0 -6 3 4
13 7 24 7 14 0 19 7 19 29 0 31 -19 44 -47 34 -14 -4 -12 0 5 17 22 21 22 23
6 41 -20 22 -16 23 49 6 26 -7 45 -16 41 -20 -4 -3 5 -12 20 -18 20 -10 32
-10 53 0 17 8 29 9 36 2 11 -11 35 -4 55 16 7 7 22 13 33 13 12 0 19 7 19 19
0 26 22 41 48 34 18 -4 20 -9 11 -24 -5 -10 -16 -19 -25 -19 -8 0 -17 -7 -20
-15 -4 -8 -12 -15 -19 -15 -7 0 -16 -7 -19 -16 -5 -13 -2 -15 13 -11 12 3 22
-1 25 -10 4 -8 1 -11 -5 -8 -6 4 -26 4 -45 0 -26 -4 -34 -11 -32 -23 5 -24 78
-17 96 9 14 21 57 26 68 8 4 -8 9 -7 15 2 13 21 11 27 -18 44 -16 9 -20 14 -9
10 10 -3 24 -1 31 5 19 16 48 1 42 -22 -5 -16 -3 -17 9 -7 8 6 14 18 14 25 0
17 16 18 24 1 4 -6 4 -2 2 11 -3 18 -1 22 11 18 8 -3 35 -6 61 -6 l46 0 -47
-30 c-32 -20 -47 -36 -47 -51 0 -15 4 -19 16 -15 35 13 5 -20 -38 -42 -45 -23
-106 -23 -92 0 4 6 0 14 -7 19 -11 7 -9 9 6 9 16 0 15 3 -9 15 -31 16 -46 12
-46 -11 0 -10 -6 -13 -19 -9 -26 8 -48 -20 -31 -40 14 -17 35 -21 24 -4 -6 10
11 28 27 29 10 0 43 -34 56 -57 10 -17 9 -22 -2 -27 -19 -7 -51 24 -35 34 8 5
6 9 -6 14 -21 8 -24 5 -30 -31 -4 -24 0 -30 26 -41 16 -8 30 -20 30 -28 0 -8
8 -14 17 -14 9 0 25 -7 35 -17 10 -9 18 -12 18 -7 0 6 16 8 36 6 25 -3 34 -8
30 -18 -5 -13 0 -15 37 -18 6 -1 11 5 9 12 -2 13 10 16 21 5 4 -3 0 -15 -10
-25 -15 -17 -14 -18 31 -18 40 0 49 3 53 21 4 12 11 18 20 15 10 -4 13 0 11
17 -2 14 -9 21 -18 18 -76 -20 -81 -6 -10 28 53 25 64 41 29 41 -21 0 -49 22
-49 38 0 8 22 22 36 22 3 0 9 -12 15 -27 7 -20 12 -24 18 -14 5 8 14 10 20 7
14 -9 45 20 36 34 -3 5 -1 10 4 10 6 0 11 -4 11 -10 0 -5 11 -10 24 -10 28 0
43 -16 48 -50 2 -19 8 -24 25 -23 14 2 30 -9 46 -30 30 -39 107 -79 144 -75
21 2 29 10 37 36 6 22 15 32 28 32 11 0 16 5 13 11 -4 5 0 18 10 28 16 19 13
65 -7 77 -5 3 1 14 13 25 12 10 26 16 32 12 8 -5 7 -8 -1 -11 -14 -4 -16 -32
-2 -32 6 0 10 6 10 14 0 22 16 28 78 32 43 2 58 -1 68 -14 12 -15 13 -14 14
11 0 23 4 27 29 27 16 0 31 6 35 15 3 8 0 15 -7 15 -7 0 -13 15 -14 34 -3 30
0 33 17 29 16 -4 18 -9 9 -24 -5 -11 -6 -19 0 -19 12 0 22 27 15 44 -7 17 25
30 41 16 10 -8 23 -7 49 4 20 8 37 14 39 13 1 -1 39 10 85 23 102 31 105 49
14 68 -34 8 -62 17 -62 21 0 5 -11 6 -24 4 -12 -3 -43 2 -67 11 l-44 15 46 1
c25 0 59 -4 75 -9 16 -5 48 -12 72 -15 33 -5 42 -3 42 8 0 8 -8 19 -17 25 -10
5 -15 12 -12 15 3 4 17 -2 30 -12 13 -11 30 -17 37 -15 6 3 12 1 12 -4 0 -4
11 -9 25 -9 20 -2 25 3 25 22 0 22 35 74 50 74 4 0 12 -11 20 -24 11 -21 15
-23 26 -11 8 7 14 18 14 24 0 7 10 9 23 6 19 -5 25 2 45 44 12 28 22 64 22 81
0 25 -4 30 -25 30 -39 0 -30 25 15 40 22 7 40 16 40 20 0 13 -40 49 -62 55
-55 17 -260 100 -338 138 -99 48 -95 45 -88 52 6 7 106 -26 272 -89 65 -24
141 -50 168 -56 43 -11 51 -10 69 6 17 16 22 16 29 4 6 -8 10 -21 10 -27 0 -7
3 -14 8 -14 33 -6 52 -5 52 2 0 5 5 9 10 9 6 0 10 -6 10 -14 0 -8 7 -17 16
-20 23 -9 34 -7 34 4 0 6 -7 10 -15 10 -8 0 -15 7 -15 15 0 8 -5 15 -10 15
-11 0 8 40 25 52 6 5 5 8 -3 8 -9 0 -10 5 -3 19 9 16 7 17 -13 14 -22 -5 -24
-1 -28 44 -6 59 5 81 43 95 17 6 28 13 25 16 -3 3 0 12 7 20 9 13 9 14 0 8 -7
-4 -13 -2 -13 3 0 16 18 13 28 -4 7 -13 12 -12 31 9 20 22 35 64 45 129 1 10
9 25 18 33 14 14 17 14 31 0 9 -9 27 -16 41 -16 23 0 26 -3 20 -25 -8 -32 9
-32 34 0 19 24 20 24 25 4 5 -17 9 -19 26 -10 11 6 22 20 26 30 9 29 33 33 89
16 49 -15 96 -20 96 -10 0 35 -98 142 -140 152 -34 8 -50 22 -43 39 3 8 0 14
-6 14 -6 0 -11 -5 -11 -11 0 -6 -7 -3 -16 5 -8 9 -18 16 -22 17 -4 0 -16 2
-27 4 -14 3 -25 -5 -36 -24 -18 -31 -69 -41 -69 -15 0 14 -11 18 -42 15 -20
-2 -40 31 -32 53 4 11 1 16 -11 16 -9 0 -13 4 -10 10 3 5 -11 16 -31 25 -43
18 -37 30 14 30 33 0 37 3 40 28 3 27 6 28 35 23 69 -12 142 -9 176 9 l34 17
-22 18 c-26 19 -89 36 -166 46 -42 5 -50 9 -51 27 -3 57 -9 83 -22 93 -12 9
-12 14 -1 35 7 13 14 33 16 43 2 11 10 27 18 36 8 9 15 21 15 26 1 13 54 70
77 82 12 7 25 7 36 1 22 -13 130 17 125 33 -2 6 -35 24 -73 39 -71 29 -89 46
-94 90 0 5 -5 8 -10 5 -9 -6 -71 15 -71 25 0 8 76 59 89 59 21 0 43 52 36 86
-3 19 -10 32 -16 29 -5 -4 -9 -1 -9 5 0 6 -4 9 -9 5 -23 -13 -18 14 4 29 26
17 34 55 13 57 -56 7 -85 6 -99 -2 -20 -10 -83 17 -73 32 3 5 9 7 14 4 14 -8
30 29 30 68 0 39 14 47 84 47 21 0 57 5 78 12 40 12 40 12 35 56 -4 35 -14 53
-53 93 -27 27 -74 66 -104 86 -30 20 -56 40 -58 45 -2 4 -10 8 -18 8 -8 0 -32
11 -52 25 -20 14 -40 25 -44 25 -5 0 -18 10 -29 21 -19 19 -20 25 -10 42 10
16 10 22 -1 34 -12 12 -24 9 -86 -17 -89 -38 -94 -38 -46 1 21 17 41 34 44 37
3 4 20 17 38 30 26 18 40 22 65 17 18 -4 29 -4 25 0 -4 4 -3 16 2 25 8 15 5
19 -16 24 -26 7 -95 -10 -92 -22 3 -18 -17 -43 -50 -62 -21 -13 -31 -15 -23
-7 6 8 10 21 9 28 -2 7 4 14 12 15 29 2 31 4 21 22 -8 13 -4 24 19 47 15 17
31 40 35 53 6 20 3 22 -27 23 -96 2 -132 10 -147 32 -9 12 -15 26 -13 30 1 5
-7 6 -18 2 -11 -4 -20 -2 -20 4 0 6 -7 11 -15 11 -8 0 -15 6 -15 14 0 17 27
29 32 14 3 -8 11 -7 26 4 12 8 19 18 15 21 -3 4 8 10 24 13 24 5 32 13 36 34
4 18 16 31 34 39 24 10 61 50 51 54 -47 23 -62 63 -33 87 20 16 65 -1 65 -25
0 -11 6 -14 18 -11 11 4 29 -4 48 -22 17 -15 46 -36 65 -46 l34 -20 -27 35
c-14 20 -36 52 -47 72 l-20 36 43 20 c23 12 48 21 55 21 9 0 10 4 5 13 -5 6
-9 26 -8 42 1 17 -4 33 -10 38 -7 5 -8 9 -1 15 10 7 13 88 4 95 -2 2 -17 8
-32 15 -15 7 -25 17 -22 22 9 15 25 12 25 -5 0 -19 9 -19 29 0 9 8 27 23 40
33 14 11 21 25 18 33 -4 10 -7 9 -12 -6 -6 -18 -54 -50 -62 -41 -3 2 14 19 36
37 23 18 41 37 41 42 0 5 8 15 17 22 21 15 69 1 150 -45 61 -35 66 -35 87 -14
25 24 20 31 -32 48 -26 9 -55 25 -65 36 -9 11 -23 20 -31 20 -8 0 -26 4 -41
10 -22 8 -24 13 -15 30 6 11 17 20 25 20 19 0 28 35 20 77 -8 45 -29 66 -55
58 -15 -5 -19 -3 -14 10 5 11 0 18 -15 22 -12 3 -18 10 -14 17 10 15 3 59 -11
69 -8 5 -6 11 7 21 9 7 17 20 17 28 0 13 82 58 107 58 9 0 61 39 53 40 -3 0
-55 -16 -115 -35 -61 -19 -114 -35 -118 -35 -5 0 -15 -7 -24 -15 -21 -22 -33
-10 -33 35 0 21 -4 41 -9 45 -6 3 -9 23 -8 45 1 29 6 40 17 40 10 0 11 3 4 8
-14 9 -10 42 6 52 18 11 40 59 33 75 -3 8 -2 23 2 32 13 29 11 46 -9 86 -10
20 -16 46 -13 57 3 11 1 20 -5 20 -12 0 -88 71 -88 82 0 4 8 5 18 2 13 -5 13
-2 -4 13 -23 20 -19 39 13 71 7 7 13 18 13 23 0 5 6 9 14 9 21 0 53 95 35 106
-5 3 -9 -2 -9 -10 0 -9 -4 -16 -10 -16 -22 0 -8 26 25 48 26 17 35 29 35 50 0
15 -4 32 -10 38 -5 5 -6 24 0 49 16 68 12 153 -7 173 -10 10 -24 26 -32 35
-12 15 -12 17 4 11 12 -5 16 -4 12 3 -4 6 -1 16 7 22 11 9 15 7 19 -9 11 -44
34 -13 28 38 -1 6 3 12 9 12 5 0 10 11 10 24 0 13 5 26 10 28 6 2 17 28 25 58
12 43 13 60 3 78 -9 17 -9 25 0 34 21 21 13 38 -17 38 -17 0 -32 -4 -35 -9 -3
-5 -18 -8 -33 -8 l-27 0 37 31 c20 17 37 36 37 43 0 6 6 14 13 16 9 4 9 8 -2
15 -18 13 -6 49 20 57 10 4 19 11 19 16 0 17 -47 9 -76 -13 -26 -21 -27 -21
-20 -3 13 32 34 113 31 117 -2 2 -6 26 -10 53 -4 39 -3 46 5 32 6 -9 15 -15
19 -13 5 3 8 -6 7 -20 -1 -17 7 -32 22 -41 19 -14 22 -14 22 -1 0 8 -10 20
-22 26 l-23 11 23 7 c15 4 22 14 22 33 0 15 -3 21 -8 14 -11 -18 -49 18 -47
45 1 13 -2 25 -7 28 -14 9 -9 34 7 34 14 0 16 5 14 28 0 4 -7 6 -15 4 -12 -3
-13 1 -5 17 6 11 11 31 11 44 0 17 7 26 22 31 18 4 20 8 10 18 -17 17 -15 26
6 31 13 3 11 6 -10 15 -33 13 -37 38 -8 47 19 6 19 7 -5 40 -14 18 -24 38 -23
45 2 6 -9 21 -23 32 -22 17 -30 18 -49 8 -12 -6 -30 -10 -40 -7 -11 3 -21 0
-23 -7 -2 -6 -3 -4 -3 4 1 8 11 16 24 18 12 2 22 7 22 12 0 4 9 10 20 13 26 7
26 27 0 27 -11 0 -20 5 -20 10 0 6 8 10 18 10 14 0 15 2 2 9 -8 6 -18 8 -22 5
-16 -10 -50 18 -45 36 3 14 -1 20 -17 22 -11 2 -20 9 -18 17 1 7 -3 10 -10 7
-7 -3 -21 -9 -30 -12 -10 -4 -18 -10 -18 -15 0 -5 -10 -9 -23 -9 -13 0 -29 -6
-35 -12 -10 -10 -14 -10 -21 0 -12 19 -40 17 -101 -7 l-55 -21 32 27 c17 16
43 36 58 46 29 21 28 26 -5 32 -13 3 -28 10 -34 16 -8 9 -8 10 1 5 15 -8 53
14 53 31 0 6 6 14 13 16 6 2 -1 2 -18 0 -16 -2 -48 -6 -70 -9 -165 -18 -170
-19 -170 -34 0 -8 -8 -16 -17 -18 -20 -4 -24 14 -5 22 6 3 -42 3 -108 1 l-120
-5 138 19 c76 11 144 25 152 31 7 6 24 8 37 5 16 -3 39 6 77 33 51 35 75 62
53 62 -5 0 -22 -11 -38 -25 -33 -29 -49 -31 -58 -10 -4 11 -14 13 -38 8 l-33
-6 19 21 c16 18 17 24 6 38 -12 13 -11 17 0 24 8 5 11 12 7 16 -4 4 5 16 20
26 16 10 24 18 19 18 -5 0 -3 6 3 14 9 11 9 20 2 35 -9 17 -21 20 -72 20 -64
-1 -88 8 -51 18 12 3 22 9 22 14 0 14 -17 11 -34 -7 -15 -14 -17 -21 -15 -41
0 -5 -10 -10 -22 -13 -18 -5 -25 -17 -34 -64 -7 -32 -16 -61 -21 -64 -6 -4
-15 -26 -22 -48 -14 -50 -39 -67 -120 -88 -83 -22 -83 -22 -67 25 8 23 15 56
15 74 l0 33 -52 -15 c-68 -20 -72 -24 -48 -51 19 -21 20 -23 4 -47 -9 -14 -19
-25 -22 -25 -3 0 -24 16 -48 35 -49 40 -100 49 -89 15 7 -23 -7 -27 -24 -6 -7
8 -20 12 -30 9 -14 -3 -17 1 -16 19 1 17 10 25 37 31 l35 8 -16 35 c-8 19 -18
34 -22 34 -4 0 -31 -16 -60 -35 -37 -24 -60 -33 -76 -29 -14 4 -23 2 -23 -5 0
-6 -7 -11 -16 -11 -34 0 -5 23 57 45 36 12 79 30 97 39 31 16 32 16 87 -20 60
-38 71 -39 183 -12 41 10 43 12 37 42 -6 31 -25 76 -35 86 -3 3 -16 20 -29 38
-12 17 -31 32 -41 32 -11 0 -24 9 -30 21 -7 11 -14 18 -17 16 -3 -3 -21 3 -41
13 -21 11 -47 21 -60 23 -13 2 -27 9 -32 17 -5 7 -13 9 -21 4 -20 -12 -59 -12
-50 1 18 23 19 60 4 93 -17 36 -15 35 -98 16 -16 -3 -40 -16 -52 -27 -14 -12
-23 -16 -23 -8 0 8 -8 10 -22 5 -32 -9 -34 -12 -22 -32 6 -10 8 -26 3 -37 -4
-11 -8 -15 -8 -9 -1 7 -11 14 -22 17 -17 5 -20 11 -15 31 10 39 -20 33 -33 -7
-9 -25 -19 -35 -52 -45 -22 -7 -44 -10 -49 -7 -15 9 -60 -6 -60 -21 0 -17 -27
-21 -90 -11 -14 2 -32 7 -39 11 -19 12 -30 50 -17 59 6 4 -10 7 -36 5 -25 -2
-44 0 -42 3 2 4 -17 24 -41 45 -32 27 -41 40 -32 46 8 5 6 8 -7 8 -12 0 -16
-5 -12 -15 3 -8 3 -22 0 -30 -5 -12 -10 -13 -20 -4 -11 9 -14 8 -14 -6 0 -15
-6 -17 -40 -12 -54 7 -84 -1 -69 -19 9 -11 4 -13 -30 -10 -38 3 -46 -2 -42
-26 0 -5 -6 -8 -14 -8 -8 0 -15 5 -15 11 0 5 -4 8 -9 4 -6 -3 -19 5 -31 17
l-20 22 22 12 c19 10 26 10 41 -3 27 -25 33 -6 7 22 -27 28 -40 32 -40 10 0
-8 -4 -15 -10 -15 -5 0 -9 10 -7 22 1 15 -5 23 -24 28 -29 8 -50 -4 -65 -40
l-11 -24 -19 22 c-11 13 -30 22 -48 22 -16 0 -38 8 -49 17 -17 16 -20 16 -30
3 -24 -31 -154 -74 -194 -64 -16 4 -23 2 -23 -8 0 -7 -13 -28 -30 -46 -16 -18
-30 -37 -30 -41 0 -5 -7 -14 -15 -21 -13 -11 -15 -10 -10 1 2 8 1 20 -4 28 -7
11 -14 10 -40 -5 -34 -20 -66 -11 -66 19 0 23 -13 31 -28 19 -8 -7 -17 -9 -21
-5 -4 4 -9 -3 -13 -15 -6 -25 -43 -31 -43 -6 0 8 -4 12 -10 9 -20 -12 -55 -15
-87 -6 -21 6 -33 6 -33 0 0 -6 -6 -7 -12 -3 -11 7 -33 9 -68 5 -5 -1 -10 -8
-10 -16 0 -10 -10 -15 -27 -15 -24 -1 -26 -2 -10 -11 9 -6 14 -15 11 -21 -4
-6 4 -19 17 -29 13 -10 21 -21 17 -24 -7 -8 -50 13 -60 29 -4 6 -41 11 -85 12
-43 1 -90 4 -106 9 -17 4 -33 3 -42 -5 -8 -6 -23 -9 -33 -6 -14 5 -21 1 -25
-15 -3 -11 -10 -18 -16 -14 -14 8 -14 -11 0 -37 10 -19 9 -20 -16 -14 -22 6
-26 4 -22 -8 4 -9 -3 -22 -16 -31 -24 -17 -97 -21 -97 -5 0 6 -8 10 -19 10
-14 0 -17 6 -15 28 4 24 -1 18 -11 -15 -8 -25 -54 7 -60 41 -7 39 -2 117 9
134 4 6 2 12 -3 12 -6 0 -11 -5 -11 -11 0 -6 -12 -1 -26 10 -14 11 -32 17 -40
14 -8 -3 -14 0 -14 6 0 6 7 11 15 11 8 0 15 5 15 11 0 20 -21 49 -36 49 -8 0
-17 6 -20 14 -4 11 -13 12 -39 5 -29 -8 -41 -6 -73 12 -39 23 -39 23 -78 4
-31 -15 -63 -19 -154 -19 -143 0 -293 8 -309 18 -13 9 -70 -2 -88 -16 -17 -14
-56 -3 -106 29 -36 23 -45 24 -72 14 -17 -6 -39 -11 -47 -11 -9 0 -18 -4 -20
-9 -2 -6 -25 -12 -53 -16 -27 -3 -52 -10 -55 -16 -4 -5 -24 -13 -46 -16 -21
-3 -47 -15 -58 -25 -20 -18 -56 -25 -56 -10 0 4 -8 9 -17 10 -10 1 -37 5 -60
8 -24 3 -57 1 -74 -5 -41 -14 -45 -9 -23 24 9 14 13 25 8 24 -21 -4 -26 2 -14
16 9 11 9 15 1 15 -6 0 -14 -8 -17 -17 -13 -41 -26 -59 -44 -59 -10 0 -16 4
-14 8 3 4 12 8 21 8 9 0 13 6 10 15 -4 8 -2 17 3 20 13 8 13 25 1 25 -5 0 -13
-10 -17 -22 l-7 -23 -8 23 c-10 26 -69 33 -69 7 0 -8 -4 -15 -10 -15 -5 0 -10
7 -10 15 0 8 -9 15 -21 15 -11 0 -37 12 -56 28 -31 23 -46 27 -103 27 -69 0
-118 -20 -127 -54 -3 -12 -16 -16 -49 -16 -24 0 -44 3 -44 8 0 4 -13 7 -29 7
-16 0 -36 6 -43 14 -20 20 -96 27 -158 15 -73 -14 -91 -14 -184 4 -75 15 -82
15 -122 -3 -40 -19 -59 -42 -55 -67 1 -6 -3 -14 -8 -17 -5 -3 -7 -16 -3 -28 4
-17 2 -20 -12 -15 -85 33 -418 91 -434 76 -4 -4 -26 -9 -49 -12 -24 -2 -46 -6
-50 -10 -12 -12 -33 -7 -33 8 0 21 -9 19 -35 -9 -21 -22 -27 -24 -59 -15 -44
12 -56 6 -48 -23 3 -14 2 -19 -6 -14 -7 4 -12 3 -12 -3 0 -5 6 -12 13 -14 8
-4 7 -6 -3 -6 -8 0 -31 22 -50 49 -33 46 -50 61 -50 42 0 -4 6 -14 12 -20 10
-10 7 -12 -12 -9 -16 3 -31 -3 -42 -15 -16 -19 -17 -19 -35 -1 -11 10 -28 32
-38 48 -16 25 -20 27 -23 12 -4 -17 -5 -18 -22 -2 -18 16 -19 16 -25 -11 -4
-16 -11 -40 -16 -54 -12 -32 -107 -132 -119 -125 -11 7 -22 -24 -13 -38 4 -6
1 -8 -8 -5 -10 4 -24 -7 -38 -28 -13 -19 -27 -34 -31 -34 -9 0 7 96 20 125 5
11 11 45 14 76 3 30 8 63 11 71 6 14 -5 17 -72 20 -66 3 -81 0 -97 -16 -21
-21 -18 -23 -68 48 -13 18 -31 26 -69 31 -91 13 -112 12 -129 -5 -9 -9 -25
-20 -36 -25 -17 -7 -17 -8 -1 -12 9 -3 17 -11 17 -18 0 -18 -20 -30 -20 -13
-1 8 -4 7 -10 -4 -13 -22 -138 -64 -151 -51 -7 7 1 15 20 23 35 14 41 30 10
30 -11 0 -18 4 -15 9 9 14 -53 21 -178 20 -72 0 -116 -5 -116 -11 0 -7 -5 -6
-14 1 -11 9 -15 7 -20 -11 l-6 -23 -21 24 -20 25 -32 -19 -32 -19 18 27 c30
46 23 49 -111 48 -24 0 -50 -5 -58 -11 -10 -9 -18 -7 -35 9 -26 24 -40 26 -57
9 -8 -8 -12 -8 -12 -1 0 7 -49 12 -137 15 -97 4 -149 10 -176 22 -73 32 -194
31 -246 -3 -12 -8 -12 -13 3 -36 22 -34 16 -40 -25 -26 -26 9 -35 8 -49 -4 -9
-8 -30 -15 -47 -15 -36 0 -47 -9 -31 -27 14 -17 9 -22 -29 -27 -17 -1 -35 -6
-42 -10 -6 -4 -45 9 -87 28 -41 20 -90 36 -109 36 -30 0 -35 3 -35 24 0 17
-10 31 -30 43 -16 9 -30 23 -30 29 0 23 -45 29 -105 15z m2465 -157 c0 -2 -16
-4 -36 -4 -19 0 -33 4 -30 8 5 8 66 4 66 -4z m-2235 -44 c3 -5 -9 -5 -27 1
-18 5 -34 9 -35 9 -2 0 -3 9 -3 21 l0 20 30 -21 c16 -11 32 -25 35 -30z m7523
28 c18 -18 15 -28 -9 -28 -14 0 -19 5 -16 14 3 8 1 17 -6 20 -7 3 -6 5 4 5 8
1 20 -4 27 -11z m-4367 -14 c30 -9 60 -22 68 -30 13 -12 12 -17 -7 -37 -12
-13 -22 -28 -22 -34 0 -17 -26 -10 -62 17 -50 37 -126 87 -140 93 -33 13 115
5 163 -9z m-521 2 c0 -3 -4 -8 -10 -11 -5 -3 -10 -1 -10 4 0 6 5 11 10 11 6 0
10 -2 10 -4z m181 -29 c-10 -9 -11 -8 -5 6 3 10 9 15 12 12 3 -3 0 -11 -7 -18z
m-5931 -7 c0 -5 -10 -12 -21 -15 -14 -5 -17 -10 -10 -14 13 -9 27 -71 15 -71
-22 1 -31 18 -29 55 2 22 4 42 5 45 1 3 2 8 2 11 -1 4 8 5 18 2 11 -3 20 -9
20 -13z m6404 -55 c3 -8 1 -15 -4 -15 -6 0 -10 7 -10 15 0 8 2 15 4 15 2 0 6
-7 10 -15z m-5766 -11 c23 -6 22 -7 -9 -26 -17 -10 -34 -17 -37 -14 -3 4 -1 6
5 6 6 0 9 9 6 20 -6 21 -1 23 35 14z m5551 -93 c-14 -4 -49 29 -49 47 0 11 9
6 29 -14 16 -16 25 -31 20 -33z m241 49 c0 -5 -4 -10 -10 -10 -5 0 -10 5 -10
10 0 6 5 10 10 10 6 0 10 -4 10 -10z m5760 -74 c0 -58 -75 -72 -87 -15 -3 16
-11 29 -17 29 -8 0 -8 3 0 8 6 4 13 15 17 25 6 17 9 16 47 -3 29 -15 40 -27
40 -44z m-5677 1 c-3 -22 -11 -36 -17 -34 -12 5 -12 11 0 41 6 16 4 18 -9 13
-21 -8 -21 -3 -1 18 23 23 35 6 27 -38z m-6073 3 c-8 -5 -22 -10 -30 -10 -13
0 -13 1 0 10 8 5 22 10 30 10 13 0 13 -1 0 -10z m-75 -30 c-3 -5 -13 -10 -21
-10 -8 0 -12 5 -9 10 3 6 13 10 21 10 8 0 12 -4 9 -10z m9545 -5 c-7 -8 -17
-15 -22 -15 -6 0 -5 7 2 15 7 8 17 15 22 15 6 0 5 -7 -2 -15z m1770 11 c0 -20
-14 -33 -31 -29 -10 3 -37 -2 -59 -11 -22 -9 -45 -16 -50 -16 -20 0 -9 17 17
29 22 10 24 14 12 22 -9 6 7 9 49 9 34 0 62 -2 62 -4z m990 0 c0 -3 -4 -8 -10
-11 -5 -3 -10 -1 -10 4 0 6 5 11 10 11 6 0 10 -2 10 -4z m-3080 -15 c0 -5 -9
-13 -20 -16 -11 -3 -20 -11 -20 -16 0 -5 -5 -9 -12 -9 -6 0 -1 11 12 25 24 26
40 32 40 16z m90 -5 c0 -13 -128 -81 -137 -72 -2 2 11 14 28 27 84 61 109 71
109 45z m182 -18 c-7 -7 -12 -8 -12 -2 0 14 12 26 19 19 2 -3 -1 -11 -7 -17z
m-9792 -14 c0 -16 -83 -58 -102 -52 -13 5 69 66 90 67 6 1 12 -6 12 -15z
m11295 -24 c155 -50 189 -64 177 -68 -14 -4 -16 -32 -3 -32 5 0 16 7 24 15 17
16 27 10 27 -18 0 -17 -5 -19 -42 -13 -73 10 -208 68 -252 108 -22 20 -36 37
-31 37 6 1 51 -13 100 -29z m287 8 c-7 -7 -12 -8 -12 -2 0 14 12 26 19 19 2
-3 -1 -11 -7 -17z m-11717 -8 c-3 -5 -11 -10 -16 -10 -6 0 -7 5 -4 10 3 6 11
10 16 10 6 0 7 -4 4 -10z m6331 -26 c-4 -9 -9 -15 -11 -12 -3 3 -3 13 1 22 4
9 9 15 11 12 3 -3 3 -13 -1 -22z m-6386 -14 c0 -5 -7 -10 -16 -10 -8 0 -12 5
-9 10 3 6 10 10 16 10 5 0 9 -4 9 -10z m-1135 -20 c-3 -5 -12 -10 -18 -10 -7
0 -6 4 3 10 19 12 23 12 15 0z m1375 1 c0 -10 -24 -21 -43 -21 -7 0 -3 7 7 15
22 17 36 19 36 6z m-70 -31 c-8 -5 -19 -10 -25 -10 -5 0 -3 5 5 10 8 5 20 10
25 10 6 0 3 -5 -5 -10z m11027 -6 c-3 -3 -12 -4 -19 -1 -8 3 -5 6 6 6 11 1 17
-2 13 -5z m548 -14 c3 -5 1 -10 -4 -10 -6 0 -11 5 -11 10 0 6 2 10 4 10 3 0 8
-4 11 -10z m-12786 -21 c41 -8 50 -14 38 -20 -15 -9 -266 26 -277 38 -8 9 179
-5 239 -18z m12564 7 c71 -8 131 -17 134 -20 4 -4 1 -12 -5 -18 -9 -9 -44 -9
-149 1 -135 13 -162 19 -134 29 11 4 11 6 0 13 -19 12 -1 11 154 -5z m-12376
-29 c1 -20 -3 -27 -16 -27 -27 0 -42 20 -30 42 15 28 43 18 46 -15z m12862 19
c17 -20 -7 -34 -51 -29 -42 6 -52 23 -14 23 14 0 28 5 31 10 9 14 20 13 34 -4z
m61 4 c0 -5 -4 -10 -10 -10 -5 0 -10 5 -10 10 0 6 5 10 10 10 6 0 10 -4 10
-10z m-376 -25 c-4 -8 -12 -15 -20 -15 -8 0 -11 6 -8 15 4 8 12 15 20 15 8 0
11 -6 8 -15z m-12245 -89 c79 -25 126 -45 108 -46 -21 0 -353 84 -364 93 -7 5
-13 13 -13 17 0 9 154 -28 269 -64z m12225 34 c-11 -11 -153 -27 -143 -17 5 6
95 24 134 26 13 1 16 -2 9 -9z m802 -49 c38 -16 96 -42 129 -59 62 -31 108
-51 160 -71 34 -13 131 -77 102 -67 -25 8 -204 57 -251 68 -21 5 -41 6 -44 3
-3 -3 -15 3 -26 14 -12 10 -37 26 -57 34 -30 12 -38 12 -54 1 -23 -17 -37 -9
-33 19 1 12 -1 27 -4 33 -5 8 -5 32 1 52 2 4 8 2 77 -27z m434 -16 c-7 -8 -17
-15 -23 -15 -6 0 -2 7 9 15 25 19 30 19 14 0z m-13313 -21 c-3 -3 -12 -4 -19
-1 -8 3 -5 6 6 6 11 1 17 -2 13 -5z m13243 -41 c-8 -3 -20 -12 -27 -20 -6 -8
-17 -12 -23 -8 -18 11 9 35 39 34 15 0 20 -3 11 -6z m247 -9 c0 -9 -15 -23
-34 -30 -18 -8 -46 -28 -62 -44 -28 -29 -51 -39 -51 -21 0 5 8 12 17 15 13 6
14 9 5 15 -10 6 -4 12 18 21 18 7 37 18 43 24 7 6 23 17 37 23 14 6 25 12 26
12 0 1 1 -6 1 -15z m-13253 -13 c21 -23 11 -51 -19 -51 -29 0 -48 24 -40 50 8
25 37 26 59 1z m-1044 -93 c0 -3 12 -20 26 -37 32 -38 17 -41 -18 -3 -31 33
-78 103 -78 116 0 10 69 -65 70 -76z m14355 52 c9 0 14 4 11 9 -4 5 5 4 18 -2
33 -16 15 -37 -28 -35 -18 1 -66 -15 -110 -35 -90 -43 -95 -44 -71 -17 34 38
82 61 109 54 16 -4 26 -2 26 5 0 6 -7 11 -15 11 -8 0 -15 4 -15 9 0 14 23 19
42 10 9 -5 24 -9 33 -9z m-14485 -78 c0 -14 -80 -54 -95 -48 -18 7 -19 28 -3
44 13 13 98 17 98 4z m928 -4 c-3 -7 -11 -13 -18 -13 -7 0 -15 6 -17 13 -3 7
4 12 17 12 13 0 20 -5 18 -12z m13310 -5 c-10 -2 -18 -11 -18 -19 0 -15 -12
-19 -23 -7 -9 8 24 33 43 32 11 -1 10 -3 -2 -6z m-14132 -28 c9 -24 -5 -37
-22 -20 -15 15 -11 35 7 35 5 0 12 -7 15 -15z m13864 5 c0 -5 -4 -10 -10 -10
-5 0 -10 5 -10 10 0 6 5 10 10 10 6 0 10 -4 10 -10z m519 6 c-10 -9 -69 -36
-69 -32 0 7 52 35 64 36 5 0 7 -2 5 -4z m-325 -53 c-13 -10 -20 -10 -23 -2 -4
14 19 30 33 22 5 -3 1 -12 -10 -20z m-124 -18 c6 -8 9 -23 5 -36 l-7 -21 -20
20 c-12 12 -18 27 -15 36 8 20 21 20 37 1z m-14030 -35 c0 -11 -7 -20 -15 -20
-8 0 -15 9 -15 20 0 11 7 20 15 20 8 0 15 -9 15 -20z m322 -22 c-7 -7 -12 -8
-12 -2 0 14 12 26 19 19 2 -3 -1 -11 -7 -17z m13538 -19 c0 -5 -9 -9 -20 -9
-22 0 -27 16 -7 23 15 5 27 -1 27 -14z m216 -68 c-10 -16 -36 -13 -36 3 0 17
21 27 34 16 4 -5 5 -13 2 -19z m154 -71 c0 -5 -7 -10 -16 -10 -8 0 -12 5 -9
10 3 6 10 10 16 10 5 0 9 -4 9 -10z m-272 -27 c-5 -25 -28 -28 -28 -4 0 12 6
21 16 21 9 0 14 -7 12 -17z m676 -88 c3 -8 3 -15 0 -15 -3 0 -12 7 -20 15 -13
13 -13 15 -1 15 8 0 17 -7 21 -15z m-37 -61 c-9 -9 -28 6 -21 18 4 6 10 6 17
-1 6 -6 8 -13 4 -17z m-5057 6 c0 -5 -4 -10 -10 -10 -5 0 -10 5 -10 10 0 6 5
10 10 10 6 0 10 -4 10 -10z m4810 -39 c0 -14 -18 -23 -30 -16 -6 4 -8 11 -5
16 8 12 35 12 35 0z m48 -247 c4 -27 -26 -40 -46 -20 -13 13 -13 18 -2 31 18
21 44 15 48 -11z m-14324 -10 c20 -19 20 -38 2 -53 -30 -25 -79 26 -55 55 15
18 34 18 53 -2z m14113 -20 c-9 -9 -28 6 -21 18 4 6 10 6 17 -1 6 -6 8 -13 4
-17z m446 -55 c-6 -6 -9 -19 -6 -28 5 -13 3 -13 -7 -4 -15 13 -7 43 12 43 9 0
9 -3 1 -11z m-158 -18 c3 -5 -8 -16 -25 -24 -27 -14 -30 -14 -30 0 0 9 3 14 6
10 4 -3 13 0 21 8 17 18 20 18 28 6z m-14227 -228 c-3 -31 -34 -44 -44 -19 -7
19 12 46 33 46 10 0 13 -9 11 -27z m14319 -289 c-3 -3 -12 -4 -19 -1 -8 3 -5
6 6 6 11 1 17 -2 13 -5z m-43 -173 c6 -9 -44 -35 -52 -26 -3 3 0 5 6 5 7 0 11
3 11 8 -4 22 23 33 35 13z m-14664 -571 c0 -5 -4 -10 -10 -10 -5 0 -10 5 -10
10 0 6 5 10 10 10 6 0 10 -4 10 -10z m277 -182 c-3 -8 -6 -5 -6 6 -1 11 2 17
5 13 3 -3 4 -12 1 -19z m14 -69 c-40 -24 -34 -33 22 -31 41 2 42 2 17 -13 -14
-8 -37 -14 -52 -15 -16 0 -33 -9 -41 -21 -11 -14 -16 -17 -19 -7 -4 10 -15 11
-59 1 -30 -6 -63 -14 -74 -18 -11 -3 5 7 35 23 30 16 70 33 87 37 18 3 39 14
45 24 14 19 47 40 63 41 6 0 -5 -9 -24 -21z m89 -29 c0 -5 -5 -10 -11 -10 -5
0 -7 5 -4 10 3 6 8 10 11 10 2 0 4 -4 4 -10z m13625 -1030 c3 -6 -1 -13 -10
-16 -19 -8 -30 0 -20 15 8 14 22 14 30 1z m-14160 -490 c3 -5 -3 -10 -14 -10
-12 0 -21 5 -21 10 0 6 6 10 14 10 8 0 18 -4 21 -10z m-36 -774 c-15 -16 -32
9 -24 35 l7 22 14 -24 c8 -15 9 -28 3 -33z m551 -606 c-30 -24 -59 -34 -68
-25 -11 10 36 41 66 43 l27 2 -25 -20z m-93 -46 c-3 -3 -12 -4 -19 -1 -8 3 -5
6 6 6 11 1 17 -2 13 -5z m14733 -44 c0 -5 -2 -10 -4 -10 -3 0 -8 5 -11 10 -3
6 -1 10 4 10 6 0 11 -4 11 -10z m-14890 -71 c0 -6 -4 -7 -10 -4 -5 3 -10 11
-10 16 0 6 5 7 10 4 6 -3 10 -11 10 -16z m12940 -4 c9 -11 10 -19 3 -26 -14
-14 -43 0 -43 22 0 23 23 25 40 4z m-12970 -19 c0 -3 -4 -8 -10 -11 -5 -3 -10
-1 -10 4 0 6 5 11 10 11 6 0 10 -2 10 -4z m14540 -336 c0 -5 -7 -10 -16 -10
-8 0 -12 5 -9 10 3 6 10 10 16 10 5 0 9 -4 9 -10z m-14512 -30 c39 0 71 -14
60 -26 -11 -10 -139 17 -132 28 3 5 13 7 21 4 8 -3 31 -6 51 -6z m185 -31 c38
-10 42 -15 29 -37 -7 -9 -19 -9 -58 4 -27 9 -55 18 -62 20 -22 7 -3 24 26 24
15 0 44 -5 65 -11z m248 -92 c-13 -13 -41 -1 -41 17 0 13 4 14 25 4 16 -7 22
-15 16 -21z m-131 -118 c0 -5 -9 -9 -20 -9 -19 0 -27 20 -13 33 7 8 33 -11 33
-24z m13485 10 c0 -7 -8 -15 -17 -17 -18 -3 -25 18 -11 32 10 10 28 1 28 -15z
m-8725 -66 c0 -13 5 -33 11 -44 5 -11 9 -28 6 -37 -4 -19 -34 43 -44 91 -5 22
-3 26 11 21 9 -3 16 -17 16 -31z m8130 -23 c0 -5 -7 -10 -15 -10 -8 0 -15 5
-15 10 0 6 7 10 15 10 8 0 15 -4 15 -10z m-13070 -32 c0 -12 -1 -19 -3 -17 -1
2 -9 12 -16 22 -12 14 -11 17 3 17 10 0 16 -8 16 -22z m13030 12 c0 -5 -2 -10
-4 -10 -3 0 -8 5 -11 10 -3 6 -1 10 4 10 6 0 11 -4 11 -10z m-585 -20 c-3 -5
-12 -10 -18 -10 -7 0 -6 4 3 10 19 12 23 12 15 0z m-7431 -56 c3 -8 2 -12 -4
-9 -6 3 -10 10 -10 16 0 14 7 11 14 -7z m-896 -3 c8 -5 12 -17 10 -27 -4 -24
-53 -32 -61 -10 -14 36 18 59 51 37z m9862 -1 c0 -5 -4 -10 -9 -10 -6 0 -13 5
-16 10 -3 6 1 10 9 10 9 0 16 -4 16 -10z m-10190 -80 c0 -5 -4 -10 -10 -10 -5
0 -10 5 -10 10 0 6 5 10 10 10 6 0 10 -4 10 -10z m9944 -35 c3 -9 -1 -18 -10
-22 -19 -7 -39 11 -30 26 10 16 33 13 40 -4z m-8405 -73 c-124 -116 -176 -159
-238 -201 -33 -23 -63 -46 -66 -52 -10 -16 -33 21 -31 51 1 14 12 41 24 61 29
47 129 122 153 116 10 -3 17 0 16 5 -1 6 4 13 12 16 8 2 11 0 7 -6 -10 -16 30
-3 113 39 42 21 78 38 80 38 1 1 -30 -30 -70 -67z m-5207 6 c-7 -7 -12 -8 -12
-2 0 14 12 26 19 19 2 -3 -1 -11 -7 -17z m3838 2 c0 -5 -4 -10 -10 -10 -5 0
-10 5 -10 10 0 6 5 10 10 10 6 0 10 -4 10 -10z m5018 -35 c-3 -3 -9 2 -12 12
-6 14 -5 15 5 6 7 -7 10 -15 7 -18z m1162 4 c0 -6 -4 -7 -10 -4 -5 3 -10 11
-10 16 0 6 5 7 10 4 6 -3 10 -11 10 -16z m-10020 1 c0 -5 -2 -10 -4 -10 -3 0
-8 5 -11 10 -3 6 -1 10 4 10 6 0 11 -4 11 -10z m13530 -16 c0 -17 -22 -14 -28
4 -2 7 3 12 12 12 9 0 16 -7 16 -16z m-11254 -5 c3 -6 1 -22 -7 -35 -14 -27
-29 -16 -29 24 0 23 24 31 36 11z m-2316 -9 c0 -5 6 -10 13 -10 17 0 49 -34
41 -43 -3 -3 -14 -1 -23 5 -13 8 -27 5 -59 -11 -51 -26 -58 -26 -65 -2 -7 29
24 54 57 45 21 -5 25 -3 20 10 -3 9 -1 16 5 16 6 0 11 -4 11 -10z m4000 -55
c0 -8 -4 -15 -10 -15 -5 0 -10 7 -10 15 0 8 5 15 10 15 6 0 10 -7 10 -15z
m-752 -6 c-2 -6 -8 -10 -13 -10 -5 0 -11 4 -13 10 -2 6 4 11 13 11 9 0 15 -5
13 -11z m6835 -24 c-3 -8 -14 -15 -26 -15 -19 0 -19 1 -2 20 19 21 37 18 28
-5z m-5945 -8 c3 -12 -4 -20 -17 -24 -24 -6 -26 -14 -9 -31 9 -9 8 -12 -5 -12
-10 0 -17 -8 -17 -20 0 -16 7 -20 34 -20 19 0 38 -4 41 -10 3 -5 13 -10 20
-10 20 0 129 -49 123 -55 -2 -3 -28 2 -57 11 -29 8 -58 13 -64 11 -7 -2 -18 3
-26 11 -9 8 -27 12 -48 10 -18 -2 -33 0 -33 4 0 4 -8 8 -18 8 -10 0 -42 6 -72
14 -45 12 -58 12 -70 2 -20 -18 -40 -9 -40 16 0 20 4 20 93 13 l94 -7 -2 30
c-1 23 2 29 13 25 11 -5 13 -1 8 15 -4 12 -4 27 -1 32 11 17 49 7 53 -13z
m5614 -2 c-3 -16 -11 -25 -23 -25 -25 0 -24 15 3 34 12 9 23 16 24 16 1 0 -1
-11 -4 -25z m-9862 5 c0 -5 -4 -10 -10 -10 -5 0 -10 5 -10 10 0 6 5 10 10 10
6 0 10 -4 10 -10z m5810 -9 c0 -5 -7 -11 -15 -15 -9 -3 -15 0 -15 9 0 8 7 15
15 15 8 0 15 -4 15 -9z m3145 -6 c24 -12 25 -13 5 -8 -14 4 -43 10 -65 14
l-40 6 35 1 c19 1 49 -5 65 -13z m-8865 -40 c22 -14 40 -30 40 -36 0 -6 -12
-1 -26 10 -15 12 -32 21 -39 21 -7 0 -15 7 -19 15 -7 20 -2 19 44 -10z m703
10 c4 -8 2 -17 -3 -20 -6 -4 -10 3 -10 14 0 25 6 27 13 6z m8257 -1 c0 -16 31
-34 57 -34 11 0 27 -6 37 -13 15 -11 12 -13 -26 -11 -24 1 -50 5 -58 8 -8 3
-46 10 -84 15 -90 13 -98 24 -13 19 70 -3 82 2 45 19 -21 10 -21 11 10 10 19
0 32 -5 32 -13z m4640 2 c0 -3 -4 -8 -10 -11 -5 -3 -10 -1 -10 4 0 6 5 11 10
11 6 0 10 -2 10 -4z m-305 -16 c-3 -5 -14 -10 -23 -10 -15 0 -15 2 -2 10 20
13 33 13 25 0z m205 0 c0 -5 -10 -10 -22 -9 -22 0 -22 1 -3 9 11 5 21 9 23 9
1 1 2 -3 2 -9z m-11159 -37 c-9 -16 -10 -14 -11 12 0 21 3 26 11 18 8 -8 8
-16 0 -30z m9590 14 c-13 -13 -26 -3 -16 12 3 6 11 8 17 5 6 -4 6 -10 -1 -17z
m-11390 -14 c-8 -15 -10 -15 -11 -2 0 17 10 32 18 25 2 -3 -1 -13 -7 -23z
m3249 -7 c0 -7 -5 -27 -11 -43 -8 -24 -15 -30 -30 -26 -22 6 -26 33 -4 33 8 0
14 3 13 8 -2 12 14 42 23 42 5 0 9 -6 9 -14z m7301 -3 c13 -16 12 -17 -3 -4
-10 7 -18 15 -18 17 0 8 8 3 21 -13z m-1951 -15 c10 -6 7 -7 -10 -2 -14 3 -32
11 -40 16 -10 6 -7 7 10 2 14 -3 32 -11 40 -16z m3709 -4 c-6 -8 -17 -14 -23
-13 -7 0 -6 2 2 6 6 2 12 11 12 19 0 9 5 12 10 9 8 -5 7 -11 -1 -21z m-12249
-4 c0 -21 -15 -27 -25 -10 -7 12 2 30 16 30 5 0 9 -9 9 -20z m2306 4 c16 -13
16 -15 2 -10 -12 3 -18 0 -18 -9 0 -8 -5 -15 -11 -15 -5 0 -7 5 -4 10 3 6 -3
10 -14 10 -21 0 -27 11 -14 23 11 12 38 8 59 -9z m2260 3 c14 -14 -2 -14 -81
-1 l-80 13 77 -2 c42 -1 80 -6 84 -10z m2126 -19 c-7 -7 -12 -8 -12 -2 0 14
12 26 19 19 2 -3 -1 -11 -7 -17z m-2087 2 c3 -5 -1 -10 -10 -10 -9 0 -13 5
-10 10 3 6 8 10 10 10 2 0 7 -4 10 -10z m-4688 -22 c-3 -8 -6 -5 -6 6 -1 11 2
17 5 13 3 -3 4 -12 1 -19z m6183 2 c0 -5 -7 -10 -16 -10 -8 0 -12 5 -9 10 3 6
10 10 16 10 5 0 9 -4 9 -10z m6140 6 c0 -3 -4 -8 -10 -11 -5 -3 -10 -1 -10 4
0 6 5 11 10 11 6 0 10 -2 10 -4z m-10445 -23 c3 -10 1 -19 -4 -21 -12 -4 -15
-23 -3 -21 24 4 32 -4 32 -32 0 -27 -2 -30 -16 -19 -20 17 -46 80 -40 97 7 18
23 16 31 -4z m1405 7 c0 -5 -5 -10 -11 -10 -5 0 -7 5 -4 10 3 6 8 10 11 10 2
0 4 -4 4 -10z m777 -20 c-1 -21 -21 -27 -32 -10 -8 13 3 30 20 30 8 0 13 -9
12 -20z m2697 4 c3 -8 2 -12 -4 -9 -6 3 -10 10 -10 16 0 14 7 11 14 -7z
m-4794 -4 c0 -5 -5 -10 -11 -10 -5 0 -7 5 -4 10 3 6 8 10 11 10 2 0 4 -4 4
-10z m1444 -5 c-6 -16 -24 -21 -24 -7 0 11 11 22 21 22 5 0 6 -7 3 -15z m3813
-7 c-3 -8 -6 -5 -6 6 -1 11 2 17 5 13 3 -3 4 -12 1 -19z m5110 16 c-3 -3 -12
-4 -19 -1 -8 3 -5 6 6 6 11 1 17 -2 13 -5z m-9266 -12 c10 -4 14 -13 10 -24
-5 -14 -9 -13 -24 8 -18 24 -15 28 14 16z m2189 -2 c0 -5 -6 -10 -14 -10 -8 0
-23 -3 -33 -7 -16 -6 -16 -5 -4 10 15 18 51 23 51 7z m262 -20 c-2 -18 -10
-30 -19 -30 -21 0 -1 55 23 60 0 0 -1 -13 -4 -30z m-143 -16 c-9 -11 -14 -12
-20 -3 -4 8 -1 18 9 25 21 15 29 -1 11 -22z m1537 8 c-18 -16 -18 -16 -6 6 6
13 14 21 18 18 3 -4 -2 -14 -12 -24z m-5878 4 c-2 -1 -13 -10 -25 -20 -22 -18
-22 -18 -10 7 6 14 17 22 25 20 7 -3 12 -6 10 -7z m197 4 c3 -5 1 -10 -4 -10
-6 0 -11 5 -11 10 0 6 2 10 4 10 3 0 8 -4 11 -10z m921 -1 c3 -6 0 -15 -7 -20
-14 -8 -32 9 -23 23 7 11 22 10 30 -3z m3167 -35 c-8 -23 -30 -16 -27 9 1 12
3 24 3 26 1 2 7 -2 15 -9 8 -6 12 -18 9 -26z m6865 18 c2 -6 -6 -10 -16 -9
-12 1 -18 6 -15 14 6 16 25 13 31 -5z m-10823 -22 c3 -6 -1 -7 -9 -4 -18 7
-21 14 -7 14 6 0 13 -4 16 -10z m1675 -10 c0 -5 -7 -7 -15 -4 -8 4 -15 8 -15
10 0 2 7 4 15 4 8 0 15 -4 15 -10z m6980 -44 c0 -3 -4 -8 -10 -11 -5 -3 -10
-1 -10 4 0 6 5 11 10 11 6 0 10 -2 10 -4z m-7390 -316 c0 -5 -5 -10 -11 -10
-5 0 -7 5 -4 10 3 6 8 10 11 10 2 0 4 -4 4 -10z"/>
<path d="M14297 9203 c-4 -3 -7 -11 -7 -17 0 -6 5 -5 12 2 6 6 9 14 7 17 -3 3
-9 2 -12 -2z"/>
<path d="M4773 9128 c-6 -7 -13 -25 -17 -40 -5 -21 -3 -28 9 -28 20 0 145 62
145 72 0 13 -127 9 -137 -4z"/>
<path d="M7057 9119 c8 -8 16 -8 30 0 16 9 14 10 -11 11 -22 0 -27 -3 -19 -11z"/>
<path d="M2405 9082 c-38 -20 -70 -50 -62 -58 7 -8 43 14 83 51 30 28 24 31
-21 7z"/>
<path d="M12516 9025 c-8 -23 -9 -22 15 -28 16 -4 20 -1 17 15 -4 27 -23 34
-32 13z"/>
<path d="M1295 9010 c3 -5 8 -10 11 -10 2 0 4 5 4 10 0 6 -5 10 -11 10 -5 0
-7 -4 -4 -10z"/>
<path d="M1582 8966 c1 -10 8 -17 13 -17 15 1 12 24 -3 29 -9 3 -13 -2 -10
-12z"/>
<path d="M14585 8955 c-22 -13 -48 -24 -57 -24 -9 -1 -20 -6 -24 -13 -9 -14
53 -68 78 -68 9 0 20 -4 23 -10 11 -17 83 -11 120 10 20 11 44 19 53 18 15 -3
18 6 13 41 -3 22 -60 22 -101 1 -67 -34 -84 -19 -20 18 45 26 49 31 24 26 -21
-4 -34 -1 -43 10 -16 19 -16 19 -66 -9z"/>
<path d="M1183 8963 c9 -2 23 -2 30 0 6 3 -1 5 -18 5 -16 0 -22 -2 -12 -5z"/>
<path d="M14775 8950 c3 -5 10 -10 16 -10 5 0 9 5 9 10 0 6 -7 10 -16 10 -8 0
-12 -4 -9 -10z"/>
<path d="M1186 8935 c4 -8 14 -15 23 -15 21 1 80 28 63 29 -7 1 -22 -4 -33 -9
-13 -7 -19 -7 -19 0 0 5 -9 10 -20 10 -13 0 -18 -5 -14 -15z"/>
<path d="M1252 8908 c-16 -16 -15 -29 2 -22 16 6 30 34 18 34 -5 0 -13 -5 -20
-12z"/>
<path d="M15050 8840 c0 -21 23 -18 47 5 9 9 4 12 -18 13 -22 0 -29 -4 -29
-18z"/>
<path d="M14995 8660 c-3 -5 -1 -10 4 -10 6 0 11 5 11 10 0 6 -2 10 -4 10 -3
0 -8 -4 -11 -10z"/>
<path d="M760 8642 c0 -5 7 -13 16 -16 10 -4 14 -1 12 6 -5 15 -28 23 -28 10z"/>
<path d="M15262 8528 c3 -7 13 -15 24 -17 16 -3 17 -1 5 13 -16 19 -34 21 -29
4z"/>
<path d="M15256 8492 c-3 -5 1 -9 9 -9 8 0 15 4 15 9 0 4 -4 8 -9 8 -6 0 -12
-4 -15 -8z"/>
<path d="M15200 8460 c0 -5 7 -7 15 -4 8 4 15 8 15 10 0 2 -7 4 -15 4 -8 0
-15 -4 -15 -10z"/>
<path d="M15430 8310 c0 -5 9 -10 20 -10 11 0 20 5 20 10 0 6 -9 10 -20 10
-11 0 -20 -4 -20 -10z"/>
<path d="M561 8236 c-48 -21 -88 -73 -95 -123 -3 -27 -2 -51 4 -57 7 -7 10 -3
10 11 0 17 8 22 45 27 25 4 45 10 45 14 0 4 10 12 22 17 34 15 48 50 35 85
-13 33 -33 41 -66 26z"/>
<path d="M670 7999 c0 -6 6 -9 14 -6 8 3 20 -1 27 -9 15 -18 22 -13 13 10 -7
18 -54 22 -54 5z"/>
<path d="M608 7443 c6 -2 12 -11 12 -19 0 -9 5 -12 10 -9 13 8 -6 35 -24 34
-7 0 -6 -2 2 -6z"/>
<path d="M15440 6311 c0 -5 6 -11 13 -13 17 -7 38 2 31 13 -7 12 -44 12 -44 0z"/>
<path d="M699 5583 c5 -10 23 -31 39 -46 22 -21 31 -25 35 -14 6 17 0 26 -37
55 -35 27 -50 29 -37 5z"/>
<path d="M15246 5008 c-47 -24 -41 -33 13 -18 29 7 39 15 35 25 -4 8 -7 15 -8
14 0 -1 -18 -10 -40 -21z"/>
<path d="M15095 4880 c3 -5 10 -10 16 -10 5 0 9 5 9 10 0 6 -7 10 -16 10 -8 0
-12 -4 -9 -10z"/>
<path d="M15086 4813 c-6 -14 -5 -15 5 -6 7 7 10 15 7 18 -3 3 -9 -2 -12 -12z"/>
<path d="M15332 4761 c-11 -7 -11 -9 1 -14 16 -6 27 0 27 15 0 10 -11 10 -28
-1z"/>
<path d="M15310 4589 c0 -7 -9 -9 -21 -6 -16 4 -18 3 -9 -9 9 -10 17 -11 31
-3 11 5 17 14 14 20 -8 12 -15 12 -15 -2z"/>
<path d="M15440 4430 c0 -5 5 -10 10 -10 6 0 10 5 10 10 0 6 -4 10 -10 10 -5
0 -10 -4 -10 -10z"/>
<path d="M15630 3780 c0 -5 5 -10 10 -10 6 0 10 5 10 10 0 6 -4 10 -10 10 -5
0 -10 -4 -10 -10z"/>
<path d="M15515 2930 c-3 -6 1 -13 10 -16 19 -8 30 0 20 15 -8 14 -22 14 -30
1z"/>
<path d="M15560 2900 c-6 -11 -8 -25 -5 -30 11 -18 31 -11 43 14 9 20 8 25 -4
30 -22 8 -22 8 -34 -14z"/>
<path d="M590 2800 c0 -5 7 -10 15 -10 8 0 15 5 15 10 0 6 -7 10 -15 10 -8 0
-15 -4 -15 -10z"/>
<path d="M15400 2281 c-6 -11 -6 -22 -1 -25 5 -3 12 -22 15 -42 9 -44 28 -40
40 9 8 30 6 40 -9 57 -23 25 -32 25 -45 1z"/>
<path d="M15327 2142 c-14 -15 -14 -19 -1 -37 12 -16 17 -17 23 -6 7 10 13 10
29 2 31 -16 52 -13 52 8 0 38 -76 63 -103 33z"/>
<path d="M15315 2067 c-4 -10 -5 -21 -1 -24 10 -10 18 4 13 24 -4 17 -4 17
-12 0z"/>
<path d="M15210 2025 c0 -20 5 -25 25 -25 30 0 34 25 6 40 -28 14 -31 13 -31
-15z"/>
<path d="M687 1946 c-14 -36 3 -76 32 -76 14 0 13 7 -8 54 -14 32 -19 36 -24
22z"/>
<path d="M700 1766 c0 -13 7 -27 16 -30 23 -9 26 -3 18 28 -8 33 -34 35 -34 2z"/>
<path d="M13632 1590 c-26 -35 -27 -40 -7 -40 20 0 51 48 38 61 -6 6 -17 -2
-31 -21z"/>
<path d="M13315 1570 c-3 -5 -3 -10 0 -10 3 0 -3 -10 -15 -22 -11 -12 -18 -23
-16 -26 8 -8 46 19 46 33 0 8 5 15 10 15 6 0 10 5 10 10 0 6 -6 10 -14 10 -8
0 -18 -4 -21 -10z"/>
<path d="M13105 1530 c-3 -5 -1 -10 4 -10 6 0 11 5 11 10 0 6 -2 10 -4 10 -3
0 -8 -4 -11 -10z"/>
<path d="M13448 1503 c6 -2 18 -2 25 0 6 3 1 5 -13 5 -14 0 -19 -2 -12 -5z"/>
<path d="M834 1491 c7 -11 -18 -33 -27 -24 -4 3 -8 1 -8 -5 -2 -16 -4 -24 -14
-45 -4 -11 -3 -23 3 -29 16 -16 62 6 63 29 0 10 3 13 6 6 7 -18 53 14 46 33
-3 8 -9 11 -14 9 -5 -3 -16 3 -26 15 -17 20 -39 29 -29 11z m-14 -95 c-14 -14
-22 -2 -14 18 5 14 9 15 15 4 4 -7 4 -17 -1 -22z"/>
<path d="M10020 1490 c0 -5 11 -10 24 -10 14 0 28 5 31 10 4 6 -7 10 -24 10
-17 0 -31 -4 -31 -10z"/>
<path d="M13435 1480 c25 -6 26 -8 7 -9 -17 -1 -22 -6 -20 -18 5 -25 52 -24
56 1 5 22 -14 36 -48 35 -23 -1 -23 -2 5 -9z"/>
<path d="M10098 1458 c-15 -11 -15 -16 -4 -31 13 -17 15 -17 52 0 59 26 59 28
4 38 -23 4 -41 1 -52 -7z"/>
<path d="M6330 1451 c0 -5 -2 -16 -5 -24 -4 -9 8 -19 37 -30 60 -23 88 -22 88
3 0 15 -13 26 -46 40 -50 22 -74 25 -74 11z"/>
<path d="M10338 1453 c-10 -2 -18 -8 -18 -12 0 -10 79 -61 95 -61 13 0 25 21
25 45 0 12 -62 38 -80 34 -3 -1 -13 -3 -22 -6z"/>
<path d="M7652 1439 c2 -6 8 -10 13 -10 5 0 11 4 13 10 2 6 -4 11 -13 11 -9 0
-15 -5 -13 -11z"/>
<path d="M12602 1418 c-13 -13 -16 -38 -4 -38 4 0 25 12 47 25 l40 25 -35 0
c-20 0 -41 -5 -48 -12z"/>
<path d="M13870 1416 c0 -8 5 -18 10 -21 6 -3 10 1 10 9 0 8 -4 18 -10 21 -5
3 -10 -1 -10 -9z"/>
<path d="M7710 1410 c0 -5 5 -10 11 -10 5 0 7 5 4 10 -3 6 -8 10 -11 10 -2 0
-4 -4 -4 -10z"/>
<path d="M10213 1413 c-38 -7 -15 -33 31 -34 22 -1 31 -4 19 -6 -13 -2 -23 -9
-23 -14 0 -13 72 -8 83 6 6 7 10 6 14 -2 2 -7 19 -13 36 -13 20 0 28 3 21 10
-12 12 -134 60 -148 59 -6 -1 -21 -4 -33 -6z"/>
<path d="M5185 1393 c-33 -8 -67 -21 -75 -29 -19 -18 -6 -18 69 0 31 8 65 14
76 13 62 -2 95 4 95 18 0 19 -81 19 -165 -2z"/>
<path d="M12519 1380 c-28 -23 -5 -28 25 -5 10 8 23 12 27 9 5 -3 9 0 9 5 0
18 -36 12 -61 -9z"/>
<path d="M12140 1378 c1 -14 24 -48 33 -48 3 0 2 12 -2 27 -7 28 -31 45 -31
21z"/>
<path d="M5078 1373 c7 -3 16 -2 19 1 4 3 -2 6 -13 5 -11 0 -14 -3 -6 -6z"/>
<path d="M6510 1360 c0 -5 5 -10 10 -10 6 0 10 5 10 10 0 6 -4 10 -10 10 -5 0
-10 -4 -10 -10z"/>
<path d="M13650 1355 c-8 -9 -8 -15 -2 -15 12 0 26 19 19 26 -2 2 -10 -2 -17
-11z"/>
<path d="M7675 1333 c4 -21 3 -33 -4 -33 -6 0 -11 6 -12 13 0 6 -4 2 -9 -11
-7 -16 -5 -28 7 -42 10 -11 21 -20 25 -20 12 0 9 93 -3 110 -8 11 -9 7 -4 -17z"/>
<path d="M7228 1343 c6 -2 18 -2 25 0 6 3 1 5 -13 5 -14 0 -19 -2 -12 -5z"/>
<path d="M10190 1340 c0 -5 5 -10 10 -10 6 0 10 5 10 10 0 6 -4 10 -10 10 -5
0 -10 -4 -10 -10z"/>
<path d="M10318 1333 c12 -2 32 -2 45 0 12 2 2 4 -23 4 -25 0 -35 -2 -22 -4z"/>
<path d="M10360 1300 c0 -6 7 -10 15 -10 8 0 15 2 15 4 0 2 -7 6 -15 10 -8 3
-15 1 -15 -4z"/>
</g>
</svg>
