<?xml version="1.0" standalone="no"?>
<!DOCTYPE svg PUBLIC "-//W3C//DTD SVG 20010904//EN"
 "http://www.w3.org/TR/2001/REC-SVG-20010904/DTD/svg10.dtd">
<svg version="1.0" xmlns="http://www.w3.org/2000/svg"
 width="1922.000000pt" height="219.000000pt" viewBox="0 0 1922.000000 219.000000"
 preserveAspectRatio="xMidYMid meet">

<g transform="translate(0.000000,219.000000) scale(0.100000,-0.100000)"
fill="#000000" stroke="none">
<path d="M251 2160 c-1 -8 -23 -370 -50 -803 -27 -433 -51 -791 -55 -794 -3
-4 -6 68 -7 158 -1 90 -4 202 -8 249 -9 114 -10 107 -71 -460 -28 -256 -52
-475 -54 -487 l-3 -23 9607 0 9608 0 -29 78 c-27 74 -29 93 -53 487 -28 446
-36 548 -42 542 -4 -3 -27 -193 -91 -726 -3 -31 -9 -48 -13 -40 -4 8 -38 140
-75 294 -59 248 -75 306 -75 282 0 -11 -161 -762 -164 -765 -2 -1 -58 249
-126 555 -67 307 -129 590 -138 628 -15 68 -16 69 -23 35 -4 -19 -17 -133 -30
-252 -13 -120 -26 -218 -29 -218 -4 0 -35 95 -70 210 -35 116 -65 209 -67 207
-1 -2 -8 -168 -13 -368 -6 -200 -13 -420 -17 -489 l-6 -125 -38 253 c-21 140
-40 256 -42 259 -3 2 -49 -59 -104 -137 -115 -166 -102 -174 -133 89 -11 96
-22 176 -23 177 -1 2 -77 -168 -167 -376 -91 -209 -168 -380 -171 -380 -3 0
-13 42 -23 93 -79 419 -90 471 -96 447 -4 -14 -22 -116 -41 -228 -18 -111 -37
-202 -40 -202 -4 0 -51 85 -105 189 -54 104 -100 188 -101 187 -1 -1 -7 -90
-13 -197 -6 -107 -13 -223 -16 -259 l-6 -65 -113 428 c-63 236 -116 431 -119
434 -3 3 -10 -5 -15 -18 -23 -62 -105 -257 -116 -279 -10 -19 -15 -21 -18 -10
-3 8 -22 132 -42 275 -20 143 -39 262 -41 264 -2 2 -4 0 -4 -5 0 -22 -74 -483
-77 -480 -2 2 -32 137 -67 300 -36 164 -67 301 -71 304 -7 7 1 -526 10 -713 7
-120 -2 -111 -40 43 -15 62 -29 111 -31 109 -4 -4 -94 -555 -94 -576 0 -42
-16 33 -90 434 -44 242 -82 441 -84 442 -5 5 -10 -35 -62 -459 -27 -219 -51
-398 -54 -398 -3 0 -39 127 -79 282 -80 303 -75 294 -102 163 l-12 -60 -48
370 c-26 204 -48 374 -48 379 -1 5 -3 7 -6 4 -3 -3 -19 -274 -34 -602 -16
-328 -30 -599 -33 -601 -2 -2 -50 208 -107 468 -123 564 -113 519 -117 514 -2
-2 -26 -158 -54 -348 -27 -189 -51 -351 -53 -359 -1 -8 -20 73 -42 180 -47
232 -42 244 -76 -207 -13 -172 -24 -311 -26 -310 -1 2 -21 90 -43 197 -22 107
-42 195 -44 197 -5 5 -14 -61 -22 -160 -4 -48 -8 -86 -10 -84 -2 1 -30 164
-63 361 -33 197 -63 361 -66 365 -7 6 0 -413 10 -699 l5 -135 -107 266 c-60
147 -112 267 -118 268 -5 0 -93 -136 -195 -304 -102 -167 -188 -299 -191 -292
-3 7 -57 233 -120 504 -62 271 -115 491 -116 489 -2 -1 -12 -207 -23 -456 -11
-249 -22 -455 -24 -457 -2 -2 -23 31 -46 74 -183 335 -223 404 -230 392 -4 -8
-26 -84 -50 -169 -24 -85 -46 -158 -49 -162 -4 -4 -40 227 -80 515 -40 287
-76 535 -80 551 -5 23 -46 -112 -180 -600 -95 -346 -174 -630 -175 -631 -2 -2
-34 112 -71 254 -38 141 -71 250 -73 243 -3 -8 -33 -147 -67 -309 l-61 -295
-33 82 c-18 45 -35 82 -37 82 -2 0 -13 -19 -25 -42 -12 -24 -24 -38 -25 -33
-2 6 -65 269 -140 585 -74 316 -137 576 -139 578 -1 1 -24 -109 -50 -245 -26
-136 -58 -297 -70 -358 -25 -126 -18 -131 -88 54 l-44 115 -10 -45 c-6 -24
-33 -134 -59 -243 -31 -131 -50 -193 -54 -180 -4 10 -49 185 -101 388 -73 289
-95 363 -100 340 -4 -16 -35 -228 -70 -472 -35 -243 -66 -437 -70 -430 -3 7
-62 229 -129 493 -67 264 -123 481 -124 483 -5 5 -14 -90 -47 -525 -19 -238
-37 -433 -41 -433 -5 0 -8 10 -9 23 0 12 -6 45 -13 72 l-12 50 -19 -103 c-10
-56 -21 -102 -25 -102 -4 0 -60 109 -124 242 -82 168 -120 238 -126 228 -6
-11 -153 -430 -182 -519 -2 -9 -52 51 -122 148 -65 89 -120 160 -123 158 -2
-3 -13 -58 -24 -123 -11 -65 -22 -120 -23 -121 -2 -2 -24 151 -51 339 -26 189
-50 356 -54 372 -5 23 -31 -59 -121 -382 -91 -324 -117 -406 -122 -384 -7 25
-108 760 -108 784 0 6 -2 9 -4 7 -3 -2 -16 -128 -30 -279 -15 -151 -29 -290
-32 -309 -5 -30 -6 -31 -18 -15 -13 16 -15 16 -29 -11 l-15 -30 -9 45 -9 45
-14 -50 c-13 -49 -13 -49 -20 -20 l-8 30 -1 -32 c-2 -49 -17 -47 -39 5 -50
115 -124 264 -129 259 -3 -3 -20 -70 -37 -149 l-33 -143 -6 100 c-4 55 -10
215 -13 355 -4 151 -10 245 -15 230 -5 -14 -36 -180 -69 -370 -34 -190 -63
-349 -64 -355 -2 -5 -7 -1 -12 10 -4 11 -10 22 -14 25 -3 3 -19 167 -34 365
-34 451 -39 485 -47 350 -4 -55 -8 -185 -9 -290 -1 -104 -5 -252 -9 -328 l-6
-138 -49 113 c-27 62 -52 117 -57 122 -4 4 -26 -52 -49 -125 l-43 -134 -68
435 c-37 239 -75 487 -85 550 -22 142 -15 180 -90 -487 -32 -288 -61 -523 -65
-523 -3 0 -28 71 -55 157 -46 147 -49 154 -57 122 -5 -19 -12 -45 -16 -59 -5
-17 -18 39 -40 180 -42 262 -53 322 -56 318 -2 -2 -40 -163 -85 -358 -44 -195
-84 -364 -89 -375 -5 -13 -13 18 -26 100 -10 66 -21 129 -25 140 -6 16 -22 -9
-75 -120 -37 -77 -69 -135 -71 -130 -1 6 -35 161 -74 345 -39 184 -75 344 -80
355 -12 29 -12 -2 9 -345 10 -162 17 -296 16 -298 -1 -1 -37 90 -80 203 -44
112 -80 203 -81 202 -1 -1 -23 -101 -48 -221 -26 -121 -48 -221 -49 -223 -2
-1 -32 195 -67 437 -35 242 -66 440 -70 440 -3 0 -20 -183 -38 -407 -18 -225
-36 -421 -39 -438 -6 -29 -7 -28 -24 24 -11 30 -21 56 -23 58 -2 2 -16 -28
-32 -67 -15 -39 -30 -67 -34 -63 -4 4 -22 134 -39 288 -35 301 -42 357 -47
353 -1 -2 -35 -151 -75 -331 -40 -180 -74 -325 -77 -322 -3 3 -17 42 -32 88
l-26 82 -19 -97 c-10 -54 -20 -96 -22 -95 -1 2 -34 208 -73 458 -39 250 -72
459 -74 464 -3 6 -5 1 -6 -10 -2 -33 -108 -871 -109 -863 -3 24 -83 394 -86
396 -1 2 -25 -86 -51 -194 -44 -178 -50 -193 -56 -158 -4 21 -17 198 -28 393
-11 195 -22 356 -24 358 -1 2 -27 -143 -57 -322 -29 -179 -56 -325 -60 -325
-3 0 -14 18 -24 40 -10 23 -22 43 -26 46 -5 3 -17 -13 -28 -35 -12 -22 -25
-42 -29 -45 -5 -3 -22 43 -38 102 l-28 107 -7 -46 c-4 -25 -10 -99 -14 -165
-4 -65 -10 -125 -14 -132 -4 -7 -58 196 -121 450 -89 365 -115 457 -121 433
-4 -16 -38 -243 -75 -503 -37 -260 -71 -467 -75 -460 -4 7 -35 123 -70 258
-51 196 -64 238 -70 215 -4 -17 -20 -111 -35 -210 -15 -99 -29 -173 -31 -165
-2 8 -23 167 -48 354 -24 186 -47 341 -51 345 -3 3 -4 -123 -2 -281 2 -158 3
-287 2 -285 -1 1 -14 117 -28 257 -14 140 -29 275 -32 300 l-7 45 -7 -35 c-4
-19 -20 -180 -36 -357 -15 -178 -29 -322 -30 -320 -1 1 -10 67 -19 147 -9 80
-18 146 -19 148 -2 1 -8 -38 -15 -88 -6 -49 -16 -132 -23 -182 l-12 -93 -8 75
c-4 41 -9 79 -11 85 -2 5 -15 -35 -29 -90 l-26 -100 -2 80 -2 80 -23 -90 c-12
-50 -23 -79 -24 -65 -4 79 -42 544 -44 547 -2 2 -20 -61 -41 -139 -20 -79 -42
-160 -47 -182 -6 -21 -12 -36 -14 -34 -2 2 -45 179 -95 393 -80 338 -100 419
-100 393 0 -6 -84 -789 -92 -863 -3 -21 -8 -7 -17 45 -23 136 -19 134 -88 29
-39 -58 -64 -88 -67 -79 -3 8 -24 114 -46 235 -37 194 -50 253 -50 218 0 -21
-71 -517 -75 -521 -3 -3 -13 40 -36 158 l-12 64 -22 -64 -22 -65 -7 35 c-3 19
-17 176 -31 349 -13 173 -26 316 -28 318 -3 2 -14 -43 -26 -99 -68 -330 -109
-522 -110 -518 -1 3 -8 171 -16 374 -8 203 -16 371 -19 373 -6 7 -10 -20 -69
-552 l-53 -470 -17 90 c-9 50 -24 133 -33 185 -20 110 -22 107 -49 -83 -10
-70 -20 -125 -22 -124 -2 2 -24 98 -49 213 -25 115 -47 210 -48 212 -2 2 -19
-58 -37 -134 -36 -147 -45 -150 -49 -19 -1 39 -5 93 -8 120 l-7 50 -34 -123
c-19 -68 -37 -125 -41 -127 -3 -2 -23 132 -45 298 -21 166 -41 313 -45 327 -9
34 -17 -72 -31 -420 -12 -308 -21 -381 -33 -268 -4 37 -11 80 -15 95 -7 25
-10 19 -26 -47 l-19 -75 -26 165 c-15 91 -42 259 -61 375 -38 241 -34 247 -70
-95 -24 -238 -26 -241 -50 -75 -7 50 -15 81 -17 70 -2 -10 -21 -118 -41 -240
l-37 -220 -33 125 c-18 69 -38 145 -45 170 l-12 45 -16 -75 -16 -75 -2 155
c-2 85 -5 224 -9 309 l-6 154 -104 -329 c-58 -181 -108 -335 -111 -342 -4 -8
-17 26 -31 75 l-24 88 -19 -67 c-11 -38 -22 -68 -26 -68 -3 0 -25 197 -48 438
-24 240 -46 453 -49 472 l-7 35 -7 -34 c-4 -19 -10 -79 -14 -135 -9 -120 -23
-169 -25 -86 l-1 55 -18 -45 c-10 -25 -44 -118 -76 -207 -31 -90 -60 -161 -64
-159 -4 3 -36 68 -71 146 -77 168 -69 184 -96 -178 -17 -237 -33 -296 -35
-137 l-1 80 -41 -200 c-45 -217 -42 -214 -61 -52 -4 32 -9 57 -11 55 -2 -1
-15 -84 -29 -182 -14 -99 -28 -181 -30 -183 -2 -2 -7 45 -11 104 -4 59 -10
126 -14 148 -7 39 -8 37 -26 -53 -12 -57 -22 -86 -26 -75 -3 10 -10 92 -14
183 -4 91 -10 192 -14 225 l-7 60 -18 -88 c-11 -48 -21 -85 -23 -83 -2 2 -10
169 -18 371 -8 203 -16 370 -18 371 -2 2 -19 -40 -38 -93 l-34 -97 -6 60 c-4
32 -8 104 -9 159 -1 55 -5 127 -9 160 l-7 60 -7 -40 c-4 -22 -39 -317 -77
-655 -39 -338 -72 -619 -74 -625 -1 -5 -6 24 -10 65 -4 41 -10 95 -13 120 l-6
45 -33 -100 c-18 -55 -33 -98 -34 -95 0 3 -7 140 -15 304 -8 165 -17 301 -19
303 -2 3 -46 -57 -97 -131 -51 -75 -96 -133 -99 -129 -4 5 -44 256 -89 558
-86 571 -91 599 -98 592 -2 -3 -17 -305 -32 -671 -16 -367 -30 -669 -32 -671
-3 -2 -26 120 -53 271 -27 151 -51 273 -52 271 -2 -2 -17 -176 -34 -388 -17
-211 -32 -388 -33 -393 -2 -5 -27 94 -57 220 -29 126 -56 235 -60 243 -4 8
-28 -39 -60 -120 l-53 -132 -173 889 c-96 489 -175 896 -178 904 -3 13 -4 13
-5 0z"/>
</g>
</svg>
